solid flap.stl
facet normal -0.000650 -0.002981 0.000000
  outer loop
    vertex 1.134270 -0.147098 0.250000
    vertex 1.128307 -0.145799 0.250000
    vertex 1.128307 -0.145799 -0.250000
  endloop
endfacet
facet normal -0.000650 -0.002981 -0.000000
  outer loop
    vertex 1.134270 -0.147098 0.250000
    vertex 1.128307 -0.145799 -0.250000
    vertex 1.134270 -0.147098 -0.250000
  endloop
endfacet
facet normal -0.000139 -0.000166 0.000000
  outer loop
    vertex 1.128307 -0.145799 0.250000
    vertex 1.127975 -0.145521 0.250000
    vertex 1.127975 -0.145521 -0.250000
  endloop
endfacet
facet normal -0.000139 -0.000166 -0.000000
  outer loop
    vertex 1.128307 -0.145799 0.250000
    vertex 1.127975 -0.145521 -0.250000
    vertex 1.128307 -0.145799 -0.250000
  endloop
endfacet
facet normal -0.000104 -0.000190 0.000000
  outer loop
    vertex 1.127975 -0.145521 0.250000
    vertex 1.127595 -0.145313 0.250000
    vertex 1.127595 -0.145313 -0.250000
  endloop
endfacet
facet normal -0.000104 -0.000190 -0.000000
  outer loop
    vertex 1.127975 -0.145521 0.250000
    vertex 1.127595 -0.145313 -0.250000
    vertex 1.127975 -0.145521 -0.250000
  endloop
endfacet
facet normal -0.000126 -0.000192 0.000000
  outer loop
    vertex 1.127595 -0.145313 0.250000
    vertex 1.127210 -0.145061 0.250000
    vertex 1.127210 -0.145061 -0.250000
  endloop
endfacet
facet normal -0.000126 -0.000192 -0.000000
  outer loop
    vertex 1.127595 -0.145313 0.250000
    vertex 1.127210 -0.145061 -0.250000
    vertex 1.127595 -0.145313 -0.250000
  endloop
endfacet
facet normal -0.000157 -0.000193 0.000000
  outer loop
    vertex 1.127210 -0.145061 0.250000
    vertex 1.126825 -0.144746 0.250000
    vertex 1.126825 -0.144746 -0.250000
  endloop
endfacet
facet normal -0.000157 -0.000193 -0.000000
  outer loop
    vertex 1.127210 -0.145061 0.250000
    vertex 1.126825 -0.144746 -0.250000
    vertex 1.127210 -0.145061 -0.250000
  endloop
endfacet
facet normal -0.000176 -0.000203 0.000000
  outer loop
    vertex 1.126825 -0.144746 0.250000
    vertex 1.126419 -0.144394 0.250000
    vertex 1.126419 -0.144394 -0.250000
  endloop
endfacet
facet normal -0.000176 -0.000203 -0.000000
  outer loop
    vertex 1.126825 -0.144746 0.250000
    vertex 1.126419 -0.144394 -0.250000
    vertex 1.126825 -0.144746 -0.250000
  endloop
endfacet
facet normal -0.000181 -0.000224 0.000000
  outer loop
    vertex 1.126419 -0.144394 0.250000
    vertex 1.125971 -0.144031 0.250000
    vertex 1.125971 -0.144031 -0.250000
  endloop
endfacet
facet normal -0.000181 -0.000224 -0.000000
  outer loop
    vertex 1.126419 -0.144394 0.250000
    vertex 1.125971 -0.144031 -0.250000
    vertex 1.126419 -0.144394 -0.250000
  endloop
endfacet
facet normal -0.000197 -0.000238 0.000000
  outer loop
    vertex 1.125971 -0.144031 0.250000
    vertex 1.125494 -0.143636 0.250000
    vertex 1.125494 -0.143636 -0.250000
  endloop
endfacet
facet normal -0.000197 -0.000238 -0.000000
  outer loop
    vertex 1.125971 -0.144031 0.250000
    vertex 1.125494 -0.143636 -0.250000
    vertex 1.125971 -0.144031 -0.250000
  endloop
endfacet
facet normal -0.000219 -0.000251 0.000000
  outer loop
    vertex 1.125494 -0.143636 0.250000
    vertex 1.124991 -0.143199 0.250000
    vertex 1.124991 -0.143199 -0.250000
  endloop
endfacet
facet normal -0.000219 -0.000251 -0.000000
  outer loop
    vertex 1.125494 -0.143636 0.250000
    vertex 1.124991 -0.143199 -0.250000
    vertex 1.125494 -0.143636 -0.250000
  endloop
endfacet
facet normal -0.000236 -0.000270 0.000000
  outer loop
    vertex 1.124991 -0.143199 0.250000
    vertex 1.124452 -0.142726 0.250000
    vertex 1.124452 -0.142726 -0.250000
  endloop
endfacet
facet normal -0.000236 -0.000270 -0.000000
  outer loop
    vertex 1.124991 -0.143199 0.250000
    vertex 1.124452 -0.142726 -0.250000
    vertex 1.124991 -0.143199 -0.250000
  endloop
endfacet
facet normal -0.000255 -0.000289 0.000000
  outer loop
    vertex 1.124452 -0.142726 0.250000
    vertex 1.123873 -0.142217 0.250000
    vertex 1.123873 -0.142217 -0.250000
  endloop
endfacet
facet normal -0.000255 -0.000289 -0.000000
  outer loop
    vertex 1.124452 -0.142726 0.250000
    vertex 1.123873 -0.142217 -0.250000
    vertex 1.124452 -0.142726 -0.250000
  endloop
endfacet
facet normal -0.000272 -0.000313 0.000000
  outer loop
    vertex 1.123873 -0.142217 0.250000
    vertex 1.123248 -0.141673 0.250000
    vertex 1.123248 -0.141673 -0.250000
  endloop
endfacet
facet normal -0.000272 -0.000313 -0.000000
  outer loop
    vertex 1.123873 -0.142217 0.250000
    vertex 1.123248 -0.141673 -0.250000
    vertex 1.123873 -0.142217 -0.250000
  endloop
endfacet
facet normal -0.000292 -0.000337 0.000000
  outer loop
    vertex 1.123248 -0.141673 0.250000
    vertex 1.122574 -0.141089 0.250000
    vertex 1.122574 -0.141089 -0.250000
  endloop
endfacet
facet normal -0.000292 -0.000337 -0.000000
  outer loop
    vertex 1.123248 -0.141673 0.250000
    vertex 1.122574 -0.141089 -0.250000
    vertex 1.123248 -0.141673 -0.250000
  endloop
endfacet
facet normal -0.000313 -0.000363 0.000000
  outer loop
    vertex 1.122574 -0.141089 0.250000
    vertex 1.121847 -0.140464 0.250000
    vertex 1.121847 -0.140464 -0.250000
  endloop
endfacet
facet normal -0.000313 -0.000363 -0.000000
  outer loop
    vertex 1.122574 -0.141089 0.250000
    vertex 1.121847 -0.140464 -0.250000
    vertex 1.122574 -0.141089 -0.250000
  endloop
endfacet
facet normal -0.000335 -0.000392 0.000000
  outer loop
    vertex 1.121847 -0.140464 0.250000
    vertex 1.121064 -0.139793 0.250000
    vertex 1.121064 -0.139793 -0.250000
  endloop
endfacet
facet normal -0.000335 -0.000392 -0.000000
  outer loop
    vertex 1.121847 -0.140464 0.250000
    vertex 1.121064 -0.139793 -0.250000
    vertex 1.121847 -0.140464 -0.250000
  endloop
endfacet
facet normal -0.000360 -0.000422 0.000000
  outer loop
    vertex 1.121064 -0.139793 0.250000
    vertex 1.120220 -0.139073 0.250000
    vertex 1.120220 -0.139073 -0.250000
  endloop
endfacet
facet normal -0.000360 -0.000422 -0.000000
  outer loop
    vertex 1.121064 -0.139793 0.250000
    vertex 1.120220 -0.139073 -0.250000
    vertex 1.121064 -0.139793 -0.250000
  endloop
endfacet
facet normal -0.000386 -0.000454 0.000000
  outer loop
    vertex 1.120220 -0.139073 0.250000
    vertex 1.119311 -0.138301 0.250000
    vertex 1.119311 -0.138301 -0.250000
  endloop
endfacet
facet normal -0.000386 -0.000454 -0.000000
  outer loop
    vertex 1.120220 -0.139073 0.250000
    vertex 1.119311 -0.138301 -0.250000
    vertex 1.120220 -0.139073 -0.250000
  endloop
endfacet
facet normal -0.000413 -0.000491 0.000000
  outer loop
    vertex 1.119311 -0.138301 0.250000
    vertex 1.118329 -0.137474 0.250000
    vertex 1.118329 -0.137474 -0.250000
  endloop
endfacet
facet normal -0.000413 -0.000491 -0.000000
  outer loop
    vertex 1.119311 -0.138301 0.250000
    vertex 1.118329 -0.137474 -0.250000
    vertex 1.119311 -0.138301 -0.250000
  endloop
endfacet
facet normal -0.000442 -0.000530 0.000000
  outer loop
    vertex 1.118329 -0.137474 0.250000
    vertex 1.117270 -0.136590 0.250000
    vertex 1.117270 -0.136590 -0.250000
  endloop
endfacet
facet normal -0.000442 -0.000530 -0.000000
  outer loop
    vertex 1.118329 -0.137474 0.250000
    vertex 1.117270 -0.136590 -0.250000
    vertex 1.118329 -0.137474 -0.250000
  endloop
endfacet
facet normal -0.000473 -0.000571 0.000000
  outer loop
    vertex 1.117270 -0.136590 0.250000
    vertex 1.116127 -0.135643 0.250000
    vertex 1.116127 -0.135643 -0.250000
  endloop
endfacet
facet normal -0.000473 -0.000571 -0.000000
  outer loop
    vertex 1.117270 -0.136590 0.250000
    vertex 1.116127 -0.135643 -0.250000
    vertex 1.117270 -0.136590 -0.250000
  endloop
endfacet
facet normal -0.000506 -0.000616 0.000000
  outer loop
    vertex 1.116127 -0.135643 0.250000
    vertex 1.114894 -0.134631 0.250000
    vertex 1.114894 -0.134631 -0.250000
  endloop
endfacet
facet normal -0.000506 -0.000616 -0.000000
  outer loop
    vertex 1.116127 -0.135643 0.250000
    vertex 1.114894 -0.134631 -0.250000
    vertex 1.116127 -0.135643 -0.250000
  endloop
endfacet
facet normal -0.000541 -0.000666 0.000000
  outer loop
    vertex 1.114894 -0.134631 0.250000
    vertex 1.113562 -0.133548 0.250000
    vertex 1.113562 -0.133548 -0.250000
  endloop
endfacet
facet normal -0.000541 -0.000666 -0.000000
  outer loop
    vertex 1.114894 -0.134631 0.250000
    vertex 1.113562 -0.133548 -0.250000
    vertex 1.114894 -0.134631 -0.250000
  endloop
endfacet
facet normal -0.000578 -0.000721 0.000000
  outer loop
    vertex 1.113562 -0.133548 0.250000
    vertex 1.112121 -0.132393 0.250000
    vertex 1.112121 -0.132393 -0.250000
  endloop
endfacet
facet normal -0.000578 -0.000721 -0.000000
  outer loop
    vertex 1.113562 -0.133548 0.250000
    vertex 1.112121 -0.132393 -0.250000
    vertex 1.113562 -0.133548 -0.250000
  endloop
endfacet
facet normal -0.000616 -0.000778 0.000000
  outer loop
    vertex 1.112121 -0.132393 0.250000
    vertex 1.110565 -0.131160 0.250000
    vertex 1.110565 -0.131160 -0.250000
  endloop
endfacet
facet normal -0.000616 -0.000778 -0.000000
  outer loop
    vertex 1.112121 -0.132393 0.250000
    vertex 1.110565 -0.131160 -0.250000
    vertex 1.112121 -0.132393 -0.250000
  endloop
endfacet
facet normal -0.000659 -0.000840 0.000000
  outer loop
    vertex 1.110565 -0.131160 0.250000
    vertex 1.108884 -0.129843 0.250000
    vertex 1.108884 -0.129843 -0.250000
  endloop
endfacet
facet normal -0.000659 -0.000840 -0.000000
  outer loop
    vertex 1.110565 -0.131160 0.250000
    vertex 1.108884 -0.129843 -0.250000
    vertex 1.110565 -0.131160 -0.250000
  endloop
endfacet
facet normal -0.000704 -0.000907 0.000000
  outer loop
    vertex 1.108884 -0.129843 0.250000
    vertex 1.107070 -0.128434 0.250000
    vertex 1.107070 -0.128434 -0.250000
  endloop
endfacet
facet normal -0.000704 -0.000907 -0.000000
  outer loop
    vertex 1.108884 -0.129843 0.250000
    vertex 1.107070 -0.128434 -0.250000
    vertex 1.108884 -0.129843 -0.250000
  endloop
endfacet
facet normal -0.000753 -0.000979 0.000000
  outer loop
    vertex 1.107070 -0.128434 0.250000
    vertex 1.105112 -0.126928 0.250000
    vertex 1.105112 -0.126928 -0.250000
  endloop
endfacet
facet normal -0.000753 -0.000979 -0.000000
  outer loop
    vertex 1.107070 -0.128434 0.250000
    vertex 1.105112 -0.126928 -0.250000
    vertex 1.107070 -0.128434 -0.250000
  endloop
endfacet
facet normal -0.000805 -0.001056 0.000000
  outer loop
    vertex 1.105112 -0.126928 0.250000
    vertex 1.102999 -0.125318 0.250000
    vertex 1.102999 -0.125318 -0.250000
  endloop
endfacet
facet normal -0.000805 -0.001056 -0.000000
  outer loop
    vertex 1.105112 -0.126928 0.250000
    vertex 1.102999 -0.125318 -0.250000
    vertex 1.105112 -0.126928 -0.250000
  endloop
endfacet
facet normal -0.000859 -0.001141 0.000000
  outer loop
    vertex 1.102999 -0.125318 0.250000
    vertex 1.100716 -0.123600 0.250000
    vertex 1.100716 -0.123600 -0.250000
  endloop
endfacet
facet normal -0.000859 -0.001141 -0.000000
  outer loop
    vertex 1.102999 -0.125318 0.250000
    vertex 1.100716 -0.123600 -0.250000
    vertex 1.102999 -0.125318 -0.250000
  endloop
endfacet
facet normal -0.000917 -0.001233 0.000000
  outer loop
    vertex 1.100716 -0.123600 0.250000
    vertex 1.098251 -0.121766 0.250000
    vertex 1.098251 -0.121766 -0.250000
  endloop
endfacet
facet normal -0.000917 -0.001233 -0.000000
  outer loop
    vertex 1.100716 -0.123600 0.250000
    vertex 1.098251 -0.121766 -0.250000
    vertex 1.100716 -0.123600 -0.250000
  endloop
endfacet
facet normal -0.000979 -0.001332 0.000000
  outer loop
    vertex 1.098251 -0.121766 0.250000
    vertex 1.095588 -0.119808 0.250000
    vertex 1.095588 -0.119808 -0.250000
  endloop
endfacet
facet normal -0.000979 -0.001332 -0.000000
  outer loop
    vertex 1.098251 -0.121766 0.250000
    vertex 1.095588 -0.119808 -0.250000
    vertex 1.098251 -0.121766 -0.250000
  endloop
endfacet
facet normal -0.001049 -0.001435 0.000000
  outer loop
    vertex 1.095588 -0.119808 0.250000
    vertex 1.092718 -0.117711 0.250000
    vertex 1.092718 -0.117711 -0.250000
  endloop
endfacet
facet normal -0.001049 -0.001435 -0.000000
  outer loop
    vertex 1.095588 -0.119808 0.250000
    vertex 1.092718 -0.117711 -0.250000
    vertex 1.095588 -0.119808 -0.250000
  endloop
endfacet
facet normal -0.001123 -0.001547 0.000000
  outer loop
    vertex 1.092718 -0.117711 0.250000
    vertex 1.089624 -0.115466 0.250000
    vertex 1.089624 -0.115466 -0.250000
  endloop
endfacet
facet normal -0.001123 -0.001547 -0.000000
  outer loop
    vertex 1.092718 -0.117711 0.250000
    vertex 1.089624 -0.115466 -0.250000
    vertex 1.092718 -0.117711 -0.250000
  endloop
endfacet
facet normal -0.001198 -0.001671 0.000000
  outer loop
    vertex 1.089624 -0.115466 0.250000
    vertex 1.086283 -0.113070 0.250000
    vertex 1.086283 -0.113070 -0.250000
  endloop
endfacet
facet normal -0.001198 -0.001671 -0.000000
  outer loop
    vertex 1.089624 -0.115466 0.250000
    vertex 1.086283 -0.113070 -0.250000
    vertex 1.089624 -0.115466 -0.250000
  endloop
endfacet
facet normal -0.001276 -0.001806 0.000000
  outer loop
    vertex 1.086283 -0.113070 0.250000
    vertex 1.082671 -0.110519 0.250000
    vertex 1.082671 -0.110519 -0.250000
  endloop
endfacet
facet normal -0.001276 -0.001806 -0.000000
  outer loop
    vertex 1.086283 -0.113070 0.250000
    vertex 1.082671 -0.110519 -0.250000
    vertex 1.086283 -0.113070 -0.250000
  endloop
endfacet
facet normal -0.001355 -0.001954 0.000000
  outer loop
    vertex 1.082671 -0.110519 0.250000
    vertex 1.078763 -0.107810 0.250000
    vertex 1.078763 -0.107810 -0.250000
  endloop
endfacet
facet normal -0.001355 -0.001954 -0.000000
  outer loop
    vertex 1.082671 -0.110519 0.250000
    vertex 1.078763 -0.107810 -0.250000
    vertex 1.082671 -0.110519 -0.250000
  endloop
endfacet
facet normal -0.001438 -0.002114 0.000000
  outer loop
    vertex 1.078763 -0.107810 0.250000
    vertex 1.074534 -0.104934 0.250000
    vertex 1.074534 -0.104934 -0.250000
  endloop
endfacet
facet normal -0.001438 -0.002114 -0.000000
  outer loop
    vertex 1.078763 -0.107810 0.250000
    vertex 1.074534 -0.104934 -0.250000
    vertex 1.078763 -0.107810 -0.250000
  endloop
endfacet
facet normal -0.001523 -0.002291 0.000000
  outer loop
    vertex 1.074534 -0.104934 0.250000
    vertex 1.069953 -0.101888 0.250000
    vertex 1.069953 -0.101888 -0.250000
  endloop
endfacet
facet normal -0.001523 -0.002291 -0.000000
  outer loop
    vertex 1.074534 -0.104934 0.250000
    vertex 1.069953 -0.101888 -0.250000
    vertex 1.074534 -0.104934 -0.250000
  endloop
endfacet
facet normal -0.001603 -0.002486 0.000000
  outer loop
    vertex 1.069953 -0.101888 0.250000
    vertex 1.064980 -0.098683 0.250000
    vertex 1.064980 -0.098683 -0.250000
  endloop
endfacet
facet normal -0.001603 -0.002486 -0.000000
  outer loop
    vertex 1.069953 -0.101888 0.250000
    vertex 1.064980 -0.098683 -0.250000
    vertex 1.069953 -0.101888 -0.250000
  endloop
endfacet
facet normal -0.001692 -0.002694 0.000000
  outer loop
    vertex 1.064980 -0.098683 0.250000
    vertex 1.059592 -0.095300 0.250000
    vertex 1.059592 -0.095300 -0.250000
  endloop
endfacet
facet normal -0.001692 -0.002694 -0.000000
  outer loop
    vertex 1.064980 -0.098683 0.250000
    vertex 1.059592 -0.095300 -0.250000
    vertex 1.064980 -0.098683 -0.250000
  endloop
endfacet
facet normal -0.001779 -0.002922 0.000000
  outer loop
    vertex 1.059592 -0.095300 0.250000
    vertex 1.053747 -0.091741 0.250000
    vertex 1.053747 -0.091741 -0.250000
  endloop
endfacet
facet normal -0.001779 -0.002922 -0.000000
  outer loop
    vertex 1.059592 -0.095300 0.250000
    vertex 1.053747 -0.091741 -0.250000
    vertex 1.059592 -0.095300 -0.250000
  endloop
endfacet
facet normal -0.001865 -0.003173 0.000000
  outer loop
    vertex 1.053747 -0.091741 0.250000
    vertex 1.047402 -0.088012 0.250000
    vertex 1.047402 -0.088012 -0.250000
  endloop
endfacet
facet normal -0.001865 -0.003173 -0.000000
  outer loop
    vertex 1.053747 -0.091741 0.250000
    vertex 1.047402 -0.088012 -0.250000
    vertex 1.053747 -0.091741 -0.250000
  endloop
endfacet
facet normal -0.001952 -0.003443 0.000000
  outer loop
    vertex 1.047402 -0.088012 0.250000
    vertex 1.040516 -0.084108 0.250000
    vertex 1.040516 -0.084108 -0.250000
  endloop
endfacet
facet normal -0.001952 -0.003443 -0.000000
  outer loop
    vertex 1.047402 -0.088012 0.250000
    vertex 1.040516 -0.084108 -0.250000
    vertex 1.047402 -0.088012 -0.250000
  endloop
endfacet
facet normal -0.002052 -0.003730 0.000000
  outer loop
    vertex 1.040516 -0.084108 0.250000
    vertex 1.033057 -0.080005 0.250000
    vertex 1.033057 -0.080005 -0.250000
  endloop
endfacet
facet normal -0.002052 -0.003730 -0.000000
  outer loop
    vertex 1.040516 -0.084108 0.250000
    vertex 1.033057 -0.080005 -0.250000
    vertex 1.040516 -0.084108 -0.250000
  endloop
endfacet
facet normal -0.002166 -0.004032 0.000000
  outer loop
    vertex 1.033057 -0.080005 0.250000
    vertex 1.024992 -0.075672 0.250000
    vertex 1.024992 -0.075672 -0.250000
  endloop
endfacet
facet normal -0.002166 -0.004032 -0.000000
  outer loop
    vertex 1.033057 -0.080005 0.250000
    vertex 1.024992 -0.075672 -0.250000
    vertex 1.033057 -0.080005 -0.250000
  endloop
endfacet
facet normal -0.002254 -0.004377 0.000000
  outer loop
    vertex 1.024992 -0.075672 0.250000
    vertex 1.016237 -0.071164 0.250000
    vertex 1.016237 -0.071164 -0.250000
  endloop
endfacet
facet normal -0.002254 -0.004377 -0.000000
  outer loop
    vertex 1.024992 -0.075672 0.250000
    vertex 1.016237 -0.071164 -0.250000
    vertex 1.024992 -0.075672 -0.250000
  endloop
endfacet
facet normal -0.002368 -0.004736 0.000000
  outer loop
    vertex 1.016237 -0.071164 0.250000
    vertex 1.006765 -0.066427 0.250000
    vertex 1.006765 -0.066427 -0.250000
  endloop
endfacet
facet normal -0.002368 -0.004736 -0.000000
  outer loop
    vertex 1.016237 -0.071164 0.250000
    vertex 1.006765 -0.066427 -0.250000
    vertex 1.016237 -0.071164 -0.250000
  endloop
endfacet
facet normal -0.002167 -0.004468 0.000000
  outer loop
    vertex 1.006765 -0.066427 0.250000
    vertex 0.997830 -0.062094 0.250000
    vertex 0.997830 -0.062094 -0.250000
  endloop
endfacet
facet normal -0.002167 -0.004468 -0.000000
  outer loop
    vertex 1.006765 -0.066427 0.250000
    vertex 0.997830 -0.062094 -0.250000
    vertex 1.006765 -0.066427 -0.250000
  endloop
endfacet
facet normal -0.001957 -0.004224 0.000000
  outer loop
    vertex 0.997830 -0.062094 0.250000
    vertex 0.989381 -0.058180 0.250000
    vertex 0.989381 -0.058180 -0.250000
  endloop
endfacet
facet normal -0.001957 -0.004224 -0.000000
  outer loop
    vertex 0.997830 -0.062094 0.250000
    vertex 0.989381 -0.058180 -0.250000
    vertex 0.997830 -0.062094 -0.250000
  endloop
endfacet
facet normal -0.001802 -0.003976 0.000000
  outer loop
    vertex 0.989381 -0.058180 0.250000
    vertex 0.981428 -0.054576 0.250000
    vertex 0.981428 -0.054576 -0.250000
  endloop
endfacet
facet normal -0.001802 -0.003976 -0.000000
  outer loop
    vertex 0.989381 -0.058180 0.250000
    vertex 0.981428 -0.054576 -0.250000
    vertex 0.989381 -0.058180 -0.250000
  endloop
endfacet
facet normal -0.001642 -0.003750 0.000000
  outer loop
    vertex 0.981428 -0.054576 0.250000
    vertex 0.973928 -0.051292 0.250000
    vertex 0.973928 -0.051292 -0.250000
  endloop
endfacet
facet normal -0.001642 -0.003750 -0.000000
  outer loop
    vertex 0.981428 -0.054576 0.250000
    vertex 0.973928 -0.051292 -0.250000
    vertex 0.981428 -0.054576 -0.250000
  endloop
endfacet
facet normal -0.001523 -0.003523 0.000000
  outer loop
    vertex 0.973928 -0.051292 0.250000
    vertex 0.966881 -0.048246 0.250000
    vertex 0.966881 -0.048246 -0.250000
  endloop
endfacet
facet normal -0.001523 -0.003523 -0.000000
  outer loop
    vertex 0.973928 -0.051292 0.250000
    vertex 0.966881 -0.048246 -0.250000
    vertex 0.973928 -0.051292 -0.250000
  endloop
endfacet
facet normal -0.001409 -0.003312 0.000000
  outer loop
    vertex 0.966881 -0.048246 0.250000
    vertex 0.960257 -0.045428 0.250000
    vertex 0.960257 -0.045428 -0.250000
  endloop
endfacet
facet normal -0.001409 -0.003312 -0.000000
  outer loop
    vertex 0.966881 -0.048246 0.250000
    vertex 0.960257 -0.045428 -0.250000
    vertex 0.966881 -0.048246 -0.250000
  endloop
endfacet
facet normal -0.001287 -0.003121 0.000000
  outer loop
    vertex 0.960257 -0.045428 0.250000
    vertex 0.954016 -0.042855 0.250000
    vertex 0.954016 -0.042855 -0.250000
  endloop
endfacet
facet normal -0.001287 -0.003121 -0.000000
  outer loop
    vertex 0.960257 -0.045428 0.250000
    vertex 0.954016 -0.042855 -0.250000
    vertex 0.960257 -0.045428 -0.250000
  endloop
endfacet
facet normal -0.001185 -0.002934 0.000000
  outer loop
    vertex 0.954016 -0.042855 0.250000
    vertex 0.948148 -0.040485 0.250000
    vertex 0.948148 -0.040485 -0.250000
  endloop
endfacet
facet normal -0.001185 -0.002934 -0.000000
  outer loop
    vertex 0.954016 -0.042855 0.250000
    vertex 0.948148 -0.040485 -0.250000
    vertex 0.954016 -0.042855 -0.250000
  endloop
endfacet
facet normal -0.001101 -0.002755 0.000000
  outer loop
    vertex 0.948148 -0.040485 0.250000
    vertex 0.942637 -0.038282 0.250000
    vertex 0.942637 -0.038282 -0.250000
  endloop
endfacet
facet normal -0.001101 -0.002755 -0.000000
  outer loop
    vertex 0.948148 -0.040485 0.250000
    vertex 0.942637 -0.038282 -0.250000
    vertex 0.948148 -0.040485 -0.250000
  endloop
endfacet
facet normal -0.001023 -0.002588 0.000000
  outer loop
    vertex 0.942637 -0.038282 0.250000
    vertex 0.937461 -0.036236 0.250000
    vertex 0.937461 -0.036236 -0.250000
  endloop
endfacet
facet normal -0.001023 -0.002588 -0.000000
  outer loop
    vertex 0.942637 -0.038282 0.250000
    vertex 0.937461 -0.036236 -0.250000
    vertex 0.942637 -0.038282 -0.250000
  endloop
endfacet
facet normal -0.000937 -0.002435 0.000000
  outer loop
    vertex 0.937461 -0.036236 0.250000
    vertex 0.932591 -0.034362 0.250000
    vertex 0.932591 -0.034362 -0.250000
  endloop
endfacet
facet normal -0.000937 -0.002435 -0.000000
  outer loop
    vertex 0.937461 -0.036236 0.250000
    vertex 0.932591 -0.034362 -0.250000
    vertex 0.937461 -0.036236 -0.250000
  endloop
endfacet
facet normal -0.000868 -0.002288 0.000000
  outer loop
    vertex 0.932591 -0.034362 0.250000
    vertex 0.928016 -0.032625 0.250000
    vertex 0.928016 -0.032625 -0.250000
  endloop
endfacet
facet normal -0.000868 -0.002288 -0.000000
  outer loop
    vertex 0.932591 -0.034362 0.250000
    vertex 0.928016 -0.032625 -0.250000
    vertex 0.932591 -0.034362 -0.250000
  endloop
endfacet
facet normal -0.000810 -0.002147 0.000000
  outer loop
    vertex 0.928016 -0.032625 0.250000
    vertex 0.923723 -0.031006 0.250000
    vertex 0.923723 -0.031006 -0.250000
  endloop
endfacet
facet normal -0.000810 -0.002147 -0.000000
  outer loop
    vertex 0.928016 -0.032625 0.250000
    vertex 0.923723 -0.031006 -0.250000
    vertex 0.928016 -0.032625 -0.250000
  endloop
endfacet
facet normal -0.000753 -0.002015 0.000000
  outer loop
    vertex 0.923723 -0.031006 0.250000
    vertex 0.919693 -0.029500 0.250000
    vertex 0.919693 -0.029500 -0.250000
  endloop
endfacet
facet normal -0.000753 -0.002015 -0.000000
  outer loop
    vertex 0.923723 -0.031006 0.250000
    vertex 0.919693 -0.029500 -0.250000
    vertex 0.923723 -0.031006 -0.250000
  endloop
endfacet
facet normal -0.000700 -0.001892 0.000000
  outer loop
    vertex 0.919693 -0.029500 0.250000
    vertex 0.915909 -0.028101 0.250000
    vertex 0.915909 -0.028101 -0.250000
  endloop
endfacet
facet normal -0.000700 -0.001892 -0.000000
  outer loop
    vertex 0.919693 -0.029500 0.250000
    vertex 0.915909 -0.028101 -0.250000
    vertex 0.919693 -0.029500 -0.250000
  endloop
endfacet
facet normal -0.000646 -0.001777 0.000000
  outer loop
    vertex 0.915909 -0.028101 0.250000
    vertex 0.912354 -0.026809 0.250000
    vertex 0.912354 -0.026809 -0.250000
  endloop
endfacet
facet normal -0.000646 -0.001777 -0.000000
  outer loop
    vertex 0.915909 -0.028101 0.250000
    vertex 0.912354 -0.026809 -0.250000
    vertex 0.915909 -0.028101 -0.250000
  endloop
endfacet
facet normal -0.000601 -0.001668 0.000000
  outer loop
    vertex 0.912354 -0.026809 0.250000
    vertex 0.909017 -0.025607 0.250000
    vertex 0.909017 -0.025607 -0.250000
  endloop
endfacet
facet normal -0.000601 -0.001668 -0.000000
  outer loop
    vertex 0.912354 -0.026809 0.250000
    vertex 0.909017 -0.025607 -0.250000
    vertex 0.912354 -0.026809 -0.250000
  endloop
endfacet
facet normal -0.000567 -0.001564 0.000000
  outer loop
    vertex 0.909017 -0.025607 0.250000
    vertex 0.905890 -0.024472 0.250000
    vertex 0.905890 -0.024472 -0.250000
  endloop
endfacet
facet normal -0.000567 -0.001564 -0.000000
  outer loop
    vertex 0.909017 -0.025607 0.250000
    vertex 0.905890 -0.024472 -0.250000
    vertex 0.909017 -0.025607 -0.250000
  endloop
endfacet
facet normal -0.000537 -0.001464 0.000000
  outer loop
    vertex 0.905890 -0.024472 0.250000
    vertex 0.902962 -0.023399 0.250000
    vertex 0.902962 -0.023399 -0.250000
  endloop
endfacet
facet normal -0.000537 -0.001464 -0.000000
  outer loop
    vertex 0.905890 -0.024472 0.250000
    vertex 0.902962 -0.023399 -0.250000
    vertex 0.905890 -0.024472 -0.250000
  endloop
endfacet
facet normal -0.000513 -0.001369 0.000000
  outer loop
    vertex 0.902962 -0.023399 0.250000
    vertex 0.900224 -0.022372 0.250000
    vertex 0.900224 -0.022372 -0.250000
  endloop
endfacet
facet normal -0.000513 -0.001369 -0.000000
  outer loop
    vertex 0.902962 -0.023399 0.250000
    vertex 0.900224 -0.022372 -0.250000
    vertex 0.902962 -0.023399 -0.250000
  endloop
endfacet
facet normal -0.000491 -0.001280 0.000000
  outer loop
    vertex 0.900224 -0.022372 0.250000
    vertex 0.897663 -0.021390 0.250000
    vertex 0.897663 -0.021390 -0.250000
  endloop
endfacet
facet normal -0.000491 -0.001280 -0.000000
  outer loop
    vertex 0.900224 -0.022372 0.250000
    vertex 0.897663 -0.021390 -0.250000
    vertex 0.900224 -0.022372 -0.250000
  endloop
endfacet
facet normal -0.000483 -0.001191 0.000000
  outer loop
    vertex 0.897663 -0.021390 0.250000
    vertex 0.895281 -0.020425 0.250000
    vertex 0.895281 -0.020425 -0.250000
  endloop
endfacet
facet normal -0.000483 -0.001191 -0.000000
  outer loop
    vertex 0.897663 -0.021390 0.250000
    vertex 0.895281 -0.020425 -0.250000
    vertex 0.897663 -0.021390 -0.250000
  endloop
endfacet
facet normal -0.000484 -0.001105 0.000000
  outer loop
    vertex 0.895281 -0.020425 0.250000
    vertex 0.893072 -0.019457 0.250000
    vertex 0.893072 -0.019457 -0.250000
  endloop
endfacet
facet normal -0.000484 -0.001105 -0.000000
  outer loop
    vertex 0.895281 -0.020425 0.250000
    vertex 0.893072 -0.019457 -0.250000
    vertex 0.895281 -0.020425 -0.250000
  endloop
endfacet
facet normal -0.000469 -0.001029 0.000000
  outer loop
    vertex 0.893072 -0.019457 0.250000
    vertex 0.891015 -0.018519 0.250000
    vertex 0.891015 -0.018519 -0.250000
  endloop
endfacet
facet normal -0.000469 -0.001029 -0.000000
  outer loop
    vertex 0.893072 -0.019457 0.250000
    vertex 0.891015 -0.018519 -0.250000
    vertex 0.893072 -0.019457 -0.250000
  endloop
endfacet
facet normal -0.000494 -0.000938 0.000000
  outer loop
    vertex 0.891015 -0.018519 0.250000
    vertex 0.889139 -0.017530 0.250000
    vertex 0.889139 -0.017530 -0.250000
  endloop
endfacet
facet normal -0.000494 -0.000938 -0.000000
  outer loop
    vertex 0.891015 -0.018519 0.250000
    vertex 0.889139 -0.017530 -0.250000
    vertex 0.891015 -0.018519 -0.250000
  endloop
endfacet
facet normal -0.000508 -0.000854 0.000000
  outer loop
    vertex 0.889139 -0.017530 0.250000
    vertex 0.887431 -0.016515 0.250000
    vertex 0.887431 -0.016515 -0.250000
  endloop
endfacet
facet normal -0.000508 -0.000854 -0.000000
  outer loop
    vertex 0.889139 -0.017530 0.250000
    vertex 0.887431 -0.016515 -0.250000
    vertex 0.889139 -0.017530 -0.250000
  endloop
endfacet
facet normal -0.000508 -0.000782 0.000000
  outer loop
    vertex 0.887431 -0.016515 0.250000
    vertex 0.885867 -0.015500 0.250000
    vertex 0.885867 -0.015500 -0.250000
  endloop
endfacet
facet normal -0.000508 -0.000782 -0.000000
  outer loop
    vertex 0.887431 -0.016515 0.250000
    vertex 0.885867 -0.015500 -0.250000
    vertex 0.887431 -0.016515 -0.250000
  endloop
endfacet
facet normal -0.000495 -0.000721 0.000000
  outer loop
    vertex 0.885867 -0.015500 0.250000
    vertex 0.884426 -0.014509 0.250000
    vertex 0.884426 -0.014509 -0.250000
  endloop
endfacet
facet normal -0.000495 -0.000721 -0.000000
  outer loop
    vertex 0.885867 -0.015500 0.250000
    vertex 0.884426 -0.014509 -0.250000
    vertex 0.885867 -0.015500 -0.250000
  endloop
endfacet
facet normal -0.000506 -0.000643 0.000000
  outer loop
    vertex 0.884426 -0.014509 0.250000
    vertex 0.883139 -0.013496 0.250000
    vertex 0.883139 -0.013496 -0.250000
  endloop
endfacet
facet normal -0.000506 -0.000643 -0.000000
  outer loop
    vertex 0.884426 -0.014509 0.250000
    vertex 0.883139 -0.013496 -0.250000
    vertex 0.884426 -0.014509 -0.250000
  endloop
endfacet
facet normal -0.000505 -0.000580 0.000000
  outer loop
    vertex 0.883139 -0.013496 0.250000
    vertex 0.881980 -0.012487 0.250000
    vertex 0.881980 -0.012487 -0.250000
  endloop
endfacet
facet normal -0.000505 -0.000580 -0.000000
  outer loop
    vertex 0.883139 -0.013496 0.250000
    vertex 0.881980 -0.012487 -0.250000
    vertex 0.883139 -0.013496 -0.250000
  endloop
endfacet
facet normal -0.000493 -0.000526 0.000000
  outer loop
    vertex 0.881980 -0.012487 0.250000
    vertex 0.880929 -0.011500 0.250000
    vertex 0.880929 -0.011500 -0.250000
  endloop
endfacet
facet normal -0.000493 -0.000526 -0.000000
  outer loop
    vertex 0.881980 -0.012487 0.250000
    vertex 0.880929 -0.011500 -0.250000
    vertex 0.881980 -0.012487 -0.250000
  endloop
endfacet
facet normal -0.000479 -0.000476 0.000000
  outer loop
    vertex 0.880929 -0.011500 0.250000
    vertex 0.879977 -0.010541 0.250000
    vertex 0.879977 -0.010541 -0.250000
  endloop
endfacet
facet normal -0.000479 -0.000476 -0.000000
  outer loop
    vertex 0.880929 -0.011500 0.250000
    vertex 0.879977 -0.010541 -0.250000
    vertex 0.880929 -0.011500 -0.250000
  endloop
endfacet
facet normal -0.000465 -0.000430 0.000000
  outer loop
    vertex 0.879977 -0.010541 0.250000
    vertex 0.879116 -0.009612 0.250000
    vertex 0.879116 -0.009612 -0.250000
  endloop
endfacet
facet normal -0.000465 -0.000430 -0.000000
  outer loop
    vertex 0.879977 -0.010541 0.250000
    vertex 0.879116 -0.009612 -0.250000
    vertex 0.879977 -0.010541 -0.250000
  endloop
endfacet
facet normal -0.000449 -0.000389 0.000000
  outer loop
    vertex 0.879116 -0.009612 0.250000
    vertex 0.878339 -0.008713 0.250000
    vertex 0.878339 -0.008713 -0.250000
  endloop
endfacet
facet normal -0.000449 -0.000389 -0.000000
  outer loop
    vertex 0.879116 -0.009612 0.250000
    vertex 0.878339 -0.008713 -0.250000
    vertex 0.879116 -0.009612 -0.250000
  endloop
endfacet
facet normal -0.000431 -0.000353 0.000000
  outer loop
    vertex 0.878339 -0.008713 0.250000
    vertex 0.877633 -0.007851 0.250000
    vertex 0.877633 -0.007851 -0.250000
  endloop
endfacet
facet normal -0.000431 -0.000353 -0.000000
  outer loop
    vertex 0.878339 -0.008713 0.250000
    vertex 0.877633 -0.007851 -0.250000
    vertex 0.878339 -0.008713 -0.250000
  endloop
endfacet
facet normal -0.000411 -0.000322 0.000000
  outer loop
    vertex 0.877633 -0.007851 0.250000
    vertex 0.876989 -0.007028 0.250000
    vertex 0.876989 -0.007028 -0.250000
  endloop
endfacet
facet normal -0.000411 -0.000322 -0.000000
  outer loop
    vertex 0.877633 -0.007851 0.250000
    vertex 0.876989 -0.007028 -0.250000
    vertex 0.877633 -0.007851 -0.250000
  endloop
endfacet
facet normal -0.000393 -0.000291 0.000000
  outer loop
    vertex 0.876989 -0.007028 0.250000
    vertex 0.876406 -0.006242 0.250000
    vertex 0.876406 -0.006242 -0.250000
  endloop
endfacet
facet normal -0.000393 -0.000291 -0.000000
  outer loop
    vertex 0.876989 -0.007028 0.250000
    vertex 0.876406 -0.006242 -0.250000
    vertex 0.876989 -0.007028 -0.250000
  endloop
endfacet
facet normal -0.000376 -0.000264 0.000000
  outer loop
    vertex 0.876406 -0.006242 0.250000
    vertex 0.875878 -0.005489 0.250000
    vertex 0.875878 -0.005489 -0.250000
  endloop
endfacet
facet normal -0.000376 -0.000264 -0.000000
  outer loop
    vertex 0.876406 -0.006242 0.250000
    vertex 0.875878 -0.005489 -0.250000
    vertex 0.876406 -0.006242 -0.250000
  endloop
endfacet
facet normal -0.000358 -0.000239 0.000000
  outer loop
    vertex 0.875878 -0.005489 0.250000
    vertex 0.875400 -0.004773 0.250000
    vertex 0.875400 -0.004773 -0.250000
  endloop
endfacet
facet normal -0.000358 -0.000239 -0.000000
  outer loop
    vertex 0.875878 -0.005489 0.250000
    vertex 0.875400 -0.004773 -0.250000
    vertex 0.875878 -0.005489 -0.250000
  endloop
endfacet
facet normal -0.000362 -0.000233 0.000000
  outer loop
    vertex 0.875400 -0.004773 0.250000
    vertex 0.874935 -0.004048 0.250000
    vertex 0.874935 -0.004048 -0.250000
  endloop
endfacet
facet normal -0.000362 -0.000233 -0.000000
  outer loop
    vertex 0.875400 -0.004773 0.250000
    vertex 0.874935 -0.004048 -0.250000
    vertex 0.875400 -0.004773 -0.250000
  endloop
endfacet
facet normal -0.000375 -0.000227 0.000000
  outer loop
    vertex 0.874935 -0.004048 0.250000
    vertex 0.874480 -0.003299 0.250000
    vertex 0.874480 -0.003299 -0.250000
  endloop
endfacet
facet normal -0.000375 -0.000227 -0.000000
  outer loop
    vertex 0.874935 -0.004048 0.250000
    vertex 0.874480 -0.003299 -0.250000
    vertex 0.874935 -0.004048 -0.250000
  endloop
endfacet
facet normal -0.000387 -0.000221 0.000000
  outer loop
    vertex 0.874480 -0.003299 0.250000
    vertex 0.874037 -0.002525 0.250000
    vertex 0.874037 -0.002525 -0.250000
  endloop
endfacet
facet normal -0.000387 -0.000221 -0.000000
  outer loop
    vertex 0.874480 -0.003299 0.250000
    vertex 0.874037 -0.002525 -0.250000
    vertex 0.874480 -0.003299 -0.250000
  endloop
endfacet
facet normal -0.000401 -0.000213 0.000000
  outer loop
    vertex 0.874037 -0.002525 0.250000
    vertex 0.873611 -0.001723 0.250000
    vertex 0.873611 -0.001723 -0.250000
  endloop
endfacet
facet normal -0.000401 -0.000213 -0.000000
  outer loop
    vertex 0.874037 -0.002525 0.250000
    vertex 0.873611 -0.001723 -0.250000
    vertex 0.874037 -0.002525 -0.250000
  endloop
endfacet
facet normal -0.000415 -0.000201 0.000000
  outer loop
    vertex 0.873611 -0.001723 0.250000
    vertex 0.873209 -0.000892 0.250000
    vertex 0.873209 -0.000892 -0.250000
  endloop
endfacet
facet normal -0.000415 -0.000201 -0.000000
  outer loop
    vertex 0.873611 -0.001723 0.250000
    vertex 0.873209 -0.000892 -0.250000
    vertex 0.873611 -0.001723 -0.250000
  endloop
endfacet
facet normal -0.000431 -0.000187 0.000000
  outer loop
    vertex 0.873209 -0.000892 0.250000
    vertex 0.872834 -0.000030 0.250000
    vertex 0.872834 -0.000030 -0.250000
  endloop
endfacet
facet normal -0.000431 -0.000187 -0.000000
  outer loop
    vertex 0.873209 -0.000892 0.250000
    vertex 0.872834 -0.000030 -0.250000
    vertex 0.873209 -0.000892 -0.250000
  endloop
endfacet
facet normal -0.000446 -0.000174 0.000000
  outer loop
    vertex 0.872834 -0.000030 0.250000
    vertex 0.872486 0.000862 0.250000
    vertex 0.872486 0.000862 -0.250000
  endloop
endfacet
facet normal -0.000446 -0.000174 -0.000000
  outer loop
    vertex 0.872834 -0.000030 0.250000
    vertex 0.872486 0.000862 -0.250000
    vertex 0.872834 -0.000030 -0.250000
  endloop
endfacet
facet normal -0.000462 -0.000151 0.000000
  outer loop
    vertex 0.872486 0.000862 0.250000
    vertex 0.872183 0.001786 0.250000
    vertex 0.872183 0.001786 -0.250000
  endloop
endfacet
facet normal -0.000462 -0.000151 -0.000000
  outer loop
    vertex 0.872486 0.000862 0.250000
    vertex 0.872183 0.001786 -0.250000
    vertex 0.872486 0.000862 -0.250000
  endloop
endfacet
facet normal -0.000479 -0.000130 0.000000
  outer loop
    vertex 0.872183 0.001786 0.250000
    vertex 0.871924 0.002744 0.250000
    vertex 0.871924 0.002744 -0.250000
  endloop
endfacet
facet normal -0.000479 -0.000130 -0.000000
  outer loop
    vertex 0.872183 0.001786 0.250000
    vertex 0.871924 0.002744 -0.250000
    vertex 0.872183 0.001786 -0.250000
  endloop
endfacet
facet normal -0.000494 -0.000104 0.000000
  outer loop
    vertex 0.871924 0.002744 0.250000
    vertex 0.871716 0.003731 0.250000
    vertex 0.871716 0.003731 -0.250000
  endloop
endfacet
facet normal -0.000494 -0.000104 -0.000000
  outer loop
    vertex 0.871924 0.002744 0.250000
    vertex 0.871716 0.003731 -0.250000
    vertex 0.871924 0.002744 -0.250000
  endloop
endfacet
facet normal -0.000508 -0.000068 0.000000
  outer loop
    vertex 0.871716 0.003731 0.250000
    vertex 0.871581 0.004747 0.250000
    vertex 0.871581 0.004747 -0.250000
  endloop
endfacet
facet normal -0.000508 -0.000068 -0.000000
  outer loop
    vertex 0.871716 0.003731 0.250000
    vertex 0.871581 0.004747 -0.250000
    vertex 0.871716 0.003731 -0.250000
  endloop
endfacet
facet normal -0.000504 -0.000035 0.000000
  outer loop
    vertex 0.871581 0.004747 0.250000
    vertex 0.871510 0.005755 0.250000
    vertex 0.871510 0.005755 -0.250000
  endloop
endfacet
facet normal -0.000504 -0.000035 -0.000000
  outer loop
    vertex 0.871581 0.004747 0.250000
    vertex 0.871510 0.005755 -0.250000
    vertex 0.871581 0.004747 -0.250000
  endloop
endfacet
facet normal -0.000497 0.000011 0.000000
  outer loop
    vertex 0.871510 0.005755 0.250000
    vertex 0.871533 0.006749 0.250000
    vertex 0.871533 0.006749 -0.250000
  endloop
endfacet
facet normal -0.000497 0.000011 0.000000
  outer loop
    vertex 0.871510 0.005755 0.250000
    vertex 0.871533 0.006749 -0.250000
    vertex 0.871510 0.005755 -0.250000
  endloop
endfacet
facet normal -0.000488 0.000031 0.000000
  outer loop
    vertex 0.871533 0.006749 0.250000
    vertex 0.871594 0.007724 0.250000
    vertex 0.871594 0.007724 -0.250000
  endloop
endfacet
facet normal -0.000488 0.000031 0.000000
  outer loop
    vertex 0.871533 0.006749 0.250000
    vertex 0.871594 0.007724 -0.250000
    vertex 0.871533 0.006749 -0.250000
  endloop
endfacet
facet normal -0.000477 0.000067 0.000000
  outer loop
    vertex 0.871594 0.007724 0.250000
    vertex 0.871728 0.008678 0.250000
    vertex 0.871728 0.008678 -0.250000
  endloop
endfacet
facet normal -0.000477 0.000067 0.000000
  outer loop
    vertex 0.871594 0.007724 0.250000
    vertex 0.871728 0.008678 -0.250000
    vertex 0.871594 0.007724 -0.250000
  endloop
endfacet
facet normal -0.000465 0.000087 0.000000
  outer loop
    vertex 0.871728 0.008678 0.250000
    vertex 0.871902 0.009609 0.250000
    vertex 0.871902 0.009609 -0.250000
  endloop
endfacet
facet normal -0.000465 0.000087 0.000000
  outer loop
    vertex 0.871728 0.008678 0.250000
    vertex 0.871902 0.009609 -0.250000
    vertex 0.871728 0.008678 -0.250000
  endloop
endfacet
facet normal -0.000454 0.000110 0.000000
  outer loop
    vertex 0.871902 0.009609 0.250000
    vertex 0.872122 0.010516 0.250000
    vertex 0.872122 0.010516 -0.250000
  endloop
endfacet
facet normal -0.000454 0.000110 0.000000
  outer loop
    vertex 0.871902 0.009609 0.250000
    vertex 0.872122 0.010516 -0.250000
    vertex 0.871902 0.009609 -0.250000
  endloop
endfacet
facet normal -0.000439 0.000134 0.000000
  outer loop
    vertex 0.872122 0.010516 0.250000
    vertex 0.872390 0.011393 0.250000
    vertex 0.872390 0.011393 -0.250000
  endloop
endfacet
facet normal -0.000439 0.000134 0.000000
  outer loop
    vertex 0.872122 0.010516 0.250000
    vertex 0.872390 0.011393 -0.250000
    vertex 0.872122 0.010516 -0.250000
  endloop
endfacet
facet normal -0.000422 0.000162 0.000000
  outer loop
    vertex 0.872390 0.011393 0.250000
    vertex 0.872713 0.012238 0.250000
    vertex 0.872713 0.012238 -0.250000
  endloop
endfacet
facet normal -0.000422 0.000162 0.000000
  outer loop
    vertex 0.872390 0.011393 0.250000
    vertex 0.872713 0.012238 -0.250000
    vertex 0.872390 0.011393 -0.250000
  endloop
endfacet
facet normal -0.000402 0.000188 0.000000
  outer loop
    vertex 0.872713 0.012238 0.250000
    vertex 0.873090 0.013041 0.250000
    vertex 0.873090 0.013041 -0.250000
  endloop
endfacet
facet normal -0.000402 0.000188 0.000000
  outer loop
    vertex 0.872713 0.012238 0.250000
    vertex 0.873090 0.013041 -0.250000
    vertex 0.872713 0.012238 -0.250000
  endloop
endfacet
facet normal -0.000381 0.000218 0.000000
  outer loop
    vertex 0.873090 0.013041 0.250000
    vertex 0.873527 0.013802 0.250000
    vertex 0.873527 0.013802 -0.250000
  endloop
endfacet
facet normal -0.000381 0.000218 0.000000
  outer loop
    vertex 0.873090 0.013041 0.250000
    vertex 0.873527 0.013802 -0.250000
    vertex 0.873090 0.013041 -0.250000
  endloop
endfacet
facet normal -0.000360 0.000237 0.000000
  outer loop
    vertex 0.873527 0.013802 0.250000
    vertex 0.874000 0.014522 0.250000
    vertex 0.874000 0.014522 -0.250000
  endloop
endfacet
facet normal -0.000360 0.000237 0.000000
  outer loop
    vertex 0.873527 0.013802 0.250000
    vertex 0.874000 0.014522 -0.250000
    vertex 0.873527 0.013802 -0.250000
  endloop
endfacet
facet normal -0.000344 0.000257 0.000000
  outer loop
    vertex 0.874000 0.014522 0.250000
    vertex 0.874515 0.015211 0.250000
    vertex 0.874515 0.015211 -0.250000
  endloop
endfacet
facet normal -0.000344 0.000257 0.000000
  outer loop
    vertex 0.874000 0.014522 0.250000
    vertex 0.874515 0.015211 -0.250000
    vertex 0.874000 0.014522 -0.250000
  endloop
endfacet
facet normal -0.000341 0.000287 0.000000
  outer loop
    vertex 0.874515 0.015211 0.250000
    vertex 0.875089 0.015893 0.250000
    vertex 0.875089 0.015893 -0.250000
  endloop
endfacet
facet normal -0.000341 0.000287 0.000000
  outer loop
    vertex 0.874515 0.015211 0.250000
    vertex 0.875089 0.015893 -0.250000
    vertex 0.874515 0.015211 -0.250000
  endloop
endfacet
facet normal -0.000337 0.000310 0.000000
  outer loop
    vertex 0.875089 0.015893 0.250000
    vertex 0.875709 0.016567 0.250000
    vertex 0.875709 0.016567 -0.250000
  endloop
endfacet
facet normal -0.000337 0.000310 0.000000
  outer loop
    vertex 0.875089 0.015893 0.250000
    vertex 0.875709 0.016567 -0.250000
    vertex 0.875089 0.015893 -0.250000
  endloop
endfacet
facet normal -0.000331 0.000339 0.000000
  outer loop
    vertex 0.875709 0.016567 0.250000
    vertex 0.876387 0.017228 0.250000
    vertex 0.876387 0.017228 -0.250000
  endloop
endfacet
facet normal -0.000331 0.000339 0.000000
  outer loop
    vertex 0.875709 0.016567 0.250000
    vertex 0.876387 0.017228 -0.250000
    vertex 0.875709 0.016567 -0.250000
  endloop
endfacet
facet normal -0.000320 0.000368 0.000000
  outer loop
    vertex 0.876387 0.017228 0.250000
    vertex 0.877123 0.017869 0.250000
    vertex 0.877123 0.017869 -0.250000
  endloop
endfacet
facet normal -0.000320 0.000368 0.000000
  outer loop
    vertex 0.876387 0.017228 0.250000
    vertex 0.877123 0.017869 -0.250000
    vertex 0.876387 0.017228 -0.250000
  endloop
endfacet
facet normal -0.000307 0.000399 0.000000
  outer loop
    vertex 0.877123 0.017869 0.250000
    vertex 0.877921 0.018482 0.250000
    vertex 0.877921 0.018482 -0.250000
  endloop
endfacet
facet normal -0.000307 0.000399 0.000000
  outer loop
    vertex 0.877123 0.017869 0.250000
    vertex 0.877921 0.018482 -0.250000
    vertex 0.877123 0.017869 -0.250000
  endloop
endfacet
facet normal -0.000289 0.000432 0.000000
  outer loop
    vertex 0.877921 0.018482 0.250000
    vertex 0.878785 0.019060 0.250000
    vertex 0.878785 0.019060 -0.250000
  endloop
endfacet
facet normal -0.000289 0.000432 0.000000
  outer loop
    vertex 0.877921 0.018482 0.250000
    vertex 0.878785 0.019060 -0.250000
    vertex 0.877921 0.018482 -0.250000
  endloop
endfacet
facet normal -0.000268 0.000464 0.000000
  outer loop
    vertex 0.878785 0.019060 0.250000
    vertex 0.879713 0.019596 0.250000
    vertex 0.879713 0.019596 -0.250000
  endloop
endfacet
facet normal -0.000268 0.000464 0.000000
  outer loop
    vertex 0.878785 0.019060 0.250000
    vertex 0.879713 0.019596 -0.250000
    vertex 0.878785 0.019060 -0.250000
  endloop
endfacet
facet normal -0.000246 0.000495 0.000000
  outer loop
    vertex 0.879713 0.019596 0.250000
    vertex 0.880703 0.020088 0.250000
    vertex 0.880703 0.020088 -0.250000
  endloop
endfacet
facet normal -0.000246 0.000495 0.000000
  outer loop
    vertex 0.879713 0.019596 0.250000
    vertex 0.880703 0.020088 -0.250000
    vertex 0.879713 0.019596 -0.250000
  endloop
endfacet
facet normal -0.000222 0.000526 0.000000
  outer loop
    vertex 0.880703 0.020088 0.250000
    vertex 0.881754 0.020532 0.250000
    vertex 0.881754 0.020532 -0.250000
  endloop
endfacet
facet normal -0.000222 0.000526 0.000000
  outer loop
    vertex 0.880703 0.020088 0.250000
    vertex 0.881754 0.020532 -0.250000
    vertex 0.880703 0.020088 -0.250000
  endloop
endfacet
facet normal -0.000195 0.000556 0.000000
  outer loop
    vertex 0.881754 0.020532 0.250000
    vertex 0.882866 0.020922 0.250000
    vertex 0.882866 0.020922 -0.250000
  endloop
endfacet
facet normal -0.000195 0.000556 0.000000
  outer loop
    vertex 0.881754 0.020532 0.250000
    vertex 0.882866 0.020922 -0.250000
    vertex 0.881754 0.020532 -0.250000
  endloop
endfacet
facet normal -0.000168 0.000583 0.000000
  outer loop
    vertex 0.882866 0.020922 0.250000
    vertex 0.884033 0.021257 0.250000
    vertex 0.884033 0.021257 -0.250000
  endloop
endfacet
facet normal -0.000168 0.000583 0.000000
  outer loop
    vertex 0.882866 0.020922 0.250000
    vertex 0.884033 0.021257 -0.250000
    vertex 0.882866 0.020922 -0.250000
  endloop
endfacet
facet normal -0.000138 0.000611 0.000000
  outer loop
    vertex 0.884033 0.021257 0.250000
    vertex 0.885254 0.021533 0.250000
    vertex 0.885254 0.021533 -0.250000
  endloop
endfacet
facet normal -0.000138 0.000611 0.000000
  outer loop
    vertex 0.884033 0.021257 0.250000
    vertex 0.885254 0.021533 -0.250000
    vertex 0.884033 0.021257 -0.250000
  endloop
endfacet
facet normal -0.000109 0.000638 0.000000
  outer loop
    vertex 0.885254 0.021533 0.250000
    vertex 0.886529 0.021750 0.250000
    vertex 0.886529 0.021750 -0.250000
  endloop
endfacet
facet normal -0.000109 0.000638 0.000000
  outer loop
    vertex 0.885254 0.021533 0.250000
    vertex 0.886529 0.021750 -0.250000
    vertex 0.885254 0.021533 -0.250000
  endloop
endfacet
facet normal -0.000084 0.000661 0.000000
  outer loop
    vertex 0.886529 0.021750 0.250000
    vertex 0.887852 0.021918 0.250000
    vertex 0.887852 0.021918 -0.250000
  endloop
endfacet
facet normal -0.000084 0.000661 0.000000
  outer loop
    vertex 0.886529 0.021750 0.250000
    vertex 0.887852 0.021918 -0.250000
    vertex 0.886529 0.021750 -0.250000
  endloop
endfacet
facet normal -0.000053 0.000686 0.000000
  outer loop
    vertex 0.887852 0.021918 0.250000
    vertex 0.889224 0.022025 0.250000
    vertex 0.889224 0.022025 -0.250000
  endloop
endfacet
facet normal -0.000053 0.000686 0.000000
  outer loop
    vertex 0.887852 0.021918 0.250000
    vertex 0.889224 0.022025 -0.250000
    vertex 0.887852 0.021918 -0.250000
  endloop
endfacet
facet normal -0.000026 0.000709 0.000000
  outer loop
    vertex 0.889224 0.022025 0.250000
    vertex 0.890642 0.022077 0.250000
    vertex 0.890642 0.022077 -0.250000
  endloop
endfacet
facet normal -0.000026 0.000709 0.000000
  outer loop
    vertex 0.889224 0.022025 0.250000
    vertex 0.890642 0.022077 -0.250000
    vertex 0.889224 0.022025 -0.250000
  endloop
endfacet
facet normal -0.000009 0.000733 0.000000
  outer loop
    vertex 0.890642 0.022077 0.250000
    vertex 0.892107 0.022094 0.250000
    vertex 0.892107 0.022094 -0.250000
  endloop
endfacet
facet normal -0.000009 0.000733 0.000000
  outer loop
    vertex 0.890642 0.022077 0.250000
    vertex 0.892107 0.022094 -0.250000
    vertex 0.890642 0.022077 -0.250000
  endloop
endfacet
facet normal 0.000018 0.000755 0.000000
  outer loop
    vertex 0.892107 0.022094 0.250000
    vertex 0.893618 0.022059 0.250000
    vertex 0.893618 0.022059 -0.250000
  endloop
endfacet
facet normal 0.000018 0.000755 0.000000
  outer loop
    vertex 0.892107 0.022094 0.250000
    vertex 0.893618 0.022059 -0.250000
    vertex 0.892107 0.022094 -0.250000
  endloop
endfacet
facet normal 0.000038 0.000778 0.000000
  outer loop
    vertex 0.893618 0.022059 0.250000
    vertex 0.895175 0.021982 0.250000
    vertex 0.895175 0.021982 -0.250000
  endloop
endfacet
facet normal 0.000038 0.000778 0.000000
  outer loop
    vertex 0.893618 0.022059 0.250000
    vertex 0.895175 0.021982 -0.250000
    vertex 0.893618 0.022059 -0.250000
  endloop
endfacet
facet normal 0.000064 0.000802 0.000000
  outer loop
    vertex 0.895175 0.021982 0.250000
    vertex 0.896778 0.021854 0.250000
    vertex 0.896778 0.021854 -0.250000
  endloop
endfacet
facet normal 0.000064 0.000802 0.000000
  outer loop
    vertex 0.895175 0.021982 0.250000
    vertex 0.896778 0.021854 -0.250000
    vertex 0.895175 0.021982 -0.250000
  endloop
endfacet
facet normal 0.000089 0.000825 0.000000
  outer loop
    vertex 0.896778 0.021854 0.250000
    vertex 0.898428 0.021676 0.250000
    vertex 0.898428 0.021676 -0.250000
  endloop
endfacet
facet normal 0.000089 0.000825 0.000000
  outer loop
    vertex 0.896778 0.021854 0.250000
    vertex 0.898428 0.021676 -0.250000
    vertex 0.896778 0.021854 -0.250000
  endloop
endfacet
facet normal 0.000113 0.000849 0.000000
  outer loop
    vertex 0.898428 0.021676 0.250000
    vertex 0.900126 0.021451 0.250000
    vertex 0.900126 0.021451 -0.250000
  endloop
endfacet
facet normal 0.000113 0.000849 0.000000
  outer loop
    vertex 0.898428 0.021676 0.250000
    vertex 0.900126 0.021451 -0.250000
    vertex 0.898428 0.021676 -0.250000
  endloop
endfacet
facet normal 0.000135 0.000873 0.000000
  outer loop
    vertex 0.900126 0.021451 0.250000
    vertex 0.901871 0.021180 0.250000
    vertex 0.901871 0.021180 -0.250000
  endloop
endfacet
facet normal 0.000135 0.000873 0.000000
  outer loop
    vertex 0.900126 0.021451 0.250000
    vertex 0.901871 0.021180 -0.250000
    vertex 0.900126 0.021451 -0.250000
  endloop
endfacet
facet normal 0.000160 0.000897 0.000000
  outer loop
    vertex 0.901871 0.021180 0.250000
    vertex 0.903665 0.020860 0.250000
    vertex 0.903665 0.020860 -0.250000
  endloop
endfacet
facet normal 0.000160 0.000897 0.000000
  outer loop
    vertex 0.901871 0.021180 0.250000
    vertex 0.903665 0.020860 -0.250000
    vertex 0.901871 0.021180 -0.250000
  endloop
endfacet
facet normal 0.000185 0.000922 0.000000
  outer loop
    vertex 0.903665 0.020860 0.250000
    vertex 0.905509 0.020489 0.250000
    vertex 0.905509 0.020489 -0.250000
  endloop
endfacet
facet normal 0.000185 0.000922 0.000000
  outer loop
    vertex 0.903665 0.020860 0.250000
    vertex 0.905509 0.020489 -0.250000
    vertex 0.903665 0.020860 -0.250000
  endloop
endfacet
facet normal 0.000211 0.000947 0.000000
  outer loop
    vertex 0.905509 0.020489 0.250000
    vertex 0.907403 0.020068 0.250000
    vertex 0.907403 0.020068 -0.250000
  endloop
endfacet
facet normal 0.000211 0.000947 0.000000
  outer loop
    vertex 0.905509 0.020489 0.250000
    vertex 0.907403 0.020068 -0.250000
    vertex 0.905509 0.020489 -0.250000
  endloop
endfacet
facet normal 0.000235 0.000973 0.000000
  outer loop
    vertex 0.907403 0.020068 0.250000
    vertex 0.909348 0.019597 0.250000
    vertex 0.909348 0.019597 -0.250000
  endloop
endfacet
facet normal 0.000235 0.000973 0.000000
  outer loop
    vertex 0.907403 0.020068 0.250000
    vertex 0.909348 0.019597 -0.250000
    vertex 0.907403 0.020068 -0.250000
  endloop
endfacet
facet normal 0.000262 0.000998 0.000000
  outer loop
    vertex 0.909348 0.019597 0.250000
    vertex 0.911345 0.019073 0.250000
    vertex 0.911345 0.019073 -0.250000
  endloop
endfacet
facet normal 0.000262 0.000998 0.000000
  outer loop
    vertex 0.909348 0.019597 0.250000
    vertex 0.911345 0.019073 -0.250000
    vertex 0.909348 0.019597 -0.250000
  endloop
endfacet
facet normal 0.000286 0.001026 0.000000
  outer loop
    vertex 0.911345 0.019073 0.250000
    vertex 0.913397 0.018500 0.250000
    vertex 0.913397 0.018500 -0.250000
  endloop
endfacet
facet normal 0.000286 0.001026 0.000000
  outer loop
    vertex 0.911345 0.019073 0.250000
    vertex 0.913397 0.018500 -0.250000
    vertex 0.911345 0.019073 -0.250000
  endloop
endfacet
facet normal 0.000313 0.001054 0.000000
  outer loop
    vertex 0.913397 0.018500 0.250000
    vertex 0.915505 0.017874 0.250000
    vertex 0.915505 0.017874 -0.250000
  endloop
endfacet
facet normal 0.000313 0.001054 0.000000
  outer loop
    vertex 0.913397 0.018500 0.250000
    vertex 0.915505 0.017874 -0.250000
    vertex 0.913397 0.018500 -0.250000
  endloop
endfacet
facet normal 0.000340 0.001081 0.000000
  outer loop
    vertex 0.915505 0.017874 0.250000
    vertex 0.917668 0.017194 0.250000
    vertex 0.917668 0.017194 -0.250000
  endloop
endfacet
facet normal 0.000340 0.001081 0.000000
  outer loop
    vertex 0.915505 0.017874 0.250000
    vertex 0.917668 0.017194 -0.250000
    vertex 0.915505 0.017874 -0.250000
  endloop
endfacet
facet normal 0.000368 0.001110 0.000000
  outer loop
    vertex 0.917668 0.017194 0.250000
    vertex 0.919889 0.016458 0.250000
    vertex 0.919889 0.016458 -0.250000
  endloop
endfacet
facet normal 0.000368 0.001110 0.000000
  outer loop
    vertex 0.917668 0.017194 0.250000
    vertex 0.919889 0.016458 -0.250000
    vertex 0.917668 0.017194 -0.250000
  endloop
endfacet
facet normal 0.000396 0.001140 0.000000
  outer loop
    vertex 0.919889 0.016458 0.250000
    vertex 0.922169 0.015665 0.250000
    vertex 0.922169 0.015665 -0.250000
  endloop
endfacet
facet normal 0.000396 0.001140 0.000000
  outer loop
    vertex 0.919889 0.016458 0.250000
    vertex 0.922169 0.015665 -0.250000
    vertex 0.919889 0.016458 -0.250000
  endloop
endfacet
facet normal 0.000424 0.001171 0.000000
  outer loop
    vertex 0.922169 0.015665 0.250000
    vertex 0.924512 0.014818 0.250000
    vertex 0.924512 0.014818 -0.250000
  endloop
endfacet
facet normal 0.000424 0.001171 0.000000
  outer loop
    vertex 0.922169 0.015665 0.250000
    vertex 0.924512 0.014818 -0.250000
    vertex 0.922169 0.015665 -0.250000
  endloop
endfacet
facet normal 0.000450 0.001203 0.000000
  outer loop
    vertex 0.924512 0.014818 0.250000
    vertex 0.926918 0.013917 0.250000
    vertex 0.926918 0.013917 -0.250000
  endloop
endfacet
facet normal 0.000450 0.001203 0.000000
  outer loop
    vertex 0.924512 0.014818 0.250000
    vertex 0.926918 0.013917 -0.250000
    vertex 0.924512 0.014818 -0.250000
  endloop
endfacet
facet normal 0.000481 0.001235 0.000000
  outer loop
    vertex 0.926918 0.013917 0.250000
    vertex 0.929389 0.012956 0.250000
    vertex 0.929389 0.012956 -0.250000
  endloop
endfacet
facet normal 0.000481 0.001235 0.000000
  outer loop
    vertex 0.926918 0.013917 0.250000
    vertex 0.929389 0.012956 -0.250000
    vertex 0.926918 0.013917 -0.250000
  endloop
endfacet
facet normal 0.000513 0.001268 0.000000
  outer loop
    vertex 0.929389 0.012956 0.250000
    vertex 0.931925 0.011930 0.250000
    vertex 0.931925 0.011930 -0.250000
  endloop
endfacet
facet normal 0.000513 0.001268 0.000000
  outer loop
    vertex 0.929389 0.012956 0.250000
    vertex 0.931925 0.011930 -0.250000
    vertex 0.929389 0.012956 -0.250000
  endloop
endfacet
facet normal 0.000547 0.001301 0.000000
  outer loop
    vertex 0.931925 0.011930 0.250000
    vertex 0.934527 0.010837 0.250000
    vertex 0.934527 0.010837 -0.250000
  endloop
endfacet
facet normal 0.000547 0.001301 0.000000
  outer loop
    vertex 0.931925 0.011930 0.250000
    vertex 0.934527 0.010837 -0.250000
    vertex 0.931925 0.011930 -0.250000
  endloop
endfacet
facet normal 0.000580 0.001335 0.000000
  outer loop
    vertex 0.934527 0.010837 0.250000
    vertex 0.937197 0.009678 0.250000
    vertex 0.937197 0.009678 -0.250000
  endloop
endfacet
facet normal 0.000580 0.001335 0.000000
  outer loop
    vertex 0.934527 0.010837 0.250000
    vertex 0.937197 0.009678 -0.250000
    vertex 0.934527 0.010837 -0.250000
  endloop
endfacet
facet normal 0.000614 0.001371 0.000000
  outer loop
    vertex 0.937197 0.009678 0.250000
    vertex 0.939939 0.008450 0.250000
    vertex 0.939939 0.008450 -0.250000
  endloop
endfacet
facet normal 0.000614 0.001371 0.000000
  outer loop
    vertex 0.937197 0.009678 0.250000
    vertex 0.939939 0.008450 -0.250000
    vertex 0.937197 0.009678 -0.250000
  endloop
endfacet
facet normal 0.000650 0.001406 0.000000
  outer loop
    vertex 0.939939 0.008450 0.250000
    vertex 0.942752 0.007149 0.250000
    vertex 0.942752 0.007149 -0.250000
  endloop
endfacet
facet normal 0.000650 0.001406 0.000000
  outer loop
    vertex 0.939939 0.008450 0.250000
    vertex 0.942752 0.007149 -0.250000
    vertex 0.939939 0.008450 -0.250000
  endloop
endfacet
facet normal 0.000690 0.001442 0.000000
  outer loop
    vertex 0.942752 0.007149 0.250000
    vertex 0.945637 0.005769 0.250000
    vertex 0.945637 0.005769 -0.250000
  endloop
endfacet
facet normal 0.000690 0.001442 0.000000
  outer loop
    vertex 0.942752 0.007149 0.250000
    vertex 0.945637 0.005769 -0.250000
    vertex 0.942752 0.007149 -0.250000
  endloop
endfacet
facet normal 0.000730 0.001479 0.000000
  outer loop
    vertex 0.945637 0.005769 0.250000
    vertex 0.948595 0.004309 0.250000
    vertex 0.948595 0.004309 -0.250000
  endloop
endfacet
facet normal 0.000730 0.001479 0.000000
  outer loop
    vertex 0.945637 0.005769 0.250000
    vertex 0.948595 0.004309 -0.250000
    vertex 0.945637 0.005769 -0.250000
  endloop
endfacet
facet normal 0.000771 0.001518 0.000000
  outer loop
    vertex 0.948595 0.004309 0.250000
    vertex 0.951630 0.002767 0.250000
    vertex 0.951630 0.002767 -0.250000
  endloop
endfacet
facet normal 0.000771 0.001518 0.000000
  outer loop
    vertex 0.948595 0.004309 0.250000
    vertex 0.951630 0.002767 -0.250000
    vertex 0.948595 0.004309 -0.250000
  endloop
endfacet
facet normal 0.000814 0.001556 0.000000
  outer loop
    vertex 0.951630 0.002767 0.250000
    vertex 0.954742 0.001140 0.250000
    vertex 0.954742 0.001140 -0.250000
  endloop
endfacet
facet normal 0.000814 0.001556 0.000000
  outer loop
    vertex 0.951630 0.002767 0.250000
    vertex 0.954742 0.001140 -0.250000
    vertex 0.951630 0.002767 -0.250000
  endloop
endfacet
facet normal 0.000855 0.001597 0.000000
  outer loop
    vertex 0.954742 0.001140 0.250000
    vertex 0.957936 -0.000571 0.250000
    vertex 0.957936 -0.000571 -0.250000
  endloop
endfacet
facet normal 0.000855 0.001597 0.000000
  outer loop
    vertex 0.954742 0.001140 0.250000
    vertex 0.957936 -0.000571 -0.250000
    vertex 0.954742 0.001140 -0.250000
  endloop
endfacet
facet normal 0.000898 0.001640 0.000000
  outer loop
    vertex 0.957936 -0.000571 0.250000
    vertex 0.961215 -0.002366 0.250000
    vertex 0.961215 -0.002366 -0.250000
  endloop
endfacet
facet normal 0.000898 0.001640 0.000000
  outer loop
    vertex 0.957936 -0.000571 0.250000
    vertex 0.961215 -0.002366 -0.250000
    vertex 0.957936 -0.000571 -0.250000
  endloop
endfacet
facet normal 0.000941 0.001684 0.000000
  outer loop
    vertex 0.961215 -0.002366 0.250000
    vertex 0.964582 -0.004248 0.250000
    vertex 0.964582 -0.004248 -0.250000
  endloop
endfacet
facet normal 0.000941 0.001684 0.000000
  outer loop
    vertex 0.961215 -0.002366 0.250000
    vertex 0.964582 -0.004248 -0.250000
    vertex 0.961215 -0.002366 -0.250000
  endloop
endfacet
facet normal 0.000987 0.001727 0.000000
  outer loop
    vertex 0.964582 -0.004248 0.250000
    vertex 0.968036 -0.006223 0.250000
    vertex 0.968036 -0.006223 -0.250000
  endloop
endfacet
facet normal 0.000987 0.001727 0.000000
  outer loop
    vertex 0.964582 -0.004248 0.250000
    vertex 0.968036 -0.006223 -0.250000
    vertex 0.964582 -0.004248 -0.250000
  endloop
endfacet
facet normal 0.001037 0.001772 0.000000
  outer loop
    vertex 0.968036 -0.006223 0.250000
    vertex 0.971579 -0.008297 0.250000
    vertex 0.971579 -0.008297 -0.250000
  endloop
endfacet
facet normal 0.001037 0.001772 0.000000
  outer loop
    vertex 0.968036 -0.006223 0.250000
    vertex 0.971579 -0.008297 -0.250000
    vertex 0.968036 -0.006223 -0.250000
  endloop
endfacet
facet normal 0.001087 0.001817 0.000000
  outer loop
    vertex 0.971579 -0.008297 0.250000
    vertex 0.975213 -0.010472 0.250000
    vertex 0.975213 -0.010472 -0.250000
  endloop
endfacet
facet normal 0.001087 0.001817 0.000000
  outer loop
    vertex 0.971579 -0.008297 0.250000
    vertex 0.975213 -0.010472 -0.250000
    vertex 0.971579 -0.008297 -0.250000
  endloop
endfacet
facet normal 0.001142 0.001863 0.000000
  outer loop
    vertex 0.975213 -0.010472 0.250000
    vertex 0.978939 -0.012757 0.250000
    vertex 0.978939 -0.012757 -0.250000
  endloop
endfacet
facet normal 0.001142 0.001863 0.000000
  outer loop
    vertex 0.975213 -0.010472 0.250000
    vertex 0.978939 -0.012757 -0.250000
    vertex 0.975213 -0.010472 -0.250000
  endloop
endfacet
facet normal 0.001196 0.001911 0.000000
  outer loop
    vertex 0.978939 -0.012757 0.250000
    vertex 0.982761 -0.015149 0.250000
    vertex 0.982761 -0.015149 -0.250000
  endloop
endfacet
facet normal 0.001196 0.001911 0.000000
  outer loop
    vertex 0.978939 -0.012757 0.250000
    vertex 0.982761 -0.015149 -0.250000
    vertex 0.978939 -0.012757 -0.250000
  endloop
endfacet
facet normal 0.001252 0.001960 0.000000
  outer loop
    vertex 0.982761 -0.015149 0.250000
    vertex 0.986681 -0.017654 0.250000
    vertex 0.986681 -0.017654 -0.250000
  endloop
endfacet
facet normal 0.001252 0.001960 0.000000
  outer loop
    vertex 0.982761 -0.015149 0.250000
    vertex 0.986681 -0.017654 -0.250000
    vertex 0.982761 -0.015149 -0.250000
  endloop
endfacet
facet normal 0.001311 0.002010 0.000000
  outer loop
    vertex 0.986681 -0.017654 0.250000
    vertex 0.990701 -0.020275 0.250000
    vertex 0.990701 -0.020275 -0.250000
  endloop
endfacet
facet normal 0.001311 0.002010 0.000000
  outer loop
    vertex 0.986681 -0.017654 0.250000
    vertex 0.990701 -0.020275 -0.250000
    vertex 0.986681 -0.017654 -0.250000
  endloop
endfacet
facet normal 0.001373 0.002060 0.000000
  outer loop
    vertex 0.990701 -0.020275 0.250000
    vertex 0.994821 -0.023022 0.250000
    vertex 0.994821 -0.023022 -0.250000
  endloop
endfacet
facet normal 0.001373 0.002060 0.000000
  outer loop
    vertex 0.990701 -0.020275 0.250000
    vertex 0.994821 -0.023022 -0.250000
    vertex 0.990701 -0.020275 -0.250000
  endloop
endfacet
facet normal 0.001438 0.002111 0.000000
  outer loop
    vertex 0.994821 -0.023022 0.250000
    vertex 0.999043 -0.025898 0.250000
    vertex 0.999043 -0.025898 -0.250000
  endloop
endfacet
facet normal 0.001438 0.002111 0.000000
  outer loop
    vertex 0.994821 -0.023022 0.250000
    vertex 0.999043 -0.025898 -0.250000
    vertex 0.994821 -0.023022 -0.250000
  endloop
endfacet
facet normal 0.001507 0.002162 0.000000
  outer loop
    vertex 0.999043 -0.025898 0.250000
    vertex 1.003366 -0.028912 0.250000
    vertex 1.003366 -0.028912 -0.250000
  endloop
endfacet
facet normal 0.001507 0.002162 0.000000
  outer loop
    vertex 0.999043 -0.025898 0.250000
    vertex 1.003366 -0.028912 -0.250000
    vertex 0.999043 -0.025898 -0.250000
  endloop
endfacet
facet normal 0.001583 0.002211 0.000000
  outer loop
    vertex 1.003366 -0.028912 0.250000
    vertex 1.007788 -0.032078 0.250000
    vertex 1.007788 -0.032078 -0.250000
  endloop
endfacet
facet normal 0.001583 0.002211 0.000000
  outer loop
    vertex 1.003366 -0.028912 0.250000
    vertex 1.007788 -0.032078 -0.250000
    vertex 1.003366 -0.028912 -0.250000
  endloop
endfacet
facet normal 0.001662 0.002260 0.000000
  outer loop
    vertex 1.007788 -0.032078 0.250000
    vertex 1.012307 -0.035403 0.250000
    vertex 1.012307 -0.035403 -0.250000
  endloop
endfacet
facet normal 0.001662 0.002260 0.000000
  outer loop
    vertex 1.007788 -0.032078 0.250000
    vertex 1.012307 -0.035403 -0.250000
    vertex 1.007788 -0.032078 -0.250000
  endloop
endfacet
facet normal 0.001737 0.002315 0.000000
  outer loop
    vertex 1.012307 -0.035403 0.250000
    vertex 1.016938 -0.038876 0.250000
    vertex 1.016938 -0.038876 -0.250000
  endloop
endfacet
facet normal 0.001737 0.002315 0.000000
  outer loop
    vertex 1.012307 -0.035403 0.250000
    vertex 1.016938 -0.038876 -0.250000
    vertex 1.012307 -0.035403 -0.250000
  endloop
endfacet
facet normal 0.001814 0.002372 0.000000
  outer loop
    vertex 1.016938 -0.038876 0.250000
    vertex 1.021682 -0.042504 0.250000
    vertex 1.021682 -0.042504 -0.250000
  endloop
endfacet
facet normal 0.001814 0.002372 0.000000
  outer loop
    vertex 1.016938 -0.038876 0.250000
    vertex 1.021682 -0.042504 -0.250000
    vertex 1.016938 -0.038876 -0.250000
  endloop
endfacet
facet normal 0.001772 0.002267 0.000000
  outer loop
    vertex 1.021682 -0.042504 0.250000
    vertex 1.026217 -0.046048 0.250000
    vertex 1.026217 -0.046048 -0.250000
  endloop
endfacet
facet normal 0.001772 0.002267 0.000000
  outer loop
    vertex 1.021682 -0.042504 0.250000
    vertex 1.026217 -0.046048 -0.250000
    vertex 1.021682 -0.042504 -0.250000
  endloop
endfacet
facet normal 0.001719 0.002176 0.000000
  outer loop
    vertex 1.026217 -0.046048 0.250000
    vertex 1.030568 -0.049486 0.250000
    vertex 1.030568 -0.049486 -0.250000
  endloop
endfacet
facet normal 0.001719 0.002176 0.000000
  outer loop
    vertex 1.026217 -0.046048 0.250000
    vertex 1.030568 -0.049486 -0.250000
    vertex 1.026217 -0.046048 -0.250000
  endloop
endfacet
facet normal 0.001664 0.002091 0.000000
  outer loop
    vertex 1.030568 -0.049486 0.250000
    vertex 1.034750 -0.052814 0.250000
    vertex 1.034750 -0.052814 -0.250000
  endloop
endfacet
facet normal 0.001664 0.002091 0.000000
  outer loop
    vertex 1.030568 -0.049486 0.250000
    vertex 1.034750 -0.052814 -0.250000
    vertex 1.030568 -0.049486 -0.250000
  endloop
endfacet
facet normal 0.001610 0.002010 0.000000
  outer loop
    vertex 1.034750 -0.052814 0.250000
    vertex 1.038769 -0.056034 0.250000
    vertex 1.038769 -0.056034 -0.250000
  endloop
endfacet
facet normal 0.001610 0.002010 0.000000
  outer loop
    vertex 1.034750 -0.052814 0.250000
    vertex 1.038769 -0.056034 -0.250000
    vertex 1.034750 -0.052814 -0.250000
  endloop
endfacet
facet normal 0.001557 0.001932 0.000000
  outer loop
    vertex 1.038769 -0.056034 0.250000
    vertex 1.042633 -0.059148 0.250000
    vertex 1.042633 -0.059148 -0.250000
  endloop
endfacet
facet normal 0.001557 0.001932 0.000000
  outer loop
    vertex 1.038769 -0.056034 0.250000
    vertex 1.042633 -0.059148 -0.250000
    vertex 1.038769 -0.056034 -0.250000
  endloop
endfacet
facet normal 0.001509 0.001855 0.000000
  outer loop
    vertex 1.042633 -0.059148 0.250000
    vertex 1.046343 -0.062166 0.250000
    vertex 1.046343 -0.062166 -0.250000
  endloop
endfacet
facet normal 0.001509 0.001855 0.000000
  outer loop
    vertex 1.042633 -0.059148 0.250000
    vertex 1.046343 -0.062166 -0.250000
    vertex 1.042633 -0.059148 -0.250000
  endloop
endfacet
facet normal 0.001460 0.001782 0.000000
  outer loop
    vertex 1.046343 -0.062166 0.250000
    vertex 1.049907 -0.065086 0.250000
    vertex 1.049907 -0.065086 -0.250000
  endloop
endfacet
facet normal 0.001460 0.001782 0.000000
  outer loop
    vertex 1.046343 -0.062166 0.250000
    vertex 1.049907 -0.065086 -0.250000
    vertex 1.046343 -0.062166 -0.250000
  endloop
endfacet
facet normal 0.001410 0.001716 0.000000
  outer loop
    vertex 1.049907 -0.065086 0.250000
    vertex 1.053338 -0.067906 0.250000
    vertex 1.053338 -0.067906 -0.250000
  endloop
endfacet
facet normal 0.001410 0.001716 0.000000
  outer loop
    vertex 1.049907 -0.065086 0.250000
    vertex 1.053338 -0.067906 -0.250000
    vertex 1.049907 -0.065086 -0.250000
  endloop
endfacet
facet normal 0.001363 0.001649 0.000000
  outer loop
    vertex 1.053338 -0.067906 0.250000
    vertex 1.056636 -0.070632 0.250000
    vertex 1.056636 -0.070632 -0.250000
  endloop
endfacet
facet normal 0.001363 0.001649 0.000000
  outer loop
    vertex 1.053338 -0.067906 0.250000
    vertex 1.056636 -0.070632 -0.250000
    vertex 1.053338 -0.067906 -0.250000
  endloop
endfacet
facet normal 0.001324 0.001581 0.000000
  outer loop
    vertex 1.056636 -0.070632 0.250000
    vertex 1.059798 -0.073280 0.250000
    vertex 1.059798 -0.073280 -0.250000
  endloop
endfacet
facet normal 0.001324 0.001581 0.000000
  outer loop
    vertex 1.056636 -0.070632 0.250000
    vertex 1.059798 -0.073280 -0.250000
    vertex 1.056636 -0.070632 -0.250000
  endloop
endfacet
facet normal 0.001285 0.001516 0.000000
  outer loop
    vertex 1.059798 -0.073280 0.250000
    vertex 1.062829 -0.075850 0.250000
    vertex 1.062829 -0.075850 -0.250000
  endloop
endfacet
facet normal 0.001285 0.001516 0.000000
  outer loop
    vertex 1.059798 -0.073280 0.250000
    vertex 1.062829 -0.075850 -0.250000
    vertex 1.059798 -0.073280 -0.250000
  endloop
endfacet
facet normal 0.001244 0.001455 0.000000
  outer loop
    vertex 1.062829 -0.075850 0.250000
    vertex 1.065740 -0.078338 0.250000
    vertex 1.065740 -0.078338 -0.250000
  endloop
endfacet
facet normal 0.001244 0.001455 0.000000
  outer loop
    vertex 1.062829 -0.075850 0.250000
    vertex 1.065740 -0.078338 -0.250000
    vertex 1.062829 -0.075850 -0.250000
  endloop
endfacet
facet normal 0.001204 0.001397 0.000000
  outer loop
    vertex 1.065740 -0.078338 0.250000
    vertex 1.068535 -0.080746 0.250000
    vertex 1.068535 -0.080746 -0.250000
  endloop
endfacet
facet normal 0.001204 0.001397 0.000000
  outer loop
    vertex 1.065740 -0.078338 0.250000
    vertex 1.068535 -0.080746 -0.250000
    vertex 1.065740 -0.078338 -0.250000
  endloop
endfacet
facet normal 0.001167 0.001342 0.000000
  outer loop
    vertex 1.068535 -0.080746 0.250000
    vertex 1.071218 -0.083079 0.250000
    vertex 1.071218 -0.083079 -0.250000
  endloop
endfacet
facet normal 0.001167 0.001342 0.000000
  outer loop
    vertex 1.068535 -0.080746 0.250000
    vertex 1.071218 -0.083079 -0.250000
    vertex 1.068535 -0.080746 -0.250000
  endloop
endfacet
facet normal 0.001130 0.001288 0.000000
  outer loop
    vertex 1.071218 -0.083079 0.250000
    vertex 1.073794 -0.085340 0.250000
    vertex 1.073794 -0.085340 -0.250000
  endloop
endfacet
facet normal 0.001130 0.001288 0.000000
  outer loop
    vertex 1.071218 -0.083079 0.250000
    vertex 1.073794 -0.085340 -0.250000
    vertex 1.071218 -0.083079 -0.250000
  endloop
endfacet
facet normal 0.001094 0.001236 0.000000
  outer loop
    vertex 1.073794 -0.085340 0.250000
    vertex 1.076267 -0.087528 0.250000
    vertex 1.076267 -0.087528 -0.250000
  endloop
endfacet
facet normal 0.001094 0.001236 0.000000
  outer loop
    vertex 1.073794 -0.085340 0.250000
    vertex 1.076267 -0.087528 -0.250000
    vertex 1.073794 -0.085340 -0.250000
  endloop
endfacet
facet normal 0.001056 0.001189 0.000000
  outer loop
    vertex 1.076267 -0.087528 0.250000
    vertex 1.078645 -0.089641 0.250000
    vertex 1.078645 -0.089641 -0.250000
  endloop
endfacet
facet normal 0.001056 0.001189 0.000000
  outer loop
    vertex 1.076267 -0.087528 0.250000
    vertex 1.078645 -0.089641 -0.250000
    vertex 1.076267 -0.087528 -0.250000
  endloop
endfacet
facet normal 0.001020 0.001145 0.000000
  outer loop
    vertex 1.078645 -0.089641 0.250000
    vertex 1.080934 -0.091681 0.250000
    vertex 1.080934 -0.091681 -0.250000
  endloop
endfacet
facet normal 0.001020 0.001145 0.000000
  outer loop
    vertex 1.078645 -0.089641 0.250000
    vertex 1.080934 -0.091681 -0.250000
    vertex 1.078645 -0.089641 -0.250000
  endloop
endfacet
facet normal 0.000986 0.001100 0.000000
  outer loop
    vertex 1.080934 -0.091681 0.250000
    vertex 1.083134 -0.093654 0.250000
    vertex 1.083134 -0.093654 -0.250000
  endloop
endfacet
facet normal 0.000986 0.001100 0.000000
  outer loop
    vertex 1.080934 -0.091681 0.250000
    vertex 1.083134 -0.093654 -0.250000
    vertex 1.080934 -0.091681 -0.250000
  endloop
endfacet
facet normal 0.000955 0.001055 0.000000
  outer loop
    vertex 1.083134 -0.093654 0.250000
    vertex 1.085245 -0.095565 0.250000
    vertex 1.085245 -0.095565 -0.250000
  endloop
endfacet
facet normal 0.000955 0.001055 0.000000
  outer loop
    vertex 1.083134 -0.093654 0.250000
    vertex 1.085245 -0.095565 -0.250000
    vertex 1.083134 -0.093654 -0.250000
  endloop
endfacet
facet normal 0.000925 0.001014 0.000000
  outer loop
    vertex 1.085245 -0.095565 0.250000
    vertex 1.087272 -0.097414 0.250000
    vertex 1.087272 -0.097414 -0.250000
  endloop
endfacet
facet normal 0.000925 0.001014 0.000000
  outer loop
    vertex 1.085245 -0.095565 0.250000
    vertex 1.087272 -0.097414 -0.250000
    vertex 1.085245 -0.095565 -0.250000
  endloop
endfacet
facet normal 0.000896 0.000972 0.000000
  outer loop
    vertex 1.087272 -0.097414 0.250000
    vertex 1.089217 -0.099205 0.250000
    vertex 1.089217 -0.099205 -0.250000
  endloop
endfacet
facet normal 0.000896 0.000972 0.000000
  outer loop
    vertex 1.087272 -0.097414 0.250000
    vertex 1.089217 -0.099205 -0.250000
    vertex 1.087272 -0.097414 -0.250000
  endloop
endfacet
facet normal 0.000868 0.000932 0.000000
  outer loop
    vertex 1.089217 -0.099205 0.250000
    vertex 1.091081 -0.100942 0.250000
    vertex 1.091081 -0.100942 -0.250000
  endloop
endfacet
facet normal 0.000868 0.000932 0.000000
  outer loop
    vertex 1.089217 -0.099205 0.250000
    vertex 1.091081 -0.100942 -0.250000
    vertex 1.089217 -0.099205 -0.250000
  endloop
endfacet
facet normal 0.000843 0.000893 0.000000
  outer loop
    vertex 1.091081 -0.100942 0.250000
    vertex 1.092867 -0.102627 0.250000
    vertex 1.092867 -0.102627 -0.250000
  endloop
endfacet
facet normal 0.000843 0.000893 0.000000
  outer loop
    vertex 1.091081 -0.100942 0.250000
    vertex 1.092867 -0.102627 -0.250000
    vertex 1.091081 -0.100942 -0.250000
  endloop
endfacet
facet normal 0.000815 0.000857 0.000000
  outer loop
    vertex 1.092867 -0.102627 0.250000
    vertex 1.094582 -0.104257 0.250000
    vertex 1.094582 -0.104257 -0.250000
  endloop
endfacet
facet normal 0.000815 0.000857 0.000000
  outer loop
    vertex 1.092867 -0.102627 0.250000
    vertex 1.094582 -0.104257 -0.250000
    vertex 1.092867 -0.102627 -0.250000
  endloop
endfacet
facet normal 0.000788 0.000823 0.000000
  outer loop
    vertex 1.094582 -0.104257 0.250000
    vertex 1.096229 -0.105833 0.250000
    vertex 1.096229 -0.105833 -0.250000
  endloop
endfacet
facet normal 0.000788 0.000823 0.000000
  outer loop
    vertex 1.094582 -0.104257 0.250000
    vertex 1.096229 -0.105833 -0.250000
    vertex 1.094582 -0.104257 -0.250000
  endloop
endfacet
facet normal 0.000762 0.000792 0.000000
  outer loop
    vertex 1.096229 -0.105833 0.250000
    vertex 1.097812 -0.107357 0.250000
    vertex 1.097812 -0.107357 -0.250000
  endloop
endfacet
facet normal 0.000762 0.000792 0.000000
  outer loop
    vertex 1.096229 -0.105833 0.250000
    vertex 1.097812 -0.107357 -0.250000
    vertex 1.096229 -0.105833 -0.250000
  endloop
endfacet
facet normal 0.000736 0.000760 0.000000
  outer loop
    vertex 1.097812 -0.107357 0.250000
    vertex 1.099332 -0.108830 0.250000
    vertex 1.099332 -0.108830 -0.250000
  endloop
endfacet
facet normal 0.000736 0.000760 0.000000
  outer loop
    vertex 1.097812 -0.107357 0.250000
    vertex 1.099332 -0.108830 -0.250000
    vertex 1.097812 -0.107357 -0.250000
  endloop
endfacet
facet normal 0.000713 0.000731 0.000000
  outer loop
    vertex 1.099332 -0.108830 0.250000
    vertex 1.100793 -0.110255 0.250000
    vertex 1.100793 -0.110255 -0.250000
  endloop
endfacet
facet normal 0.000713 0.000731 0.000000
  outer loop
    vertex 1.099332 -0.108830 0.250000
    vertex 1.100793 -0.110255 -0.250000
    vertex 1.099332 -0.108830 -0.250000
  endloop
endfacet
facet normal 0.000688 0.000702 0.000000
  outer loop
    vertex 1.100793 -0.110255 0.250000
    vertex 1.102197 -0.111631 0.250000
    vertex 1.102197 -0.111631 -0.250000
  endloop
endfacet
facet normal 0.000688 0.000702 0.000000
  outer loop
    vertex 1.100793 -0.110255 0.250000
    vertex 1.102197 -0.111631 -0.250000
    vertex 1.100793 -0.110255 -0.250000
  endloop
endfacet
facet normal 0.000665 0.000674 0.000000
  outer loop
    vertex 1.102197 -0.111631 0.250000
    vertex 1.103546 -0.112960 0.250000
    vertex 1.103546 -0.112960 -0.250000
  endloop
endfacet
facet normal 0.000665 0.000674 0.000000
  outer loop
    vertex 1.102197 -0.111631 0.250000
    vertex 1.103546 -0.112960 -0.250000
    vertex 1.102197 -0.111631 -0.250000
  endloop
endfacet
facet normal 0.000642 0.000648 0.000000
  outer loop
    vertex 1.103546 -0.112960 0.250000
    vertex 1.104843 -0.114245 0.250000
    vertex 1.104843 -0.114245 -0.250000
  endloop
endfacet
facet normal 0.000642 0.000648 0.000000
  outer loop
    vertex 1.103546 -0.112960 0.250000
    vertex 1.104843 -0.114245 -0.250000
    vertex 1.103546 -0.112960 -0.250000
  endloop
endfacet
facet normal 0.000621 0.000623 0.000000
  outer loop
    vertex 1.104843 -0.114245 0.250000
    vertex 1.106089 -0.115487 0.250000
    vertex 1.106089 -0.115487 -0.250000
  endloop
endfacet
facet normal 0.000621 0.000623 0.000000
  outer loop
    vertex 1.104843 -0.114245 0.250000
    vertex 1.106089 -0.115487 -0.250000
    vertex 1.104843 -0.114245 -0.250000
  endloop
endfacet
facet normal 0.000600 0.000598 0.000000
  outer loop
    vertex 1.106089 -0.115487 0.250000
    vertex 1.107285 -0.116688 0.250000
    vertex 1.107285 -0.116688 -0.250000
  endloop
endfacet
facet normal 0.000600 0.000598 0.000000
  outer loop
    vertex 1.106089 -0.115487 0.250000
    vertex 1.107285 -0.116688 -0.250000
    vertex 1.106089 -0.115487 -0.250000
  endloop
endfacet
facet normal 0.000579 0.000576 0.000000
  outer loop
    vertex 1.107285 -0.116688 0.250000
    vertex 1.108438 -0.117846 0.250000
    vertex 1.108438 -0.117846 -0.250000
  endloop
endfacet
facet normal 0.000579 0.000576 0.000000
  outer loop
    vertex 1.107285 -0.116688 0.250000
    vertex 1.108438 -0.117846 -0.250000
    vertex 1.107285 -0.116688 -0.250000
  endloop
endfacet
facet normal 0.000558 0.000556 0.000000
  outer loop
    vertex 1.108438 -0.117846 0.250000
    vertex 1.109549 -0.118961 0.250000
    vertex 1.109549 -0.118961 -0.250000
  endloop
endfacet
facet normal 0.000558 0.000556 0.000000
  outer loop
    vertex 1.108438 -0.117846 0.250000
    vertex 1.109549 -0.118961 -0.250000
    vertex 1.108438 -0.117846 -0.250000
  endloop
endfacet
facet normal 0.000537 0.000536 0.000000
  outer loop
    vertex 1.109549 -0.118961 0.250000
    vertex 1.110621 -0.120035 0.250000
    vertex 1.110621 -0.120035 -0.250000
  endloop
endfacet
facet normal 0.000537 0.000536 0.000000
  outer loop
    vertex 1.109549 -0.118961 0.250000
    vertex 1.110621 -0.120035 -0.250000
    vertex 1.109549 -0.118961 -0.250000
  endloop
endfacet
facet normal 0.000517 0.000517 0.000000
  outer loop
    vertex 1.110621 -0.120035 0.250000
    vertex 1.111655 -0.121068 0.250000
    vertex 1.111655 -0.121068 -0.250000
  endloop
endfacet
facet normal 0.000517 0.000517 0.000000
  outer loop
    vertex 1.110621 -0.120035 0.250000
    vertex 1.111655 -0.121068 -0.250000
    vertex 1.110621 -0.120035 -0.250000
  endloop
endfacet
facet normal 0.000498 0.000498 0.000000
  outer loop
    vertex 1.111655 -0.121068 0.250000
    vertex 1.112650 -0.122065 0.250000
    vertex 1.112650 -0.122065 -0.250000
  endloop
endfacet
facet normal 0.000498 0.000498 0.000000
  outer loop
    vertex 1.111655 -0.121068 0.250000
    vertex 1.112650 -0.122065 -0.250000
    vertex 1.111655 -0.121068 -0.250000
  endloop
endfacet
facet normal 0.000480 0.000479 0.000000
  outer loop
    vertex 1.112650 -0.122065 0.250000
    vertex 1.113609 -0.123026 0.250000
    vertex 1.113609 -0.123026 -0.250000
  endloop
endfacet
facet normal 0.000480 0.000479 0.000000
  outer loop
    vertex 1.112650 -0.122065 0.250000
    vertex 1.113609 -0.123026 -0.250000
    vertex 1.112650 -0.122065 -0.250000
  endloop
endfacet
facet normal 0.000464 0.000462 0.000000
  outer loop
    vertex 1.113609 -0.123026 0.250000
    vertex 1.114532 -0.123953 0.250000
    vertex 1.114532 -0.123953 -0.250000
  endloop
endfacet
facet normal 0.000464 0.000462 0.000000
  outer loop
    vertex 1.113609 -0.123026 0.250000
    vertex 1.114532 -0.123953 -0.250000
    vertex 1.113609 -0.123026 -0.250000
  endloop
endfacet
facet normal 0.000447 0.000444 0.000000
  outer loop
    vertex 1.114532 -0.123953 0.250000
    vertex 1.115420 -0.124847 0.250000
    vertex 1.115420 -0.124847 -0.250000
  endloop
endfacet
facet normal 0.000447 0.000444 0.000000
  outer loop
    vertex 1.114532 -0.123953 0.250000
    vertex 1.115420 -0.124847 -0.250000
    vertex 1.114532 -0.123953 -0.250000
  endloop
endfacet
facet normal 0.000430 0.000429 0.000000
  outer loop
    vertex 1.115420 -0.124847 0.250000
    vertex 1.116278 -0.125707 0.250000
    vertex 1.116278 -0.125707 -0.250000
  endloop
endfacet
facet normal 0.000430 0.000429 0.000000
  outer loop
    vertex 1.115420 -0.124847 0.250000
    vertex 1.116278 -0.125707 -0.250000
    vertex 1.115420 -0.124847 -0.250000
  endloop
endfacet
facet normal 0.000414 0.000413 0.000000
  outer loop
    vertex 1.116278 -0.125707 0.250000
    vertex 1.117105 -0.126535 0.250000
    vertex 1.117105 -0.126535 -0.250000
  endloop
endfacet
facet normal 0.000414 0.000413 0.000000
  outer loop
    vertex 1.116278 -0.125707 0.250000
    vertex 1.117105 -0.126535 -0.250000
    vertex 1.116278 -0.125707 -0.250000
  endloop
endfacet
facet normal 0.000399 0.000399 0.000000
  outer loop
    vertex 1.117105 -0.126535 0.250000
    vertex 1.117903 -0.127332 0.250000
    vertex 1.117903 -0.127332 -0.250000
  endloop
endfacet
facet normal 0.000399 0.000399 0.000000
  outer loop
    vertex 1.117105 -0.126535 0.250000
    vertex 1.117903 -0.127332 -0.250000
    vertex 1.117105 -0.126535 -0.250000
  endloop
endfacet
facet normal 0.000383 0.000386 0.000000
  outer loop
    vertex 1.117903 -0.127332 0.250000
    vertex 1.118674 -0.128099 0.250000
    vertex 1.118674 -0.128099 -0.250000
  endloop
endfacet
facet normal 0.000383 0.000386 0.000000
  outer loop
    vertex 1.117903 -0.127332 0.250000
    vertex 1.118674 -0.128099 -0.250000
    vertex 1.117903 -0.127332 -0.250000
  endloop
endfacet
facet normal 0.000370 0.000371 0.000000
  outer loop
    vertex 1.118674 -0.128099 0.250000
    vertex 1.119416 -0.128839 0.250000
    vertex 1.119416 -0.128839 -0.250000
  endloop
endfacet
facet normal 0.000370 0.000371 0.000000
  outer loop
    vertex 1.118674 -0.128099 0.250000
    vertex 1.119416 -0.128839 -0.250000
    vertex 1.118674 -0.128099 -0.250000
  endloop
endfacet
facet normal 0.000357 0.000357 0.000000
  outer loop
    vertex 1.119416 -0.128839 0.250000
    vertex 1.120130 -0.129552 0.250000
    vertex 1.120130 -0.129552 -0.250000
  endloop
endfacet
facet normal 0.000357 0.000357 0.000000
  outer loop
    vertex 1.119416 -0.128839 0.250000
    vertex 1.120130 -0.129552 -0.250000
    vertex 1.119416 -0.128839 -0.250000
  endloop
endfacet
facet normal 0.000344 0.000343 0.000000
  outer loop
    vertex 1.120130 -0.129552 0.250000
    vertex 1.120816 -0.130241 0.250000
    vertex 1.120816 -0.130241 -0.250000
  endloop
endfacet
facet normal 0.000344 0.000343 0.000000
  outer loop
    vertex 1.120130 -0.129552 0.250000
    vertex 1.120816 -0.130241 -0.250000
    vertex 1.120130 -0.129552 -0.250000
  endloop
endfacet
facet normal 0.000333 0.000330 0.000000
  outer loop
    vertex 1.120816 -0.130241 0.250000
    vertex 1.121476 -0.130907 0.250000
    vertex 1.121476 -0.130907 -0.250000
  endloop
endfacet
facet normal 0.000333 0.000330 0.000000
  outer loop
    vertex 1.120816 -0.130241 0.250000
    vertex 1.121476 -0.130907 -0.250000
    vertex 1.120816 -0.130241 -0.250000
  endloop
endfacet
facet normal 0.000321 0.000317 0.000000
  outer loop
    vertex 1.121476 -0.130907 0.250000
    vertex 1.122111 -0.131549 0.250000
    vertex 1.122111 -0.131549 -0.250000
  endloop
endfacet
facet normal 0.000321 0.000317 0.000000
  outer loop
    vertex 1.121476 -0.130907 0.250000
    vertex 1.122111 -0.131549 -0.250000
    vertex 1.121476 -0.130907 -0.250000
  endloop
endfacet
facet normal 0.000308 0.000308 0.000000
  outer loop
    vertex 1.122111 -0.131549 0.250000
    vertex 1.122726 -0.132165 0.250000
    vertex 1.122726 -0.132165 -0.250000
  endloop
endfacet
facet normal 0.000308 0.000308 0.000000
  outer loop
    vertex 1.122111 -0.131549 0.250000
    vertex 1.122726 -0.132165 -0.250000
    vertex 1.122111 -0.131549 -0.250000
  endloop
endfacet
facet normal 0.000297 0.000297 0.000000
  outer loop
    vertex 1.122726 -0.132165 0.250000
    vertex 1.123319 -0.132758 0.250000
    vertex 1.123319 -0.132758 -0.250000
  endloop
endfacet
facet normal 0.000297 0.000297 0.000000
  outer loop
    vertex 1.122726 -0.132165 0.250000
    vertex 1.123319 -0.132758 -0.250000
    vertex 1.122726 -0.132165 -0.250000
  endloop
endfacet
facet normal 0.000285 0.000286 0.000000
  outer loop
    vertex 1.123319 -0.132758 0.250000
    vertex 1.123892 -0.133327 0.250000
    vertex 1.123892 -0.133327 -0.250000
  endloop
endfacet
facet normal 0.000285 0.000286 0.000000
  outer loop
    vertex 1.123319 -0.132758 0.250000
    vertex 1.123892 -0.133327 -0.250000
    vertex 1.123319 -0.132758 -0.250000
  endloop
endfacet
facet normal 0.000274 0.000278 0.000000
  outer loop
    vertex 1.123892 -0.133327 0.250000
    vertex 1.124447 -0.133875 0.250000
    vertex 1.124447 -0.133875 -0.250000
  endloop
endfacet
facet normal 0.000274 0.000278 0.000000
  outer loop
    vertex 1.123892 -0.133327 0.250000
    vertex 1.124447 -0.133875 -0.250000
    vertex 1.123892 -0.133327 -0.250000
  endloop
endfacet
facet normal 0.000264 0.000266 0.000000
  outer loop
    vertex 1.124447 -0.133875 0.250000
    vertex 1.124980 -0.134403 0.250000
    vertex 1.124980 -0.134403 -0.250000
  endloop
endfacet
facet normal 0.000264 0.000266 0.000000
  outer loop
    vertex 1.124447 -0.133875 0.250000
    vertex 1.124980 -0.134403 -0.250000
    vertex 1.124447 -0.133875 -0.250000
  endloop
endfacet
facet normal 0.000255 0.000256 0.000000
  outer loop
    vertex 1.124980 -0.134403 0.250000
    vertex 1.125492 -0.134914 0.250000
    vertex 1.125492 -0.134914 -0.250000
  endloop
endfacet
facet normal 0.000255 0.000256 0.000000
  outer loop
    vertex 1.124980 -0.134403 0.250000
    vertex 1.125492 -0.134914 -0.250000
    vertex 1.124980 -0.134403 -0.250000
  endloop
endfacet
facet normal 0.000246 0.000247 0.000000
  outer loop
    vertex 1.125492 -0.134914 0.250000
    vertex 1.125985 -0.135406 0.250000
    vertex 1.125985 -0.135406 -0.250000
  endloop
endfacet
facet normal 0.000246 0.000247 0.000000
  outer loop
    vertex 1.125492 -0.134914 0.250000
    vertex 1.125985 -0.135406 -0.250000
    vertex 1.125492 -0.134914 -0.250000
  endloop
endfacet
facet normal 0.000238 0.000237 0.000000
  outer loop
    vertex 1.125985 -0.135406 0.250000
    vertex 1.126459 -0.135882 0.250000
    vertex 1.126459 -0.135882 -0.250000
  endloop
endfacet
facet normal 0.000238 0.000237 0.000000
  outer loop
    vertex 1.125985 -0.135406 0.250000
    vertex 1.126459 -0.135882 -0.250000
    vertex 1.125985 -0.135406 -0.250000
  endloop
endfacet
facet normal 0.000229 0.000229 0.000000
  outer loop
    vertex 1.126459 -0.135882 0.250000
    vertex 1.126916 -0.136340 0.250000
    vertex 1.126916 -0.136340 -0.250000
  endloop
endfacet
facet normal 0.000229 0.000229 0.000000
  outer loop
    vertex 1.126459 -0.135882 0.250000
    vertex 1.126916 -0.136340 -0.250000
    vertex 1.126459 -0.135882 -0.250000
  endloop
endfacet
facet normal 0.000220 0.000220 0.000000
  outer loop
    vertex 1.126916 -0.136340 0.250000
    vertex 1.127357 -0.136781 0.250000
    vertex 1.127357 -0.136781 -0.250000
  endloop
endfacet
facet normal 0.000220 0.000220 0.000000
  outer loop
    vertex 1.126916 -0.136340 0.250000
    vertex 1.127357 -0.136781 -0.250000
    vertex 1.126916 -0.136340 -0.250000
  endloop
endfacet
facet normal 0.000212 0.000212 0.000000
  outer loop
    vertex 1.127357 -0.136781 0.250000
    vertex 1.127782 -0.137206 0.250000
    vertex 1.127782 -0.137206 -0.250000
  endloop
endfacet
facet normal 0.000212 0.000212 0.000000
  outer loop
    vertex 1.127357 -0.136781 0.250000
    vertex 1.127782 -0.137206 -0.250000
    vertex 1.127357 -0.136781 -0.250000
  endloop
endfacet
facet normal 0.000204 0.000205 0.000000
  outer loop
    vertex 1.127782 -0.137206 0.250000
    vertex 1.128192 -0.137615 0.250000
    vertex 1.128192 -0.137615 -0.250000
  endloop
endfacet
facet normal 0.000204 0.000205 0.000000
  outer loop
    vertex 1.127782 -0.137206 0.250000
    vertex 1.128192 -0.137615 -0.250000
    vertex 1.127782 -0.137206 -0.250000
  endloop
endfacet
facet normal 0.000197 0.000198 0.000000
  outer loop
    vertex 1.128192 -0.137615 0.250000
    vertex 1.128588 -0.138009 0.250000
    vertex 1.128588 -0.138009 -0.250000
  endloop
endfacet
facet normal 0.000197 0.000198 0.000000
  outer loop
    vertex 1.128192 -0.137615 0.250000
    vertex 1.128588 -0.138009 -0.250000
    vertex 1.128192 -0.137615 -0.250000
  endloop
endfacet
facet normal 0.000191 0.000190 0.000000
  outer loop
    vertex 1.128588 -0.138009 0.250000
    vertex 1.128967 -0.138390 0.250000
    vertex 1.128967 -0.138390 -0.250000
  endloop
endfacet
facet normal 0.000191 0.000190 0.000000
  outer loop
    vertex 1.128588 -0.138009 0.250000
    vertex 1.128967 -0.138390 -0.250000
    vertex 1.128588 -0.138009 -0.250000
  endloop
endfacet
facet normal 0.000185 0.000180 0.000000
  outer loop
    vertex 1.128967 -0.138390 0.250000
    vertex 1.129328 -0.138761 0.250000
    vertex 1.129328 -0.138761 -0.250000
  endloop
endfacet
facet normal 0.000185 0.000180 0.000000
  outer loop
    vertex 1.128967 -0.138390 0.250000
    vertex 1.129328 -0.138761 -0.250000
    vertex 1.128967 -0.138390 -0.250000
  endloop
endfacet
facet normal 0.000179 0.000174 0.000000
  outer loop
    vertex 1.129328 -0.138761 0.250000
    vertex 1.129676 -0.139120 0.250000
    vertex 1.129676 -0.139120 -0.250000
  endloop
endfacet
facet normal 0.000179 0.000174 0.000000
  outer loop
    vertex 1.129328 -0.138761 0.250000
    vertex 1.129676 -0.139120 -0.250000
    vertex 1.129328 -0.138761 -0.250000
  endloop
endfacet
facet normal 0.000169 0.000172 0.000000
  outer loop
    vertex 1.129676 -0.139120 0.250000
    vertex 1.130021 -0.139458 0.250000
    vertex 1.130021 -0.139458 -0.250000
  endloop
endfacet
facet normal 0.000169 0.000172 0.000000
  outer loop
    vertex 1.129676 -0.139120 0.250000
    vertex 1.130021 -0.139458 -0.250000
    vertex 1.129676 -0.139120 -0.250000
  endloop
endfacet
facet normal 0.000164 0.000164 0.000000
  outer loop
    vertex 1.130021 -0.139458 0.250000
    vertex 1.130349 -0.139786 0.250000
    vertex 1.130349 -0.139786 -0.250000
  endloop
endfacet
facet normal 0.000164 0.000164 0.000000
  outer loop
    vertex 1.130021 -0.139458 0.250000
    vertex 1.130349 -0.139786 -0.250000
    vertex 1.130021 -0.139458 -0.250000
  endloop
endfacet
facet normal 0.000173 0.000138 0.000000
  outer loop
    vertex 1.130349 -0.139786 0.250000
    vertex 1.130625 -0.140133 0.250000
    vertex 1.130625 -0.140133 -0.250000
  endloop
endfacet
facet normal 0.000173 0.000138 0.000000
  outer loop
    vertex 1.130349 -0.139786 0.250000
    vertex 1.130625 -0.140133 -0.250000
    vertex 1.130349 -0.139786 -0.250000
  endloop
endfacet
facet normal 0.000182 0.000117 0.000000
  outer loop
    vertex 1.130625 -0.140133 0.250000
    vertex 1.130859 -0.140497 0.250000
    vertex 1.130859 -0.140497 -0.250000
  endloop
endfacet
facet normal 0.000182 0.000117 0.000000
  outer loop
    vertex 1.130625 -0.140133 0.250000
    vertex 1.130859 -0.140497 -0.250000
    vertex 1.130625 -0.140133 -0.250000
  endloop
endfacet
facet normal 0.003301 0.001705 0.000000
  outer loop
    vertex 1.130859 -0.140497 0.250000
    vertex 1.134270 -0.147098 0.250000
    vertex 1.134270 -0.147098 -0.250000
  endloop
endfacet
facet normal 0.003301 0.001705 0.000000
  outer loop
    vertex 1.130859 -0.140497 0.250000
    vertex 1.134270 -0.147098 -0.250000
    vertex 1.130859 -0.140497 -0.250000
  endloop
endfacet
endsolid flap.stl
