solid new_flap.stl
facet normal -0.000363 -0.003028 0.000000
  outer loop
    vertex 1.160348 -0.121309 0.250000
    vertex 1.154291 -0.120583 0.250000
    vertex 1.154291 -0.120583 -0.250000
  endloop
endfacet
facet normal -0.000363 -0.003028 -0.000000
  outer loop
    vertex 1.160348 -0.121309 0.250000
    vertex 1.154291 -0.120583 -0.250000
    vertex 1.160348 -0.121309 -0.250000
  endloop
endfacet
facet normal -0.000123 -0.000178 0.000000
  outer loop
    vertex 1.154291 -0.120583 0.250000
    vertex 1.153934 -0.120338 0.250000
    vertex 1.153934 -0.120338 -0.250000
  endloop
endfacet
facet normal -0.000123 -0.000178 -0.000000
  outer loop
    vertex 1.154291 -0.120583 0.250000
    vertex 1.153934 -0.120338 -0.250000
    vertex 1.154291 -0.120583 -0.250000
  endloop
endfacet
facet normal -0.000085 -0.000199 0.000000
  outer loop
    vertex 1.153934 -0.120338 0.250000
    vertex 1.153537 -0.120167 0.250000
    vertex 1.153537 -0.120167 -0.250000
  endloop
endfacet
facet normal -0.000085 -0.000199 -0.000000
  outer loop
    vertex 1.153934 -0.120338 0.250000
    vertex 1.153537 -0.120167 -0.250000
    vertex 1.153934 -0.120338 -0.250000
  endloop
endfacet
facet normal -0.000107 -0.000203 0.000000
  outer loop
    vertex 1.153537 -0.120167 0.250000
    vertex 1.153130 -0.119953 0.250000
    vertex 1.153130 -0.119953 -0.250000
  endloop
endfacet
facet normal -0.000107 -0.000203 -0.000000
  outer loop
    vertex 1.153537 -0.120167 0.250000
    vertex 1.153130 -0.119953 -0.250000
    vertex 1.153537 -0.120167 -0.250000
  endloop
endfacet
facet normal -0.000138 -0.000207 0.000000
  outer loop
    vertex 1.153130 -0.119953 0.250000
    vertex 1.152717 -0.119676 0.250000
    vertex 1.152717 -0.119676 -0.250000
  endloop
endfacet
facet normal -0.000138 -0.000207 -0.000000
  outer loop
    vertex 1.153130 -0.119953 0.250000
    vertex 1.152717 -0.119676 -0.250000
    vertex 1.153130 -0.119953 -0.250000
  endloop
endfacet
facet normal -0.000156 -0.000219 0.000000
  outer loop
    vertex 1.152717 -0.119676 0.250000
    vertex 1.152279 -0.119364 0.250000
    vertex 1.152279 -0.119364 -0.250000
  endloop
endfacet
facet normal -0.000156 -0.000219 -0.000000
  outer loop
    vertex 1.152717 -0.119676 0.250000
    vertex 1.152279 -0.119364 -0.250000
    vertex 1.152717 -0.119676 -0.250000
  endloop
endfacet
facet normal -0.000159 -0.000240 0.000000
  outer loop
    vertex 1.152279 -0.119364 0.250000
    vertex 1.151799 -0.119045 0.250000
    vertex 1.151799 -0.119045 -0.250000
  endloop
endfacet
facet normal -0.000159 -0.000240 -0.000000
  outer loop
    vertex 1.152279 -0.119364 0.250000
    vertex 1.151799 -0.119045 -0.250000
    vertex 1.152279 -0.119364 -0.250000
  endloop
endfacet
facet normal -0.000174 -0.000256 0.000000
  outer loop
    vertex 1.151799 -0.119045 0.250000
    vertex 1.151287 -0.118698 0.250000
    vertex 1.151287 -0.118698 -0.250000
  endloop
endfacet
facet normal -0.000174 -0.000256 -0.000000
  outer loop
    vertex 1.151799 -0.119045 0.250000
    vertex 1.151287 -0.118698 -0.250000
    vertex 1.151799 -0.119045 -0.250000
  endloop
endfacet
facet normal -0.000194 -0.000271 0.000000
  outer loop
    vertex 1.151287 -0.118698 0.250000
    vertex 1.150745 -0.118311 0.250000
    vertex 1.150745 -0.118311 -0.250000
  endloop
endfacet
facet normal -0.000194 -0.000271 -0.000000
  outer loop
    vertex 1.151287 -0.118698 0.250000
    vertex 1.150745 -0.118311 -0.250000
    vertex 1.151287 -0.118698 -0.250000
  endloop
endfacet
facet normal -0.000210 -0.000291 0.000000
  outer loop
    vertex 1.150745 -0.118311 0.250000
    vertex 1.150164 -0.117891 0.250000
    vertex 1.150164 -0.117891 -0.250000
  endloop
endfacet
facet normal -0.000210 -0.000291 -0.000000
  outer loop
    vertex 1.150745 -0.118311 0.250000
    vertex 1.150164 -0.117891 -0.250000
    vertex 1.150745 -0.118311 -0.250000
  endloop
endfacet
facet normal -0.000226 -0.000312 0.000000
  outer loop
    vertex 1.150164 -0.117891 0.250000
    vertex 1.149539 -0.117440 0.250000
    vertex 1.149539 -0.117440 -0.250000
  endloop
endfacet
facet normal -0.000226 -0.000312 -0.000000
  outer loop
    vertex 1.150164 -0.117891 0.250000
    vertex 1.149539 -0.117440 -0.250000
    vertex 1.150164 -0.117891 -0.250000
  endloop
endfacet
facet normal -0.000241 -0.000337 0.000000
  outer loop
    vertex 1.149539 -0.117440 0.250000
    vertex 1.148865 -0.116958 0.250000
    vertex 1.148865 -0.116958 -0.250000
  endloop
endfacet
facet normal -0.000241 -0.000337 -0.000000
  outer loop
    vertex 1.149539 -0.117440 0.250000
    vertex 1.148865 -0.116958 -0.250000
    vertex 1.149539 -0.117440 -0.250000
  endloop
endfacet
facet normal -0.000259 -0.000363 0.000000
  outer loop
    vertex 1.148865 -0.116958 0.250000
    vertex 1.148139 -0.116441 0.250000
    vertex 1.148139 -0.116441 -0.250000
  endloop
endfacet
facet normal -0.000259 -0.000363 -0.000000
  outer loop
    vertex 1.148865 -0.116958 0.250000
    vertex 1.148139 -0.116441 -0.250000
    vertex 1.148865 -0.116958 -0.250000
  endloop
endfacet
facet normal -0.000276 -0.000391 0.000000
  outer loop
    vertex 1.148139 -0.116441 0.250000
    vertex 1.147357 -0.115888 0.250000
    vertex 1.147357 -0.115888 -0.250000
  endloop
endfacet
facet normal -0.000276 -0.000391 -0.000000
  outer loop
    vertex 1.148139 -0.116441 0.250000
    vertex 1.147357 -0.115888 -0.250000
    vertex 1.148139 -0.116441 -0.250000
  endloop
endfacet
facet normal -0.000297 -0.000421 0.000000
  outer loop
    vertex 1.147357 -0.115888 0.250000
    vertex 1.146514 -0.115295 0.250000
    vertex 1.146514 -0.115295 -0.250000
  endloop
endfacet
facet normal -0.000297 -0.000421 -0.000000
  outer loop
    vertex 1.147357 -0.115888 0.250000
    vertex 1.146514 -0.115295 -0.250000
    vertex 1.147357 -0.115888 -0.250000
  endloop
endfacet
facet normal -0.000318 -0.000454 0.000000
  outer loop
    vertex 1.146514 -0.115295 0.250000
    vertex 1.145606 -0.114658 0.250000
    vertex 1.145606 -0.114658 -0.250000
  endloop
endfacet
facet normal -0.000318 -0.000454 -0.000000
  outer loop
    vertex 1.146514 -0.115295 0.250000
    vertex 1.145606 -0.114658 -0.250000
    vertex 1.146514 -0.115295 -0.250000
  endloop
endfacet
facet normal -0.000341 -0.000489 0.000000
  outer loop
    vertex 1.145606 -0.114658 0.250000
    vertex 1.144628 -0.113977 0.250000
    vertex 1.144628 -0.113977 -0.250000
  endloop
endfacet
facet normal -0.000341 -0.000489 -0.000000
  outer loop
    vertex 1.145606 -0.114658 0.250000
    vertex 1.144628 -0.113977 -0.250000
    vertex 1.145606 -0.114658 -0.250000
  endloop
endfacet
facet normal -0.000365 -0.000528 0.000000
  outer loop
    vertex 1.144628 -0.113977 0.250000
    vertex 1.143572 -0.113247 0.250000
    vertex 1.143572 -0.113247 -0.250000
  endloop
endfacet
facet normal -0.000365 -0.000528 -0.000000
  outer loop
    vertex 1.144628 -0.113977 0.250000
    vertex 1.143572 -0.113247 -0.250000
    vertex 1.144628 -0.113977 -0.250000
  endloop
endfacet
facet normal -0.000389 -0.000569 0.000000
  outer loop
    vertex 1.143572 -0.113247 0.250000
    vertex 1.142434 -0.112468 0.250000
    vertex 1.142434 -0.112468 -0.250000
  endloop
endfacet
facet normal -0.000389 -0.000569 -0.000000
  outer loop
    vertex 1.143572 -0.113247 0.250000
    vertex 1.142434 -0.112468 -0.250000
    vertex 1.143572 -0.113247 -0.250000
  endloop
endfacet
facet normal -0.000417 -0.000614 0.000000
  outer loop
    vertex 1.142434 -0.112468 0.250000
    vertex 1.141207 -0.111634 0.250000
    vertex 1.141207 -0.111634 -0.250000
  endloop
endfacet
facet normal -0.000417 -0.000614 -0.000000
  outer loop
    vertex 1.142434 -0.112468 0.250000
    vertex 1.141207 -0.111634 -0.250000
    vertex 1.142434 -0.112468 -0.250000
  endloop
endfacet
facet normal -0.000445 -0.000661 0.000000
  outer loop
    vertex 1.141207 -0.111634 0.250000
    vertex 1.139884 -0.110745 0.250000
    vertex 1.139884 -0.110745 -0.250000
  endloop
endfacet
facet normal -0.000445 -0.000661 -0.000000
  outer loop
    vertex 1.141207 -0.111634 0.250000
    vertex 1.139884 -0.110745 -0.250000
    vertex 1.141207 -0.111634 -0.250000
  endloop
endfacet
facet normal -0.000476 -0.000714 0.000000
  outer loop
    vertex 1.139884 -0.110745 0.250000
    vertex 1.138456 -0.109794 0.250000
    vertex 1.138456 -0.109794 -0.250000
  endloop
endfacet
facet normal -0.000476 -0.000714 -0.000000
  outer loop
    vertex 1.139884 -0.110745 0.250000
    vertex 1.138456 -0.109794 -0.250000
    vertex 1.139884 -0.110745 -0.250000
  endloop
endfacet
facet normal -0.000506 -0.000772 0.000000
  outer loop
    vertex 1.138456 -0.109794 0.250000
    vertex 1.136912 -0.108781 0.250000
    vertex 1.136912 -0.108781 -0.250000
  endloop
endfacet
facet normal -0.000506 -0.000772 -0.000000
  outer loop
    vertex 1.138456 -0.109794 0.250000
    vertex 1.136912 -0.108781 -0.250000
    vertex 1.138456 -0.109794 -0.250000
  endloop
endfacet
facet normal -0.000540 -0.000833 0.000000
  outer loop
    vertex 1.136912 -0.108781 0.250000
    vertex 1.135247 -0.107702 0.250000
    vertex 1.135247 -0.107702 -0.250000
  endloop
endfacet
facet normal -0.000540 -0.000833 -0.000000
  outer loop
    vertex 1.136912 -0.108781 0.250000
    vertex 1.135247 -0.107702 -0.250000
    vertex 1.136912 -0.108781 -0.250000
  endloop
endfacet
facet normal -0.000575 -0.000899 0.000000
  outer loop
    vertex 1.135247 -0.107702 0.250000
    vertex 1.133449 -0.106552 0.250000
    vertex 1.133449 -0.106552 -0.250000
  endloop
endfacet
facet normal -0.000575 -0.000899 -0.000000
  outer loop
    vertex 1.135247 -0.107702 0.250000
    vertex 1.133449 -0.106552 -0.250000
    vertex 1.135247 -0.107702 -0.250000
  endloop
endfacet
facet normal -0.000615 -0.000969 0.000000
  outer loop
    vertex 1.133449 -0.106552 0.250000
    vertex 1.131511 -0.105322 0.250000
    vertex 1.131511 -0.105322 -0.250000
  endloop
endfacet
facet normal -0.000615 -0.000969 -0.000000
  outer loop
    vertex 1.133449 -0.106552 0.250000
    vertex 1.131511 -0.105322 -0.250000
    vertex 1.133449 -0.106552 -0.250000
  endloop
endfacet
facet normal -0.000656 -0.001046 0.000000
  outer loop
    vertex 1.131511 -0.105322 0.250000
    vertex 1.129419 -0.104009 0.250000
    vertex 1.129419 -0.104009 -0.250000
  endloop
endfacet
facet normal -0.000656 -0.001046 -0.000000
  outer loop
    vertex 1.131511 -0.105322 0.250000
    vertex 1.129419 -0.104009 -0.250000
    vertex 1.131511 -0.105322 -0.250000
  endloop
endfacet
facet normal -0.000701 -0.001128 0.000000
  outer loop
    vertex 1.129419 -0.104009 0.250000
    vertex 1.127164 -0.102608 0.250000
    vertex 1.127164 -0.102608 -0.250000
  endloop
endfacet
facet normal -0.000701 -0.001128 -0.000000
  outer loop
    vertex 1.129419 -0.104009 0.250000
    vertex 1.127164 -0.102608 -0.250000
    vertex 1.129419 -0.104009 -0.250000
  endloop
endfacet
facet normal -0.000746 -0.001217 0.000000
  outer loop
    vertex 1.127164 -0.102608 0.250000
    vertex 1.124729 -0.101116 0.250000
    vertex 1.124729 -0.101116 -0.250000
  endloop
endfacet
facet normal -0.000746 -0.001217 -0.000000
  outer loop
    vertex 1.127164 -0.102608 0.250000
    vertex 1.124729 -0.101116 -0.250000
    vertex 1.127164 -0.102608 -0.250000
  endloop
endfacet
facet normal -0.000795 -0.001313 0.000000
  outer loop
    vertex 1.124729 -0.101116 0.250000
    vertex 1.122102 -0.099525 0.250000
    vertex 1.122102 -0.099525 -0.250000
  endloop
endfacet
facet normal -0.000795 -0.001313 -0.000000
  outer loop
    vertex 1.124729 -0.101116 0.250000
    vertex 1.122102 -0.099525 -0.250000
    vertex 1.124729 -0.101116 -0.250000
  endloop
endfacet
facet normal -0.000848 -0.001418 0.000000
  outer loop
    vertex 1.122102 -0.099525 0.250000
    vertex 1.119267 -0.097830 0.250000
    vertex 1.119267 -0.097830 -0.250000
  endloop
endfacet
facet normal -0.000848 -0.001418 -0.000000
  outer loop
    vertex 1.122102 -0.099525 0.250000
    vertex 1.119267 -0.097830 -0.250000
    vertex 1.122102 -0.099525 -0.250000
  endloop
endfacet
facet normal -0.000907 -0.001527 0.000000
  outer loop
    vertex 1.119267 -0.097830 0.250000
    vertex 1.116212 -0.096016 0.250000
    vertex 1.116212 -0.096016 -0.250000
  endloop
endfacet
facet normal -0.000907 -0.001527 -0.000000
  outer loop
    vertex 1.119267 -0.097830 0.250000
    vertex 1.116212 -0.096016 -0.250000
    vertex 1.119267 -0.097830 -0.250000
  endloop
endfacet
facet normal -0.000970 -0.001646 0.000000
  outer loop
    vertex 1.116212 -0.096016 0.250000
    vertex 1.112920 -0.094076 0.250000
    vertex 1.112920 -0.094076 -0.250000
  endloop
endfacet
facet normal -0.000970 -0.001646 -0.000000
  outer loop
    vertex 1.116212 -0.096016 0.250000
    vertex 1.112920 -0.094076 -0.250000
    vertex 1.116212 -0.096016 -0.250000
  endloop
endfacet
facet normal -0.001033 -0.001776 0.000000
  outer loop
    vertex 1.112920 -0.094076 0.250000
    vertex 1.109368 -0.092010 0.250000
    vertex 1.109368 -0.092010 -0.250000
  endloop
endfacet
facet normal -0.001033 -0.001776 -0.000000
  outer loop
    vertex 1.112920 -0.094076 0.250000
    vertex 1.109368 -0.092010 -0.250000
    vertex 1.112920 -0.094076 -0.250000
  endloop
endfacet
facet normal -0.001098 -0.001918 0.000000
  outer loop
    vertex 1.109368 -0.092010 0.250000
    vertex 1.105532 -0.089814 0.250000
    vertex 1.105532 -0.089814 -0.250000
  endloop
endfacet
facet normal -0.001098 -0.001918 -0.000000
  outer loop
    vertex 1.109368 -0.092010 0.250000
    vertex 1.105532 -0.089814 -0.250000
    vertex 1.109368 -0.092010 -0.250000
  endloop
endfacet
facet normal -0.001162 -0.002073 0.000000
  outer loop
    vertex 1.105532 -0.089814 0.250000
    vertex 1.101386 -0.087490 0.250000
    vertex 1.101386 -0.087490 -0.250000
  endloop
endfacet
facet normal -0.001162 -0.002073 -0.000000
  outer loop
    vertex 1.105532 -0.089814 0.250000
    vertex 1.101386 -0.087490 -0.250000
    vertex 1.105532 -0.089814 -0.250000
  endloop
endfacet
facet normal -0.001230 -0.002241 0.000000
  outer loop
    vertex 1.101386 -0.087490 0.250000
    vertex 1.096905 -0.085030 0.250000
    vertex 1.096905 -0.085030 -0.250000
  endloop
endfacet
facet normal -0.001230 -0.002241 -0.000000
  outer loop
    vertex 1.101386 -0.087490 0.250000
    vertex 1.096905 -0.085030 -0.250000
    vertex 1.101386 -0.087490 -0.250000
  endloop
endfacet
facet normal -0.001298 -0.002424 0.000000
  outer loop
    vertex 1.096905 -0.085030 0.250000
    vertex 1.092057 -0.082435 0.250000
    vertex 1.092057 -0.082435 -0.250000
  endloop
endfacet
facet normal -0.001298 -0.002424 -0.000000
  outer loop
    vertex 1.096905 -0.085030 0.250000
    vertex 1.092057 -0.082435 -0.250000
    vertex 1.096905 -0.085030 -0.250000
  endloop
endfacet
facet normal -0.001358 -0.002626 0.000000
  outer loop
    vertex 1.092057 -0.082435 0.250000
    vertex 1.086805 -0.079718 0.250000
    vertex 1.086805 -0.079718 -0.250000
  endloop
endfacet
facet normal -0.001358 -0.002626 -0.000000
  outer loop
    vertex 1.092057 -0.082435 0.250000
    vertex 1.086805 -0.079718 -0.250000
    vertex 1.092057 -0.082435 -0.250000
  endloop
endfacet
facet normal -0.001427 -0.002841 0.000000
  outer loop
    vertex 1.086805 -0.079718 0.250000
    vertex 1.081122 -0.076864 0.250000
    vertex 1.081122 -0.076864 -0.250000
  endloop
endfacet
facet normal -0.001427 -0.002841 -0.000000
  outer loop
    vertex 1.086805 -0.079718 0.250000
    vertex 1.081122 -0.076864 -0.250000
    vertex 1.086805 -0.079718 -0.250000
  endloop
endfacet
facet normal -0.001493 -0.003077 0.000000
  outer loop
    vertex 1.081122 -0.076864 0.250000
    vertex 1.074968 -0.073878 0.250000
    vertex 1.074968 -0.073878 -0.250000
  endloop
endfacet
facet normal -0.001493 -0.003077 -0.000000
  outer loop
    vertex 1.081122 -0.076864 0.250000
    vertex 1.074968 -0.073878 -0.250000
    vertex 1.081122 -0.076864 -0.250000
  endloop
endfacet
facet normal -0.001554 -0.003334 0.000000
  outer loop
    vertex 1.074968 -0.073878 0.250000
    vertex 1.068301 -0.070771 0.250000
    vertex 1.068301 -0.070771 -0.250000
  endloop
endfacet
facet normal -0.001554 -0.003334 -0.000000
  outer loop
    vertex 1.074968 -0.073878 0.250000
    vertex 1.068301 -0.070771 -0.250000
    vertex 1.074968 -0.073878 -0.250000
  endloop
endfacet
facet normal -0.001615 -0.003611 0.000000
  outer loop
    vertex 1.068301 -0.070771 0.250000
    vertex 1.061078 -0.067540 0.250000
    vertex 1.061078 -0.067540 -0.250000
  endloop
endfacet
facet normal -0.001615 -0.003611 -0.000000
  outer loop
    vertex 1.068301 -0.070771 0.250000
    vertex 1.061078 -0.067540 -0.250000
    vertex 1.068301 -0.070771 -0.250000
  endloop
endfacet
facet normal -0.001687 -0.003906 0.000000
  outer loop
    vertex 1.061078 -0.067540 0.250000
    vertex 1.053267 -0.064166 0.250000
    vertex 1.053267 -0.064166 -0.250000
  endloop
endfacet
facet normal -0.001687 -0.003906 -0.000000
  outer loop
    vertex 1.061078 -0.067540 0.250000
    vertex 1.053267 -0.064166 -0.250000
    vertex 1.061078 -0.067540 -0.250000
  endloop
endfacet
facet normal -0.001773 -0.004218 0.000000
  outer loop
    vertex 1.053267 -0.064166 0.250000
    vertex 1.044831 -0.060621 0.250000
    vertex 1.044831 -0.060621 -0.250000
  endloop
endfacet
facet normal -0.001773 -0.004218 -0.000000
  outer loop
    vertex 1.053267 -0.064166 0.250000
    vertex 1.044831 -0.060621 -0.250000
    vertex 1.053267 -0.064166 -0.250000
  endloop
endfacet
facet normal -0.001827 -0.004570 0.000000
  outer loop
    vertex 1.044831 -0.060621 0.250000
    vertex 1.035691 -0.056967 0.250000
    vertex 1.035691 -0.056967 -0.250000
  endloop
endfacet
facet normal -0.001827 -0.004570 -0.000000
  outer loop
    vertex 1.044831 -0.060621 0.250000
    vertex 1.035691 -0.056967 -0.250000
    vertex 1.044831 -0.060621 -0.250000
  endloop
endfacet
facet normal -0.001907 -0.004937 0.000000
  outer loop
    vertex 1.035691 -0.056967 0.250000
    vertex 1.025817 -0.053154 0.250000
    vertex 1.025817 -0.053154 -0.250000
  endloop
endfacet
facet normal -0.001907 -0.004937 -0.000000
  outer loop
    vertex 1.035691 -0.056967 0.250000
    vertex 1.025817 -0.053154 -0.250000
    vertex 1.035691 -0.056967 -0.250000
  endloop
endfacet
facet normal -0.001731 -0.004651 0.000000
  outer loop
    vertex 1.025817 -0.053154 0.250000
    vertex 1.016515 -0.049691 0.250000
    vertex 1.016515 -0.049691 -0.250000
  endloop
endfacet
facet normal -0.001731 -0.004651 -0.000000
  outer loop
    vertex 1.025817 -0.053154 0.250000
    vertex 1.016515 -0.049691 -0.250000
    vertex 1.025817 -0.053154 -0.250000
  endloop
endfacet
facet normal -0.001546 -0.004389 0.000000
  outer loop
    vertex 1.016515 -0.049691 0.250000
    vertex 1.007736 -0.046600 0.250000
    vertex 1.007736 -0.046600 -0.250000
  endloop
endfacet
facet normal -0.001546 -0.004389 -0.000000
  outer loop
    vertex 1.016515 -0.049691 0.250000
    vertex 1.007736 -0.046600 -0.250000
    vertex 1.016515 -0.049691 -0.250000
  endloop
endfacet
facet normal -0.001415 -0.004128 0.000000
  outer loop
    vertex 1.007736 -0.046600 0.250000
    vertex 0.999480 -0.043769 0.250000
    vertex 0.999480 -0.043769 -0.250000
  endloop
endfacet
facet normal -0.001415 -0.004128 -0.000000
  outer loop
    vertex 1.007736 -0.046600 0.250000
    vertex 0.999480 -0.043769 -0.250000
    vertex 1.007736 -0.046600 -0.250000
  endloop
endfacet
facet normal -0.001278 -0.003887 0.000000
  outer loop
    vertex 0.999480 -0.043769 0.250000
    vertex 0.991706 -0.041214 0.250000
    vertex 0.991706 -0.041214 -0.250000
  endloop
endfacet
facet normal -0.001278 -0.003887 -0.000000
  outer loop
    vertex 0.999480 -0.043769 0.250000
    vertex 0.991706 -0.041214 -0.250000
    vertex 0.999480 -0.043769 -0.250000
  endloop
endfacet
facet normal -0.001181 -0.003651 0.000000
  outer loop
    vertex 0.991706 -0.041214 0.250000
    vertex 0.984405 -0.038853 0.250000
    vertex 0.984405 -0.038853 -0.250000
  endloop
endfacet
facet normal -0.001181 -0.003651 -0.000000
  outer loop
    vertex 0.991706 -0.041214 0.250000
    vertex 0.984405 -0.038853 -0.250000
    vertex 0.991706 -0.041214 -0.250000
  endloop
endfacet
facet normal -0.001087 -0.003429 0.000000
  outer loop
    vertex 0.984405 -0.038853 0.250000
    vertex 0.977546 -0.036678 0.250000
    vertex 0.977546 -0.036678 -0.250000
  endloop
endfacet
facet normal -0.001087 -0.003429 -0.000000
  outer loop
    vertex 0.984405 -0.038853 0.250000
    vertex 0.977546 -0.036678 -0.250000
    vertex 0.984405 -0.038853 -0.250000
  endloop
endfacet
facet normal -0.000984 -0.003227 0.000000
  outer loop
    vertex 0.977546 -0.036678 0.250000
    vertex 0.971092 -0.034711 0.250000
    vertex 0.971092 -0.034711 -0.250000
  endloop
endfacet
facet normal -0.000984 -0.003227 -0.000000
  outer loop
    vertex 0.977546 -0.036678 0.250000
    vertex 0.971092 -0.034711 -0.250000
    vertex 0.977546 -0.036678 -0.250000
  endloop
endfacet
facet normal -0.000900 -0.003032 0.000000
  outer loop
    vertex 0.971092 -0.034711 0.250000
    vertex 0.965028 -0.032910 0.250000
    vertex 0.965028 -0.032910 -0.250000
  endloop
endfacet
facet normal -0.000900 -0.003032 -0.000000
  outer loop
    vertex 0.971092 -0.034711 0.250000
    vertex 0.965028 -0.032910 -0.250000
    vertex 0.971092 -0.034711 -0.250000
  endloop
endfacet
facet normal -0.000834 -0.002846 0.000000
  outer loop
    vertex 0.965028 -0.032910 0.250000
    vertex 0.959335 -0.031242 0.250000
    vertex 0.959335 -0.031242 -0.250000
  endloop
endfacet
facet normal -0.000834 -0.002846 -0.000000
  outer loop
    vertex 0.965028 -0.032910 0.250000
    vertex 0.959335 -0.031242 -0.250000
    vertex 0.965028 -0.032910 -0.250000
  endloop
endfacet
facet normal -0.000772 -0.002672 0.000000
  outer loop
    vertex 0.959335 -0.031242 0.250000
    vertex 0.953991 -0.029698 0.250000
    vertex 0.953991 -0.029698 -0.250000
  endloop
endfacet
facet normal -0.000772 -0.002672 -0.000000
  outer loop
    vertex 0.959335 -0.031242 0.250000
    vertex 0.953991 -0.029698 -0.250000
    vertex 0.959335 -0.031242 -0.250000
  endloop
endfacet
facet normal -0.000701 -0.002512 0.000000
  outer loop
    vertex 0.953991 -0.029698 0.250000
    vertex 0.948967 -0.028296 0.250000
    vertex 0.948967 -0.028296 -0.250000
  endloop
endfacet
facet normal -0.000701 -0.002512 -0.000000
  outer loop
    vertex 0.953991 -0.029698 0.250000
    vertex 0.948967 -0.028296 -0.250000
    vertex 0.953991 -0.029698 -0.250000
  endloop
endfacet
facet normal -0.000647 -0.002359 0.000000
  outer loop
    vertex 0.948967 -0.028296 0.250000
    vertex 0.944250 -0.027002 0.250000
    vertex 0.944250 -0.027002 -0.250000
  endloop
endfacet
facet normal -0.000647 -0.002359 -0.000000
  outer loop
    vertex 0.948967 -0.028296 0.250000
    vertex 0.944250 -0.027002 -0.250000
    vertex 0.948967 -0.028296 -0.250000
  endloop
endfacet
facet normal -0.000602 -0.002213 0.000000
  outer loop
    vertex 0.944250 -0.027002 0.250000
    vertex 0.939825 -0.025799 0.250000
    vertex 0.939825 -0.025799 -0.250000
  endloop
endfacet
facet normal -0.000602 -0.002213 -0.000000
  outer loop
    vertex 0.944250 -0.027002 0.250000
    vertex 0.939825 -0.025799 -0.250000
    vertex 0.944250 -0.027002 -0.250000
  endloop
endfacet
facet normal -0.000558 -0.002076 0.000000
  outer loop
    vertex 0.939825 -0.025799 0.250000
    vertex 0.935672 -0.024683 0.250000
    vertex 0.935672 -0.024683 -0.250000
  endloop
endfacet
facet normal -0.000558 -0.002076 -0.000000
  outer loop
    vertex 0.939825 -0.025799 0.250000
    vertex 0.935672 -0.024683 -0.250000
    vertex 0.939825 -0.025799 -0.250000
  endloop
endfacet
facet normal -0.000516 -0.001949 0.000000
  outer loop
    vertex 0.935672 -0.024683 0.250000
    vertex 0.931774 -0.023651 0.250000
    vertex 0.931774 -0.023651 -0.250000
  endloop
endfacet
facet normal -0.000516 -0.001949 -0.000000
  outer loop
    vertex 0.935672 -0.024683 0.250000
    vertex 0.931774 -0.023651 -0.250000
    vertex 0.935672 -0.024683 -0.250000
  endloop
endfacet
facet normal -0.000474 -0.001830 0.000000
  outer loop
    vertex 0.931774 -0.023651 0.250000
    vertex 0.928114 -0.022703 0.250000
    vertex 0.928114 -0.022703 -0.250000
  endloop
endfacet
facet normal -0.000474 -0.001830 -0.000000
  outer loop
    vertex 0.931774 -0.023651 0.250000
    vertex 0.928114 -0.022703 -0.250000
    vertex 0.931774 -0.023651 -0.250000
  endloop
endfacet
facet normal -0.000439 -0.001717 0.000000
  outer loop
    vertex 0.928114 -0.022703 0.250000
    vertex 0.924679 -0.021824 0.250000
    vertex 0.924679 -0.021824 -0.250000
  endloop
endfacet
facet normal -0.000439 -0.001717 -0.000000
  outer loop
    vertex 0.928114 -0.022703 0.250000
    vertex 0.924679 -0.021824 -0.250000
    vertex 0.928114 -0.022703 -0.250000
  endloop
endfacet
facet normal -0.000416 -0.001610 0.000000
  outer loop
    vertex 0.924679 -0.021824 0.250000
    vertex 0.921460 -0.020992 0.250000
    vertex 0.921460 -0.020992 -0.250000
  endloop
endfacet
facet normal -0.000416 -0.001610 -0.000000
  outer loop
    vertex 0.924679 -0.021824 0.250000
    vertex 0.921460 -0.020992 -0.250000
    vertex 0.924679 -0.021824 -0.250000
  endloop
endfacet
facet normal -0.000395 -0.001508 0.000000
  outer loop
    vertex 0.921460 -0.020992 0.250000
    vertex 0.918445 -0.020202 0.250000
    vertex 0.918445 -0.020202 -0.250000
  endloop
endfacet
facet normal -0.000395 -0.001508 -0.000000
  outer loop
    vertex 0.921460 -0.020992 0.250000
    vertex 0.918445 -0.020202 -0.250000
    vertex 0.921460 -0.020992 -0.250000
  endloop
endfacet
facet normal -0.000381 -0.001411 0.000000
  outer loop
    vertex 0.918445 -0.020202 0.250000
    vertex 0.915623 -0.019441 0.250000
    vertex 0.915623 -0.019441 -0.250000
  endloop
endfacet
facet normal -0.000381 -0.001411 -0.000000
  outer loop
    vertex 0.918445 -0.020202 0.250000
    vertex 0.915623 -0.019441 -0.250000
    vertex 0.918445 -0.020202 -0.250000
  endloop
endfacet
facet normal -0.000367 -0.001321 0.000000
  outer loop
    vertex 0.915623 -0.019441 0.250000
    vertex 0.912982 -0.018707 0.250000
    vertex 0.912982 -0.018707 -0.250000
  endloop
endfacet
facet normal -0.000367 -0.001321 -0.000000
  outer loop
    vertex 0.915623 -0.019441 0.250000
    vertex 0.912982 -0.018707 -0.250000
    vertex 0.915623 -0.019441 -0.250000
  endloop
endfacet
facet normal -0.000367 -0.001231 0.000000
  outer loop
    vertex 0.912982 -0.018707 0.250000
    vertex 0.910520 -0.017973 0.250000
    vertex 0.910520 -0.017973 -0.250000
  endloop
endfacet
facet normal -0.000367 -0.001231 -0.000000
  outer loop
    vertex 0.912982 -0.018707 0.250000
    vertex 0.910520 -0.017973 -0.250000
    vertex 0.912982 -0.018707 -0.250000
  endloop
endfacet
facet normal -0.000377 -0.001145 0.000000
  outer loop
    vertex 0.910520 -0.017973 0.250000
    vertex 0.908230 -0.017220 0.250000
    vertex 0.908230 -0.017220 -0.250000
  endloop
endfacet
facet normal -0.000377 -0.001145 -0.000000
  outer loop
    vertex 0.910520 -0.017973 0.250000
    vertex 0.908230 -0.017220 -0.250000
    vertex 0.910520 -0.017973 -0.250000
  endloop
endfacet
facet normal -0.000369 -0.001068 0.000000
  outer loop
    vertex 0.908230 -0.017220 0.250000
    vertex 0.906094 -0.016482 0.250000
    vertex 0.906094 -0.016482 -0.250000
  endloop
endfacet
facet normal -0.000369 -0.001068 -0.000000
  outer loop
    vertex 0.908230 -0.017220 0.250000
    vertex 0.906094 -0.016482 -0.250000
    vertex 0.908230 -0.017220 -0.250000
  endloop
endfacet
facet normal -0.000403 -0.000980 0.000000
  outer loop
    vertex 0.906094 -0.016482 0.250000
    vertex 0.904133 -0.015676 0.250000
    vertex 0.904133 -0.015676 -0.250000
  endloop
endfacet
facet normal -0.000403 -0.000980 -0.000000
  outer loop
    vertex 0.906094 -0.016482 0.250000
    vertex 0.904133 -0.015676 -0.250000
    vertex 0.906094 -0.016482 -0.250000
  endloop
endfacet
facet normal -0.000424 -0.000898 0.000000
  outer loop
    vertex 0.904133 -0.015676 0.250000
    vertex 0.902338 -0.014828 0.250000
    vertex 0.902338 -0.014828 -0.250000
  endloop
endfacet
facet normal -0.000424 -0.000898 -0.000000
  outer loop
    vertex 0.904133 -0.015676 0.250000
    vertex 0.902338 -0.014828 -0.250000
    vertex 0.904133 -0.015676 -0.250000
  endloop
endfacet
facet normal -0.000431 -0.000826 0.000000
  outer loop
    vertex 0.902338 -0.014828 0.250000
    vertex 0.900685 -0.013967 0.250000
    vertex 0.900685 -0.013967 -0.250000
  endloop
endfacet
facet normal -0.000431 -0.000826 -0.000000
  outer loop
    vertex 0.902338 -0.014828 0.250000
    vertex 0.900685 -0.013967 -0.250000
    vertex 0.902338 -0.014828 -0.250000
  endloop
endfacet
facet normal -0.000425 -0.000764 0.000000
  outer loop
    vertex 0.900685 -0.013967 0.250000
    vertex 0.899157 -0.013118 0.250000
    vertex 0.899157 -0.013118 -0.250000
  endloop
endfacet
facet normal -0.000425 -0.000764 -0.000000
  outer loop
    vertex 0.900685 -0.013967 0.250000
    vertex 0.899157 -0.013118 -0.250000
    vertex 0.900685 -0.013967 -0.250000
  endloop
endfacet
facet normal -0.000443 -0.000688 0.000000
  outer loop
    vertex 0.899157 -0.013118 0.250000
    vertex 0.897780 -0.012232 0.250000
    vertex 0.897780 -0.012232 -0.250000
  endloop
endfacet
facet normal -0.000443 -0.000688 -0.000000
  outer loop
    vertex 0.899157 -0.013118 0.250000
    vertex 0.897780 -0.012232 -0.250000
    vertex 0.899157 -0.013118 -0.250000
  endloop
endfacet
facet normal -0.000447 -0.000625 0.000000
  outer loop
    vertex 0.897780 -0.012232 0.250000
    vertex 0.896531 -0.011338 0.250000
    vertex 0.896531 -0.011338 -0.250000
  endloop
endfacet
facet normal -0.000447 -0.000625 -0.000000
  outer loop
    vertex 0.897780 -0.012232 0.250000
    vertex 0.896531 -0.011338 -0.250000
    vertex 0.897780 -0.012232 -0.250000
  endloop
endfacet
facet normal -0.000441 -0.000570 0.000000
  outer loop
    vertex 0.896531 -0.011338 0.250000
    vertex 0.895392 -0.010456 0.250000
    vertex 0.895392 -0.010456 -0.250000
  endloop
endfacet
facet normal -0.000441 -0.000570 -0.000000
  outer loop
    vertex 0.896531 -0.011338 0.250000
    vertex 0.895392 -0.010456 -0.250000
    vertex 0.896531 -0.011338 -0.250000
  endloop
endfacet
facet normal -0.000432 -0.000519 0.000000
  outer loop
    vertex 0.895392 -0.010456 0.250000
    vertex 0.894353 -0.009592 0.250000
    vertex 0.894353 -0.009592 -0.250000
  endloop
endfacet
facet normal -0.000432 -0.000519 -0.000000
  outer loop
    vertex 0.895392 -0.010456 0.250000
    vertex 0.894353 -0.009592 -0.250000
    vertex 0.895392 -0.010456 -0.250000
  endloop
endfacet
facet normal -0.000421 -0.000472 0.000000
  outer loop
    vertex 0.894353 -0.009592 0.250000
    vertex 0.893408 -0.008750 0.250000
    vertex 0.893408 -0.008750 -0.250000
  endloop
endfacet
facet normal -0.000421 -0.000472 -0.000000
  outer loop
    vertex 0.894353 -0.009592 0.250000
    vertex 0.893408 -0.008750 -0.250000
    vertex 0.894353 -0.009592 -0.250000
  endloop
endfacet
facet normal -0.000410 -0.000429 0.000000
  outer loop
    vertex 0.893408 -0.008750 0.250000
    vertex 0.892550 -0.007929 0.250000
    vertex 0.892550 -0.007929 -0.250000
  endloop
endfacet
facet normal -0.000410 -0.000429 -0.000000
  outer loop
    vertex 0.893408 -0.008750 0.250000
    vertex 0.892550 -0.007929 -0.250000
    vertex 0.893408 -0.008750 -0.250000
  endloop
endfacet
facet normal -0.000395 -0.000392 0.000000
  outer loop
    vertex 0.892550 -0.007929 0.250000
    vertex 0.891765 -0.007138 0.250000
    vertex 0.891765 -0.007138 -0.250000
  endloop
endfacet
facet normal -0.000395 -0.000392 -0.000000
  outer loop
    vertex 0.892550 -0.007929 0.250000
    vertex 0.891765 -0.007138 -0.250000
    vertex 0.892550 -0.007929 -0.250000
  endloop
endfacet
facet normal -0.000379 -0.000360 0.000000
  outer loop
    vertex 0.891765 -0.007138 0.250000
    vertex 0.891046 -0.006381 0.250000
    vertex 0.891046 -0.006381 -0.250000
  endloop
endfacet
facet normal -0.000379 -0.000360 -0.000000
  outer loop
    vertex 0.891765 -0.007138 0.250000
    vertex 0.891046 -0.006381 -0.250000
    vertex 0.891765 -0.007138 -0.250000
  endloop
endfacet
facet normal -0.000363 -0.000327 0.000000
  outer loop
    vertex 0.891046 -0.006381 0.250000
    vertex 0.890392 -0.005654 0.250000
    vertex 0.890392 -0.005654 -0.250000
  endloop
endfacet
facet normal -0.000363 -0.000327 -0.000000
  outer loop
    vertex 0.891046 -0.006381 0.250000
    vertex 0.890392 -0.005654 -0.250000
    vertex 0.891046 -0.006381 -0.250000
  endloop
endfacet
facet normal -0.000350 -0.000298 0.000000
  outer loop
    vertex 0.890392 -0.005654 0.250000
    vertex 0.889795 -0.004955 0.250000
    vertex 0.889795 -0.004955 -0.250000
  endloop
endfacet
facet normal -0.000350 -0.000298 -0.000000
  outer loop
    vertex 0.890392 -0.005654 0.250000
    vertex 0.889795 -0.004955 -0.250000
    vertex 0.890392 -0.005654 -0.250000
  endloop
endfacet
facet normal -0.000334 -0.000272 0.000000
  outer loop
    vertex 0.889795 -0.004955 0.250000
    vertex 0.889251 -0.004288 0.250000
    vertex 0.889251 -0.004288 -0.250000
  endloop
endfacet
facet normal -0.000334 -0.000272 -0.000000
  outer loop
    vertex 0.889795 -0.004955 0.250000
    vertex 0.889251 -0.004288 -0.250000
    vertex 0.889795 -0.004955 -0.250000
  endloop
endfacet
facet normal -0.000339 -0.000266 0.000000
  outer loop
    vertex 0.889251 -0.004288 0.250000
    vertex 0.888720 -0.003611 0.250000
    vertex 0.888720 -0.003611 -0.250000
  endloop
endfacet
facet normal -0.000339 -0.000266 -0.000000
  outer loop
    vertex 0.889251 -0.004288 0.250000
    vertex 0.888720 -0.003611 -0.250000
    vertex 0.889251 -0.004288 -0.250000
  endloop
endfacet
facet normal -0.000351 -0.000262 0.000000
  outer loop
    vertex 0.888720 -0.003611 0.250000
    vertex 0.888196 -0.002909 0.250000
    vertex 0.888196 -0.002909 -0.250000
  endloop
endfacet
facet normal -0.000351 -0.000262 -0.000000
  outer loop
    vertex 0.888720 -0.003611 0.250000
    vertex 0.888196 -0.002909 -0.250000
    vertex 0.888720 -0.003611 -0.250000
  endloop
endfacet
facet normal -0.000364 -0.000257 0.000000
  outer loop
    vertex 0.888196 -0.002909 0.250000
    vertex 0.887681 -0.002181 0.250000
    vertex 0.887681 -0.002181 -0.250000
  endloop
endfacet
facet normal -0.000364 -0.000257 -0.000000
  outer loop
    vertex 0.888196 -0.002909 0.250000
    vertex 0.887681 -0.002181 -0.250000
    vertex 0.888196 -0.002909 -0.250000
  endloop
endfacet
facet normal -0.000379 -0.000250 0.000000
  outer loop
    vertex 0.887681 -0.002181 0.250000
    vertex 0.887181 -0.001423 0.250000
    vertex 0.887181 -0.001423 -0.250000
  endloop
endfacet
facet normal -0.000379 -0.000250 -0.000000
  outer loop
    vertex 0.887681 -0.002181 0.250000
    vertex 0.887181 -0.001423 -0.250000
    vertex 0.887681 -0.002181 -0.250000
  endloop
endfacet
facet normal -0.000394 -0.000239 0.000000
  outer loop
    vertex 0.887181 -0.001423 0.250000
    vertex 0.886702 -0.000634 0.250000
    vertex 0.886702 -0.000634 -0.250000
  endloop
endfacet
facet normal -0.000394 -0.000239 -0.000000
  outer loop
    vertex 0.887181 -0.001423 0.250000
    vertex 0.886702 -0.000634 -0.250000
    vertex 0.887181 -0.001423 -0.250000
  endloop
endfacet
facet normal -0.000411 -0.000228 0.000000
  outer loop
    vertex 0.886702 -0.000634 0.250000
    vertex 0.886247 0.000188 0.250000
    vertex 0.886247 0.000188 -0.250000
  endloop
endfacet
facet normal -0.000411 -0.000228 -0.000000
  outer loop
    vertex 0.886702 -0.000634 0.250000
    vertex 0.886247 0.000188 -0.250000
    vertex 0.886702 -0.000634 -0.250000
  endloop
endfacet
facet normal -0.000427 -0.000216 0.000000
  outer loop
    vertex 0.886247 0.000188 0.250000
    vertex 0.885816 0.001042 0.250000
    vertex 0.885816 0.001042 -0.250000
  endloop
endfacet
facet normal -0.000427 -0.000216 -0.000000
  outer loop
    vertex 0.886247 0.000188 0.250000
    vertex 0.885816 0.001042 -0.250000
    vertex 0.886247 0.000188 -0.250000
  endloop
endfacet
facet normal -0.000445 -0.000195 0.000000
  outer loop
    vertex 0.885816 0.001042 0.250000
    vertex 0.885427 0.001933 0.250000
    vertex 0.885427 0.001933 -0.250000
  endloop
endfacet
facet normal -0.000445 -0.000195 -0.000000
  outer loop
    vertex 0.885816 0.001042 0.250000
    vertex 0.885427 0.001933 -0.250000
    vertex 0.885816 0.001042 -0.250000
  endloop
endfacet
facet normal -0.000464 -0.000174 0.000000
  outer loop
    vertex 0.885427 0.001933 0.250000
    vertex 0.885078 0.002861 0.250000
    vertex 0.885078 0.002861 -0.250000
  endloop
endfacet
facet normal -0.000464 -0.000174 -0.000000
  outer loop
    vertex 0.885427 0.001933 0.250000
    vertex 0.885078 0.002861 -0.250000
    vertex 0.885427 0.001933 -0.250000
  endloop
endfacet
facet normal -0.000481 -0.000150 0.000000
  outer loop
    vertex 0.885078 0.002861 0.250000
    vertex 0.884778 0.003824 0.250000
    vertex 0.884778 0.003824 -0.250000
  endloop
endfacet
facet normal -0.000481 -0.000150 -0.000000
  outer loop
    vertex 0.885078 0.002861 0.250000
    vertex 0.884778 0.003824 -0.250000
    vertex 0.885078 0.002861 -0.250000
  endloop
endfacet
facet normal -0.000499 -0.000115 0.000000
  outer loop
    vertex 0.884778 0.003824 0.250000
    vertex 0.884547 0.004822 0.250000
    vertex 0.884547 0.004822 -0.250000
  endloop
endfacet
facet normal -0.000499 -0.000115 -0.000000
  outer loop
    vertex 0.884778 0.003824 0.250000
    vertex 0.884547 0.004822 -0.250000
    vertex 0.884778 0.003824 -0.250000
  endloop
endfacet
facet normal -0.000498 -0.000083 0.000000
  outer loop
    vertex 0.884547 0.004822 0.250000
    vertex 0.884381 0.005818 0.250000
    vertex 0.884381 0.005818 -0.250000
  endloop
endfacet
facet normal -0.000498 -0.000083 -0.000000
  outer loop
    vertex 0.884547 0.004822 0.250000
    vertex 0.884381 0.005818 -0.250000
    vertex 0.884547 0.004822 -0.250000
  endloop
endfacet
facet normal -0.000496 -0.000036 0.000000
  outer loop
    vertex 0.884381 0.005818 0.250000
    vertex 0.884309 0.006809 0.250000
    vertex 0.884309 0.006809 -0.250000
  endloop
endfacet
facet normal -0.000496 -0.000036 -0.000000
  outer loop
    vertex 0.884381 0.005818 0.250000
    vertex 0.884309 0.006809 -0.250000
    vertex 0.884381 0.005818 -0.250000
  endloop
endfacet
facet normal -0.000488 -0.000016 0.000000
  outer loop
    vertex 0.884309 0.006809 0.250000
    vertex 0.884277 0.007785 0.250000
    vertex 0.884277 0.007785 -0.250000
  endloop
endfacet
facet normal -0.000488 -0.000016 -0.000000
  outer loop
    vertex 0.884309 0.006809 0.250000
    vertex 0.884277 0.007785 -0.250000
    vertex 0.884309 0.006809 -0.250000
  endloop
endfacet
facet normal -0.000481 0.000021 0.000000
  outer loop
    vertex 0.884277 0.007785 0.250000
    vertex 0.884320 0.008747 0.250000
    vertex 0.884320 0.008747 -0.250000
  endloop
endfacet
facet normal -0.000481 0.000021 0.000000
  outer loop
    vertex 0.884277 0.007785 0.250000
    vertex 0.884320 0.008747 -0.250000
    vertex 0.884277 0.007785 -0.250000
  endloop
endfacet
facet normal -0.000471 0.000042 0.000000
  outer loop
    vertex 0.884320 0.008747 0.250000
    vertex 0.884404 0.009690 0.250000
    vertex 0.884404 0.009690 -0.250000
  endloop
endfacet
facet normal -0.000471 0.000042 0.000000
  outer loop
    vertex 0.884320 0.008747 0.250000
    vertex 0.884404 0.009690 -0.250000
    vertex 0.884320 0.008747 -0.250000
  endloop
endfacet
facet normal -0.000462 0.000066 0.000000
  outer loop
    vertex 0.884404 0.009690 0.250000
    vertex 0.884537 0.010613 0.250000
    vertex 0.884537 0.010613 -0.250000
  endloop
endfacet
facet normal -0.000462 0.000066 0.000000
  outer loop
    vertex 0.884404 0.009690 0.250000
    vertex 0.884537 0.010613 -0.250000
    vertex 0.884404 0.009690 -0.250000
  endloop
endfacet
facet normal -0.000449 0.000092 0.000000
  outer loop
    vertex 0.884537 0.010613 0.250000
    vertex 0.884721 0.011511 0.250000
    vertex 0.884721 0.011511 -0.250000
  endloop
endfacet
facet normal -0.000449 0.000092 0.000000
  outer loop
    vertex 0.884537 0.010613 0.250000
    vertex 0.884721 0.011511 -0.250000
    vertex 0.884537 0.010613 -0.250000
  endloop
endfacet
facet normal -0.000436 0.000121 0.000000
  outer loop
    vertex 0.884721 0.011511 0.250000
    vertex 0.884962 0.012383 0.250000
    vertex 0.884962 0.012383 -0.250000
  endloop
endfacet
facet normal -0.000436 0.000121 0.000000
  outer loop
    vertex 0.884721 0.011511 0.250000
    vertex 0.884962 0.012383 -0.250000
    vertex 0.884721 0.011511 -0.250000
  endloop
endfacet
facet normal -0.000417 0.000149 0.000000
  outer loop
    vertex 0.884962 0.012383 0.250000
    vertex 0.885260 0.013218 0.250000
    vertex 0.885260 0.013218 -0.250000
  endloop
endfacet
facet normal -0.000417 0.000149 0.000000
  outer loop
    vertex 0.884962 0.012383 0.250000
    vertex 0.885260 0.013218 -0.250000
    vertex 0.884962 0.012383 -0.250000
  endloop
endfacet
facet normal -0.000399 0.000181 0.000000
  outer loop
    vertex 0.885260 0.013218 0.250000
    vertex 0.885623 0.014016 0.250000
    vertex 0.885623 0.014016 -0.250000
  endloop
endfacet
facet normal -0.000399 0.000181 0.000000
  outer loop
    vertex 0.885260 0.013218 0.250000
    vertex 0.885623 0.014016 -0.250000
    vertex 0.885260 0.013218 -0.250000
  endloop
endfacet
facet normal -0.000381 0.000201 0.000000
  outer loop
    vertex 0.885623 0.014016 0.250000
    vertex 0.886025 0.014778 0.250000
    vertex 0.886025 0.014778 -0.250000
  endloop
endfacet
facet normal -0.000381 0.000201 0.000000
  outer loop
    vertex 0.885623 0.014016 0.250000
    vertex 0.886025 0.014778 -0.250000
    vertex 0.885623 0.014016 -0.250000
  endloop
endfacet
facet normal -0.000367 0.000223 0.000000
  outer loop
    vertex 0.886025 0.014778 0.250000
    vertex 0.886472 0.015512 0.250000
    vertex 0.886472 0.015512 -0.250000
  endloop
endfacet
facet normal -0.000367 0.000223 0.000000
  outer loop
    vertex 0.886025 0.014778 0.250000
    vertex 0.886472 0.015512 -0.250000
    vertex 0.886025 0.014778 -0.250000
  endloop
endfacet
facet normal -0.000367 0.000253 0.000000
  outer loop
    vertex 0.886472 0.015512 0.250000
    vertex 0.886979 0.016245 0.250000
    vertex 0.886979 0.016245 -0.250000
  endloop
endfacet
facet normal -0.000367 0.000253 0.000000
  outer loop
    vertex 0.886472 0.015512 0.250000
    vertex 0.886979 0.016245 -0.250000
    vertex 0.886472 0.015512 -0.250000
  endloop
endfacet
facet normal -0.000365 0.000276 0.000000
  outer loop
    vertex 0.886979 0.016245 0.250000
    vertex 0.887531 0.016975 0.250000
    vertex 0.887531 0.016975 -0.250000
  endloop
endfacet
facet normal -0.000365 0.000276 0.000000
  outer loop
    vertex 0.886979 0.016245 0.250000
    vertex 0.887531 0.016975 -0.250000
    vertex 0.886979 0.016245 -0.250000
  endloop
endfacet
facet normal -0.000361 0.000306 0.000000
  outer loop
    vertex 0.887531 0.016975 0.250000
    vertex 0.888143 0.017697 0.250000
    vertex 0.888143 0.017697 -0.250000
  endloop
endfacet
facet normal -0.000361 0.000306 0.000000
  outer loop
    vertex 0.887531 0.016975 0.250000
    vertex 0.888143 0.017697 -0.250000
    vertex 0.887531 0.016975 -0.250000
  endloop
endfacet
facet normal -0.000354 0.000336 0.000000
  outer loop
    vertex 0.888143 0.017697 0.250000
    vertex 0.888815 0.018405 0.250000
    vertex 0.888815 0.018405 -0.250000
  endloop
endfacet
facet normal -0.000354 0.000336 0.000000
  outer loop
    vertex 0.888143 0.017697 0.250000
    vertex 0.888815 0.018405 -0.250000
    vertex 0.888143 0.017697 -0.250000
  endloop
endfacet
facet normal -0.000343 0.000368 0.000000
  outer loop
    vertex 0.888815 0.018405 0.250000
    vertex 0.889550 0.019090 0.250000
    vertex 0.889550 0.019090 -0.250000
  endloop
endfacet
facet normal -0.000343 0.000368 0.000000
  outer loop
    vertex 0.888815 0.018405 0.250000
    vertex 0.889550 0.019090 -0.250000
    vertex 0.888815 0.018405 -0.250000
  endloop
endfacet
facet normal -0.000329 0.000402 0.000000
  outer loop
    vertex 0.889550 0.019090 0.250000
    vertex 0.890355 0.019748 0.250000
    vertex 0.890355 0.019748 -0.250000
  endloop
endfacet
facet normal -0.000329 0.000402 0.000000
  outer loop
    vertex 0.889550 0.019090 0.250000
    vertex 0.890355 0.019748 -0.250000
    vertex 0.889550 0.019090 -0.250000
  endloop
endfacet
facet normal -0.000311 0.000436 0.000000
  outer loop
    vertex 0.890355 0.019748 0.250000
    vertex 0.891228 0.020369 0.250000
    vertex 0.891228 0.020369 -0.250000
  endloop
endfacet
facet normal -0.000311 0.000436 0.000000
  outer loop
    vertex 0.890355 0.019748 0.250000
    vertex 0.891228 0.020369 -0.250000
    vertex 0.890355 0.019748 -0.250000
  endloop
endfacet
facet normal -0.000292 0.000469 0.000000
  outer loop
    vertex 0.891228 0.020369 0.250000
    vertex 0.892166 0.020953 0.250000
    vertex 0.892166 0.020953 -0.250000
  endloop
endfacet
facet normal -0.000292 0.000469 0.000000
  outer loop
    vertex 0.891228 0.020369 0.250000
    vertex 0.892166 0.020953 -0.250000
    vertex 0.891228 0.020369 -0.250000
  endloop
endfacet
facet normal -0.000271 0.000502 0.000000
  outer loop
    vertex 0.892166 0.020953 0.250000
    vertex 0.893169 0.021494 0.250000
    vertex 0.893169 0.021494 -0.250000
  endloop
endfacet
facet normal -0.000271 0.000502 0.000000
  outer loop
    vertex 0.892166 0.020953 0.250000
    vertex 0.893169 0.021494 -0.250000
    vertex 0.892166 0.020953 -0.250000
  endloop
endfacet
facet normal -0.000247 0.000535 0.000000
  outer loop
    vertex 0.893169 0.021494 0.250000
    vertex 0.894239 0.021988 0.250000
    vertex 0.894239 0.021988 -0.250000
  endloop
endfacet
facet normal -0.000247 0.000535 0.000000
  outer loop
    vertex 0.893169 0.021494 0.250000
    vertex 0.894239 0.021988 -0.250000
    vertex 0.893169 0.021494 -0.250000
  endloop
endfacet
facet normal -0.000222 0.000565 0.000000
  outer loop
    vertex 0.894239 0.021988 0.250000
    vertex 0.895368 0.022432 0.250000
    vertex 0.895368 0.022432 -0.250000
  endloop
endfacet
facet normal -0.000222 0.000565 0.000000
  outer loop
    vertex 0.894239 0.021988 0.250000
    vertex 0.895368 0.022432 -0.250000
    vertex 0.894239 0.021988 -0.250000
  endloop
endfacet
facet normal -0.000195 0.000594 0.000000
  outer loop
    vertex 0.895368 0.022432 0.250000
    vertex 0.896557 0.022823 0.250000
    vertex 0.896557 0.022823 -0.250000
  endloop
endfacet
facet normal -0.000195 0.000594 0.000000
  outer loop
    vertex 0.895368 0.022432 0.250000
    vertex 0.896557 0.022823 -0.250000
    vertex 0.895368 0.022432 -0.250000
  endloop
endfacet
facet normal -0.000169 0.000624 0.000000
  outer loop
    vertex 0.896557 0.022823 0.250000
    vertex 0.897805 0.023160 0.250000
    vertex 0.897805 0.023160 -0.250000
  endloop
endfacet
facet normal -0.000169 0.000624 0.000000
  outer loop
    vertex 0.896557 0.022823 0.250000
    vertex 0.897805 0.023160 -0.250000
    vertex 0.896557 0.022823 -0.250000
  endloop
endfacet
facet normal -0.000146 0.000650 0.000000
  outer loop
    vertex 0.897805 0.023160 0.250000
    vertex 0.899105 0.023453 0.250000
    vertex 0.899105 0.023453 -0.250000
  endloop
endfacet
facet normal -0.000146 0.000650 0.000000
  outer loop
    vertex 0.897805 0.023160 0.250000
    vertex 0.899105 0.023453 -0.250000
    vertex 0.897805 0.023160 -0.250000
  endloop
endfacet
facet normal -0.000118 0.000677 0.000000
  outer loop
    vertex 0.899105 0.023453 0.250000
    vertex 0.900460 0.023689 0.250000
    vertex 0.900460 0.023689 -0.250000
  endloop
endfacet
facet normal -0.000118 0.000677 0.000000
  outer loop
    vertex 0.899105 0.023453 0.250000
    vertex 0.900460 0.023689 -0.250000
    vertex 0.899105 0.023453 -0.250000
  endloop
endfacet
facet normal -0.000093 0.000703 0.000000
  outer loop
    vertex 0.900460 0.023689 0.250000
    vertex 0.901866 0.023876 0.250000
    vertex 0.901866 0.023876 -0.250000
  endloop
endfacet
facet normal -0.000093 0.000703 0.000000
  outer loop
    vertex 0.900460 0.023689 0.250000
    vertex 0.901866 0.023876 -0.250000
    vertex 0.900460 0.023689 -0.250000
  endloop
endfacet
facet normal -0.000078 0.000728 0.000000
  outer loop
    vertex 0.901866 0.023876 0.250000
    vertex 0.903322 0.024032 0.250000
    vertex 0.903322 0.024032 -0.250000
  endloop
endfacet
facet normal -0.000078 0.000728 0.000000
  outer loop
    vertex 0.901866 0.023876 0.250000
    vertex 0.903322 0.024032 -0.250000
    vertex 0.901866 0.023876 -0.250000
  endloop
endfacet
facet normal -0.000054 0.000753 0.000000
  outer loop
    vertex 0.903322 0.024032 0.250000
    vertex 0.904829 0.024141 0.250000
    vertex 0.904829 0.024141 -0.250000
  endloop
endfacet
facet normal -0.000054 0.000753 0.000000
  outer loop
    vertex 0.903322 0.024032 0.250000
    vertex 0.904829 0.024141 -0.250000
    vertex 0.903322 0.024032 -0.250000
  endloop
endfacet
facet normal -0.000036 0.000778 0.000000
  outer loop
    vertex 0.904829 0.024141 0.250000
    vertex 0.906386 0.024212 0.250000
    vertex 0.906386 0.024212 -0.250000
  endloop
endfacet
facet normal -0.000036 0.000778 0.000000
  outer loop
    vertex 0.904829 0.024141 0.250000
    vertex 0.906386 0.024212 -0.250000
    vertex 0.904829 0.024141 -0.250000
  endloop
endfacet
facet normal -0.000012 0.000804 0.000000
  outer loop
    vertex 0.906386 0.024212 0.250000
    vertex 0.907993 0.024237 0.250000
    vertex 0.907993 0.024237 -0.250000
  endloop
endfacet
facet normal -0.000012 0.000804 0.000000
  outer loop
    vertex 0.906386 0.024212 0.250000
    vertex 0.907993 0.024237 -0.250000
    vertex 0.906386 0.024212 -0.250000
  endloop
endfacet
facet normal 0.000010 0.000829 0.000000
  outer loop
    vertex 0.907993 0.024237 0.250000
    vertex 0.909651 0.024217 0.250000
    vertex 0.909651 0.024217 -0.250000
  endloop
endfacet
facet normal 0.000010 0.000829 0.000000
  outer loop
    vertex 0.907993 0.024237 0.250000
    vertex 0.909651 0.024217 -0.250000
    vertex 0.907993 0.024237 -0.250000
  endloop
endfacet
facet normal 0.000031 0.000855 0.000000
  outer loop
    vertex 0.909651 0.024217 0.250000
    vertex 0.911362 0.024154 0.250000
    vertex 0.911362 0.024154 -0.250000
  endloop
endfacet
facet normal 0.000031 0.000855 0.000000
  outer loop
    vertex 0.909651 0.024217 0.250000
    vertex 0.911362 0.024154 -0.250000
    vertex 0.909651 0.024217 -0.250000
  endloop
endfacet
facet normal 0.000052 0.000881 0.000000
  outer loop
    vertex 0.911362 0.024154 0.250000
    vertex 0.913124 0.024050 0.250000
    vertex 0.913124 0.024050 -0.250000
  endloop
endfacet
facet normal 0.000052 0.000881 0.000000
  outer loop
    vertex 0.911362 0.024154 0.250000
    vertex 0.913124 0.024050 -0.250000
    vertex 0.911362 0.024154 -0.250000
  endloop
endfacet
facet normal 0.000074 0.000908 0.000000
  outer loop
    vertex 0.913124 0.024050 0.250000
    vertex 0.914940 0.023902 0.250000
    vertex 0.914940 0.023902 -0.250000
  endloop
endfacet
facet normal 0.000074 0.000908 0.000000
  outer loop
    vertex 0.913124 0.024050 0.250000
    vertex 0.914940 0.023902 -0.250000
    vertex 0.913124 0.024050 -0.250000
  endloop
endfacet
facet normal 0.000097 0.000935 0.000000
  outer loop
    vertex 0.914940 0.023902 0.250000
    vertex 0.916810 0.023708 0.250000
    vertex 0.916810 0.023708 -0.250000
  endloop
endfacet
facet normal 0.000097 0.000935 0.000000
  outer loop
    vertex 0.914940 0.023902 0.250000
    vertex 0.916810 0.023708 -0.250000
    vertex 0.914940 0.023902 -0.250000
  endloop
endfacet
facet normal 0.000119 0.000962 0.000000
  outer loop
    vertex 0.916810 0.023708 0.250000
    vertex 0.918734 0.023469 0.250000
    vertex 0.918734 0.023469 -0.250000
  endloop
endfacet
facet normal 0.000119 0.000962 0.000000
  outer loop
    vertex 0.916810 0.023708 0.250000
    vertex 0.918734 0.023469 -0.250000
    vertex 0.916810 0.023708 -0.250000
  endloop
endfacet
facet normal 0.000142 0.000990 0.000000
  outer loop
    vertex 0.918734 0.023469 0.250000
    vertex 0.920714 0.023185 0.250000
    vertex 0.920714 0.023185 -0.250000
  endloop
endfacet
facet normal 0.000142 0.000990 0.000000
  outer loop
    vertex 0.918734 0.023469 0.250000
    vertex 0.920714 0.023185 -0.250000
    vertex 0.918734 0.023469 -0.250000
  endloop
endfacet
facet normal 0.000166 0.001018 0.000000
  outer loop
    vertex 0.920714 0.023185 0.250000
    vertex 0.922751 0.022854 0.250000
    vertex 0.922751 0.022854 -0.250000
  endloop
endfacet
facet normal 0.000166 0.001018 0.000000
  outer loop
    vertex 0.920714 0.023185 0.250000
    vertex 0.922751 0.022854 -0.250000
    vertex 0.920714 0.023185 -0.250000
  endloop
endfacet
facet normal 0.000188 0.001048 0.000000
  outer loop
    vertex 0.922751 0.022854 0.250000
    vertex 0.924847 0.022478 0.250000
    vertex 0.924847 0.022478 -0.250000
  endloop
endfacet
facet normal 0.000188 0.001048 0.000000
  outer loop
    vertex 0.922751 0.022854 0.250000
    vertex 0.924847 0.022478 -0.250000
    vertex 0.922751 0.022854 -0.250000
  endloop
endfacet
facet normal 0.000211 0.001078 0.000000
  outer loop
    vertex 0.924847 0.022478 0.250000
    vertex 0.927004 0.022056 0.250000
    vertex 0.927004 0.022056 -0.250000
  endloop
endfacet
facet normal 0.000211 0.001078 0.000000
  outer loop
    vertex 0.924847 0.022478 0.250000
    vertex 0.927004 0.022056 -0.250000
    vertex 0.924847 0.022478 -0.250000
  endloop
endfacet
facet normal 0.000236 0.001108 0.000000
  outer loop
    vertex 0.927004 0.022056 0.250000
    vertex 0.929221 0.021585 0.250000
    vertex 0.929221 0.021585 -0.250000
  endloop
endfacet
facet normal 0.000236 0.001108 0.000000
  outer loop
    vertex 0.927004 0.022056 0.250000
    vertex 0.929221 0.021585 -0.250000
    vertex 0.927004 0.022056 -0.250000
  endloop
endfacet
facet normal 0.000261 0.001140 0.000000
  outer loop
    vertex 0.929221 0.021585 0.250000
    vertex 0.931501 0.021063 0.250000
    vertex 0.931501 0.021063 -0.250000
  endloop
endfacet
facet normal 0.000261 0.001140 0.000000
  outer loop
    vertex 0.929221 0.021585 0.250000
    vertex 0.931501 0.021063 -0.250000
    vertex 0.929221 0.021585 -0.250000
  endloop
endfacet
facet normal 0.000286 0.001172 0.000000
  outer loop
    vertex 0.931501 0.021063 0.250000
    vertex 0.933845 0.020491 0.250000
    vertex 0.933845 0.020491 -0.250000
  endloop
endfacet
facet normal 0.000286 0.001172 0.000000
  outer loop
    vertex 0.931501 0.021063 0.250000
    vertex 0.933845 0.020491 -0.250000
    vertex 0.931501 0.021063 -0.250000
  endloop
endfacet
facet normal 0.000310 0.001206 0.000000
  outer loop
    vertex 0.933845 0.020491 0.250000
    vertex 0.936257 0.019871 0.250000
    vertex 0.936257 0.019871 -0.250000
  endloop
endfacet
facet normal 0.000310 0.001206 0.000000
  outer loop
    vertex 0.933845 0.020491 0.250000
    vertex 0.936257 0.019871 -0.250000
    vertex 0.933845 0.020491 -0.250000
  endloop
endfacet
facet normal 0.000334 0.001240 0.000000
  outer loop
    vertex 0.936257 0.019871 0.250000
    vertex 0.938736 0.019203 0.250000
    vertex 0.938736 0.019203 -0.250000
  endloop
endfacet
facet normal 0.000334 0.001240 0.000000
  outer loop
    vertex 0.936257 0.019871 0.250000
    vertex 0.938736 0.019203 -0.250000
    vertex 0.936257 0.019871 -0.250000
  endloop
endfacet
facet normal 0.000361 0.001275 0.000000
  outer loop
    vertex 0.938736 0.019203 0.250000
    vertex 0.941286 0.018481 0.250000
    vertex 0.941286 0.018481 -0.250000
  endloop
endfacet
facet normal 0.000361 0.001275 0.000000
  outer loop
    vertex 0.938736 0.019203 0.250000
    vertex 0.941286 0.018481 -0.250000
    vertex 0.938736 0.019203 -0.250000
  endloop
endfacet
facet normal 0.000390 0.001310 0.000000
  outer loop
    vertex 0.941286 0.018481 0.250000
    vertex 0.943907 0.017701 0.250000
    vertex 0.943907 0.017701 -0.250000
  endloop
endfacet
facet normal 0.000390 0.001310 0.000000
  outer loop
    vertex 0.941286 0.018481 0.250000
    vertex 0.943907 0.017701 -0.250000
    vertex 0.941286 0.018481 -0.250000
  endloop
endfacet
facet normal 0.000420 0.001346 0.000000
  outer loop
    vertex 0.943907 0.017701 0.250000
    vertex 0.946600 0.016861 0.250000
    vertex 0.946600 0.016861 -0.250000
  endloop
endfacet
facet normal 0.000420 0.001346 0.000000
  outer loop
    vertex 0.943907 0.017701 0.250000
    vertex 0.946600 0.016861 -0.250000
    vertex 0.943907 0.017701 -0.250000
  endloop
endfacet
facet normal 0.000450 0.001383 0.000000
  outer loop
    vertex 0.946600 0.016861 0.250000
    vertex 0.949366 0.015962 0.250000
    vertex 0.949366 0.015962 -0.250000
  endloop
endfacet
facet normal 0.000450 0.001383 0.000000
  outer loop
    vertex 0.946600 0.016861 0.250000
    vertex 0.949366 0.015962 -0.250000
    vertex 0.946600 0.016861 -0.250000
  endloop
endfacet
facet normal 0.000481 0.001422 0.000000
  outer loop
    vertex 0.949366 0.015962 0.250000
    vertex 0.952211 0.015000 0.250000
    vertex 0.952211 0.015000 -0.250000
  endloop
endfacet
facet normal 0.000481 0.001422 0.000000
  outer loop
    vertex 0.949366 0.015962 0.250000
    vertex 0.952211 0.015000 -0.250000
    vertex 0.949366 0.015962 -0.250000
  endloop
endfacet
facet normal 0.000514 0.001461 0.000000
  outer loop
    vertex 0.952211 0.015000 0.250000
    vertex 0.955134 0.013973 0.250000
    vertex 0.955134 0.013973 -0.250000
  endloop
endfacet
facet normal 0.000514 0.001461 0.000000
  outer loop
    vertex 0.952211 0.015000 0.250000
    vertex 0.955134 0.013973 -0.250000
    vertex 0.952211 0.015000 -0.250000
  endloop
endfacet
facet normal 0.000550 0.001501 0.000000
  outer loop
    vertex 0.955134 0.013973 0.250000
    vertex 0.958136 0.012874 0.250000
    vertex 0.958136 0.012874 -0.250000
  endloop
endfacet
facet normal 0.000550 0.001501 0.000000
  outer loop
    vertex 0.955134 0.013973 0.250000
    vertex 0.958136 0.012874 -0.250000
    vertex 0.955134 0.013973 -0.250000
  endloop
endfacet
facet normal 0.000586 0.001541 0.000000
  outer loop
    vertex 0.958136 0.012874 0.250000
    vertex 0.961217 0.011702 0.250000
    vertex 0.961217 0.011702 -0.250000
  endloop
endfacet
facet normal 0.000586 0.001541 0.000000
  outer loop
    vertex 0.958136 0.012874 0.250000
    vertex 0.961217 0.011702 -0.250000
    vertex 0.958136 0.012874 -0.250000
  endloop
endfacet
facet normal 0.000623 0.001583 0.000000
  outer loop
    vertex 0.961217 0.011702 0.250000
    vertex 0.964384 0.010456 0.250000
    vertex 0.964384 0.010456 -0.250000
  endloop
endfacet
facet normal 0.000623 0.001583 0.000000
  outer loop
    vertex 0.961217 0.011702 0.250000
    vertex 0.964384 0.010456 -0.250000
    vertex 0.961217 0.011702 -0.250000
  endloop
endfacet
facet normal 0.000662 0.001625 0.000000
  outer loop
    vertex 0.964384 0.010456 0.250000
    vertex 0.967635 0.009133 0.250000
    vertex 0.967635 0.009133 -0.250000
  endloop
endfacet
facet normal 0.000662 0.001625 0.000000
  outer loop
    vertex 0.964384 0.010456 0.250000
    vertex 0.967635 0.009133 -0.250000
    vertex 0.964384 0.010456 -0.250000
  endloop
endfacet
facet normal 0.000700 0.001670 0.000000
  outer loop
    vertex 0.967635 0.009133 0.250000
    vertex 0.970975 0.007734 0.250000
    vertex 0.970975 0.007734 -0.250000
  endloop
endfacet
facet normal 0.000700 0.001670 0.000000
  outer loop
    vertex 0.967635 0.009133 0.250000
    vertex 0.970975 0.007734 -0.250000
    vertex 0.967635 0.009133 -0.250000
  endloop
endfacet
facet normal 0.000737 0.001717 0.000000
  outer loop
    vertex 0.970975 0.007734 0.250000
    vertex 0.974408 0.006259 0.250000
    vertex 0.974408 0.006259 -0.250000
  endloop
endfacet
facet normal 0.000737 0.001717 0.000000
  outer loop
    vertex 0.970975 0.007734 0.250000
    vertex 0.974408 0.006259 -0.250000
    vertex 0.970975 0.007734 -0.250000
  endloop
endfacet
facet normal 0.000776 0.001764 0.000000
  outer loop
    vertex 0.974408 0.006259 0.250000
    vertex 0.977937 0.004707 0.250000
    vertex 0.977937 0.004707 -0.250000
  endloop
endfacet
facet normal 0.000776 0.001764 0.000000
  outer loop
    vertex 0.974408 0.006259 0.250000
    vertex 0.977937 0.004707 -0.250000
    vertex 0.974408 0.006259 -0.250000
  endloop
endfacet
facet normal 0.000818 0.001812 0.000000
  outer loop
    vertex 0.977937 0.004707 0.250000
    vertex 0.981562 0.003070 0.250000
    vertex 0.981562 0.003070 -0.250000
  endloop
endfacet
facet normal 0.000818 0.001812 0.000000
  outer loop
    vertex 0.977937 0.004707 0.250000
    vertex 0.981562 0.003070 -0.250000
    vertex 0.977937 0.004707 -0.250000
  endloop
endfacet
facet normal 0.000864 0.001861 0.000000
  outer loop
    vertex 0.981562 0.003070 0.250000
    vertex 0.985284 0.001343 0.250000
    vertex 0.985284 0.001343 -0.250000
  endloop
endfacet
facet normal 0.000864 0.001861 0.000000
  outer loop
    vertex 0.981562 0.003070 0.250000
    vertex 0.985284 0.001343 -0.250000
    vertex 0.981562 0.003070 -0.250000
  endloop
endfacet
facet normal 0.000909 0.001911 0.000000
  outer loop
    vertex 0.985284 0.001343 0.250000
    vertex 0.989107 -0.000476 0.250000
    vertex 0.989107 -0.000476 -0.250000
  endloop
endfacet
facet normal 0.000909 0.001911 0.000000
  outer loop
    vertex 0.985284 0.001343 0.250000
    vertex 0.989107 -0.000476 -0.250000
    vertex 0.985284 0.001343 -0.250000
  endloop
endfacet
facet normal 0.000960 0.001962 0.000000
  outer loop
    vertex 0.989107 -0.000476 0.250000
    vertex 0.993031 -0.002396 0.250000
    vertex 0.993031 -0.002396 -0.250000
  endloop
endfacet
facet normal 0.000960 0.001962 0.000000
  outer loop
    vertex 0.989107 -0.000476 0.250000
    vertex 0.993031 -0.002396 -0.250000
    vertex 0.989107 -0.000476 -0.250000
  endloop
endfacet
facet normal 0.001008 0.002015 0.000000
  outer loop
    vertex 0.993031 -0.002396 0.250000
    vertex 0.997061 -0.004413 0.250000
    vertex 0.997061 -0.004413 -0.250000
  endloop
endfacet
facet normal 0.001008 0.002015 0.000000
  outer loop
    vertex 0.993031 -0.002396 0.250000
    vertex 0.997061 -0.004413 -0.250000
    vertex 0.993031 -0.002396 -0.250000
  endloop
endfacet
facet normal 0.001060 0.002069 0.000000
  outer loop
    vertex 0.997061 -0.004413 0.250000
    vertex 1.001199 -0.006533 0.250000
    vertex 1.001199 -0.006533 -0.250000
  endloop
endfacet
facet normal 0.001060 0.002069 0.000000
  outer loop
    vertex 0.997061 -0.004413 0.250000
    vertex 1.001199 -0.006533 -0.250000
    vertex 0.997061 -0.004413 -0.250000
  endloop
endfacet
facet normal 0.001113 0.002124 0.000000
  outer loop
    vertex 1.001199 -0.006533 0.250000
    vertex 1.005448 -0.008759 0.250000
    vertex 1.005448 -0.008759 -0.250000
  endloop
endfacet
facet normal 0.001113 0.002124 0.000000
  outer loop
    vertex 1.001199 -0.006533 0.250000
    vertex 1.005448 -0.008759 -0.250000
    vertex 1.001199 -0.006533 -0.250000
  endloop
endfacet
facet normal 0.001171 0.002180 0.000000
  outer loop
    vertex 1.005448 -0.008759 0.250000
    vertex 1.009809 -0.011101 0.250000
    vertex 1.009809 -0.011101 -0.250000
  endloop
endfacet
facet normal 0.001171 0.002180 0.000000
  outer loop
    vertex 1.005448 -0.008759 0.250000
    vertex 1.009809 -0.011101 -0.250000
    vertex 1.005448 -0.008759 -0.250000
  endloop
endfacet
facet normal 0.001230 0.002237 0.000000
  outer loop
    vertex 1.009809 -0.011101 0.250000
    vertex 1.014283 -0.013561 0.250000
    vertex 1.014283 -0.013561 -0.250000
  endloop
endfacet
facet normal 0.001230 0.002237 0.000000
  outer loop
    vertex 1.009809 -0.011101 0.250000
    vertex 1.014283 -0.013561 -0.250000
    vertex 1.009809 -0.011101 -0.250000
  endloop
endfacet
facet normal 0.001294 0.002294 0.000000
  outer loop
    vertex 1.014283 -0.013561 0.250000
    vertex 1.018871 -0.016149 0.250000
    vertex 1.018871 -0.016149 -0.250000
  endloop
endfacet
facet normal 0.001294 0.002294 0.000000
  outer loop
    vertex 1.014283 -0.013561 0.250000
    vertex 1.018871 -0.016149 -0.250000
    vertex 1.014283 -0.013561 -0.250000
  endloop
endfacet
facet normal 0.001365 0.002350 0.000000
  outer loop
    vertex 1.018871 -0.016149 0.250000
    vertex 1.023571 -0.018880 0.250000
    vertex 1.023571 -0.018880 -0.250000
  endloop
endfacet
facet normal 0.001365 0.002350 0.000000
  outer loop
    vertex 1.018871 -0.016149 0.250000
    vertex 1.023571 -0.018880 -0.250000
    vertex 1.018871 -0.016149 -0.250000
  endloop
endfacet
facet normal 0.001440 0.002406 0.000000
  outer loop
    vertex 1.023571 -0.018880 0.250000
    vertex 1.028383 -0.021759 0.250000
    vertex 1.028383 -0.021759 -0.250000
  endloop
endfacet
facet normal 0.001440 0.002406 0.000000
  outer loop
    vertex 1.023571 -0.018880 0.250000
    vertex 1.028383 -0.021759 -0.250000
    vertex 1.023571 -0.018880 -0.250000
  endloop
endfacet
facet normal 0.001508 0.002469 0.000000
  outer loop
    vertex 1.028383 -0.021759 0.250000
    vertex 1.033321 -0.024774 0.250000
    vertex 1.033321 -0.024774 -0.250000
  endloop
endfacet
facet normal 0.001508 0.002469 0.000000
  outer loop
    vertex 1.028383 -0.021759 0.250000
    vertex 1.033321 -0.024774 -0.250000
    vertex 1.028383 -0.021759 -0.250000
  endloop
endfacet
facet normal 0.001580 0.002532 0.000000
  outer loop
    vertex 1.033321 -0.024774 0.250000
    vertex 1.038386 -0.027933 0.250000
    vertex 1.038386 -0.027933 -0.250000
  endloop
endfacet
facet normal 0.001580 0.002532 0.000000
  outer loop
    vertex 1.033321 -0.024774 0.250000
    vertex 1.038386 -0.027933 -0.250000
    vertex 1.033321 -0.024774 -0.250000
  endloop
endfacet
facet normal 0.001548 0.002425 0.000000
  outer loop
    vertex 1.038386 -0.027933 0.250000
    vertex 1.043235 -0.031029 0.250000
    vertex 1.043235 -0.031029 -0.250000
  endloop
endfacet
facet normal 0.001548 0.002425 0.000000
  outer loop
    vertex 1.038386 -0.027933 0.250000
    vertex 1.043235 -0.031029 -0.250000
    vertex 1.038386 -0.027933 -0.250000
  endloop
endfacet
facet normal 0.001504 0.002328 0.000000
  outer loop
    vertex 1.043235 -0.031029 0.250000
    vertex 1.047891 -0.034036 0.250000
    vertex 1.047891 -0.034036 -0.250000
  endloop
endfacet
facet normal 0.001504 0.002328 0.000000
  outer loop
    vertex 1.043235 -0.031029 0.250000
    vertex 1.047891 -0.034036 -0.250000
    vertex 1.043235 -0.031029 -0.250000
  endloop
endfacet
facet normal 0.001457 0.002239 0.000000
  outer loop
    vertex 1.047891 -0.034036 0.250000
    vertex 1.052368 -0.036950 0.250000
    vertex 1.052368 -0.036950 -0.250000
  endloop
endfacet
facet normal 0.001457 0.002239 0.000000
  outer loop
    vertex 1.047891 -0.034036 0.250000
    vertex 1.052368 -0.036950 -0.250000
    vertex 1.047891 -0.034036 -0.250000
  endloop
endfacet
facet normal 0.001411 0.002152 0.000000
  outer loop
    vertex 1.052368 -0.036950 0.250000
    vertex 1.056673 -0.039773 0.250000
    vertex 1.056673 -0.039773 -0.250000
  endloop
endfacet
facet normal 0.001411 0.002152 0.000000
  outer loop
    vertex 1.052368 -0.036950 0.250000
    vertex 1.056673 -0.039773 -0.250000
    vertex 1.052368 -0.036950 -0.250000
  endloop
endfacet
facet normal 0.001366 0.002070 0.000000
  outer loop
    vertex 1.056673 -0.039773 0.250000
    vertex 1.060814 -0.042504 0.250000
    vertex 1.060814 -0.042504 -0.250000
  endloop
endfacet
facet normal 0.001366 0.002070 0.000000
  outer loop
    vertex 1.056673 -0.039773 0.250000
    vertex 1.060814 -0.042504 -0.250000
    vertex 1.056673 -0.039773 -0.250000
  endloop
endfacet
facet normal 0.001325 0.001989 0.000000
  outer loop
    vertex 1.060814 -0.042504 0.250000
    vertex 1.064792 -0.045154 0.250000
    vertex 1.064792 -0.045154 -0.250000
  endloop
endfacet
facet normal 0.001325 0.001989 0.000000
  outer loop
    vertex 1.060814 -0.042504 0.250000
    vertex 1.064792 -0.045154 -0.250000
    vertex 1.060814 -0.042504 -0.250000
  endloop
endfacet
facet normal 0.001283 0.001912 0.000000
  outer loop
    vertex 1.064792 -0.045154 0.250000
    vertex 1.068615 -0.047721 0.250000
    vertex 1.068615 -0.047721 -0.250000
  endloop
endfacet
facet normal 0.001283 0.001912 0.000000
  outer loop
    vertex 1.064792 -0.045154 0.250000
    vertex 1.068615 -0.047721 -0.250000
    vertex 1.064792 -0.045154 -0.250000
  endloop
endfacet
facet normal 0.001240 0.001841 0.000000
  outer loop
    vertex 1.068615 -0.047721 0.250000
    vertex 1.072297 -0.050201 0.250000
    vertex 1.072297 -0.050201 -0.250000
  endloop
endfacet
facet normal 0.001240 0.001841 0.000000
  outer loop
    vertex 1.068615 -0.047721 0.250000
    vertex 1.072297 -0.050201 -0.250000
    vertex 1.068615 -0.047721 -0.250000
  endloop
endfacet
facet normal 0.001200 0.001770 0.000000
  outer loop
    vertex 1.072297 -0.050201 0.250000
    vertex 1.075838 -0.052600 0.250000
    vertex 1.075838 -0.052600 -0.250000
  endloop
endfacet
facet normal 0.001200 0.001770 0.000000
  outer loop
    vertex 1.072297 -0.050201 0.250000
    vertex 1.075838 -0.052600 -0.250000
    vertex 1.072297 -0.050201 -0.250000
  endloop
endfacet
facet normal 0.001167 0.001699 0.000000
  outer loop
    vertex 1.075838 -0.052600 0.250000
    vertex 1.079235 -0.054935 0.250000
    vertex 1.079235 -0.054935 -0.250000
  endloop
endfacet
facet normal 0.001167 0.001699 0.000000
  outer loop
    vertex 1.075838 -0.052600 0.250000
    vertex 1.079235 -0.054935 -0.250000
    vertex 1.075838 -0.052600 -0.250000
  endloop
endfacet
facet normal 0.001135 0.001630 0.000000
  outer loop
    vertex 1.079235 -0.054935 0.250000
    vertex 1.082495 -0.057204 0.250000
    vertex 1.082495 -0.057204 -0.250000
  endloop
endfacet
facet normal 0.001135 0.001630 0.000000
  outer loop
    vertex 1.079235 -0.054935 0.250000
    vertex 1.082495 -0.057204 -0.250000
    vertex 1.079235 -0.054935 -0.250000
  endloop
endfacet
facet normal 0.001100 0.001566 0.000000
  outer loop
    vertex 1.082495 -0.057204 0.250000
    vertex 1.085628 -0.059403 0.250000
    vertex 1.085628 -0.059403 -0.250000
  endloop
endfacet
facet normal 0.001100 0.001566 0.000000
  outer loop
    vertex 1.082495 -0.057204 0.250000
    vertex 1.085628 -0.059403 -0.250000
    vertex 1.082495 -0.057204 -0.250000
  endloop
endfacet
facet normal 0.001065 0.001505 0.000000
  outer loop
    vertex 1.085628 -0.059403 0.250000
    vertex 1.088638 -0.061533 0.250000
    vertex 1.088638 -0.061533 -0.250000
  endloop
endfacet
facet normal 0.001065 0.001505 0.000000
  outer loop
    vertex 1.085628 -0.059403 0.250000
    vertex 1.088638 -0.061533 -0.250000
    vertex 1.085628 -0.059403 -0.250000
  endloop
endfacet
facet normal 0.001033 0.001446 0.000000
  outer loop
    vertex 1.088638 -0.061533 0.250000
    vertex 1.091529 -0.063600 0.250000
    vertex 1.091529 -0.063600 -0.250000
  endloop
endfacet
facet normal 0.001033 0.001446 0.000000
  outer loop
    vertex 1.088638 -0.061533 0.250000
    vertex 1.091529 -0.063600 -0.250000
    vertex 1.088638 -0.061533 -0.250000
  endloop
endfacet
facet normal 0.001002 0.001389 0.000000
  outer loop
    vertex 1.091529 -0.063600 0.250000
    vertex 1.094307 -0.065605 0.250000
    vertex 1.094307 -0.065605 -0.250000
  endloop
endfacet
facet normal 0.001002 0.001389 0.000000
  outer loop
    vertex 1.091529 -0.063600 0.250000
    vertex 1.094307 -0.065605 -0.250000
    vertex 1.091529 -0.063600 -0.250000
  endloop
endfacet
facet normal 0.000971 0.001334 0.000000
  outer loop
    vertex 1.094307 -0.065605 0.250000
    vertex 1.096976 -0.067547 0.250000
    vertex 1.096976 -0.067547 -0.250000
  endloop
endfacet
facet normal 0.000971 0.001334 0.000000
  outer loop
    vertex 1.094307 -0.065605 0.250000
    vertex 1.096976 -0.067547 -0.250000
    vertex 1.094307 -0.065605 -0.250000
  endloop
endfacet
facet normal 0.000938 0.001283 0.000000
  outer loop
    vertex 1.096976 -0.067547 0.250000
    vertex 1.099542 -0.069423 0.250000
    vertex 1.099542 -0.069423 -0.250000
  endloop
endfacet
facet normal 0.000938 0.001283 0.000000
  outer loop
    vertex 1.096976 -0.067547 0.250000
    vertex 1.099542 -0.069423 -0.250000
    vertex 1.096976 -0.067547 -0.250000
  endloop
endfacet
facet normal 0.000906 0.001236 0.000000
  outer loop
    vertex 1.099542 -0.069423 0.250000
    vertex 1.102014 -0.071236 0.250000
    vertex 1.102014 -0.071236 -0.250000
  endloop
endfacet
facet normal 0.000906 0.001236 0.000000
  outer loop
    vertex 1.099542 -0.069423 0.250000
    vertex 1.102014 -0.071236 -0.250000
    vertex 1.099542 -0.069423 -0.250000
  endloop
endfacet
facet normal 0.000877 0.001188 0.000000
  outer loop
    vertex 1.102014 -0.071236 0.250000
    vertex 1.104390 -0.072990 0.250000
    vertex 1.104390 -0.072990 -0.250000
  endloop
endfacet
facet normal 0.000877 0.001188 0.000000
  outer loop
    vertex 1.102014 -0.071236 0.250000
    vertex 1.104390 -0.072990 -0.250000
    vertex 1.102014 -0.071236 -0.250000
  endloop
endfacet
facet normal 0.000850 0.001141 0.000000
  outer loop
    vertex 1.104390 -0.072990 0.250000
    vertex 1.106672 -0.074691 0.250000
    vertex 1.106672 -0.074691 -0.250000
  endloop
endfacet
facet normal 0.000850 0.001141 0.000000
  outer loop
    vertex 1.104390 -0.072990 0.250000
    vertex 1.106672 -0.074691 -0.250000
    vertex 1.104390 -0.072990 -0.250000
  endloop
endfacet
facet normal 0.000824 0.001096 0.000000
  outer loop
    vertex 1.106672 -0.074691 0.250000
    vertex 1.108865 -0.076338 0.250000
    vertex 1.108865 -0.076338 -0.250000
  endloop
endfacet
facet normal 0.000824 0.001096 0.000000
  outer loop
    vertex 1.106672 -0.074691 0.250000
    vertex 1.108865 -0.076338 -0.250000
    vertex 1.106672 -0.074691 -0.250000
  endloop
endfacet
facet normal 0.000799 0.001053 0.000000
  outer loop
    vertex 1.108865 -0.076338 0.250000
    vertex 1.110970 -0.077935 0.250000
    vertex 1.110970 -0.077935 -0.250000
  endloop
endfacet
facet normal 0.000799 0.001053 0.000000
  outer loop
    vertex 1.108865 -0.076338 0.250000
    vertex 1.110970 -0.077935 -0.250000
    vertex 1.108865 -0.076338 -0.250000
  endloop
endfacet
facet normal 0.000776 0.001010 0.000000
  outer loop
    vertex 1.110970 -0.077935 0.250000
    vertex 1.112990 -0.079486 0.250000
    vertex 1.112990 -0.079486 -0.250000
  endloop
endfacet
facet normal 0.000776 0.001010 0.000000
  outer loop
    vertex 1.110970 -0.077935 0.250000
    vertex 1.112990 -0.079486 -0.250000
    vertex 1.110970 -0.077935 -0.250000
  endloop
endfacet
facet normal 0.000753 0.000969 0.000000
  outer loop
    vertex 1.112990 -0.079486 0.250000
    vertex 1.114927 -0.080993 0.250000
    vertex 1.114927 -0.080993 -0.250000
  endloop
endfacet
facet normal 0.000753 0.000969 0.000000
  outer loop
    vertex 1.112990 -0.079486 0.250000
    vertex 1.114927 -0.080993 -0.250000
    vertex 1.112990 -0.079486 -0.250000
  endloop
endfacet
facet normal 0.000729 0.000931 0.000000
  outer loop
    vertex 1.114927 -0.080993 0.250000
    vertex 1.116788 -0.082452 0.250000
    vertex 1.116788 -0.082452 -0.250000
  endloop
endfacet
facet normal 0.000729 0.000931 0.000000
  outer loop
    vertex 1.114927 -0.080993 0.250000
    vertex 1.116788 -0.082452 -0.250000
    vertex 1.114927 -0.080993 -0.250000
  endloop
endfacet
facet normal 0.000706 0.000894 0.000000
  outer loop
    vertex 1.116788 -0.082452 0.250000
    vertex 1.118577 -0.083864 0.250000
    vertex 1.118577 -0.083864 -0.250000
  endloop
endfacet
facet normal 0.000706 0.000894 0.000000
  outer loop
    vertex 1.116788 -0.082452 0.250000
    vertex 1.118577 -0.083864 -0.250000
    vertex 1.116788 -0.082452 -0.250000
  endloop
endfacet
facet normal 0.000683 0.000860 0.000000
  outer loop
    vertex 1.118577 -0.083864 0.250000
    vertex 1.120297 -0.085230 0.250000
    vertex 1.120297 -0.085230 -0.250000
  endloop
endfacet
facet normal 0.000683 0.000860 0.000000
  outer loop
    vertex 1.118577 -0.083864 0.250000
    vertex 1.120297 -0.085230 -0.250000
    vertex 1.118577 -0.083864 -0.250000
  endloop
endfacet
facet normal 0.000661 0.000826 0.000000
  outer loop
    vertex 1.120297 -0.085230 0.250000
    vertex 1.121949 -0.086551 0.250000
    vertex 1.121949 -0.086551 -0.250000
  endloop
endfacet
facet normal 0.000661 0.000826 0.000000
  outer loop
    vertex 1.120297 -0.085230 0.250000
    vertex 1.121949 -0.086551 -0.250000
    vertex 1.120297 -0.085230 -0.250000
  endloop
endfacet
facet normal 0.000640 0.000795 0.000000
  outer loop
    vertex 1.121949 -0.086551 0.250000
    vertex 1.123538 -0.087830 0.250000
    vertex 1.123538 -0.087830 -0.250000
  endloop
endfacet
facet normal 0.000640 0.000795 0.000000
  outer loop
    vertex 1.121949 -0.086551 0.250000
    vertex 1.123538 -0.087830 -0.250000
    vertex 1.121949 -0.086551 -0.250000
  endloop
endfacet
facet normal 0.000618 0.000764 0.000000
  outer loop
    vertex 1.123538 -0.087830 0.250000
    vertex 1.125066 -0.089066 0.250000
    vertex 1.125066 -0.089066 -0.250000
  endloop
endfacet
facet normal 0.000618 0.000764 0.000000
  outer loop
    vertex 1.123538 -0.087830 0.250000
    vertex 1.125066 -0.089066 -0.250000
    vertex 1.123538 -0.087830 -0.250000
  endloop
endfacet
facet normal 0.000597 0.000734 0.000000
  outer loop
    vertex 1.125066 -0.089066 0.250000
    vertex 1.126534 -0.090260 0.250000
    vertex 1.126534 -0.090260 -0.250000
  endloop
endfacet
facet normal 0.000597 0.000734 0.000000
  outer loop
    vertex 1.125066 -0.089066 0.250000
    vertex 1.126534 -0.090260 -0.250000
    vertex 1.125066 -0.089066 -0.250000
  endloop
endfacet
facet normal 0.000578 0.000706 0.000000
  outer loop
    vertex 1.126534 -0.090260 0.250000
    vertex 1.127947 -0.091415 0.250000
    vertex 1.127947 -0.091415 -0.250000
  endloop
endfacet
facet normal 0.000578 0.000706 0.000000
  outer loop
    vertex 1.126534 -0.090260 0.250000
    vertex 1.127947 -0.091415 -0.250000
    vertex 1.126534 -0.090260 -0.250000
  endloop
endfacet
facet normal 0.000559 0.000679 0.000000
  outer loop
    vertex 1.127947 -0.091415 0.250000
    vertex 1.129305 -0.092533 0.250000
    vertex 1.129305 -0.092533 -0.250000
  endloop
endfacet
facet normal 0.000559 0.000679 0.000000
  outer loop
    vertex 1.127947 -0.091415 0.250000
    vertex 1.129305 -0.092533 -0.250000
    vertex 1.127947 -0.091415 -0.250000
  endloop
endfacet
facet normal 0.000541 0.000652 0.000000
  outer loop
    vertex 1.129305 -0.092533 0.250000
    vertex 1.130609 -0.093614 0.250000
    vertex 1.130609 -0.093614 -0.250000
  endloop
endfacet
facet normal 0.000541 0.000652 0.000000
  outer loop
    vertex 1.129305 -0.092533 0.250000
    vertex 1.130609 -0.093614 -0.250000
    vertex 1.129305 -0.092533 -0.250000
  endloop
endfacet
facet normal 0.000521 0.000629 0.000000
  outer loop
    vertex 1.130609 -0.093614 0.250000
    vertex 1.131866 -0.094657 0.250000
    vertex 1.131866 -0.094657 -0.250000
  endloop
endfacet
facet normal 0.000521 0.000629 0.000000
  outer loop
    vertex 1.130609 -0.093614 0.250000
    vertex 1.131866 -0.094657 -0.250000
    vertex 1.130609 -0.093614 -0.250000
  endloop
endfacet
facet normal 0.000502 0.000606 0.000000
  outer loop
    vertex 1.131866 -0.094657 0.250000
    vertex 1.133077 -0.095661 0.250000
    vertex 1.133077 -0.095661 -0.250000
  endloop
endfacet
facet normal 0.000502 0.000606 0.000000
  outer loop
    vertex 1.131866 -0.094657 0.250000
    vertex 1.133077 -0.095661 -0.250000
    vertex 1.131866 -0.094657 -0.250000
  endloop
endfacet
facet normal 0.000483 0.000584 0.000000
  outer loop
    vertex 1.133077 -0.095661 0.250000
    vertex 1.134246 -0.096628 0.250000
    vertex 1.134246 -0.096628 -0.250000
  endloop
endfacet
facet normal 0.000483 0.000584 0.000000
  outer loop
    vertex 1.133077 -0.095661 0.250000
    vertex 1.134246 -0.096628 -0.250000
    vertex 1.133077 -0.095661 -0.250000
  endloop
endfacet
facet normal 0.000465 0.000564 0.000000
  outer loop
    vertex 1.134246 -0.096628 0.250000
    vertex 1.135373 -0.097557 0.250000
    vertex 1.135373 -0.097557 -0.250000
  endloop
endfacet
facet normal 0.000465 0.000564 0.000000
  outer loop
    vertex 1.134246 -0.096628 0.250000
    vertex 1.135373 -0.097557 -0.250000
    vertex 1.134246 -0.096628 -0.250000
  endloop
endfacet
facet normal 0.000449 0.000542 0.000000
  outer loop
    vertex 1.135373 -0.097557 0.250000
    vertex 1.136458 -0.098455 0.250000
    vertex 1.136458 -0.098455 -0.250000
  endloop
endfacet
facet normal 0.000449 0.000542 0.000000
  outer loop
    vertex 1.135373 -0.097557 0.250000
    vertex 1.136458 -0.098455 -0.250000
    vertex 1.135373 -0.097557 -0.250000
  endloop
endfacet
facet normal 0.000433 0.000523 0.000000
  outer loop
    vertex 1.136458 -0.098455 0.250000
    vertex 1.137503 -0.099320 0.250000
    vertex 1.137503 -0.099320 -0.250000
  endloop
endfacet
facet normal 0.000433 0.000523 0.000000
  outer loop
    vertex 1.136458 -0.098455 0.250000
    vertex 1.137503 -0.099320 -0.250000
    vertex 1.136458 -0.098455 -0.250000
  endloop
endfacet
facet normal 0.000417 0.000503 0.000000
  outer loop
    vertex 1.137503 -0.099320 0.250000
    vertex 1.138510 -0.100154 0.250000
    vertex 1.138510 -0.100154 -0.250000
  endloop
endfacet
facet normal 0.000417 0.000503 0.000000
  outer loop
    vertex 1.137503 -0.099320 0.250000
    vertex 1.138510 -0.100154 -0.250000
    vertex 1.137503 -0.099320 -0.250000
  endloop
endfacet
facet normal 0.000403 0.000484 0.000000
  outer loop
    vertex 1.138510 -0.100154 0.250000
    vertex 1.139478 -0.100960 0.250000
    vertex 1.139478 -0.100960 -0.250000
  endloop
endfacet
facet normal 0.000403 0.000484 0.000000
  outer loop
    vertex 1.138510 -0.100154 0.250000
    vertex 1.139478 -0.100960 -0.250000
    vertex 1.138510 -0.100154 -0.250000
  endloop
endfacet
facet normal 0.000387 0.000468 0.000000
  outer loop
    vertex 1.139478 -0.100960 0.250000
    vertex 1.140414 -0.101734 0.250000
    vertex 1.140414 -0.101734 -0.250000
  endloop
endfacet
facet normal 0.000387 0.000468 0.000000
  outer loop
    vertex 1.139478 -0.100960 0.250000
    vertex 1.140414 -0.101734 -0.250000
    vertex 1.139478 -0.100960 -0.250000
  endloop
endfacet
facet normal 0.000373 0.000451 0.000000
  outer loop
    vertex 1.140414 -0.101734 0.250000
    vertex 1.141315 -0.102479 0.250000
    vertex 1.141315 -0.102479 -0.250000
  endloop
endfacet
facet normal 0.000373 0.000451 0.000000
  outer loop
    vertex 1.140414 -0.101734 0.250000
    vertex 1.141315 -0.102479 -0.250000
    vertex 1.140414 -0.101734 -0.250000
  endloop
endfacet
facet normal 0.000359 0.000435 0.000000
  outer loop
    vertex 1.141315 -0.102479 0.250000
    vertex 1.142185 -0.103196 0.250000
    vertex 1.142185 -0.103196 -0.250000
  endloop
endfacet
facet normal 0.000359 0.000435 0.000000
  outer loop
    vertex 1.141315 -0.102479 0.250000
    vertex 1.142185 -0.103196 -0.250000
    vertex 1.141315 -0.102479 -0.250000
  endloop
endfacet
facet normal 0.000345 0.000420 0.000000
  outer loop
    vertex 1.142185 -0.103196 0.250000
    vertex 1.143025 -0.103886 0.250000
    vertex 1.143025 -0.103886 -0.250000
  endloop
endfacet
facet normal 0.000345 0.000420 0.000000
  outer loop
    vertex 1.142185 -0.103196 0.250000
    vertex 1.143025 -0.103886 -0.250000
    vertex 1.142185 -0.103196 -0.250000
  endloop
endfacet
facet normal 0.000333 0.000404 0.000000
  outer loop
    vertex 1.143025 -0.103886 0.250000
    vertex 1.143833 -0.104552 0.250000
    vertex 1.143833 -0.104552 -0.250000
  endloop
endfacet
facet normal 0.000333 0.000404 0.000000
  outer loop
    vertex 1.143025 -0.103886 0.250000
    vertex 1.143833 -0.104552 -0.250000
    vertex 1.143025 -0.103886 -0.250000
  endloop
endfacet
facet normal 0.000321 0.000389 0.000000
  outer loop
    vertex 1.143833 -0.104552 0.250000
    vertex 1.144612 -0.105194 0.250000
    vertex 1.144612 -0.105194 -0.250000
  endloop
endfacet
facet normal 0.000321 0.000389 0.000000
  outer loop
    vertex 1.143833 -0.104552 0.250000
    vertex 1.144612 -0.105194 -0.250000
    vertex 1.143833 -0.104552 -0.250000
  endloop
endfacet
facet normal 0.000310 0.000374 0.000000
  outer loop
    vertex 1.144612 -0.105194 0.250000
    vertex 1.145360 -0.105814 0.250000
    vertex 1.145360 -0.105814 -0.250000
  endloop
endfacet
facet normal 0.000310 0.000374 0.000000
  outer loop
    vertex 1.144612 -0.105194 0.250000
    vertex 1.145360 -0.105814 -0.250000
    vertex 1.144612 -0.105194 -0.250000
  endloop
endfacet
facet normal 0.000300 0.000360 0.000000
  outer loop
    vertex 1.145360 -0.105814 0.250000
    vertex 1.146080 -0.106414 0.250000
    vertex 1.146080 -0.106414 -0.250000
  endloop
endfacet
facet normal 0.000300 0.000360 0.000000
  outer loop
    vertex 1.145360 -0.105814 0.250000
    vertex 1.146080 -0.106414 -0.250000
    vertex 1.145360 -0.105814 -0.250000
  endloop
endfacet
facet normal 0.000289 0.000346 0.000000
  outer loop
    vertex 1.146080 -0.106414 0.250000
    vertex 1.146772 -0.106992 0.250000
    vertex 1.146772 -0.106992 -0.250000
  endloop
endfacet
facet normal 0.000289 0.000346 0.000000
  outer loop
    vertex 1.146080 -0.106414 0.250000
    vertex 1.146772 -0.106992 -0.250000
    vertex 1.146080 -0.106414 -0.250000
  endloop
endfacet
facet normal 0.000277 0.000335 0.000000
  outer loop
    vertex 1.146772 -0.106992 0.250000
    vertex 1.147443 -0.107547 0.250000
    vertex 1.147443 -0.107547 -0.250000
  endloop
endfacet
facet normal 0.000277 0.000335 0.000000
  outer loop
    vertex 1.146772 -0.106992 0.250000
    vertex 1.147443 -0.107547 -0.250000
    vertex 1.146772 -0.106992 -0.250000
  endloop
endfacet
facet normal 0.000267 0.000323 0.000000
  outer loop
    vertex 1.147443 -0.107547 0.250000
    vertex 1.148089 -0.108081 0.250000
    vertex 1.148089 -0.108081 -0.250000
  endloop
endfacet
facet normal 0.000267 0.000323 0.000000
  outer loop
    vertex 1.147443 -0.107547 0.250000
    vertex 1.148089 -0.108081 -0.250000
    vertex 1.147443 -0.107547 -0.250000
  endloop
endfacet
facet normal 0.000256 0.000312 0.000000
  outer loop
    vertex 1.148089 -0.108081 0.250000
    vertex 1.148713 -0.108592 0.250000
    vertex 1.148713 -0.108592 -0.250000
  endloop
endfacet
facet normal 0.000256 0.000312 0.000000
  outer loop
    vertex 1.148089 -0.108081 0.250000
    vertex 1.148713 -0.108592 -0.250000
    vertex 1.148089 -0.108081 -0.250000
  endloop
endfacet
facet normal 0.000246 0.000302 0.000000
  outer loop
    vertex 1.148713 -0.108592 0.250000
    vertex 1.149318 -0.109085 0.250000
    vertex 1.149318 -0.109085 -0.250000
  endloop
endfacet
facet normal 0.000246 0.000302 0.000000
  outer loop
    vertex 1.148713 -0.108592 0.250000
    vertex 1.149318 -0.109085 -0.250000
    vertex 1.148713 -0.108592 -0.250000
  endloop
endfacet
facet normal 0.000237 0.000290 0.000000
  outer loop
    vertex 1.149318 -0.109085 0.250000
    vertex 1.149898 -0.109560 0.250000
    vertex 1.149898 -0.109560 -0.250000
  endloop
endfacet
facet normal 0.000237 0.000290 0.000000
  outer loop
    vertex 1.149318 -0.109085 0.250000
    vertex 1.149898 -0.109560 -0.250000
    vertex 1.149318 -0.109085 -0.250000
  endloop
endfacet
facet normal 0.000230 0.000279 0.000000
  outer loop
    vertex 1.149898 -0.109560 0.250000
    vertex 1.150456 -0.110019 0.250000
    vertex 1.150456 -0.110019 -0.250000
  endloop
endfacet
facet normal 0.000230 0.000279 0.000000
  outer loop
    vertex 1.149898 -0.109560 0.250000
    vertex 1.150456 -0.110019 -0.250000
    vertex 1.149898 -0.109560 -0.250000
  endloop
endfacet
facet normal 0.000221 0.000269 0.000000
  outer loop
    vertex 1.150456 -0.110019 0.250000
    vertex 1.150993 -0.110462 0.250000
    vertex 1.150993 -0.110462 -0.250000
  endloop
endfacet
facet normal 0.000221 0.000269 0.000000
  outer loop
    vertex 1.150456 -0.110019 0.250000
    vertex 1.150993 -0.110462 -0.250000
    vertex 1.150456 -0.110019 -0.250000
  endloop
endfacet
facet normal 0.000214 0.000258 0.000000
  outer loop
    vertex 1.150993 -0.110462 0.250000
    vertex 1.151510 -0.110891 0.250000
    vertex 1.151510 -0.110891 -0.250000
  endloop
endfacet
facet normal 0.000214 0.000258 0.000000
  outer loop
    vertex 1.150993 -0.110462 0.250000
    vertex 1.151510 -0.110891 -0.250000
    vertex 1.150993 -0.110462 -0.250000
  endloop
endfacet
facet normal 0.000206 0.000249 0.000000
  outer loop
    vertex 1.151510 -0.110891 0.250000
    vertex 1.152009 -0.111303 0.250000
    vertex 1.152009 -0.111303 -0.250000
  endloop
endfacet
facet normal 0.000206 0.000249 0.000000
  outer loop
    vertex 1.151510 -0.110891 0.250000
    vertex 1.152009 -0.111303 -0.250000
    vertex 1.151510 -0.110891 -0.250000
  endloop
endfacet
facet normal 0.000198 0.000240 0.000000
  outer loop
    vertex 1.152009 -0.111303 0.250000
    vertex 1.152489 -0.111700 0.250000
    vertex 1.152489 -0.111700 -0.250000
  endloop
endfacet
facet normal 0.000198 0.000240 0.000000
  outer loop
    vertex 1.152009 -0.111303 0.250000
    vertex 1.152489 -0.111700 -0.250000
    vertex 1.152009 -0.111303 -0.250000
  endloop
endfacet
facet normal 0.000191 0.000232 0.000000
  outer loop
    vertex 1.152489 -0.111700 0.250000
    vertex 1.152952 -0.112082 0.250000
    vertex 1.152952 -0.112082 -0.250000
  endloop
endfacet
facet normal 0.000191 0.000232 0.000000
  outer loop
    vertex 1.152489 -0.111700 0.250000
    vertex 1.152952 -0.112082 -0.250000
    vertex 1.152489 -0.111700 -0.250000
  endloop
endfacet
facet normal 0.000184 0.000223 0.000000
  outer loop
    vertex 1.152952 -0.112082 0.250000
    vertex 1.153399 -0.112450 0.250000
    vertex 1.153399 -0.112450 -0.250000
  endloop
endfacet
facet normal 0.000184 0.000223 0.000000
  outer loop
    vertex 1.152952 -0.112082 0.250000
    vertex 1.153399 -0.112450 -0.250000
    vertex 1.152952 -0.112082 -0.250000
  endloop
endfacet
facet normal 0.000177 0.000216 0.000000
  outer loop
    vertex 1.153399 -0.112450 0.250000
    vertex 1.153831 -0.112805 0.250000
    vertex 1.153831 -0.112805 -0.250000
  endloop
endfacet
facet normal 0.000177 0.000216 0.000000
  outer loop
    vertex 1.153399 -0.112450 0.250000
    vertex 1.153831 -0.112805 -0.250000
    vertex 1.153399 -0.112450 -0.250000
  endloop
endfacet
facet normal 0.000172 0.000207 0.000000
  outer loop
    vertex 1.153831 -0.112805 0.250000
    vertex 1.154244 -0.113148 0.250000
    vertex 1.154244 -0.113148 -0.250000
  endloop
endfacet
facet normal 0.000172 0.000207 0.000000
  outer loop
    vertex 1.153831 -0.112805 0.250000
    vertex 1.154244 -0.113148 -0.250000
    vertex 1.153831 -0.112805 -0.250000
  endloop
endfacet
facet normal 0.000167 0.000197 0.000000
  outer loop
    vertex 1.154244 -0.113148 0.250000
    vertex 1.154638 -0.113483 0.250000
    vertex 1.154638 -0.113483 -0.250000
  endloop
endfacet
facet normal 0.000167 0.000197 0.000000
  outer loop
    vertex 1.154244 -0.113148 0.250000
    vertex 1.154638 -0.113483 -0.250000
    vertex 1.154244 -0.113148 -0.250000
  endloop
endfacet
facet normal 0.000162 0.000190 0.000000
  outer loop
    vertex 1.154638 -0.113483 0.250000
    vertex 1.155019 -0.113807 0.250000
    vertex 1.155019 -0.113807 -0.250000
  endloop
endfacet
facet normal 0.000162 0.000190 0.000000
  outer loop
    vertex 1.154638 -0.113483 0.250000
    vertex 1.155019 -0.113807 -0.250000
    vertex 1.154638 -0.113483 -0.250000
  endloop
endfacet
facet normal 0.000152 0.000188 0.000000
  outer loop
    vertex 1.155019 -0.113807 0.250000
    vertex 1.155394 -0.114110 0.250000
    vertex 1.155394 -0.114110 -0.250000
  endloop
endfacet
facet normal 0.000152 0.000188 0.000000
  outer loop
    vertex 1.155019 -0.113807 0.250000
    vertex 1.155394 -0.114110 -0.250000
    vertex 1.155019 -0.113807 -0.250000
  endloop
endfacet
facet normal 0.000148 0.000179 0.000000
  outer loop
    vertex 1.155394 -0.114110 0.250000
    vertex 1.155752 -0.114406 0.250000
    vertex 1.155752 -0.114406 -0.250000
  endloop
endfacet
facet normal 0.000148 0.000179 0.000000
  outer loop
    vertex 1.155394 -0.114110 0.250000
    vertex 1.155752 -0.114406 -0.250000
    vertex 1.155394 -0.114110 -0.250000
  endloop
endfacet
facet normal 0.000160 0.000154 0.000000
  outer loop
    vertex 1.155752 -0.114406 0.250000
    vertex 1.156059 -0.114725 0.250000
    vertex 1.156059 -0.114725 -0.250000
  endloop
endfacet
facet normal 0.000160 0.000154 0.000000
  outer loop
    vertex 1.155752 -0.114406 0.250000
    vertex 1.156059 -0.114725 -0.250000
    vertex 1.155752 -0.114406 -0.250000
  endloop
endfacet
facet normal 0.000170 0.000134 0.000000
  outer loop
    vertex 1.156059 -0.114725 0.250000
    vertex 1.156327 -0.115065 0.250000
    vertex 1.156327 -0.115065 -0.250000
  endloop
endfacet
facet normal 0.000170 0.000134 0.000000
  outer loop
    vertex 1.156059 -0.114725 0.250000
    vertex 1.156327 -0.115065 -0.250000
    vertex 1.156059 -0.114725 -0.250000
  endloop
endfacet
facet normal 0.003122 0.002011 0.000000
  outer loop
    vertex 1.156327 -0.115065 0.250000
    vertex 1.160348 -0.121309 0.250000
    vertex 1.160348 -0.121309 -0.250000
  endloop
endfacet
facet normal 0.003122 0.002011 0.000000
  outer loop
    vertex 1.156327 -0.115065 0.250000
    vertex 1.160348 -0.121309 -0.250000
    vertex 1.156327 -0.115065 -0.250000
  endloop
endfacet
endsolid new_flap.stl
