solid me.stl
facet normal -0.000007 -0.000159 0.000000
  outer loop
    vertex 0.218216 0.007750 0.250000
    vertex 0.217898 0.007764 0.250000
    vertex 0.217898 0.007764 -0.250000
  endloop
endfacet
facet normal -0.000007 -0.000159 -0.000000
  outer loop
    vertex 0.218216 0.007750 0.250000
    vertex 0.217898 0.007764 -0.250000
    vertex 0.218216 0.007750 -0.250000
  endloop
endfacet
facet normal -0.000008 -0.000176 0.000000
  outer loop
    vertex 0.217898 0.007764 0.250000
    vertex 0.217546 0.007781 0.250000
    vertex 0.217546 0.007781 -0.250000
  endloop
endfacet
facet normal -0.000008 -0.000176 -0.000000
  outer loop
    vertex 0.217898 0.007764 0.250000
    vertex 0.217546 0.007781 -0.250000
    vertex 0.217898 0.007764 -0.250000
  endloop
endfacet
facet normal -0.000009 -0.000196 0.000000
  outer loop
    vertex 0.217546 0.007781 0.250000
    vertex 0.217155 0.007798 0.250000
    vertex 0.217155 0.007798 -0.250000
  endloop
endfacet
facet normal -0.000009 -0.000196 -0.000000
  outer loop
    vertex 0.217546 0.007781 0.250000
    vertex 0.217155 0.007798 -0.250000
    vertex 0.217546 0.007781 -0.250000
  endloop
endfacet
facet normal -0.000009 -0.000217 0.000000
  outer loop
    vertex 0.217155 0.007798 0.250000
    vertex 0.216720 0.007817 0.250000
    vertex 0.216720 0.007817 -0.250000
  endloop
endfacet
facet normal -0.000009 -0.000217 -0.000000
  outer loop
    vertex 0.217155 0.007798 0.250000
    vertex 0.216720 0.007817 -0.250000
    vertex 0.217155 0.007798 -0.250000
  endloop
endfacet
facet normal -0.000010 -0.000241 0.000000
  outer loop
    vertex 0.216720 0.007817 0.250000
    vertex 0.216238 0.007838 0.250000
    vertex 0.216238 0.007838 -0.250000
  endloop
endfacet
facet normal -0.000010 -0.000241 -0.000000
  outer loop
    vertex 0.216720 0.007817 0.250000
    vertex 0.216238 0.007838 -0.250000
    vertex 0.216720 0.007817 -0.250000
  endloop
endfacet
facet normal -0.000011 -0.000268 0.000000
  outer loop
    vertex 0.216238 0.007838 0.250000
    vertex 0.215703 0.007859 0.250000
    vertex 0.215703 0.007859 -0.250000
  endloop
endfacet
facet normal -0.000011 -0.000268 -0.000000
  outer loop
    vertex 0.216238 0.007838 0.250000
    vertex 0.215703 0.007859 -0.250000
    vertex 0.216238 0.007838 -0.250000
  endloop
endfacet
facet normal -0.000011 -0.000297 0.000000
  outer loop
    vertex 0.215703 0.007859 0.250000
    vertex 0.215108 0.007880 0.250000
    vertex 0.215108 0.007880 -0.250000
  endloop
endfacet
facet normal -0.000011 -0.000297 -0.000000
  outer loop
    vertex 0.215703 0.007859 0.250000
    vertex 0.215108 0.007880 -0.250000
    vertex 0.215703 0.007859 -0.250000
  endloop
endfacet
facet normal -0.000011 -0.000330 0.000000
  outer loop
    vertex 0.215108 0.007880 0.250000
    vertex 0.214449 0.007902 0.250000
    vertex 0.214449 0.007902 -0.250000
  endloop
endfacet
facet normal -0.000011 -0.000330 -0.000000
  outer loop
    vertex 0.215108 0.007880 0.250000
    vertex 0.214449 0.007902 -0.250000
    vertex 0.215108 0.007880 -0.250000
  endloop
endfacet
facet normal -0.000010 -0.000366 0.000000
  outer loop
    vertex 0.214449 0.007902 0.250000
    vertex 0.213717 0.007922 0.250000
    vertex 0.213717 0.007922 -0.250000
  endloop
endfacet
facet normal -0.000010 -0.000366 -0.000000
  outer loop
    vertex 0.214449 0.007902 0.250000
    vertex 0.213717 0.007922 -0.250000
    vertex 0.214449 0.007902 -0.250000
  endloop
endfacet
facet normal -0.000009 -0.000407 0.000000
  outer loop
    vertex 0.213717 0.007922 0.250000
    vertex 0.212903 0.007940 0.250000
    vertex 0.212903 0.007940 -0.250000
  endloop
endfacet
facet normal -0.000009 -0.000407 -0.000000
  outer loop
    vertex 0.213717 0.007922 0.250000
    vertex 0.212903 0.007940 -0.250000
    vertex 0.213717 0.007922 -0.250000
  endloop
endfacet
facet normal -0.000007 -0.000451 0.000000
  outer loop
    vertex 0.212903 0.007940 0.250000
    vertex 0.212001 0.007954 0.250000
    vertex 0.212001 0.007954 -0.250000
  endloop
endfacet
facet normal -0.000007 -0.000451 -0.000000
  outer loop
    vertex 0.212903 0.007940 0.250000
    vertex 0.212001 0.007954 -0.250000
    vertex 0.212903 0.007940 -0.250000
  endloop
endfacet
facet normal -0.000007 -0.000501 0.000000
  outer loop
    vertex 0.212001 0.007954 0.250000
    vertex 0.210999 0.007967 0.250000
    vertex 0.210999 0.007967 -0.250000
  endloop
endfacet
facet normal -0.000007 -0.000501 -0.000000
  outer loop
    vertex 0.212001 0.007954 0.250000
    vertex 0.210999 0.007967 -0.250000
    vertex 0.212001 0.007954 -0.250000
  endloop
endfacet
facet normal -0.000006 -0.000556 0.000000
  outer loop
    vertex 0.210999 0.007967 0.250000
    vertex 0.209886 0.007980 0.250000
    vertex 0.209886 0.007980 -0.250000
  endloop
endfacet
facet normal -0.000006 -0.000556 -0.000000
  outer loop
    vertex 0.210999 0.007967 0.250000
    vertex 0.209886 0.007980 -0.250000
    vertex 0.210999 0.007967 -0.250000
  endloop
endfacet
facet normal -0.000006 -0.000618 0.000000
  outer loop
    vertex 0.209886 0.007980 0.250000
    vertex 0.208650 0.007992 0.250000
    vertex 0.208650 0.007992 -0.250000
  endloop
endfacet
facet normal -0.000006 -0.000618 -0.000000
  outer loop
    vertex 0.209886 0.007980 0.250000
    vertex 0.208650 0.007992 -0.250000
    vertex 0.209886 0.007980 -0.250000
  endloop
endfacet
facet normal -0.000004 -0.000686 0.000000
  outer loop
    vertex 0.208650 0.007992 0.250000
    vertex 0.207279 0.008000 0.250000
    vertex 0.207279 0.008000 -0.250000
  endloop
endfacet
facet normal -0.000004 -0.000686 -0.000000
  outer loop
    vertex 0.208650 0.007992 0.250000
    vertex 0.207279 0.008000 -0.250000
    vertex 0.208650 0.007992 -0.250000
  endloop
endfacet
facet normal -0.000001 -0.000761 0.000000
  outer loop
    vertex 0.207279 0.008000 0.250000
    vertex 0.205757 0.008002 0.250000
    vertex 0.205757 0.008002 -0.250000
  endloop
endfacet
facet normal -0.000001 -0.000761 -0.000000
  outer loop
    vertex 0.207279 0.008000 0.250000
    vertex 0.205757 0.008002 -0.250000
    vertex 0.207279 0.008000 -0.250000
  endloop
endfacet
facet normal -0.000000 -0.000845 0.000000
  outer loop
    vertex 0.205757 0.008002 0.250000
    vertex 0.204067 0.008002 0.250000
    vertex 0.204067 0.008002 -0.250000
  endloop
endfacet
facet normal 0.000000 -0.000845 -0.000000
  outer loop
    vertex 0.205757 0.008002 0.250000
    vertex 0.204067 0.008002 -0.250000
    vertex 0.205757 0.008002 -0.250000
  endloop
endfacet
facet normal -0.000000 -0.000938 0.000000
  outer loop
    vertex 0.204067 0.008002 0.250000
    vertex 0.202192 0.008002 0.250000
    vertex 0.202192 0.008002 -0.250000
  endloop
endfacet
facet normal 0.000000 -0.000938 -0.000000
  outer loop
    vertex 0.204067 0.008002 0.250000
    vertex 0.202192 0.008002 -0.250000
    vertex 0.204067 0.008002 -0.250000
  endloop
endfacet
facet normal -0.000000 -0.001041 0.000000
  outer loop
    vertex 0.202192 0.008002 0.250000
    vertex 0.200109 0.008002 0.250000
    vertex 0.200109 0.008002 -0.250000
  endloop
endfacet
facet normal 0.000000 -0.001041 -0.000000
  outer loop
    vertex 0.202192 0.008002 0.250000
    vertex 0.200109 0.008002 -0.250000
    vertex 0.202192 0.008002 -0.250000
  endloop
endfacet
facet normal -0.000000 -0.001156 0.000000
  outer loop
    vertex 0.200109 0.008002 0.250000
    vertex 0.197798 0.008002 0.250000
    vertex 0.197798 0.008002 -0.250000
  endloop
endfacet
facet normal 0.000000 -0.001156 -0.000000
  outer loop
    vertex 0.200109 0.008002 0.250000
    vertex 0.197798 0.008002 -0.250000
    vertex 0.200109 0.008002 -0.250000
  endloop
endfacet
facet normal -0.000000 -0.001074 0.000000
  outer loop
    vertex 0.197798 0.008002 0.250000
    vertex 0.195650 0.008002 0.250000
    vertex 0.195650 0.008002 -0.250000
  endloop
endfacet
facet normal 0.000000 -0.001074 -0.000000
  outer loop
    vertex 0.197798 0.008002 0.250000
    vertex 0.195650 0.008002 -0.250000
    vertex 0.197798 0.008002 -0.250000
  endloop
endfacet
facet normal -0.000000 -0.000998 0.000000
  outer loop
    vertex 0.195650 0.008002 0.250000
    vertex 0.193654 0.008002 0.250000
    vertex 0.193654 0.008002 -0.250000
  endloop
endfacet
facet normal 0.000000 -0.000998 -0.000000
  outer loop
    vertex 0.195650 0.008002 0.250000
    vertex 0.193654 0.008002 -0.250000
    vertex 0.195650 0.008002 -0.250000
  endloop
endfacet
facet normal -0.000000 -0.000927 0.000000
  outer loop
    vertex 0.193654 0.008002 0.250000
    vertex 0.191799 0.008002 0.250000
    vertex 0.191799 0.008002 -0.250000
  endloop
endfacet
facet normal 0.000000 -0.000927 -0.000000
  outer loop
    vertex 0.193654 0.008002 0.250000
    vertex 0.191799 0.008002 -0.250000
    vertex 0.193654 0.008002 -0.250000
  endloop
endfacet
facet normal -0.000000 -0.000862 0.000000
  outer loop
    vertex 0.191799 0.008002 0.250000
    vertex 0.190076 0.008002 0.250000
    vertex 0.190076 0.008002 -0.250000
  endloop
endfacet
facet normal 0.000000 -0.000862 -0.000000
  outer loop
    vertex 0.191799 0.008002 0.250000
    vertex 0.190076 0.008002 -0.250000
    vertex 0.191799 0.008002 -0.250000
  endloop
endfacet
facet normal -0.000000 -0.000800 0.000000
  outer loop
    vertex 0.190076 0.008002 0.250000
    vertex 0.188475 0.008002 0.250000
    vertex 0.188475 0.008002 -0.250000
  endloop
endfacet
facet normal 0.000000 -0.000800 -0.000000
  outer loop
    vertex 0.190076 0.008002 0.250000
    vertex 0.188475 0.008002 -0.250000
    vertex 0.190076 0.008002 -0.250000
  endloop
endfacet
facet normal -0.000000 -0.000744 0.000000
  outer loop
    vertex 0.188475 0.008002 0.250000
    vertex 0.186988 0.008002 0.250000
    vertex 0.186988 0.008002 -0.250000
  endloop
endfacet
facet normal 0.000000 -0.000744 -0.000000
  outer loop
    vertex 0.188475 0.008002 0.250000
    vertex 0.186988 0.008002 -0.250000
    vertex 0.188475 0.008002 -0.250000
  endloop
endfacet
facet normal -0.000000 -0.000691 0.000000
  outer loop
    vertex 0.186988 0.008002 0.250000
    vertex 0.185605 0.008002 0.250000
    vertex 0.185605 0.008002 -0.250000
  endloop
endfacet
facet normal 0.000000 -0.000691 -0.000000
  outer loop
    vertex 0.186988 0.008002 0.250000
    vertex 0.185605 0.008002 -0.250000
    vertex 0.186988 0.008002 -0.250000
  endloop
endfacet
facet normal -0.000000 -0.000642 0.000000
  outer loop
    vertex 0.185605 0.008002 0.250000
    vertex 0.184321 0.008002 0.250000
    vertex 0.184321 0.008002 -0.250000
  endloop
endfacet
facet normal 0.000000 -0.000642 -0.000000
  outer loop
    vertex 0.185605 0.008002 0.250000
    vertex 0.184321 0.008002 -0.250000
    vertex 0.185605 0.008002 -0.250000
  endloop
endfacet
facet normal -0.000000 -0.000597 0.000000
  outer loop
    vertex 0.184321 0.008002 0.250000
    vertex 0.183128 0.008002 0.250000
    vertex 0.183128 0.008002 -0.250000
  endloop
endfacet
facet normal 0.000000 -0.000597 -0.000000
  outer loop
    vertex 0.184321 0.008002 0.250000
    vertex 0.183128 0.008002 -0.250000
    vertex 0.184321 0.008002 -0.250000
  endloop
endfacet
facet normal -0.000000 -0.000554 0.000000
  outer loop
    vertex 0.183128 0.008002 0.250000
    vertex 0.182019 0.008002 0.250000
    vertex 0.182019 0.008002 -0.250000
  endloop
endfacet
facet normal 0.000000 -0.000554 -0.000000
  outer loop
    vertex 0.183128 0.008002 0.250000
    vertex 0.182019 0.008002 -0.250000
    vertex 0.183128 0.008002 -0.250000
  endloop
endfacet
facet normal -0.000000 -0.000515 0.000000
  outer loop
    vertex 0.182019 0.008002 0.250000
    vertex 0.180989 0.008002 0.250000
    vertex 0.180989 0.008002 -0.250000
  endloop
endfacet
facet normal 0.000000 -0.000515 -0.000000
  outer loop
    vertex 0.182019 0.008002 0.250000
    vertex 0.180989 0.008002 -0.250000
    vertex 0.182019 0.008002 -0.250000
  endloop
endfacet
facet normal -0.000000 -0.000479 0.000000
  outer loop
    vertex 0.180989 0.008002 0.250000
    vertex 0.180031 0.008002 0.250000
    vertex 0.180031 0.008002 -0.250000
  endloop
endfacet
facet normal 0.000000 -0.000479 -0.000000
  outer loop
    vertex 0.180989 0.008002 0.250000
    vertex 0.180031 0.008002 -0.250000
    vertex 0.180989 0.008002 -0.250000
  endloop
endfacet
facet normal -0.000000 -0.000445 0.000000
  outer loop
    vertex 0.180031 0.008002 0.250000
    vertex 0.179142 0.008002 0.250000
    vertex 0.179142 0.008002 -0.250000
  endloop
endfacet
facet normal 0.000000 -0.000445 -0.000000
  outer loop
    vertex 0.180031 0.008002 0.250000
    vertex 0.179142 0.008002 -0.250000
    vertex 0.180031 0.008002 -0.250000
  endloop
endfacet
facet normal -0.000000 -0.000413 0.000000
  outer loop
    vertex 0.179142 0.008002 0.250000
    vertex 0.178315 0.008002 0.250000
    vertex 0.178315 0.008002 -0.250000
  endloop
endfacet
facet normal 0.000000 -0.000413 -0.000000
  outer loop
    vertex 0.179142 0.008002 0.250000
    vertex 0.178315 0.008002 -0.250000
    vertex 0.179142 0.008002 -0.250000
  endloop
endfacet
facet normal -0.000000 -0.000384 0.000000
  outer loop
    vertex 0.178315 0.008002 0.250000
    vertex 0.177547 0.008002 0.250000
    vertex 0.177547 0.008002 -0.250000
  endloop
endfacet
facet normal 0.000000 -0.000384 -0.000000
  outer loop
    vertex 0.178315 0.008002 0.250000
    vertex 0.177547 0.008002 -0.250000
    vertex 0.178315 0.008002 -0.250000
  endloop
endfacet
facet normal -0.000000 -0.000357 0.000000
  outer loop
    vertex 0.177547 0.008002 0.250000
    vertex 0.176833 0.008002 0.250000
    vertex 0.176833 0.008002 -0.250000
  endloop
endfacet
facet normal 0.000000 -0.000357 -0.000000
  outer loop
    vertex 0.177547 0.008002 0.250000
    vertex 0.176833 0.008002 -0.250000
    vertex 0.177547 0.008002 -0.250000
  endloop
endfacet
facet normal -0.000000 -0.000331 0.000000
  outer loop
    vertex 0.176833 0.008002 0.250000
    vertex 0.176170 0.008002 0.250000
    vertex 0.176170 0.008002 -0.250000
  endloop
endfacet
facet normal 0.000000 -0.000331 -0.000000
  outer loop
    vertex 0.176833 0.008002 0.250000
    vertex 0.176170 0.008002 -0.250000
    vertex 0.176833 0.008002 -0.250000
  endloop
endfacet
facet normal -0.000000 -0.000308 0.000000
  outer loop
    vertex 0.176170 0.008002 0.250000
    vertex 0.175554 0.008002 0.250000
    vertex 0.175554 0.008002 -0.250000
  endloop
endfacet
facet normal 0.000000 -0.000308 -0.000000
  outer loop
    vertex 0.176170 0.008002 0.250000
    vertex 0.175554 0.008002 -0.250000
    vertex 0.176170 0.008002 -0.250000
  endloop
endfacet
facet normal -0.000000 -0.000286 0.000000
  outer loop
    vertex 0.175554 0.008002 0.250000
    vertex 0.174982 0.008002 0.250000
    vertex 0.174982 0.008002 -0.250000
  endloop
endfacet
facet normal 0.000000 -0.000286 -0.000000
  outer loop
    vertex 0.175554 0.008002 0.250000
    vertex 0.174982 0.008002 -0.250000
    vertex 0.175554 0.008002 -0.250000
  endloop
endfacet
facet normal 0.000286 0.000000 0.000000
  outer loop
    vertex 0.174982 0.008002 0.250000
    vertex 0.174982 0.007429 0.250000
    vertex 0.174982 0.007429 -0.250000
  endloop
endfacet
facet normal 0.000286 0.000000 0.000000
  outer loop
    vertex 0.174982 0.008002 0.250000
    vertex 0.174982 0.007429 -0.250000
    vertex 0.174982 0.008002 -0.250000
  endloop
endfacet
facet normal 0.000306 0.000000 0.000000
  outer loop
    vertex 0.174982 0.007429 0.250000
    vertex 0.174982 0.006816 0.250000
    vertex 0.174982 0.006816 -0.250000
  endloop
endfacet
facet normal 0.000306 0.000000 0.000000
  outer loop
    vertex 0.174982 0.007429 0.250000
    vertex 0.174982 0.006816 -0.250000
    vertex 0.174982 0.007429 -0.250000
  endloop
endfacet
facet normal 0.000328 0.000000 0.000000
  outer loop
    vertex 0.174982 0.006816 0.250000
    vertex 0.174982 0.006161 0.250000
    vertex 0.174982 0.006161 -0.250000
  endloop
endfacet
facet normal 0.000328 0.000000 0.000000
  outer loop
    vertex 0.174982 0.006816 0.250000
    vertex 0.174982 0.006161 -0.250000
    vertex 0.174982 0.006816 -0.250000
  endloop
endfacet
facet normal 0.000351 0.000000 0.000000
  outer loop
    vertex 0.174982 0.006161 0.250000
    vertex 0.174982 0.005459 0.250000
    vertex 0.174982 0.005459 -0.250000
  endloop
endfacet
facet normal 0.000351 0.000000 0.000000
  outer loop
    vertex 0.174982 0.006161 0.250000
    vertex 0.174982 0.005459 -0.250000
    vertex 0.174982 0.006161 -0.250000
  endloop
endfacet
facet normal 0.000376 0.000000 0.000000
  outer loop
    vertex 0.174982 0.005459 0.250000
    vertex 0.174982 0.004707 0.250000
    vertex 0.174982 0.004707 -0.250000
  endloop
endfacet
facet normal 0.000376 0.000000 0.000000
  outer loop
    vertex 0.174982 0.005459 0.250000
    vertex 0.174982 0.004707 -0.250000
    vertex 0.174982 0.005459 -0.250000
  endloop
endfacet
facet normal 0.000402 0.000000 0.000000
  outer loop
    vertex 0.174982 0.004707 0.250000
    vertex 0.174982 0.003903 0.250000
    vertex 0.174982 0.003903 -0.250000
  endloop
endfacet
facet normal 0.000402 0.000000 0.000000
  outer loop
    vertex 0.174982 0.004707 0.250000
    vertex 0.174982 0.003903 -0.250000
    vertex 0.174982 0.004707 -0.250000
  endloop
endfacet
facet normal 0.000431 0.000000 0.000000
  outer loop
    vertex 0.174982 0.003903 0.250000
    vertex 0.174982 0.003042 0.250000
    vertex 0.174982 0.003042 -0.250000
  endloop
endfacet
facet normal 0.000431 0.000000 0.000000
  outer loop
    vertex 0.174982 0.003903 0.250000
    vertex 0.174982 0.003042 -0.250000
    vertex 0.174982 0.003903 -0.250000
  endloop
endfacet
facet normal 0.000461 0.000000 0.000000
  outer loop
    vertex 0.174982 0.003042 0.250000
    vertex 0.174982 0.002120 0.250000
    vertex 0.174982 0.002120 -0.250000
  endloop
endfacet
facet normal 0.000461 0.000000 0.000000
  outer loop
    vertex 0.174982 0.003042 0.250000
    vertex 0.174982 0.002120 -0.250000
    vertex 0.174982 0.003042 -0.250000
  endloop
endfacet
facet normal 0.000437 0.000000 0.000000
  outer loop
    vertex 0.174982 0.002120 0.250000
    vertex 0.174982 0.001246 0.250000
    vertex 0.174982 0.001246 -0.250000
  endloop
endfacet
facet normal 0.000437 0.000000 0.000000
  outer loop
    vertex 0.174982 0.002120 0.250000
    vertex 0.174982 0.001246 -0.250000
    vertex 0.174982 0.002120 -0.250000
  endloop
endfacet
facet normal 0.000415 0.000000 0.000000
  outer loop
    vertex 0.174982 0.001246 0.250000
    vertex 0.174982 0.000417 0.250000
    vertex 0.174982 0.000417 -0.250000
  endloop
endfacet
facet normal 0.000415 0.000000 0.000000
  outer loop
    vertex 0.174982 0.001246 0.250000
    vertex 0.174982 0.000417 -0.250000
    vertex 0.174982 0.001246 -0.250000
  endloop
endfacet
facet normal 0.000393 0.000000 0.000000
  outer loop
    vertex 0.174982 0.000417 0.250000
    vertex 0.174982 -0.000369 0.250000
    vertex 0.174982 -0.000369 -0.250000
  endloop
endfacet
facet normal 0.000393 0.000000 0.000000
  outer loop
    vertex 0.174982 0.000417 0.250000
    vertex 0.174982 -0.000369 -0.250000
    vertex 0.174982 0.000417 -0.250000
  endloop
endfacet
facet normal 0.000373 0.000000 0.000000
  outer loop
    vertex 0.174982 -0.000369 0.250000
    vertex 0.174982 -0.001115 0.250000
    vertex 0.174982 -0.001115 -0.250000
  endloop
endfacet
facet normal 0.000373 0.000000 0.000000
  outer loop
    vertex 0.174982 -0.000369 0.250000
    vertex 0.174982 -0.001115 -0.250000
    vertex 0.174982 -0.000369 -0.250000
  endloop
endfacet
facet normal 0.000354 0.000000 0.000000
  outer loop
    vertex 0.174982 -0.001115 0.250000
    vertex 0.174982 -0.001823 0.250000
    vertex 0.174982 -0.001823 -0.250000
  endloop
endfacet
facet normal 0.000354 0.000000 0.000000
  outer loop
    vertex 0.174982 -0.001115 0.250000
    vertex 0.174982 -0.001823 -0.250000
    vertex 0.174982 -0.001115 -0.250000
  endloop
endfacet
facet normal 0.000335 0.000000 0.000000
  outer loop
    vertex 0.174982 -0.001823 0.250000
    vertex 0.174982 -0.002494 0.250000
    vertex 0.174982 -0.002494 -0.250000
  endloop
endfacet
facet normal 0.000335 0.000000 0.000000
  outer loop
    vertex 0.174982 -0.001823 0.250000
    vertex 0.174982 -0.002494 -0.250000
    vertex 0.174982 -0.001823 -0.250000
  endloop
endfacet
facet normal 0.000318 0.000000 0.000000
  outer loop
    vertex 0.174982 -0.002494 0.250000
    vertex 0.174982 -0.003130 0.250000
    vertex 0.174982 -0.003130 -0.250000
  endloop
endfacet
facet normal 0.000318 0.000000 0.000000
  outer loop
    vertex 0.174982 -0.002494 0.250000
    vertex 0.174982 -0.003130 -0.250000
    vertex 0.174982 -0.002494 -0.250000
  endloop
endfacet
facet normal 0.000302 0.000000 0.000000
  outer loop
    vertex 0.174982 -0.003130 0.250000
    vertex 0.174982 -0.003733 0.250000
    vertex 0.174982 -0.003733 -0.250000
  endloop
endfacet
facet normal 0.000302 0.000000 0.000000
  outer loop
    vertex 0.174982 -0.003130 0.250000
    vertex 0.174982 -0.003733 -0.250000
    vertex 0.174982 -0.003130 -0.250000
  endloop
endfacet
facet normal 0.000286 0.000000 0.000000
  outer loop
    vertex 0.174982 -0.003733 0.250000
    vertex 0.174982 -0.004306 0.250000
    vertex 0.174982 -0.004306 -0.250000
  endloop
endfacet
facet normal 0.000286 0.000000 0.000000
  outer loop
    vertex 0.174982 -0.003733 0.250000
    vertex 0.174982 -0.004306 -0.250000
    vertex 0.174982 -0.003733 -0.250000
  endloop
endfacet
facet normal 0.000053 -0.000281 0.000000
  outer loop
    vertex 0.174982 -0.004306 0.250000
    vertex 0.174419 -0.004411 0.250000
    vertex 0.174419 -0.004411 -0.250000
  endloop
endfacet
facet normal 0.000053 -0.000281 0.000000
  outer loop
    vertex 0.174982 -0.004306 0.250000
    vertex 0.174419 -0.004411 -0.250000
    vertex 0.174982 -0.004306 -0.250000
  endloop
endfacet
facet normal 0.000061 -0.000326 0.000000
  outer loop
    vertex 0.174419 -0.004411 0.250000
    vertex 0.173768 -0.004532 0.250000
    vertex 0.173768 -0.004532 -0.250000
  endloop
endfacet
facet normal 0.000061 -0.000326 0.000000
  outer loop
    vertex 0.174419 -0.004411 0.250000
    vertex 0.173768 -0.004532 -0.250000
    vertex 0.174419 -0.004411 -0.250000
  endloop
endfacet
facet normal 0.000070 -0.000377 0.000000
  outer loop
    vertex 0.173768 -0.004532 0.250000
    vertex 0.173014 -0.004672 0.250000
    vertex 0.173014 -0.004672 -0.250000
  endloop
endfacet
facet normal 0.000070 -0.000377 0.000000
  outer loop
    vertex 0.173768 -0.004532 0.250000
    vertex 0.173014 -0.004672 -0.250000
    vertex 0.173768 -0.004532 -0.250000
  endloop
endfacet
facet normal 0.000081 -0.000436 0.000000
  outer loop
    vertex 0.173014 -0.004672 0.250000
    vertex 0.172141 -0.004835 0.250000
    vertex 0.172141 -0.004835 -0.250000
  endloop
endfacet
facet normal 0.000081 -0.000436 0.000000
  outer loop
    vertex 0.173014 -0.004672 0.250000
    vertex 0.172141 -0.004835 -0.250000
    vertex 0.173014 -0.004672 -0.250000
  endloop
endfacet
facet normal 0.000094 -0.000505 0.000000
  outer loop
    vertex 0.172141 -0.004835 0.250000
    vertex 0.171130 -0.005022 0.250000
    vertex 0.171130 -0.005022 -0.250000
  endloop
endfacet
facet normal 0.000094 -0.000505 0.000000
  outer loop
    vertex 0.172141 -0.004835 0.250000
    vertex 0.171130 -0.005022 -0.250000
    vertex 0.172141 -0.004835 -0.250000
  endloop
endfacet
facet normal 0.000109 -0.000585 0.000000
  outer loop
    vertex 0.171130 -0.005022 0.250000
    vertex 0.169960 -0.005239 0.250000
    vertex 0.169960 -0.005239 -0.250000
  endloop
endfacet
facet normal 0.000109 -0.000585 0.000000
  outer loop
    vertex 0.171130 -0.005022 0.250000
    vertex 0.169960 -0.005239 -0.250000
    vertex 0.171130 -0.005022 -0.250000
  endloop
endfacet
facet normal 0.000126 -0.000677 0.000000
  outer loop
    vertex 0.169960 -0.005239 0.250000
    vertex 0.168607 -0.005491 0.250000
    vertex 0.168607 -0.005491 -0.250000
  endloop
endfacet
facet normal 0.000126 -0.000677 0.000000
  outer loop
    vertex 0.169960 -0.005239 0.250000
    vertex 0.168607 -0.005491 -0.250000
    vertex 0.169960 -0.005239 -0.250000
  endloop
endfacet
facet normal 0.000146 -0.000784 0.000000
  outer loop
    vertex 0.168607 -0.005491 0.250000
    vertex 0.167039 -0.005783 0.250000
    vertex 0.167039 -0.005783 -0.250000
  endloop
endfacet
facet normal 0.000146 -0.000784 0.000000
  outer loop
    vertex 0.168607 -0.005491 0.250000
    vertex 0.167039 -0.005783 -0.250000
    vertex 0.168607 -0.005491 -0.250000
  endloop
endfacet
facet normal 0.000168 -0.000907 0.000000
  outer loop
    vertex 0.167039 -0.005783 0.250000
    vertex 0.165226 -0.006120 0.250000
    vertex 0.165226 -0.006120 -0.250000
  endloop
endfacet
facet normal 0.000168 -0.000907 0.000000
  outer loop
    vertex 0.167039 -0.005783 0.250000
    vertex 0.165226 -0.006120 -0.250000
    vertex 0.167039 -0.005783 -0.250000
  endloop
endfacet
facet normal 0.000192 -0.001051 0.000000
  outer loop
    vertex 0.165226 -0.006120 0.250000
    vertex 0.163125 -0.006504 0.250000
    vertex 0.163125 -0.006504 -0.250000
  endloop
endfacet
facet normal 0.000192 -0.001051 0.000000
  outer loop
    vertex 0.165226 -0.006120 0.250000
    vertex 0.163125 -0.006504 -0.250000
    vertex 0.165226 -0.006120 -0.250000
  endloop
endfacet
facet normal 0.000219 -0.001217 0.000000
  outer loop
    vertex 0.163125 -0.006504 0.250000
    vertex 0.160691 -0.006942 0.250000
    vertex 0.160691 -0.006942 -0.250000
  endloop
endfacet
facet normal 0.000219 -0.001217 0.000000
  outer loop
    vertex 0.163125 -0.006504 0.250000
    vertex 0.160691 -0.006942 -0.250000
    vertex 0.163125 -0.006504 -0.250000
  endloop
endfacet
facet normal 0.000254 -0.001408 0.000000
  outer loop
    vertex 0.160691 -0.006942 0.250000
    vertex 0.157874 -0.007449 0.250000
    vertex 0.157874 -0.007449 -0.250000
  endloop
endfacet
facet normal 0.000254 -0.001408 0.000000
  outer loop
    vertex 0.160691 -0.006942 0.250000
    vertex 0.157874 -0.007449 -0.250000
    vertex 0.160691 -0.006942 -0.250000
  endloop
endfacet
facet normal 0.000288 -0.001631 0.000000
  outer loop
    vertex 0.157874 -0.007449 0.250000
    vertex 0.154611 -0.008025 0.250000
    vertex 0.154611 -0.008025 -0.250000
  endloop
endfacet
facet normal 0.000288 -0.001631 0.000000
  outer loop
    vertex 0.157874 -0.007449 0.250000
    vertex 0.154611 -0.008025 -0.250000
    vertex 0.157874 -0.007449 -0.250000
  endloop
endfacet
facet normal 0.000315 -0.001891 0.000000
  outer loop
    vertex 0.154611 -0.008025 0.250000
    vertex 0.150829 -0.008655 0.250000
    vertex 0.150829 -0.008655 -0.250000
  endloop
endfacet
facet normal 0.000315 -0.001891 0.000000
  outer loop
    vertex 0.154611 -0.008025 0.250000
    vertex 0.150829 -0.008655 -0.250000
    vertex 0.154611 -0.008025 -0.250000
  endloop
endfacet
facet normal 0.000340 -0.002193 0.000000
  outer loop
    vertex 0.150829 -0.008655 0.250000
    vertex 0.146443 -0.009334 0.250000
    vertex 0.146443 -0.009334 -0.250000
  endloop
endfacet
facet normal 0.000340 -0.002193 0.000000
  outer loop
    vertex 0.150829 -0.008655 0.250000
    vertex 0.146443 -0.009334 -0.250000
    vertex 0.150829 -0.008655 -0.250000
  endloop
endfacet
facet normal 0.000380 -0.002542 0.000000
  outer loop
    vertex 0.146443 -0.009334 0.250000
    vertex 0.141358 -0.010094 0.250000
    vertex 0.141358 -0.010094 -0.250000
  endloop
endfacet
facet normal 0.000380 -0.002542 0.000000
  outer loop
    vertex 0.146443 -0.009334 0.250000
    vertex 0.141358 -0.010094 -0.250000
    vertex 0.146443 -0.009334 -0.250000
  endloop
endfacet
facet normal 0.000400 -0.002948 0.000000
  outer loop
    vertex 0.141358 -0.010094 0.250000
    vertex 0.135463 -0.010893 0.250000
    vertex 0.135463 -0.010893 -0.250000
  endloop
endfacet
facet normal 0.000400 -0.002948 0.000000
  outer loop
    vertex 0.141358 -0.010094 0.250000
    vertex 0.135463 -0.010893 -0.250000
    vertex 0.141358 -0.010094 -0.250000
  endloop
endfacet
facet normal 0.000381 -0.003419 0.000000
  outer loop
    vertex 0.135463 -0.010893 0.250000
    vertex 0.128624 -0.011656 0.250000
    vertex 0.128624 -0.011656 -0.250000
  endloop
endfacet
facet normal 0.000381 -0.003419 0.000000
  outer loop
    vertex 0.135463 -0.010893 0.250000
    vertex 0.128624 -0.011656 -0.250000
    vertex 0.135463 -0.010893 -0.250000
  endloop
endfacet
facet normal 0.000381 -0.003968 0.000000
  outer loop
    vertex 0.128624 -0.011656 0.250000
    vertex 0.120687 -0.012417 0.250000
    vertex 0.120687 -0.012417 -0.250000
  endloop
endfacet
facet normal 0.000381 -0.003968 0.000000
  outer loop
    vertex 0.128624 -0.011656 0.250000
    vertex 0.120687 -0.012417 -0.250000
    vertex 0.128624 -0.011656 -0.250000
  endloop
endfacet
facet normal 0.000305 -0.004602 0.000000
  outer loop
    vertex 0.120687 -0.012417 0.250000
    vertex 0.111484 -0.013027 0.250000
    vertex 0.111484 -0.013027 -0.250000
  endloop
endfacet
facet normal 0.000305 -0.004602 0.000000
  outer loop
    vertex 0.120687 -0.012417 0.250000
    vertex 0.111484 -0.013027 -0.250000
    vertex 0.120687 -0.012417 -0.250000
  endloop
endfacet
facet normal 0.000230 -0.005335 0.000000
  outer loop
    vertex 0.111484 -0.013027 0.250000
    vertex 0.100814 -0.013488 0.250000
    vertex 0.100814 -0.013488 -0.250000
  endloop
endfacet
facet normal 0.000230 -0.005335 0.000000
  outer loop
    vertex 0.111484 -0.013027 0.250000
    vertex 0.100814 -0.013488 -0.250000
    vertex 0.111484 -0.013027 -0.250000
  endloop
endfacet
facet normal 0.000053 -0.006180 0.000000
  outer loop
    vertex 0.100814 -0.013488 0.250000
    vertex 0.088455 -0.013593 0.250000
    vertex 0.088455 -0.013593 -0.250000
  endloop
endfacet
facet normal 0.000053 -0.006180 0.000000
  outer loop
    vertex 0.100814 -0.013488 0.250000
    vertex 0.088455 -0.013593 -0.250000
    vertex 0.100814 -0.013488 -0.250000
  endloop
endfacet
facet normal -0.000052 -0.005317 0.000000
  outer loop
    vertex 0.088455 -0.013593 0.250000
    vertex 0.077822 -0.013489 0.250000
    vertex 0.077822 -0.013489 -0.250000
  endloop
endfacet
facet normal -0.000052 -0.005317 -0.000000
  outer loop
    vertex 0.088455 -0.013593 0.250000
    vertex 0.077822 -0.013489 -0.250000
    vertex 0.088455 -0.013593 -0.250000
  endloop
endfacet
facet normal -0.000108 -0.004571 0.000000
  outer loop
    vertex 0.077822 -0.013489 0.250000
    vertex 0.068680 -0.013274 0.250000
    vertex 0.068680 -0.013274 -0.250000
  endloop
endfacet
facet normal -0.000108 -0.004571 -0.000000
  outer loop
    vertex 0.077822 -0.013489 0.250000
    vertex 0.068680 -0.013274 -0.250000
    vertex 0.077822 -0.013489 -0.250000
  endloop
endfacet
facet normal -0.000193 -0.003930 0.000000
  outer loop
    vertex 0.068680 -0.013274 0.250000
    vertex 0.060821 -0.012887 0.250000
    vertex 0.060821 -0.012887 -0.250000
  endloop
endfacet
facet normal -0.000193 -0.003930 -0.000000
  outer loop
    vertex 0.068680 -0.013274 0.250000
    vertex 0.060821 -0.012887 -0.250000
    vertex 0.068680 -0.013274 -0.250000
  endloop
endfacet
facet normal -0.000196 -0.003377 0.000000
  outer loop
    vertex 0.060821 -0.012887 0.250000
    vertex 0.054066 -0.012496 0.250000
    vertex 0.054066 -0.012496 -0.250000
  endloop
endfacet
facet normal -0.000196 -0.003377 -0.000000
  outer loop
    vertex 0.060821 -0.012887 0.250000
    vertex 0.054066 -0.012496 -0.250000
    vertex 0.060821 -0.012887 -0.250000
  endloop
endfacet
facet normal -0.000209 -0.002903 0.000000
  outer loop
    vertex 0.054066 -0.012496 0.250000
    vertex 0.048259 -0.012079 0.250000
    vertex 0.048259 -0.012079 -0.250000
  endloop
endfacet
facet normal -0.000209 -0.002903 -0.000000
  outer loop
    vertex 0.054066 -0.012496 0.250000
    vertex 0.048259 -0.012079 -0.250000
    vertex 0.054066 -0.012496 -0.250000
  endloop
endfacet
facet normal -0.000212 -0.002495 0.000000
  outer loop
    vertex 0.048259 -0.012079 0.250000
    vertex 0.043269 -0.011655 0.250000
    vertex 0.043269 -0.011655 -0.250000
  endloop
endfacet
facet normal -0.000212 -0.002495 -0.000000
  outer loop
    vertex 0.048259 -0.012079 0.250000
    vertex 0.043269 -0.011655 -0.250000
    vertex 0.048259 -0.012079 -0.250000
  endloop
endfacet
facet normal -0.000201 -0.002144 0.000000
  outer loop
    vertex 0.043269 -0.011655 0.250000
    vertex 0.038982 -0.011253 0.250000
    vertex 0.038982 -0.011253 -0.250000
  endloop
endfacet
facet normal -0.000201 -0.002144 -0.000000
  outer loop
    vertex 0.043269 -0.011655 0.250000
    vertex 0.038982 -0.011253 -0.250000
    vertex 0.043269 -0.011655 -0.250000
  endloop
endfacet
facet normal -0.000190 -0.001842 0.000000
  outer loop
    vertex 0.038982 -0.011253 0.250000
    vertex 0.035298 -0.010873 0.250000
    vertex 0.035298 -0.010873 -0.250000
  endloop
endfacet
facet normal -0.000190 -0.001842 -0.000000
  outer loop
    vertex 0.038982 -0.011253 0.250000
    vertex 0.035298 -0.010873 -0.250000
    vertex 0.038982 -0.011253 -0.250000
  endloop
endfacet
facet normal -0.000183 -0.001583 0.000000
  outer loop
    vertex 0.035298 -0.010873 0.250000
    vertex 0.032132 -0.010507 0.250000
    vertex 0.032132 -0.010507 -0.250000
  endloop
endfacet
facet normal -0.000183 -0.001583 -0.000000
  outer loop
    vertex 0.035298 -0.010873 0.250000
    vertex 0.032132 -0.010507 -0.250000
    vertex 0.035298 -0.010873 -0.250000
  endloop
endfacet
facet normal -0.000170 -0.001361 0.000000
  outer loop
    vertex 0.032132 -0.010507 0.250000
    vertex 0.029411 -0.010168 0.250000
    vertex 0.029411 -0.010168 -0.250000
  endloop
endfacet
facet normal -0.000170 -0.001361 -0.000000
  outer loop
    vertex 0.032132 -0.010507 0.250000
    vertex 0.029411 -0.010168 -0.250000
    vertex 0.032132 -0.010507 -0.250000
  endloop
endfacet
facet normal -0.000154 -0.001169 0.000000
  outer loop
    vertex 0.029411 -0.010168 0.250000
    vertex 0.027072 -0.009860 0.250000
    vertex 0.027072 -0.009860 -0.250000
  endloop
endfacet
facet normal -0.000154 -0.001169 -0.000000
  outer loop
    vertex 0.029411 -0.010168 0.250000
    vertex 0.027072 -0.009860 -0.250000
    vertex 0.029411 -0.010168 -0.250000
  endloop
endfacet
facet normal -0.000138 -0.001005 0.000000
  outer loop
    vertex 0.027072 -0.009860 0.250000
    vertex 0.025063 -0.009584 0.250000
    vertex 0.025063 -0.009584 -0.250000
  endloop
endfacet
facet normal -0.000138 -0.001005 -0.000000
  outer loop
    vertex 0.027072 -0.009860 0.250000
    vertex 0.025063 -0.009584 -0.250000
    vertex 0.027072 -0.009860 -0.250000
  endloop
endfacet
facet normal -0.000123 -0.000863 0.000000
  outer loop
    vertex 0.025063 -0.009584 0.250000
    vertex 0.023336 -0.009338 0.250000
    vertex 0.023336 -0.009338 -0.250000
  endloop
endfacet
facet normal -0.000123 -0.000863 -0.000000
  outer loop
    vertex 0.025063 -0.009584 0.250000
    vertex 0.023336 -0.009338 -0.250000
    vertex 0.025063 -0.009584 -0.250000
  endloop
endfacet
facet normal -0.000109 -0.000742 0.000000
  outer loop
    vertex 0.023336 -0.009338 0.250000
    vertex 0.021852 -0.009120 0.250000
    vertex 0.021852 -0.009120 -0.250000
  endloop
endfacet
facet normal -0.000109 -0.000742 -0.000000
  outer loop
    vertex 0.023336 -0.009338 0.250000
    vertex 0.021852 -0.009120 -0.250000
    vertex 0.023336 -0.009338 -0.250000
  endloop
endfacet
facet normal -0.000101 -0.000637 0.000000
  outer loop
    vertex 0.021852 -0.009120 0.250000
    vertex 0.020577 -0.008918 0.250000
    vertex 0.020577 -0.008918 -0.250000
  endloop
endfacet
facet normal -0.000101 -0.000637 -0.000000
  outer loop
    vertex 0.021852 -0.009120 0.250000
    vertex 0.020577 -0.008918 -0.250000
    vertex 0.021852 -0.009120 -0.250000
  endloop
endfacet
facet normal -0.000092 -0.000548 0.000000
  outer loop
    vertex 0.020577 -0.008918 0.250000
    vertex 0.019482 -0.008734 0.250000
    vertex 0.019482 -0.008734 -0.250000
  endloop
endfacet
facet normal -0.000092 -0.000548 -0.000000
  outer loop
    vertex 0.020577 -0.008918 0.250000
    vertex 0.019482 -0.008734 -0.250000
    vertex 0.020577 -0.008918 -0.250000
  endloop
endfacet
facet normal -0.000082 -0.000471 0.000000
  outer loop
    vertex 0.019482 -0.008734 0.250000
    vertex 0.018541 -0.008570 0.250000
    vertex 0.018541 -0.008570 -0.250000
  endloop
endfacet
facet normal -0.000082 -0.000471 -0.000000
  outer loop
    vertex 0.019482 -0.008734 0.250000
    vertex 0.018541 -0.008570 -0.250000
    vertex 0.019482 -0.008734 -0.250000
  endloop
endfacet
facet normal -0.000072 -0.000404 0.000000
  outer loop
    vertex 0.018541 -0.008570 0.250000
    vertex 0.017732 -0.008426 0.250000
    vertex 0.017732 -0.008426 -0.250000
  endloop
endfacet
facet normal -0.000072 -0.000404 -0.000000
  outer loop
    vertex 0.018541 -0.008570 0.250000
    vertex 0.017732 -0.008426 -0.250000
    vertex 0.018541 -0.008570 -0.250000
  endloop
endfacet
facet normal -0.000063 -0.000348 0.000000
  outer loop
    vertex 0.017732 -0.008426 0.250000
    vertex 0.017037 -0.008300 0.250000
    vertex 0.017037 -0.008300 -0.250000
  endloop
endfacet
facet normal -0.000063 -0.000348 -0.000000
  outer loop
    vertex 0.017732 -0.008426 0.250000
    vertex 0.017037 -0.008300 -0.250000
    vertex 0.017732 -0.008426 -0.250000
  endloop
endfacet
facet normal -0.000056 -0.000299 0.000000
  outer loop
    vertex 0.017037 -0.008300 0.250000
    vertex 0.016439 -0.008189 0.250000
    vertex 0.016439 -0.008189 -0.250000
  endloop
endfacet
facet normal -0.000056 -0.000299 -0.000000
  outer loop
    vertex 0.017037 -0.008300 0.250000
    vertex 0.016439 -0.008189 -0.250000
    vertex 0.017037 -0.008300 -0.250000
  endloop
endfacet
facet normal -0.000049 -0.000257 0.000000
  outer loop
    vertex 0.016439 -0.008189 0.250000
    vertex 0.015926 -0.008090 0.250000
    vertex 0.015926 -0.008090 -0.250000
  endloop
endfacet
facet normal -0.000049 -0.000257 -0.000000
  outer loop
    vertex 0.016439 -0.008189 0.250000
    vertex 0.015926 -0.008090 -0.250000
    vertex 0.016439 -0.008189 -0.250000
  endloop
endfacet
facet normal -0.000043 -0.000221 0.000000
  outer loop
    vertex 0.015926 -0.008090 0.250000
    vertex 0.015485 -0.008004 0.250000
    vertex 0.015485 -0.008004 -0.250000
  endloop
endfacet
facet normal -0.000043 -0.000221 -0.000000
  outer loop
    vertex 0.015926 -0.008090 0.250000
    vertex 0.015485 -0.008004 -0.250000
    vertex 0.015926 -0.008090 -0.250000
  endloop
endfacet
facet normal -0.000038 -0.000190 0.000000
  outer loop
    vertex 0.015485 -0.008004 0.250000
    vertex 0.015105 -0.007929 0.250000
    vertex 0.015105 -0.007929 -0.250000
  endloop
endfacet
facet normal -0.000038 -0.000190 -0.000000
  outer loop
    vertex 0.015485 -0.008004 0.250000
    vertex 0.015105 -0.007929 -0.250000
    vertex 0.015485 -0.008004 -0.250000
  endloop
endfacet
facet normal -0.000033 -0.000163 0.000000
  outer loop
    vertex 0.015105 -0.007929 0.250000
    vertex 0.014779 -0.007863 0.250000
    vertex 0.014779 -0.007863 -0.250000
  endloop
endfacet
facet normal -0.000033 -0.000163 -0.000000
  outer loop
    vertex 0.015105 -0.007929 0.250000
    vertex 0.014779 -0.007863 -0.250000
    vertex 0.015105 -0.007929 -0.250000
  endloop
endfacet
facet normal -0.000028 -0.000140 0.000000
  outer loop
    vertex 0.014779 -0.007863 0.250000
    vertex 0.014498 -0.007807 0.250000
    vertex 0.014498 -0.007807 -0.250000
  endloop
endfacet
facet normal -0.000028 -0.000140 -0.000000
  outer loop
    vertex 0.014779 -0.007863 0.250000
    vertex 0.014498 -0.007807 -0.250000
    vertex 0.014779 -0.007863 -0.250000
  endloop
endfacet
facet normal -0.000027 -0.000157 0.000000
  outer loop
    vertex 0.014498 -0.007807 0.250000
    vertex 0.014183 -0.007754 0.250000
    vertex 0.014183 -0.007754 -0.250000
  endloop
endfacet
facet normal -0.000027 -0.000157 -0.000000
  outer loop
    vertex 0.014498 -0.007807 0.250000
    vertex 0.014183 -0.007754 -0.250000
    vertex 0.014498 -0.007807 -0.250000
  endloop
endfacet
facet normal -0.000037 -0.000152 0.000000
  outer loop
    vertex 0.014183 -0.007754 0.250000
    vertex 0.013879 -0.007680 0.250000
    vertex 0.013879 -0.007680 -0.250000
  endloop
endfacet
facet normal -0.000037 -0.000152 -0.000000
  outer loop
    vertex 0.014183 -0.007754 0.250000
    vertex 0.013879 -0.007680 -0.250000
    vertex 0.014183 -0.007754 -0.250000
  endloop
endfacet
facet normal -0.000047 -0.000147 0.000000
  outer loop
    vertex 0.013879 -0.007680 0.250000
    vertex 0.013586 -0.007586 0.250000
    vertex 0.013586 -0.007586 -0.250000
  endloop
endfacet
facet normal -0.000047 -0.000147 -0.000000
  outer loop
    vertex 0.013879 -0.007680 0.250000
    vertex 0.013586 -0.007586 -0.250000
    vertex 0.013879 -0.007680 -0.250000
  endloop
endfacet
facet normal -0.000056 -0.000141 0.000000
  outer loop
    vertex 0.013586 -0.007586 0.250000
    vertex 0.013304 -0.007475 0.250000
    vertex 0.013304 -0.007475 -0.250000
  endloop
endfacet
facet normal -0.000056 -0.000141 -0.000000
  outer loop
    vertex 0.013586 -0.007586 0.250000
    vertex 0.013304 -0.007475 -0.250000
    vertex 0.013586 -0.007586 -0.250000
  endloop
endfacet
facet normal -0.000063 -0.000134 0.000000
  outer loop
    vertex 0.013304 -0.007475 0.250000
    vertex 0.013035 -0.007348 0.250000
    vertex 0.013035 -0.007348 -0.250000
  endloop
endfacet
facet normal -0.000063 -0.000134 -0.000000
  outer loop
    vertex 0.013304 -0.007475 0.250000
    vertex 0.013035 -0.007348 -0.250000
    vertex 0.013304 -0.007475 -0.250000
  endloop
endfacet
facet normal -0.000070 -0.000127 0.000000
  outer loop
    vertex 0.013035 -0.007348 0.250000
    vertex 0.012780 -0.007209 0.250000
    vertex 0.012780 -0.007209 -0.250000
  endloop
endfacet
facet normal -0.000070 -0.000127 -0.000000
  outer loop
    vertex 0.013035 -0.007348 0.250000
    vertex 0.012780 -0.007209 -0.250000
    vertex 0.013035 -0.007348 -0.250000
  endloop
endfacet
facet normal -0.000075 -0.000120 0.000000
  outer loop
    vertex 0.012780 -0.007209 0.250000
    vertex 0.012540 -0.007058 0.250000
    vertex 0.012540 -0.007058 -0.250000
  endloop
endfacet
facet normal -0.000075 -0.000120 -0.000000
  outer loop
    vertex 0.012780 -0.007209 0.250000
    vertex 0.012540 -0.007058 -0.250000
    vertex 0.012780 -0.007209 -0.250000
  endloop
endfacet
facet normal -0.000079 -0.000112 0.000000
  outer loop
    vertex 0.012540 -0.007058 0.250000
    vertex 0.012315 -0.006899 0.250000
    vertex 0.012315 -0.006899 -0.250000
  endloop
endfacet
facet normal -0.000079 -0.000112 -0.000000
  outer loop
    vertex 0.012540 -0.007058 0.250000
    vertex 0.012315 -0.006899 -0.250000
    vertex 0.012540 -0.007058 -0.250000
  endloop
endfacet
facet normal -0.000087 -0.000106 0.000000
  outer loop
    vertex 0.012315 -0.006899 0.250000
    vertex 0.012103 -0.006725 0.250000
    vertex 0.012103 -0.006725 -0.250000
  endloop
endfacet
facet normal -0.000087 -0.000106 -0.000000
  outer loop
    vertex 0.012315 -0.006899 0.250000
    vertex 0.012103 -0.006725 -0.250000
    vertex 0.012315 -0.006899 -0.250000
  endloop
endfacet
facet normal -0.000108 -0.000105 0.000000
  outer loop
    vertex 0.012103 -0.006725 0.250000
    vertex 0.011893 -0.006508 0.250000
    vertex 0.011893 -0.006508 -0.250000
  endloop
endfacet
facet normal -0.000108 -0.000105 -0.000000
  outer loop
    vertex 0.012103 -0.006725 0.250000
    vertex 0.011893 -0.006508 -0.250000
    vertex 0.012103 -0.006725 -0.250000
  endloop
endfacet
facet normal -0.000125 -0.000100 0.000000
  outer loop
    vertex 0.011893 -0.006508 0.250000
    vertex 0.011693 -0.006258 0.250000
    vertex 0.011693 -0.006258 -0.250000
  endloop
endfacet
facet normal -0.000125 -0.000100 -0.000000
  outer loop
    vertex 0.011893 -0.006508 0.250000
    vertex 0.011693 -0.006258 -0.250000
    vertex 0.011893 -0.006508 -0.250000
  endloop
endfacet
facet normal -0.000137 -0.000092 0.000000
  outer loop
    vertex 0.011693 -0.006258 0.250000
    vertex 0.011510 -0.005983 0.250000
    vertex 0.011510 -0.005983 -0.250000
  endloop
endfacet
facet normal -0.000137 -0.000092 -0.000000
  outer loop
    vertex 0.011693 -0.006258 0.250000
    vertex 0.011510 -0.005983 -0.250000
    vertex 0.011693 -0.006258 -0.250000
  endloop
endfacet
facet normal -0.000144 -0.000079 0.000000
  outer loop
    vertex 0.011510 -0.005983 0.250000
    vertex 0.011351 -0.005695 0.250000
    vertex 0.011351 -0.005695 -0.250000
  endloop
endfacet
facet normal -0.000144 -0.000079 -0.000000
  outer loop
    vertex 0.011510 -0.005983 0.250000
    vertex 0.011351 -0.005695 -0.250000
    vertex 0.011510 -0.005983 -0.250000
  endloop
endfacet
facet normal -0.000145 -0.000062 0.000000
  outer loop
    vertex 0.011351 -0.005695 0.250000
    vertex 0.011226 -0.005404 0.250000
    vertex 0.011226 -0.005404 -0.250000
  endloop
endfacet
facet normal -0.000145 -0.000062 -0.000000
  outer loop
    vertex 0.011351 -0.005695 0.250000
    vertex 0.011226 -0.005404 -0.250000
    vertex 0.011351 -0.005695 -0.250000
  endloop
endfacet
facet normal -0.000146 -0.000048 0.000000
  outer loop
    vertex 0.011226 -0.005404 0.250000
    vertex 0.011130 -0.005112 0.250000
    vertex 0.011130 -0.005112 -0.250000
  endloop
endfacet
facet normal -0.000146 -0.000048 -0.000000
  outer loop
    vertex 0.011226 -0.005404 0.250000
    vertex 0.011130 -0.005112 -0.250000
    vertex 0.011226 -0.005404 -0.250000
  endloop
endfacet
facet normal -0.000156 -0.000044 0.000000
  outer loop
    vertex 0.011130 -0.005112 0.250000
    vertex 0.011041 -0.004800 0.250000
    vertex 0.011041 -0.004800 -0.250000
  endloop
endfacet
facet normal -0.000156 -0.000044 -0.000000
  outer loop
    vertex 0.011130 -0.005112 0.250000
    vertex 0.011041 -0.004800 -0.250000
    vertex 0.011130 -0.005112 -0.250000
  endloop
endfacet
facet normal -0.000159 -0.000032 0.000000
  outer loop
    vertex 0.011041 -0.004800 0.250000
    vertex 0.010976 -0.004481 0.250000
    vertex 0.010976 -0.004481 -0.250000
  endloop
endfacet
facet normal -0.000159 -0.000032 -0.000000
  outer loop
    vertex 0.011041 -0.004800 0.250000
    vertex 0.010976 -0.004481 -0.250000
    vertex 0.011041 -0.004800 -0.250000
  endloop
endfacet
facet normal -0.000157 -0.000012 0.000000
  outer loop
    vertex 0.010976 -0.004481 0.250000
    vertex 0.010952 -0.004167 0.250000
    vertex 0.010952 -0.004167 -0.250000
  endloop
endfacet
facet normal -0.000157 -0.000012 -0.000000
  outer loop
    vertex 0.010976 -0.004481 0.250000
    vertex 0.010952 -0.004167 -0.250000
    vertex 0.010976 -0.004481 -0.250000
  endloop
endfacet
facet normal -0.000155 0.000005 0.000000
  outer loop
    vertex 0.010952 -0.004167 0.250000
    vertex 0.010963 -0.003856 0.250000
    vertex 0.010963 -0.003856 -0.250000
  endloop
endfacet
facet normal -0.000155 0.000005 0.000000
  outer loop
    vertex 0.010952 -0.004167 0.250000
    vertex 0.010963 -0.003856 -0.250000
    vertex 0.010952 -0.004167 -0.250000
  endloop
endfacet
facet normal -0.000156 0.000014 0.000000
  outer loop
    vertex 0.010963 -0.003856 0.250000
    vertex 0.010991 -0.003545 0.250000
    vertex 0.010991 -0.003545 -0.250000
  endloop
endfacet
facet normal -0.000156 0.000014 0.000000
  outer loop
    vertex 0.010963 -0.003856 0.250000
    vertex 0.010991 -0.003545 -0.250000
    vertex 0.010963 -0.003856 -0.250000
  endloop
endfacet
facet normal -0.000155 0.000021 0.000000
  outer loop
    vertex 0.010991 -0.003545 0.250000
    vertex 0.011034 -0.003235 0.250000
    vertex 0.011034 -0.003235 -0.250000
  endloop
endfacet
facet normal -0.000155 0.000021 0.000000
  outer loop
    vertex 0.010991 -0.003545 0.250000
    vertex 0.011034 -0.003235 -0.250000
    vertex 0.010991 -0.003545 -0.250000
  endloop
endfacet
facet normal -0.000153 0.000026 0.000000
  outer loop
    vertex 0.011034 -0.003235 0.250000
    vertex 0.011087 -0.002929 0.250000
    vertex 0.011087 -0.002929 -0.250000
  endloop
endfacet
facet normal -0.000153 0.000026 0.000000
  outer loop
    vertex 0.011034 -0.003235 0.250000
    vertex 0.011087 -0.002929 -0.250000
    vertex 0.011034 -0.003235 -0.250000
  endloop
endfacet
facet normal -0.000150 0.000030 0.000000
  outer loop
    vertex 0.011087 -0.002929 0.250000
    vertex 0.011146 -0.002629 0.250000
    vertex 0.011146 -0.002629 -0.250000
  endloop
endfacet
facet normal -0.000150 0.000030 0.000000
  outer loop
    vertex 0.011087 -0.002929 0.250000
    vertex 0.011146 -0.002629 -0.250000
    vertex 0.011087 -0.002929 -0.250000
  endloop
endfacet
facet normal -0.000146 0.000031 0.000000
  outer loop
    vertex 0.011146 -0.002629 0.250000
    vertex 0.011208 -0.002337 0.250000
    vertex 0.011208 -0.002337 -0.250000
  endloop
endfacet
facet normal -0.000146 0.000031 0.000000
  outer loop
    vertex 0.011146 -0.002629 0.250000
    vertex 0.011208 -0.002337 -0.250000
    vertex 0.011146 -0.002629 -0.250000
  endloop
endfacet
facet normal -0.000143 0.000042 0.000000
  outer loop
    vertex 0.011208 -0.002337 0.250000
    vertex 0.011293 -0.002051 0.250000
    vertex 0.011293 -0.002051 -0.250000
  endloop
endfacet
facet normal -0.000143 0.000042 0.000000
  outer loop
    vertex 0.011208 -0.002337 0.250000
    vertex 0.011293 -0.002051 -0.250000
    vertex 0.011208 -0.002337 -0.250000
  endloop
endfacet
facet normal -0.000140 0.000056 0.000000
  outer loop
    vertex 0.011293 -0.002051 0.250000
    vertex 0.011405 -0.001772 0.250000
    vertex 0.011405 -0.001772 -0.250000
  endloop
endfacet
facet normal -0.000140 0.000056 0.000000
  outer loop
    vertex 0.011293 -0.002051 0.250000
    vertex 0.011405 -0.001772 -0.250000
    vertex 0.011293 -0.002051 -0.250000
  endloop
endfacet
facet normal -0.000136 0.000063 0.000000
  outer loop
    vertex 0.011405 -0.001772 0.250000
    vertex 0.011530 -0.001500 0.250000
    vertex 0.011530 -0.001500 -0.250000
  endloop
endfacet
facet normal -0.000136 0.000063 0.000000
  outer loop
    vertex 0.011405 -0.001772 0.250000
    vertex 0.011530 -0.001500 -0.250000
    vertex 0.011405 -0.001772 -0.250000
  endloop
endfacet
facet normal -0.000133 0.000063 0.000000
  outer loop
    vertex 0.011530 -0.001500 0.250000
    vertex 0.011657 -0.001234 0.250000
    vertex 0.011657 -0.001234 -0.250000
  endloop
endfacet
facet normal -0.000133 0.000063 0.000000
  outer loop
    vertex 0.011530 -0.001500 0.250000
    vertex 0.011657 -0.001234 -0.250000
    vertex 0.011530 -0.001500 -0.250000
  endloop
endfacet
facet normal -0.000129 0.000067 0.000000
  outer loop
    vertex 0.011657 -0.001234 0.250000
    vertex 0.011791 -0.000976 0.250000
    vertex 0.011791 -0.000976 -0.250000
  endloop
endfacet
facet normal -0.000129 0.000067 0.000000
  outer loop
    vertex 0.011657 -0.001234 0.250000
    vertex 0.011791 -0.000976 -0.250000
    vertex 0.011657 -0.001234 -0.250000
  endloop
endfacet
facet normal -0.000126 0.000072 0.000000
  outer loop
    vertex 0.011791 -0.000976 0.250000
    vertex 0.011935 -0.000724 0.250000
    vertex 0.011935 -0.000724 -0.250000
  endloop
endfacet
facet normal -0.000126 0.000072 0.000000
  outer loop
    vertex 0.011791 -0.000976 0.250000
    vertex 0.011935 -0.000724 -0.250000
    vertex 0.011791 -0.000976 -0.250000
  endloop
endfacet
facet normal -0.000123 0.000076 0.000000
  outer loop
    vertex 0.011935 -0.000724 0.250000
    vertex 0.012088 -0.000478 0.250000
    vertex 0.012088 -0.000478 -0.250000
  endloop
endfacet
facet normal -0.000123 0.000076 0.000000
  outer loop
    vertex 0.011935 -0.000724 0.250000
    vertex 0.012088 -0.000478 -0.250000
    vertex 0.011935 -0.000724 -0.250000
  endloop
endfacet
facet normal -0.000120 0.000080 0.000000
  outer loop
    vertex 0.012088 -0.000478 0.250000
    vertex 0.012249 -0.000239 0.250000
    vertex 0.012249 -0.000239 -0.250000
  endloop
endfacet
facet normal -0.000120 0.000080 0.000000
  outer loop
    vertex 0.012088 -0.000478 0.250000
    vertex 0.012249 -0.000239 -0.250000
    vertex 0.012088 -0.000478 -0.250000
  endloop
endfacet
facet normal -0.000117 0.000084 0.000000
  outer loop
    vertex 0.012249 -0.000239 0.250000
    vertex 0.012416 -0.000005 0.250000
    vertex 0.012416 -0.000005 -0.250000
  endloop
endfacet
facet normal -0.000117 0.000084 0.000000
  outer loop
    vertex 0.012249 -0.000239 0.250000
    vertex 0.012416 -0.000005 -0.250000
    vertex 0.012249 -0.000239 -0.250000
  endloop
endfacet
facet normal -0.000125 0.000094 0.000000
  outer loop
    vertex 0.012416 -0.000005 0.250000
    vertex 0.012604 0.000244 0.250000
    vertex 0.012604 0.000244 -0.250000
  endloop
endfacet
facet normal -0.000125 0.000094 0.000000
  outer loop
    vertex 0.012416 -0.000005 0.250000
    vertex 0.012604 0.000244 -0.250000
    vertex 0.012416 -0.000005 -0.250000
  endloop
endfacet
facet normal -0.000133 0.000105 0.000000
  outer loop
    vertex 0.012604 0.000244 0.250000
    vertex 0.012814 0.000510 0.250000
    vertex 0.012814 0.000510 -0.250000
  endloop
endfacet
facet normal -0.000133 0.000105 0.000000
  outer loop
    vertex 0.012604 0.000244 0.250000
    vertex 0.012814 0.000510 -0.250000
    vertex 0.012604 0.000244 -0.250000
  endloop
endfacet
facet normal -0.000141 0.000118 0.000000
  outer loop
    vertex 0.012814 0.000510 0.250000
    vertex 0.013050 0.000793 0.250000
    vertex 0.013050 0.000793 -0.250000
  endloop
endfacet
facet normal -0.000141 0.000118 0.000000
  outer loop
    vertex 0.012814 0.000510 0.250000
    vertex 0.013050 0.000793 -0.250000
    vertex 0.012814 0.000510 -0.250000
  endloop
endfacet
facet normal -0.000149 0.000132 0.000000
  outer loop
    vertex 0.013050 0.000793 0.250000
    vertex 0.013314 0.001092 0.250000
    vertex 0.013314 0.001092 -0.250000
  endloop
endfacet
facet normal -0.000149 0.000132 0.000000
  outer loop
    vertex 0.013050 0.000793 0.250000
    vertex 0.013314 0.001092 -0.250000
    vertex 0.013050 0.000793 -0.250000
  endloop
endfacet
facet normal -0.000158 0.000150 0.000000
  outer loop
    vertex 0.013314 0.001092 0.250000
    vertex 0.013613 0.001408 0.250000
    vertex 0.013613 0.001408 -0.250000
  endloop
endfacet
facet normal -0.000158 0.000150 0.000000
  outer loop
    vertex 0.013314 0.001092 0.250000
    vertex 0.013613 0.001408 -0.250000
    vertex 0.013314 0.001092 -0.250000
  endloop
endfacet
facet normal -0.000167 0.000169 0.000000
  outer loop
    vertex 0.013613 0.001408 0.250000
    vertex 0.013952 0.001741 0.250000
    vertex 0.013952 0.001741 -0.250000
  endloop
endfacet
facet normal -0.000167 0.000169 0.000000
  outer loop
    vertex 0.013613 0.001408 0.250000
    vertex 0.013952 0.001741 -0.250000
    vertex 0.013613 0.001408 -0.250000
  endloop
endfacet
facet normal -0.000176 0.000189 0.000000
  outer loop
    vertex 0.013952 0.001741 0.250000
    vertex 0.014331 0.002092 0.250000
    vertex 0.014331 0.002092 -0.250000
  endloop
endfacet
facet normal -0.000176 0.000189 0.000000
  outer loop
    vertex 0.013952 0.001741 0.250000
    vertex 0.014331 0.002092 -0.250000
    vertex 0.013952 0.001741 -0.250000
  endloop
endfacet
facet normal -0.000184 0.000210 0.000000
  outer loop
    vertex 0.014331 0.002092 0.250000
    vertex 0.014752 0.002461 0.250000
    vertex 0.014752 0.002461 -0.250000
  endloop
endfacet
facet normal -0.000184 0.000210 0.000000
  outer loop
    vertex 0.014331 0.002092 0.250000
    vertex 0.014752 0.002461 -0.250000
    vertex 0.014331 0.002092 -0.250000
  endloop
endfacet
facet normal -0.000194 0.000236 0.000000
  outer loop
    vertex 0.014752 0.002461 0.250000
    vertex 0.015224 0.002848 0.250000
    vertex 0.015224 0.002848 -0.250000
  endloop
endfacet
facet normal -0.000194 0.000236 0.000000
  outer loop
    vertex 0.014752 0.002461 0.250000
    vertex 0.015224 0.002848 -0.250000
    vertex 0.014752 0.002461 -0.250000
  endloop
endfacet
facet normal -0.000203 0.000263 0.000000
  outer loop
    vertex 0.015224 0.002848 0.250000
    vertex 0.015751 0.003254 0.250000
    vertex 0.015751 0.003254 -0.250000
  endloop
endfacet
facet normal -0.000203 0.000263 0.000000
  outer loop
    vertex 0.015224 0.002848 0.250000
    vertex 0.015751 0.003254 -0.250000
    vertex 0.015224 0.002848 -0.250000
  endloop
endfacet
facet normal -0.000212 0.000291 0.000000
  outer loop
    vertex 0.015751 0.003254 0.250000
    vertex 0.016334 0.003678 0.250000
    vertex 0.016334 0.003678 -0.250000
  endloop
endfacet
facet normal -0.000212 0.000291 0.000000
  outer loop
    vertex 0.015751 0.003254 0.250000
    vertex 0.016334 0.003678 -0.250000
    vertex 0.015751 0.003254 -0.250000
  endloop
endfacet
facet normal -0.000221 0.000325 0.000000
  outer loop
    vertex 0.016334 0.003678 0.250000
    vertex 0.016983 0.004120 0.250000
    vertex 0.016983 0.004120 -0.250000
  endloop
endfacet
facet normal -0.000221 0.000325 0.000000
  outer loop
    vertex 0.016334 0.003678 0.250000
    vertex 0.016983 0.004120 -0.250000
    vertex 0.016334 0.003678 -0.250000
  endloop
endfacet
facet normal -0.000229 0.000360 0.000000
  outer loop
    vertex 0.016983 0.004120 0.250000
    vertex 0.017703 0.004579 0.250000
    vertex 0.017703 0.004579 -0.250000
  endloop
endfacet
facet normal -0.000229 0.000360 0.000000
  outer loop
    vertex 0.016983 0.004120 0.250000
    vertex 0.017703 0.004579 -0.250000
    vertex 0.016983 0.004120 -0.250000
  endloop
endfacet
facet normal -0.000238 0.000399 0.000000
  outer loop
    vertex 0.017703 0.004579 0.250000
    vertex 0.018501 0.005055 0.250000
    vertex 0.018501 0.005055 -0.250000
  endloop
endfacet
facet normal -0.000238 0.000399 0.000000
  outer loop
    vertex 0.017703 0.004579 0.250000
    vertex 0.018501 0.005055 -0.250000
    vertex 0.017703 0.004579 -0.250000
  endloop
endfacet
facet normal -0.000247 0.000441 0.000000
  outer loop
    vertex 0.018501 0.005055 0.250000
    vertex 0.019382 0.005550 0.250000
    vertex 0.019382 0.005550 -0.250000
  endloop
endfacet
facet normal -0.000247 0.000441 0.000000
  outer loop
    vertex 0.018501 0.005055 0.250000
    vertex 0.019382 0.005550 -0.250000
    vertex 0.018501 0.005055 -0.250000
  endloop
endfacet
facet normal -0.000255 0.000487 0.000000
  outer loop
    vertex 0.019382 0.005550 0.250000
    vertex 0.020356 0.006060 0.250000
    vertex 0.020356 0.006060 -0.250000
  endloop
endfacet
facet normal -0.000255 0.000487 0.000000
  outer loop
    vertex 0.019382 0.005550 0.250000
    vertex 0.020356 0.006060 -0.250000
    vertex 0.019382 0.005550 -0.250000
  endloop
endfacet
facet normal -0.000263 0.000537 0.000000
  outer loop
    vertex 0.020356 0.006060 0.250000
    vertex 0.021429 0.006585 0.250000
    vertex 0.021429 0.006585 -0.250000
  endloop
endfacet
facet normal -0.000263 0.000537 0.000000
  outer loop
    vertex 0.020356 0.006060 0.250000
    vertex 0.021429 0.006585 -0.250000
    vertex 0.020356 0.006060 -0.250000
  endloop
endfacet
facet normal -0.000270 0.000591 0.000000
  outer loop
    vertex 0.021429 0.006585 0.250000
    vertex 0.022612 0.007126 0.250000
    vertex 0.022612 0.007126 -0.250000
  endloop
endfacet
facet normal -0.000270 0.000591 0.000000
  outer loop
    vertex 0.021429 0.006585 0.250000
    vertex 0.022612 0.007126 -0.250000
    vertex 0.021429 0.006585 -0.250000
  endloop
endfacet
facet normal -0.000276 0.000651 0.000000
  outer loop
    vertex 0.022612 0.007126 0.250000
    vertex 0.023914 0.007678 0.250000
    vertex 0.023914 0.007678 -0.250000
  endloop
endfacet
facet normal -0.000276 0.000651 0.000000
  outer loop
    vertex 0.022612 0.007126 0.250000
    vertex 0.023914 0.007678 -0.250000
    vertex 0.022612 0.007126 -0.250000
  endloop
endfacet
facet normal -0.000282 0.000716 0.000000
  outer loop
    vertex 0.023914 0.007678 0.250000
    vertex 0.025345 0.008242 0.250000
    vertex 0.025345 0.008242 -0.250000
  endloop
endfacet
facet normal -0.000282 0.000716 0.000000
  outer loop
    vertex 0.023914 0.007678 0.250000
    vertex 0.025345 0.008242 -0.250000
    vertex 0.023914 0.007678 -0.250000
  endloop
endfacet
facet normal -0.000286 0.000786 0.000000
  outer loop
    vertex 0.025345 0.008242 0.250000
    vertex 0.026917 0.008815 0.250000
    vertex 0.026917 0.008815 -0.250000
  endloop
endfacet
facet normal -0.000286 0.000786 0.000000
  outer loop
    vertex 0.025345 0.008242 0.250000
    vertex 0.026917 0.008815 -0.250000
    vertex 0.025345 0.008242 -0.250000
  endloop
endfacet
facet normal -0.000289 0.000863 0.000000
  outer loop
    vertex 0.026917 0.008815 0.250000
    vertex 0.028643 0.009392 0.250000
    vertex 0.028643 0.009392 -0.250000
  endloop
endfacet
facet normal -0.000289 0.000863 0.000000
  outer loop
    vertex 0.026917 0.008815 0.250000
    vertex 0.028643 0.009392 -0.250000
    vertex 0.026917 0.008815 -0.250000
  endloop
endfacet
facet normal -0.000292 0.000946 0.000000
  outer loop
    vertex 0.028643 0.009392 0.250000
    vertex 0.030535 0.009975 0.250000
    vertex 0.030535 0.009975 -0.250000
  endloop
endfacet
facet normal -0.000292 0.000946 0.000000
  outer loop
    vertex 0.028643 0.009392 0.250000
    vertex 0.030535 0.009975 -0.250000
    vertex 0.028643 0.009392 -0.250000
  endloop
endfacet
facet normal -0.000290 0.001037 0.000000
  outer loop
    vertex 0.030535 0.009975 0.250000
    vertex 0.032609 0.010555 0.250000
    vertex 0.032609 0.010555 -0.250000
  endloop
endfacet
facet normal -0.000290 0.001037 0.000000
  outer loop
    vertex 0.030535 0.009975 0.250000
    vertex 0.032609 0.010555 -0.250000
    vertex 0.030535 0.009975 -0.250000
  endloop
endfacet
facet normal -0.000288 0.001135 0.000000
  outer loop
    vertex 0.032609 0.010555 0.250000
    vertex 0.034879 0.011130 0.250000
    vertex 0.034879 0.011130 -0.250000
  endloop
endfacet
facet normal -0.000288 0.001135 0.000000
  outer loop
    vertex 0.032609 0.010555 0.250000
    vertex 0.034879 0.011130 -0.250000
    vertex 0.032609 0.010555 -0.250000
  endloop
endfacet
facet normal -0.000273 0.001245 0.000000
  outer loop
    vertex 0.034879 0.011130 0.250000
    vertex 0.037369 0.011676 0.250000
    vertex 0.037369 0.011676 -0.250000
  endloop
endfacet
facet normal -0.000273 0.001245 0.000000
  outer loop
    vertex 0.034879 0.011130 0.250000
    vertex 0.037369 0.011676 -0.250000
    vertex 0.034879 0.011130 -0.250000
  endloop
endfacet
facet normal -0.000202 0.001370 0.000000
  outer loop
    vertex 0.037369 0.011676 0.250000
    vertex 0.040108 0.012080 0.250000
    vertex 0.040108 0.012080 -0.250000
  endloop
endfacet
facet normal -0.000202 0.001370 0.000000
  outer loop
    vertex 0.037369 0.011676 0.250000
    vertex 0.040108 0.012080 -0.250000
    vertex 0.037369 0.011676 -0.250000
  endloop
endfacet
facet normal -0.000162 0.001498 0.000000
  outer loop
    vertex 0.040108 0.012080 0.250000
    vertex 0.043105 0.012403 0.250000
    vertex 0.043105 0.012403 -0.250000
  endloop
endfacet
facet normal -0.000162 0.001498 0.000000
  outer loop
    vertex 0.040108 0.012080 0.250000
    vertex 0.043105 0.012403 -0.250000
    vertex 0.040108 0.012080 -0.250000
  endloop
endfacet
facet normal -0.000153 0.001632 0.000000
  outer loop
    vertex 0.043105 0.012403 0.250000
    vertex 0.046370 0.012709 0.250000
    vertex 0.046370 0.012709 -0.250000
  endloop
endfacet
facet normal -0.000153 0.001632 0.000000
  outer loop
    vertex 0.043105 0.012403 0.250000
    vertex 0.046370 0.012709 -0.250000
    vertex 0.043105 0.012403 -0.250000
  endloop
endfacet
facet normal -0.000157 0.001776 0.000000
  outer loop
    vertex 0.046370 0.012709 0.250000
    vertex 0.049922 0.013023 0.250000
    vertex 0.049922 0.013023 -0.250000
  endloop
endfacet
facet normal -0.000157 0.001776 0.000000
  outer loop
    vertex 0.046370 0.012709 0.250000
    vertex 0.049922 0.013023 -0.250000
    vertex 0.046370 0.012709 -0.250000
  endloop
endfacet
facet normal -0.000157 0.001933 0.000000
  outer loop
    vertex 0.049922 0.013023 0.250000
    vertex 0.053788 0.013336 0.250000
    vertex 0.053788 0.013336 -0.250000
  endloop
endfacet
facet normal -0.000157 0.001933 0.000000
  outer loop
    vertex 0.049922 0.013023 0.250000
    vertex 0.053788 0.013336 -0.250000
    vertex 0.049922 0.013023 -0.250000
  endloop
endfacet
facet normal -0.000156 0.002104 0.000000
  outer loop
    vertex 0.053788 0.013336 0.250000
    vertex 0.057995 0.013648 0.250000
    vertex 0.057995 0.013648 -0.250000
  endloop
endfacet
facet normal -0.000156 0.002104 0.000000
  outer loop
    vertex 0.053788 0.013336 0.250000
    vertex 0.057995 0.013648 -0.250000
    vertex 0.053788 0.013336 -0.250000
  endloop
endfacet
facet normal -0.000152 0.002290 0.000000
  outer loop
    vertex 0.057995 0.013648 0.250000
    vertex 0.062574 0.013952 0.250000
    vertex 0.062574 0.013952 -0.250000
  endloop
endfacet
facet normal -0.000152 0.002290 0.000000
  outer loop
    vertex 0.057995 0.013648 0.250000
    vertex 0.062574 0.013952 -0.250000
    vertex 0.057995 0.013648 -0.250000
  endloop
endfacet
facet normal -0.000147 0.002492 0.000000
  outer loop
    vertex 0.062574 0.013952 0.250000
    vertex 0.067557 0.014246 0.250000
    vertex 0.067557 0.014246 -0.250000
  endloop
endfacet
facet normal -0.000147 0.002492 0.000000
  outer loop
    vertex 0.062574 0.013952 0.250000
    vertex 0.067557 0.014246 -0.250000
    vertex 0.062574 0.013952 -0.250000
  endloop
endfacet
facet normal -0.000143 0.002711 0.000000
  outer loop
    vertex 0.067557 0.014246 0.250000
    vertex 0.072979 0.014531 0.250000
    vertex 0.072979 0.014531 -0.250000
  endloop
endfacet
facet normal -0.000143 0.002711 0.000000
  outer loop
    vertex 0.067557 0.014246 0.250000
    vertex 0.072979 0.014531 -0.250000
    vertex 0.067557 0.014246 -0.250000
  endloop
endfacet
facet normal -0.000131 0.002950 0.000000
  outer loop
    vertex 0.072979 0.014531 0.250000
    vertex 0.078878 0.014793 0.250000
    vertex 0.078878 0.014793 -0.250000
  endloop
endfacet
facet normal -0.000131 0.002950 0.000000
  outer loop
    vertex 0.072979 0.014531 0.250000
    vertex 0.078878 0.014793 -0.250000
    vertex 0.072979 0.014531 -0.250000
  endloop
endfacet
facet normal -0.000120 0.003210 0.000000
  outer loop
    vertex 0.078878 0.014793 0.250000
    vertex 0.085298 0.015032 0.250000
    vertex 0.085298 0.015032 -0.250000
  endloop
endfacet
facet normal -0.000120 0.003210 0.000000
  outer loop
    vertex 0.078878 0.014793 0.250000
    vertex 0.085298 0.015032 -0.250000
    vertex 0.078878 0.014793 -0.250000
  endloop
endfacet
facet normal -0.000099 0.003492 0.000000
  outer loop
    vertex 0.085298 0.015032 0.250000
    vertex 0.092282 0.015230 0.250000
    vertex 0.092282 0.015230 -0.250000
  endloop
endfacet
facet normal -0.000099 0.003492 0.000000
  outer loop
    vertex 0.085298 0.015032 0.250000
    vertex 0.092282 0.015230 -0.250000
    vertex 0.085298 0.015032 -0.250000
  endloop
endfacet
facet normal -0.000076 0.003799 0.000000
  outer loop
    vertex 0.092282 0.015230 0.250000
    vertex 0.099881 0.015382 0.250000
    vertex 0.099881 0.015382 -0.250000
  endloop
endfacet
facet normal -0.000076 0.003799 0.000000
  outer loop
    vertex 0.092282 0.015230 0.250000
    vertex 0.099881 0.015382 -0.250000
    vertex 0.092282 0.015230 -0.250000
  endloop
endfacet
facet normal -0.000042 0.004133 0.000000
  outer loop
    vertex 0.099881 0.015382 0.250000
    vertex 0.108147 0.015465 0.250000
    vertex 0.108147 0.015465 -0.250000
  endloop
endfacet
facet normal -0.000042 0.004133 0.000000
  outer loop
    vertex 0.099881 0.015382 0.250000
    vertex 0.108147 0.015465 -0.250000
    vertex 0.099881 0.015382 -0.250000
  endloop
endfacet
facet normal -0.000000 0.004496 0.000000
  outer loop
    vertex 0.108147 0.015465 0.250000
    vertex 0.117139 0.015465 0.250000
    vertex 0.117139 0.015465 -0.250000
  endloop
endfacet
facet normal 0.000000 0.004496 0.000000
  outer loop
    vertex 0.108147 0.015465 0.250000
    vertex 0.117139 0.015465 -0.250000
    vertex 0.108147 0.015465 -0.250000
  endloop
endfacet
facet normal 0.000038 0.004141 0.000000
  outer loop
    vertex 0.117139 0.015465 0.250000
    vertex 0.125421 0.015388 0.250000
    vertex 0.125421 0.015388 -0.250000
  endloop
endfacet
facet normal 0.000038 0.004141 0.000000
  outer loop
    vertex 0.117139 0.015465 0.250000
    vertex 0.125421 0.015388 -0.250000
    vertex 0.117139 0.015465 -0.250000
  endloop
endfacet
facet normal 0.000075 0.003815 0.000000
  outer loop
    vertex 0.125421 0.015388 0.250000
    vertex 0.133051 0.015239 0.250000
    vertex 0.133051 0.015239 -0.250000
  endloop
endfacet
facet normal 0.000075 0.003815 0.000000
  outer loop
    vertex 0.125421 0.015388 0.250000
    vertex 0.133051 0.015239 -0.250000
    vertex 0.125421 0.015388 -0.250000
  endloop
endfacet
facet normal 0.000099 0.003513 0.000000
  outer loop
    vertex 0.133051 0.015239 0.250000
    vertex 0.140077 0.015041 0.250000
    vertex 0.140077 0.015041 -0.250000
  endloop
endfacet
facet normal 0.000099 0.003513 0.000000
  outer loop
    vertex 0.133051 0.015239 0.250000
    vertex 0.140077 0.015041 -0.250000
    vertex 0.133051 0.015239 -0.250000
  endloop
endfacet
facet normal 0.000120 0.003236 0.000000
  outer loop
    vertex 0.140077 0.015041 0.250000
    vertex 0.146548 0.014801 0.250000
    vertex 0.146548 0.014801 -0.250000
  endloop
endfacet
facet normal 0.000120 0.003236 0.000000
  outer loop
    vertex 0.140077 0.015041 0.250000
    vertex 0.146548 0.014801 -0.250000
    vertex 0.140077 0.015041 -0.250000
  endloop
endfacet
facet normal 0.000131 0.002979 0.000000
  outer loop
    vertex 0.146548 0.014801 0.250000
    vertex 0.152507 0.014538 0.250000
    vertex 0.152507 0.014538 -0.250000
  endloop
endfacet
facet normal 0.000131 0.002979 0.000000
  outer loop
    vertex 0.146548 0.014801 0.250000
    vertex 0.152507 0.014538 -0.250000
    vertex 0.146548 0.014801 -0.250000
  endloop
endfacet
facet normal 0.000144 0.002744 0.000000
  outer loop
    vertex 0.152507 0.014538 0.250000
    vertex 0.157995 0.014251 0.250000
    vertex 0.157995 0.014251 -0.250000
  endloop
endfacet
facet normal 0.000144 0.002744 0.000000
  outer loop
    vertex 0.152507 0.014538 0.250000
    vertex 0.157995 0.014251 -0.250000
    vertex 0.152507 0.014538 -0.250000
  endloop
endfacet
facet normal 0.000149 0.002526 0.000000
  outer loop
    vertex 0.157995 0.014251 0.250000
    vertex 0.163048 0.013953 0.250000
    vertex 0.163048 0.013953 -0.250000
  endloop
endfacet
facet normal 0.000149 0.002526 0.000000
  outer loop
    vertex 0.157995 0.014251 0.250000
    vertex 0.163048 0.013953 -0.250000
    vertex 0.157995 0.014251 -0.250000
  endloop
endfacet
facet normal 0.000154 0.002327 0.000000
  outer loop
    vertex 0.163048 0.013953 0.250000
    vertex 0.167701 0.013644 0.250000
    vertex 0.167701 0.013644 -0.250000
  endloop
endfacet
facet normal 0.000154 0.002327 0.000000
  outer loop
    vertex 0.163048 0.013953 0.250000
    vertex 0.167701 0.013644 -0.250000
    vertex 0.163048 0.013953 -0.250000
  endloop
endfacet
facet normal 0.000157 0.002142 0.000000
  outer loop
    vertex 0.167701 0.013644 0.250000
    vertex 0.171986 0.013331 0.250000
    vertex 0.171986 0.013331 -0.250000
  endloop
endfacet
facet normal 0.000157 0.002142 0.000000
  outer loop
    vertex 0.167701 0.013644 0.250000
    vertex 0.171986 0.013331 -0.250000
    vertex 0.167701 0.013644 -0.250000
  endloop
endfacet
facet normal 0.000154 0.001972 0.000000
  outer loop
    vertex 0.171986 0.013331 0.250000
    vertex 0.175931 0.013024 0.250000
    vertex 0.175931 0.013024 -0.250000
  endloop
endfacet
facet normal 0.000154 0.001972 0.000000
  outer loop
    vertex 0.171986 0.013331 0.250000
    vertex 0.175931 0.013024 -0.250000
    vertex 0.171986 0.013331 -0.250000
  endloop
endfacet
facet normal 0.000155 0.001816 0.000000
  outer loop
    vertex 0.175931 0.013024 0.250000
    vertex 0.179563 0.012713 0.250000
    vertex 0.179563 0.012713 -0.250000
  endloop
endfacet
facet normal 0.000155 0.001816 0.000000
  outer loop
    vertex 0.175931 0.013024 0.250000
    vertex 0.179563 0.012713 -0.250000
    vertex 0.175931 0.013024 -0.250000
  endloop
endfacet
facet normal 0.000152 0.001672 0.000000
  outer loop
    vertex 0.179563 0.012713 0.250000
    vertex 0.182907 0.012409 0.250000
    vertex 0.182907 0.012409 -0.250000
  endloop
endfacet
facet normal 0.000152 0.001672 0.000000
  outer loop
    vertex 0.179563 0.012713 0.250000
    vertex 0.182907 0.012409 -0.250000
    vertex 0.179563 0.012713 -0.250000
  endloop
endfacet
facet normal 0.000149 0.001540 0.000000
  outer loop
    vertex 0.182907 0.012409 0.250000
    vertex 0.185986 0.012111 0.250000
    vertex 0.185986 0.012111 -0.250000
  endloop
endfacet
facet normal 0.000149 0.001540 0.000000
  outer loop
    vertex 0.182907 0.012409 0.250000
    vertex 0.185986 0.012111 -0.250000
    vertex 0.182907 0.012409 -0.250000
  endloop
endfacet
facet normal 0.000144 0.001418 0.000000
  outer loop
    vertex 0.185986 0.012111 0.250000
    vertex 0.188821 0.011823 0.250000
    vertex 0.188821 0.011823 -0.250000
  endloop
endfacet
facet normal 0.000144 0.001418 0.000000
  outer loop
    vertex 0.185986 0.012111 0.250000
    vertex 0.188821 0.011823 -0.250000
    vertex 0.185986 0.012111 -0.250000
  endloop
endfacet
facet normal 0.000140 0.001305 0.000000
  outer loop
    vertex 0.188821 0.011823 0.250000
    vertex 0.191431 0.011544 0.250000
    vertex 0.191431 0.011544 -0.250000
  endloop
endfacet
facet normal 0.000140 0.001305 0.000000
  outer loop
    vertex 0.188821 0.011823 0.250000
    vertex 0.191431 0.011544 -0.250000
    vertex 0.188821 0.011823 -0.250000
  endloop
endfacet
facet normal 0.000134 0.001202 0.000000
  outer loop
    vertex 0.191431 0.011544 0.250000
    vertex 0.193835 0.011276 0.250000
    vertex 0.193835 0.011276 -0.250000
  endloop
endfacet
facet normal 0.000134 0.001202 0.000000
  outer loop
    vertex 0.191431 0.011544 0.250000
    vertex 0.193835 0.011276 -0.250000
    vertex 0.191431 0.011544 -0.250000
  endloop
endfacet
facet normal 0.000128 0.001107 0.000000
  outer loop
    vertex 0.193835 0.011276 0.250000
    vertex 0.196048 0.011019 0.250000
    vertex 0.196048 0.011019 -0.250000
  endloop
endfacet
facet normal 0.000128 0.001107 0.000000
  outer loop
    vertex 0.193835 0.011276 0.250000
    vertex 0.196048 0.011019 -0.250000
    vertex 0.193835 0.011276 -0.250000
  endloop
endfacet
facet normal 0.000123 0.001019 0.000000
  outer loop
    vertex 0.196048 0.011019 0.250000
    vertex 0.198085 0.010774 0.250000
    vertex 0.198085 0.010774 -0.250000
  endloop
endfacet
facet normal 0.000123 0.001019 0.000000
  outer loop
    vertex 0.196048 0.011019 0.250000
    vertex 0.198085 0.010774 -0.250000
    vertex 0.196048 0.011019 -0.250000
  endloop
endfacet
facet normal 0.000117 0.000938 0.000000
  outer loop
    vertex 0.198085 0.010774 0.250000
    vertex 0.199961 0.010541 0.250000
    vertex 0.199961 0.010541 -0.250000
  endloop
endfacet
facet normal 0.000117 0.000938 0.000000
  outer loop
    vertex 0.198085 0.010774 0.250000
    vertex 0.199961 0.010541 -0.250000
    vertex 0.198085 0.010774 -0.250000
  endloop
endfacet
facet normal 0.000111 0.000864 0.000000
  outer loop
    vertex 0.199961 0.010541 0.250000
    vertex 0.201688 0.010319 0.250000
    vertex 0.201688 0.010319 -0.250000
  endloop
endfacet
facet normal 0.000111 0.000864 0.000000
  outer loop
    vertex 0.199961 0.010541 0.250000
    vertex 0.201688 0.010319 -0.250000
    vertex 0.199961 0.010541 -0.250000
  endloop
endfacet
facet normal 0.000105 0.000795 0.000000
  outer loop
    vertex 0.201688 0.010319 0.250000
    vertex 0.203279 0.010109 0.250000
    vertex 0.203279 0.010109 -0.250000
  endloop
endfacet
facet normal 0.000105 0.000795 0.000000
  outer loop
    vertex 0.201688 0.010319 0.250000
    vertex 0.203279 0.010109 -0.250000
    vertex 0.201688 0.010319 -0.250000
  endloop
endfacet
facet normal 0.000099 0.000732 0.000000
  outer loop
    vertex 0.203279 0.010109 0.250000
    vertex 0.204744 0.009911 0.250000
    vertex 0.204744 0.009911 -0.250000
  endloop
endfacet
facet normal 0.000099 0.000732 0.000000
  outer loop
    vertex 0.203279 0.010109 0.250000
    vertex 0.204744 0.009911 -0.250000
    vertex 0.203279 0.010109 -0.250000
  endloop
endfacet
facet normal 0.000093 0.000674 0.000000
  outer loop
    vertex 0.204744 0.009911 0.250000
    vertex 0.206092 0.009724 0.250000
    vertex 0.206092 0.009724 -0.250000
  endloop
endfacet
facet normal 0.000093 0.000674 0.000000
  outer loop
    vertex 0.204744 0.009911 0.250000
    vertex 0.206092 0.009724 -0.250000
    vertex 0.204744 0.009911 -0.250000
  endloop
endfacet
facet normal 0.000087 0.000621 0.000000
  outer loop
    vertex 0.206092 0.009724 0.250000
    vertex 0.207334 0.009550 0.250000
    vertex 0.207334 0.009550 -0.250000
  endloop
endfacet
facet normal 0.000087 0.000621 0.000000
  outer loop
    vertex 0.206092 0.009724 0.250000
    vertex 0.207334 0.009550 -0.250000
    vertex 0.206092 0.009724 -0.250000
  endloop
endfacet
facet normal 0.000082 0.000572 0.000000
  outer loop
    vertex 0.207334 0.009550 0.250000
    vertex 0.208478 0.009387 0.250000
    vertex 0.208478 0.009387 -0.250000
  endloop
endfacet
facet normal 0.000082 0.000572 0.000000
  outer loop
    vertex 0.207334 0.009550 0.250000
    vertex 0.208478 0.009387 -0.250000
    vertex 0.207334 0.009550 -0.250000
  endloop
endfacet
facet normal 0.000077 0.000527 0.000000
  outer loop
    vertex 0.208478 0.009387 0.250000
    vertex 0.209531 0.009233 0.250000
    vertex 0.209531 0.009233 -0.250000
  endloop
endfacet
facet normal 0.000077 0.000527 0.000000
  outer loop
    vertex 0.208478 0.009387 0.250000
    vertex 0.209531 0.009233 -0.250000
    vertex 0.208478 0.009387 -0.250000
  endloop
endfacet
facet normal 0.000072 0.000485 0.000000
  outer loop
    vertex 0.209531 0.009233 0.250000
    vertex 0.210501 0.009089 0.250000
    vertex 0.210501 0.009089 -0.250000
  endloop
endfacet
facet normal 0.000072 0.000485 0.000000
  outer loop
    vertex 0.209531 0.009233 0.250000
    vertex 0.210501 0.009089 -0.250000
    vertex 0.209531 0.009233 -0.250000
  endloop
endfacet
facet normal 0.000068 0.000446 0.000000
  outer loop
    vertex 0.210501 0.009089 0.250000
    vertex 0.211394 0.008953 0.250000
    vertex 0.211394 0.008953 -0.250000
  endloop
endfacet
facet normal 0.000068 0.000446 0.000000
  outer loop
    vertex 0.210501 0.009089 0.250000
    vertex 0.211394 0.008953 -0.250000
    vertex 0.210501 0.009089 -0.250000
  endloop
endfacet
facet normal 0.000064 0.000411 0.000000
  outer loop
    vertex 0.211394 0.008953 0.250000
    vertex 0.212215 0.008825 0.250000
    vertex 0.212215 0.008825 -0.250000
  endloop
endfacet
facet normal 0.000064 0.000411 0.000000
  outer loop
    vertex 0.211394 0.008953 0.250000
    vertex 0.212215 0.008825 -0.250000
    vertex 0.211394 0.008953 -0.250000
  endloop
endfacet
facet normal 0.000061 0.000378 0.000000
  outer loop
    vertex 0.212215 0.008825 0.250000
    vertex 0.212972 0.008703 0.250000
    vertex 0.212972 0.008703 -0.250000
  endloop
endfacet
facet normal 0.000061 0.000378 0.000000
  outer loop
    vertex 0.212215 0.008825 0.250000
    vertex 0.212972 0.008703 -0.250000
    vertex 0.212215 0.008825 -0.250000
  endloop
endfacet
facet normal 0.000057 0.000348 0.000000
  outer loop
    vertex 0.212972 0.008703 0.250000
    vertex 0.213669 0.008589 0.250000
    vertex 0.213669 0.008589 -0.250000
  endloop
endfacet
facet normal 0.000057 0.000348 0.000000
  outer loop
    vertex 0.212972 0.008703 0.250000
    vertex 0.213669 0.008589 -0.250000
    vertex 0.212972 0.008703 -0.250000
  endloop
endfacet
facet normal 0.000054 0.000321 0.000000
  outer loop
    vertex 0.213669 0.008589 0.250000
    vertex 0.214310 0.008482 0.250000
    vertex 0.214310 0.008482 -0.250000
  endloop
endfacet
facet normal 0.000054 0.000321 0.000000
  outer loop
    vertex 0.213669 0.008589 0.250000
    vertex 0.214310 0.008482 -0.250000
    vertex 0.213669 0.008589 -0.250000
  endloop
endfacet
facet normal 0.000050 0.000295 0.000000
  outer loop
    vertex 0.214310 0.008482 0.250000
    vertex 0.214901 0.008381 0.250000
    vertex 0.214901 0.008381 -0.250000
  endloop
endfacet
facet normal 0.000050 0.000295 0.000000
  outer loop
    vertex 0.214310 0.008482 0.250000
    vertex 0.214901 0.008381 -0.250000
    vertex 0.214310 0.008482 -0.250000
  endloop
endfacet
facet normal 0.000047 0.000272 0.000000
  outer loop
    vertex 0.214901 0.008381 0.250000
    vertex 0.215445 0.008287 0.250000
    vertex 0.215445 0.008287 -0.250000
  endloop
endfacet
facet normal 0.000047 0.000272 0.000000
  outer loop
    vertex 0.214901 0.008381 0.250000
    vertex 0.215445 0.008287 -0.250000
    vertex 0.214901 0.008381 -0.250000
  endloop
endfacet
facet normal 0.000044 0.000250 0.000000
  outer loop
    vertex 0.215445 0.008287 0.250000
    vertex 0.215945 0.008200 0.250000
    vertex 0.215945 0.008200 -0.250000
  endloop
endfacet
facet normal 0.000044 0.000250 0.000000
  outer loop
    vertex 0.215445 0.008287 0.250000
    vertex 0.215945 0.008200 -0.250000
    vertex 0.215445 0.008287 -0.250000
  endloop
endfacet
facet normal 0.000041 0.000231 0.000000
  outer loop
    vertex 0.215945 0.008200 0.250000
    vertex 0.216407 0.008118 0.250000
    vertex 0.216407 0.008118 -0.250000
  endloop
endfacet
facet normal 0.000041 0.000231 0.000000
  outer loop
    vertex 0.215945 0.008200 0.250000
    vertex 0.216407 0.008118 -0.250000
    vertex 0.215945 0.008200 -0.250000
  endloop
endfacet
facet normal 0.000038 0.000212 0.000000
  outer loop
    vertex 0.216407 0.008118 0.250000
    vertex 0.216832 0.008042 0.250000
    vertex 0.216832 0.008042 -0.250000
  endloop
endfacet
facet normal 0.000038 0.000212 0.000000
  outer loop
    vertex 0.216407 0.008118 0.250000
    vertex 0.216832 0.008042 -0.250000
    vertex 0.216407 0.008118 -0.250000
  endloop
endfacet
facet normal 0.000035 0.000196 0.000000
  outer loop
    vertex 0.216832 0.008042 0.250000
    vertex 0.217223 0.007972 0.250000
    vertex 0.217223 0.007972 -0.250000
  endloop
endfacet
facet normal 0.000035 0.000196 0.000000
  outer loop
    vertex 0.216832 0.008042 0.250000
    vertex 0.217223 0.007972 -0.250000
    vertex 0.216832 0.008042 -0.250000
  endloop
endfacet
facet normal 0.000033 0.000180 0.000000
  outer loop
    vertex 0.217223 0.007972 0.250000
    vertex 0.217583 0.007906 0.250000
    vertex 0.217583 0.007906 -0.250000
  endloop
endfacet
facet normal 0.000033 0.000180 0.000000
  outer loop
    vertex 0.217223 0.007972 0.250000
    vertex 0.217583 0.007906 -0.250000
    vertex 0.217223 0.007972 -0.250000
  endloop
endfacet
facet normal 0.000030 0.000166 0.000000
  outer loop
    vertex 0.217583 0.007906 0.250000
    vertex 0.217915 0.007845 0.250000
    vertex 0.217915 0.007845 -0.250000
  endloop
endfacet
facet normal 0.000030 0.000166 0.000000
  outer loop
    vertex 0.217583 0.007906 0.250000
    vertex 0.217915 0.007845 -0.250000
    vertex 0.217583 0.007906 -0.250000
  endloop
endfacet
facet normal 0.000028 0.000153 0.000000
  outer loop
    vertex 0.217915 0.007845 0.250000
    vertex 0.218220 0.007788 0.250000
    vertex 0.218220 0.007788 -0.250000
  endloop
endfacet
facet normal 0.000028 0.000153 0.000000
  outer loop
    vertex 0.217915 0.007845 0.250000
    vertex 0.218220 0.007788 -0.250000
    vertex 0.217915 0.007845 -0.250000
  endloop
endfacet
facet normal 0.000026 0.000141 0.000000
  outer loop
    vertex 0.218220 0.007788 0.250000
    vertex 0.218502 0.007736 0.250000
    vertex 0.218502 0.007736 -0.250000
  endloop
endfacet
facet normal 0.000026 0.000141 0.000000
  outer loop
    vertex 0.218220 0.007788 0.250000
    vertex 0.218502 0.007736 -0.250000
    vertex 0.218220 0.007788 -0.250000
  endloop
endfacet
endsolid me.stl
