solid new_slat.stl
facet normal 0.000213 -0.000133 0.000000
  outer loop
    vertex 0.010471 -0.026488 0.250000
    vertex 0.010205 -0.026915 0.250000
    vertex 0.010205 -0.026915 -0.250000
  endloop
endfacet
facet normal 0.000213 -0.000133 0.000000
  outer loop
    vertex 0.010471 -0.026488 0.250000
    vertex 0.010205 -0.026915 -0.250000
    vertex 0.010471 -0.026488 -0.250000
  endloop
endfacet
facet normal 0.000222 -0.000137 0.000000
  outer loop
    vertex 0.010205 -0.026915 0.250000
    vertex 0.009931 -0.027360 0.250000
    vertex 0.009931 -0.027360 -0.250000
  endloop
endfacet
facet normal 0.000222 -0.000137 0.000000
  outer loop
    vertex 0.010205 -0.026915 0.250000
    vertex 0.009931 -0.027360 -0.250000
    vertex 0.010205 -0.026915 -0.250000
  endloop
endfacet
facet normal 0.000233 -0.000141 0.000000
  outer loop
    vertex 0.009931 -0.027360 0.250000
    vertex 0.009648 -0.027826 0.250000
    vertex 0.009648 -0.027826 -0.250000
  endloop
endfacet
facet normal 0.000233 -0.000141 0.000000
  outer loop
    vertex 0.009931 -0.027360 0.250000
    vertex 0.009648 -0.027826 -0.250000
    vertex 0.009931 -0.027360 -0.250000
  endloop
endfacet
facet normal 0.000244 -0.000146 0.000000
  outer loop
    vertex 0.009648 -0.027826 0.250000
    vertex 0.009356 -0.028314 0.250000
    vertex 0.009356 -0.028314 -0.250000
  endloop
endfacet
facet normal 0.000244 -0.000146 0.000000
  outer loop
    vertex 0.009648 -0.027826 0.250000
    vertex 0.009356 -0.028314 -0.250000
    vertex 0.009648 -0.027826 -0.250000
  endloop
endfacet
facet normal 0.000255 -0.000151 0.000000
  outer loop
    vertex 0.009356 -0.028314 0.250000
    vertex 0.009054 -0.028824 0.250000
    vertex 0.009054 -0.028824 -0.250000
  endloop
endfacet
facet normal 0.000255 -0.000151 0.000000
  outer loop
    vertex 0.009356 -0.028314 0.250000
    vertex 0.009054 -0.028824 -0.250000
    vertex 0.009356 -0.028314 -0.250000
  endloop
endfacet
facet normal 0.000267 -0.000155 0.000000
  outer loop
    vertex 0.009054 -0.028824 0.250000
    vertex 0.008743 -0.029358 0.250000
    vertex 0.008743 -0.029358 -0.250000
  endloop
endfacet
facet normal 0.000267 -0.000155 0.000000
  outer loop
    vertex 0.009054 -0.028824 0.250000
    vertex 0.008743 -0.029358 -0.250000
    vertex 0.009054 -0.028824 -0.250000
  endloop
endfacet
facet normal 0.000279 -0.000161 0.000000
  outer loop
    vertex 0.008743 -0.029358 0.250000
    vertex 0.008422 -0.029917 0.250000
    vertex 0.008422 -0.029917 -0.250000
  endloop
endfacet
facet normal 0.000279 -0.000161 0.000000
  outer loop
    vertex 0.008743 -0.029358 0.250000
    vertex 0.008422 -0.029917 -0.250000
    vertex 0.008743 -0.029358 -0.250000
  endloop
endfacet
facet normal 0.000292 -0.000166 0.000000
  outer loop
    vertex 0.008422 -0.029917 0.250000
    vertex 0.008089 -0.030500 0.250000
    vertex 0.008089 -0.030500 -0.250000
  endloop
endfacet
facet normal 0.000292 -0.000166 0.000000
  outer loop
    vertex 0.008422 -0.029917 0.250000
    vertex 0.008089 -0.030500 -0.250000
    vertex 0.008422 -0.029917 -0.250000
  endloop
endfacet
facet normal 0.000304 -0.000173 0.000000
  outer loop
    vertex 0.008089 -0.030500 0.250000
    vertex 0.007744 -0.031108 0.250000
    vertex 0.007744 -0.031108 -0.250000
  endloop
endfacet
facet normal 0.000304 -0.000173 0.000000
  outer loop
    vertex 0.008089 -0.030500 0.250000
    vertex 0.007744 -0.031108 -0.250000
    vertex 0.008089 -0.030500 -0.250000
  endloop
endfacet
facet normal 0.000318 -0.000180 0.000000
  outer loop
    vertex 0.007744 -0.031108 0.250000
    vertex 0.007384 -0.031744 0.250000
    vertex 0.007384 -0.031744 -0.250000
  endloop
endfacet
facet normal 0.000318 -0.000180 0.000000
  outer loop
    vertex 0.007744 -0.031108 0.250000
    vertex 0.007384 -0.031744 -0.250000
    vertex 0.007744 -0.031108 -0.250000
  endloop
endfacet
facet normal 0.000331 -0.000186 0.000000
  outer loop
    vertex 0.007384 -0.031744 0.250000
    vertex 0.007012 -0.032406 0.250000
    vertex 0.007012 -0.032406 -0.250000
  endloop
endfacet
facet normal 0.000331 -0.000186 0.000000
  outer loop
    vertex 0.007384 -0.031744 0.250000
    vertex 0.007012 -0.032406 -0.250000
    vertex 0.007384 -0.031744 -0.250000
  endloop
endfacet
facet normal 0.000345 -0.000195 0.000000
  outer loop
    vertex 0.007012 -0.032406 0.250000
    vertex 0.006623 -0.033096 0.250000
    vertex 0.006623 -0.033096 -0.250000
  endloop
endfacet
facet normal 0.000345 -0.000195 0.000000
  outer loop
    vertex 0.007012 -0.032406 0.250000
    vertex 0.006623 -0.033096 -0.250000
    vertex 0.007012 -0.032406 -0.250000
  endloop
endfacet
facet normal 0.000360 -0.000203 0.000000
  outer loop
    vertex 0.006623 -0.033096 0.250000
    vertex 0.006216 -0.033816 0.250000
    vertex 0.006216 -0.033816 -0.250000
  endloop
endfacet
facet normal 0.000360 -0.000203 0.000000
  outer loop
    vertex 0.006623 -0.033096 0.250000
    vertex 0.006216 -0.033816 -0.250000
    vertex 0.006623 -0.033096 -0.250000
  endloop
endfacet
facet normal 0.000374 -0.000213 0.000000
  outer loop
    vertex 0.006216 -0.033816 0.250000
    vertex 0.005789 -0.034565 0.250000
    vertex 0.005789 -0.034565 -0.250000
  endloop
endfacet
facet normal 0.000374 -0.000213 0.000000
  outer loop
    vertex 0.006216 -0.033816 0.250000
    vertex 0.005789 -0.034565 -0.250000
    vertex 0.006216 -0.033816 -0.250000
  endloop
endfacet
facet normal 0.000389 -0.000224 0.000000
  outer loop
    vertex 0.005789 -0.034565 0.250000
    vertex 0.005341 -0.035342 0.250000
    vertex 0.005341 -0.035342 -0.250000
  endloop
endfacet
facet normal 0.000389 -0.000224 0.000000
  outer loop
    vertex 0.005789 -0.034565 0.250000
    vertex 0.005341 -0.035342 -0.250000
    vertex 0.005789 -0.034565 -0.250000
  endloop
endfacet
facet normal 0.000404 -0.000236 0.000000
  outer loop
    vertex 0.005341 -0.035342 0.250000
    vertex 0.004868 -0.036149 0.250000
    vertex 0.004868 -0.036149 -0.250000
  endloop
endfacet
facet normal 0.000404 -0.000236 0.000000
  outer loop
    vertex 0.005341 -0.035342 0.250000
    vertex 0.004868 -0.036149 -0.250000
    vertex 0.005341 -0.035342 -0.250000
  endloop
endfacet
facet normal 0.000420 -0.000249 0.000000
  outer loop
    vertex 0.004868 -0.036149 0.250000
    vertex 0.004370 -0.036989 0.250000
    vertex 0.004370 -0.036989 -0.250000
  endloop
endfacet
facet normal 0.000420 -0.000249 0.000000
  outer loop
    vertex 0.004868 -0.036149 0.250000
    vertex 0.004370 -0.036989 -0.250000
    vertex 0.004868 -0.036149 -0.250000
  endloop
endfacet
facet normal 0.000436 -0.000261 0.000000
  outer loop
    vertex 0.004370 -0.036989 0.250000
    vertex 0.003848 -0.037860 0.250000
    vertex 0.003848 -0.037860 -0.250000
  endloop
endfacet
facet normal 0.000436 -0.000261 0.000000
  outer loop
    vertex 0.004370 -0.036989 0.250000
    vertex 0.003848 -0.037860 -0.250000
    vertex 0.004370 -0.036989 -0.250000
  endloop
endfacet
facet normal 0.000453 -0.000275 0.000000
  outer loop
    vertex 0.003848 -0.037860 0.250000
    vertex 0.003298 -0.038767 0.250000
    vertex 0.003298 -0.038767 -0.250000
  endloop
endfacet
facet normal 0.000453 -0.000275 0.000000
  outer loop
    vertex 0.003848 -0.037860 0.250000
    vertex 0.003298 -0.038767 -0.250000
    vertex 0.003848 -0.037860 -0.250000
  endloop
endfacet
facet normal 0.000471 -0.000288 0.000000
  outer loop
    vertex 0.003298 -0.038767 0.250000
    vertex 0.002722 -0.039709 0.250000
    vertex 0.002722 -0.039709 -0.250000
  endloop
endfacet
facet normal 0.000471 -0.000288 0.000000
  outer loop
    vertex 0.003298 -0.038767 0.250000
    vertex 0.002722 -0.039709 -0.250000
    vertex 0.003298 -0.038767 -0.250000
  endloop
endfacet
facet normal 0.000490 -0.000303 0.000000
  outer loop
    vertex 0.002722 -0.039709 0.250000
    vertex 0.002117 -0.040689 0.250000
    vertex 0.002117 -0.040689 -0.250000
  endloop
endfacet
facet normal 0.000490 -0.000303 0.000000
  outer loop
    vertex 0.002722 -0.039709 0.250000
    vertex 0.002117 -0.040689 -0.250000
    vertex 0.002722 -0.039709 -0.250000
  endloop
endfacet
facet normal 0.000509 -0.000317 0.000000
  outer loop
    vertex 0.002117 -0.040689 0.250000
    vertex 0.001482 -0.041707 0.250000
    vertex 0.001482 -0.041707 -0.250000
  endloop
endfacet
facet normal 0.000509 -0.000317 0.000000
  outer loop
    vertex 0.002117 -0.040689 0.250000
    vertex 0.001482 -0.041707 -0.250000
    vertex 0.002117 -0.040689 -0.250000
  endloop
endfacet
facet normal 0.000529 -0.000333 0.000000
  outer loop
    vertex 0.001482 -0.041707 0.250000
    vertex 0.000816 -0.042766 0.250000
    vertex 0.000816 -0.042766 -0.250000
  endloop
endfacet
facet normal 0.000529 -0.000333 0.000000
  outer loop
    vertex 0.001482 -0.041707 0.250000
    vertex 0.000816 -0.042766 -0.250000
    vertex 0.001482 -0.041707 -0.250000
  endloop
endfacet
facet normal 0.000551 -0.000350 0.000000
  outer loop
    vertex 0.000816 -0.042766 0.250000
    vertex 0.000116 -0.043867 0.250000
    vertex 0.000116 -0.043867 -0.250000
  endloop
endfacet
facet normal 0.000551 -0.000350 0.000000
  outer loop
    vertex 0.000816 -0.042766 0.250000
    vertex 0.000116 -0.043867 -0.250000
    vertex 0.000816 -0.042766 -0.250000
  endloop
endfacet
facet normal 0.000573 -0.000366 0.000000
  outer loop
    vertex 0.000116 -0.043867 0.250000
    vertex -0.000615 -0.045012 0.250000
    vertex -0.000615 -0.045012 -0.250000
  endloop
endfacet
facet normal 0.000573 -0.000366 0.000000
  outer loop
    vertex 0.000116 -0.043867 0.250000
    vertex -0.000615 -0.045012 -0.250000
    vertex 0.000116 -0.043867 -0.250000
  endloop
endfacet
facet normal 0.000596 -0.000383 0.000000
  outer loop
    vertex -0.000615 -0.045012 0.250000
    vertex -0.001382 -0.046204 0.250000
    vertex -0.001382 -0.046204 -0.250000
  endloop
endfacet
facet normal 0.000596 -0.000383 0.000000
  outer loop
    vertex -0.000615 -0.045012 0.250000
    vertex -0.001382 -0.046204 -0.250000
    vertex -0.000615 -0.045012 -0.250000
  endloop
endfacet
facet normal 0.000620 -0.000401 0.000000
  outer loop
    vertex -0.001382 -0.046204 0.250000
    vertex -0.002183 -0.047445 0.250000
    vertex -0.002183 -0.047445 -0.250000
  endloop
endfacet
facet normal 0.000620 -0.000401 0.000000
  outer loop
    vertex -0.001382 -0.046204 0.250000
    vertex -0.002183 -0.047445 -0.250000
    vertex -0.001382 -0.046204 -0.250000
  endloop
endfacet
facet normal 0.000646 -0.000418 0.000000
  outer loop
    vertex -0.002183 -0.047445 0.250000
    vertex -0.003018 -0.048737 0.250000
    vertex -0.003018 -0.048737 -0.250000
  endloop
endfacet
facet normal 0.000646 -0.000418 0.000000
  outer loop
    vertex -0.002183 -0.047445 0.250000
    vertex -0.003018 -0.048737 -0.250000
    vertex -0.002183 -0.047445 -0.250000
  endloop
endfacet
facet normal 0.000673 -0.000436 0.000000
  outer loop
    vertex -0.003018 -0.048737 0.250000
    vertex -0.003891 -0.050083 0.250000
    vertex -0.003891 -0.050083 -0.250000
  endloop
endfacet
facet normal 0.000673 -0.000436 0.000000
  outer loop
    vertex -0.003018 -0.048737 0.250000
    vertex -0.003891 -0.050083 -0.250000
    vertex -0.003018 -0.048737 -0.250000
  endloop
endfacet
facet normal 0.000702 -0.000454 0.000000
  outer loop
    vertex -0.003891 -0.050083 0.250000
    vertex -0.004800 -0.051488 0.250000
    vertex -0.004800 -0.051488 -0.250000
  endloop
endfacet
facet normal 0.000702 -0.000454 0.000000
  outer loop
    vertex -0.003891 -0.050083 0.250000
    vertex -0.004800 -0.051488 -0.250000
    vertex -0.003891 -0.050083 -0.250000
  endloop
endfacet
facet normal 0.000732 -0.000473 0.000000
  outer loop
    vertex -0.004800 -0.051488 0.250000
    vertex -0.005747 -0.052952 0.250000
    vertex -0.005747 -0.052952 -0.250000
  endloop
endfacet
facet normal 0.000732 -0.000473 0.000000
  outer loop
    vertex -0.004800 -0.051488 0.250000
    vertex -0.005747 -0.052952 -0.250000
    vertex -0.004800 -0.051488 -0.250000
  endloop
endfacet
facet normal 0.000764 -0.000492 0.000000
  outer loop
    vertex -0.005747 -0.052952 0.250000
    vertex -0.006730 -0.054481 0.250000
    vertex -0.006730 -0.054481 -0.250000
  endloop
endfacet
facet normal 0.000764 -0.000492 0.000000
  outer loop
    vertex -0.005747 -0.052952 0.250000
    vertex -0.006730 -0.054481 -0.250000
    vertex -0.005747 -0.052952 -0.250000
  endloop
endfacet
facet normal 0.000798 -0.000509 0.000000
  outer loop
    vertex -0.006730 -0.054481 0.250000
    vertex -0.007748 -0.056077 0.250000
    vertex -0.007748 -0.056077 -0.250000
  endloop
endfacet
facet normal 0.000798 -0.000509 0.000000
  outer loop
    vertex -0.006730 -0.054481 0.250000
    vertex -0.007748 -0.056077 -0.250000
    vertex -0.006730 -0.054481 -0.250000
  endloop
endfacet
facet normal 0.000835 -0.000527 0.000000
  outer loop
    vertex -0.007748 -0.056077 0.250000
    vertex -0.008802 -0.057747 0.250000
    vertex -0.008802 -0.057747 -0.250000
  endloop
endfacet
facet normal 0.000835 -0.000527 0.000000
  outer loop
    vertex -0.007748 -0.056077 0.250000
    vertex -0.008802 -0.057747 -0.250000
    vertex -0.007748 -0.056077 -0.250000
  endloop
endfacet
facet normal 0.000874 -0.000544 0.000000
  outer loop
    vertex -0.008802 -0.057747 0.250000
    vertex -0.009889 -0.059495 0.250000
    vertex -0.009889 -0.059495 -0.250000
  endloop
endfacet
facet normal 0.000874 -0.000544 0.000000
  outer loop
    vertex -0.008802 -0.057747 0.250000
    vertex -0.009889 -0.059495 -0.250000
    vertex -0.008802 -0.057747 -0.250000
  endloop
endfacet
facet normal 0.000915 -0.000559 0.000000
  outer loop
    vertex -0.009889 -0.059495 0.250000
    vertex -0.011008 -0.061326 0.250000
    vertex -0.011008 -0.061326 -0.250000
  endloop
endfacet
facet normal 0.000915 -0.000559 0.000000
  outer loop
    vertex -0.009889 -0.059495 0.250000
    vertex -0.011008 -0.061326 -0.250000
    vertex -0.009889 -0.059495 -0.250000
  endloop
endfacet
facet normal 0.000960 -0.000573 0.000000
  outer loop
    vertex -0.011008 -0.061326 0.250000
    vertex -0.012154 -0.063246 0.250000
    vertex -0.012154 -0.063246 -0.250000
  endloop
endfacet
facet normal 0.000960 -0.000573 0.000000
  outer loop
    vertex -0.011008 -0.061326 0.250000
    vertex -0.012154 -0.063246 -0.250000
    vertex -0.011008 -0.061326 -0.250000
  endloop
endfacet
facet normal 0.001008 -0.000585 0.000000
  outer loop
    vertex -0.012154 -0.063246 0.250000
    vertex -0.013323 -0.065261 0.250000
    vertex -0.013323 -0.065261 -0.250000
  endloop
endfacet
facet normal 0.001008 -0.000585 0.000000
  outer loop
    vertex -0.012154 -0.063246 0.250000
    vertex -0.013323 -0.065261 -0.250000
    vertex -0.012154 -0.063246 -0.250000
  endloop
endfacet
facet normal 0.001060 -0.000594 0.000000
  outer loop
    vertex -0.013323 -0.065261 0.250000
    vertex -0.014511 -0.067381 0.250000
    vertex -0.014511 -0.067381 -0.250000
  endloop
endfacet
facet normal 0.001060 -0.000594 0.000000
  outer loop
    vertex -0.013323 -0.065261 0.250000
    vertex -0.014511 -0.067381 -0.250000
    vertex -0.013323 -0.065261 -0.250000
  endloop
endfacet
facet normal 0.001116 -0.000598 0.000000
  outer loop
    vertex -0.014511 -0.067381 0.250000
    vertex -0.015708 -0.069613 0.250000
    vertex -0.015708 -0.069613 -0.250000
  endloop
endfacet
facet normal 0.001116 -0.000598 0.000000
  outer loop
    vertex -0.014511 -0.067381 0.250000
    vertex -0.015708 -0.069613 -0.250000
    vertex -0.014511 -0.067381 -0.250000
  endloop
endfacet
facet normal 0.001176 -0.000600 0.000000
  outer loop
    vertex -0.015708 -0.069613 0.250000
    vertex -0.016909 -0.071964 0.250000
    vertex -0.016909 -0.071964 -0.250000
  endloop
endfacet
facet normal 0.001176 -0.000600 0.000000
  outer loop
    vertex -0.015708 -0.069613 0.250000
    vertex -0.016909 -0.071964 -0.250000
    vertex -0.015708 -0.069613 -0.250000
  endloop
endfacet
facet normal 0.001241 -0.000593 0.000000
  outer loop
    vertex -0.016909 -0.071964 0.250000
    vertex -0.018096 -0.074446 0.250000
    vertex -0.018096 -0.074446 -0.250000
  endloop
endfacet
facet normal 0.001241 -0.000593 0.000000
  outer loop
    vertex -0.016909 -0.071964 0.250000
    vertex -0.018096 -0.074446 -0.250000
    vertex -0.016909 -0.071964 -0.250000
  endloop
endfacet
facet normal 0.001309 -0.000586 0.000000
  outer loop
    vertex -0.018096 -0.074446 0.250000
    vertex -0.019269 -0.077064 0.250000
    vertex -0.019269 -0.077064 -0.250000
  endloop
endfacet
facet normal 0.001309 -0.000586 0.000000
  outer loop
    vertex -0.018096 -0.074446 0.250000
    vertex -0.019269 -0.077064 -0.250000
    vertex -0.018096 -0.074446 -0.250000
  endloop
endfacet
facet normal 0.001312 -0.000564 0.000000
  outer loop
    vertex -0.019269 -0.077064 0.250000
    vertex -0.020396 -0.079688 0.250000
    vertex -0.020396 -0.079688 -0.250000
  endloop
endfacet
facet normal 0.001312 -0.000564 0.000000
  outer loop
    vertex -0.019269 -0.077064 0.250000
    vertex -0.020396 -0.079688 -0.250000
    vertex -0.019269 -0.077064 -0.250000
  endloop
endfacet
facet normal 0.001314 -0.000544 0.000000
  outer loop
    vertex -0.020396 -0.079688 0.250000
    vertex -0.021483 -0.082316 0.250000
    vertex -0.021483 -0.082316 -0.250000
  endloop
endfacet
facet normal 0.001314 -0.000544 0.000000
  outer loop
    vertex -0.020396 -0.079688 0.250000
    vertex -0.021483 -0.082316 -0.250000
    vertex -0.020396 -0.079688 -0.250000
  endloop
endfacet
facet normal 0.001317 -0.000522 0.000000
  outer loop
    vertex -0.021483 -0.082316 0.250000
    vertex -0.022528 -0.084949 0.250000
    vertex -0.022528 -0.084949 -0.250000
  endloop
endfacet
facet normal 0.001317 -0.000522 0.000000
  outer loop
    vertex -0.021483 -0.082316 0.250000
    vertex -0.022528 -0.084949 -0.250000
    vertex -0.021483 -0.082316 -0.250000
  endloop
endfacet
facet normal 0.001320 -0.000498 0.000000
  outer loop
    vertex -0.022528 -0.084949 0.250000
    vertex -0.023523 -0.087589 0.250000
    vertex -0.023523 -0.087589 -0.250000
  endloop
endfacet
facet normal 0.001320 -0.000498 0.000000
  outer loop
    vertex -0.022528 -0.084949 0.250000
    vertex -0.023523 -0.087589 -0.250000
    vertex -0.022528 -0.084949 -0.250000
  endloop
endfacet
facet normal 0.001322 -0.000473 0.000000
  outer loop
    vertex -0.023523 -0.087589 0.250000
    vertex -0.024469 -0.090234 0.250000
    vertex -0.024469 -0.090234 -0.250000
  endloop
endfacet
facet normal 0.001322 -0.000473 0.000000
  outer loop
    vertex -0.023523 -0.087589 0.250000
    vertex -0.024469 -0.090234 -0.250000
    vertex -0.023523 -0.087589 -0.250000
  endloop
endfacet
facet normal 0.001326 -0.000446 0.000000
  outer loop
    vertex -0.024469 -0.090234 0.250000
    vertex -0.025360 -0.092886 0.250000
    vertex -0.025360 -0.092886 -0.250000
  endloop
endfacet
facet normal 0.001326 -0.000446 0.000000
  outer loop
    vertex -0.024469 -0.090234 0.250000
    vertex -0.025360 -0.092886 -0.250000
    vertex -0.024469 -0.090234 -0.250000
  endloop
endfacet
facet normal 0.001329 -0.000416 0.000000
  outer loop
    vertex -0.025360 -0.092886 0.250000
    vertex -0.026192 -0.095544 0.250000
    vertex -0.026192 -0.095544 -0.250000
  endloop
endfacet
facet normal 0.001329 -0.000416 0.000000
  outer loop
    vertex -0.025360 -0.092886 0.250000
    vertex -0.026192 -0.095544 -0.250000
    vertex -0.025360 -0.092886 -0.250000
  endloop
endfacet
facet normal 0.001333 -0.000386 0.000000
  outer loop
    vertex -0.026192 -0.095544 0.250000
    vertex -0.026964 -0.098210 0.250000
    vertex -0.026964 -0.098210 -0.250000
  endloop
endfacet
facet normal 0.001333 -0.000386 0.000000
  outer loop
    vertex -0.026192 -0.095544 0.250000
    vertex -0.026964 -0.098210 -0.250000
    vertex -0.026192 -0.095544 -0.250000
  endloop
endfacet
facet normal 0.001336 -0.000352 0.000000
  outer loop
    vertex -0.026964 -0.098210 0.250000
    vertex -0.027668 -0.100881 0.250000
    vertex -0.027668 -0.100881 -0.250000
  endloop
endfacet
facet normal 0.001336 -0.000352 0.000000
  outer loop
    vertex -0.026964 -0.098210 0.250000
    vertex -0.027668 -0.100881 -0.250000
    vertex -0.026964 -0.098210 -0.250000
  endloop
endfacet
facet normal 0.001338 -0.000317 0.000000
  outer loop
    vertex -0.027668 -0.100881 0.250000
    vertex -0.028303 -0.103558 0.250000
    vertex -0.028303 -0.103558 -0.250000
  endloop
endfacet
facet normal 0.001338 -0.000317 0.000000
  outer loop
    vertex -0.027668 -0.100881 0.250000
    vertex -0.028303 -0.103558 -0.250000
    vertex -0.027668 -0.100881 -0.250000
  endloop
endfacet
facet normal 0.001341 -0.000280 0.000000
  outer loop
    vertex -0.028303 -0.103558 0.250000
    vertex -0.028863 -0.106240 0.250000
    vertex -0.028863 -0.106240 -0.250000
  endloop
endfacet
facet normal 0.001341 -0.000280 0.000000
  outer loop
    vertex -0.028303 -0.103558 0.250000
    vertex -0.028863 -0.106240 -0.250000
    vertex -0.028303 -0.103558 -0.250000
  endloop
endfacet
facet normal 0.001343 -0.000239 0.000000
  outer loop
    vertex -0.028863 -0.106240 0.250000
    vertex -0.029341 -0.108927 0.250000
    vertex -0.029341 -0.108927 -0.250000
  endloop
endfacet
facet normal 0.001343 -0.000239 0.000000
  outer loop
    vertex -0.028863 -0.106240 0.250000
    vertex -0.029341 -0.108927 -0.250000
    vertex -0.028863 -0.106240 -0.250000
  endloop
endfacet
facet normal 0.001344 -0.000197 0.000000
  outer loop
    vertex -0.029341 -0.108927 0.250000
    vertex -0.029736 -0.111615 0.250000
    vertex -0.029736 -0.111615 -0.250000
  endloop
endfacet
facet normal 0.001344 -0.000197 0.000000
  outer loop
    vertex -0.029341 -0.108927 0.250000
    vertex -0.029736 -0.111615 -0.250000
    vertex -0.029341 -0.108927 -0.250000
  endloop
endfacet
facet normal 0.001344 -0.000152 0.000000
  outer loop
    vertex -0.029736 -0.111615 0.250000
    vertex -0.030040 -0.114304 0.250000
    vertex -0.030040 -0.114304 -0.250000
  endloop
endfacet
facet normal 0.001344 -0.000152 0.000000
  outer loop
    vertex -0.029736 -0.111615 0.250000
    vertex -0.030040 -0.114304 -0.250000
    vertex -0.029736 -0.111615 -0.250000
  endloop
endfacet
facet normal 0.001343 -0.000111 0.000000
  outer loop
    vertex -0.030040 -0.114304 0.250000
    vertex -0.030262 -0.116990 0.250000
    vertex -0.030262 -0.116990 -0.250000
  endloop
endfacet
facet normal 0.001343 -0.000111 0.000000
  outer loop
    vertex -0.030040 -0.114304 0.250000
    vertex -0.030262 -0.116990 -0.250000
    vertex -0.030040 -0.114304 -0.250000
  endloop
endfacet
facet normal 0.001339 -0.000076 0.000000
  outer loop
    vertex -0.030262 -0.116990 0.250000
    vertex -0.030414 -0.119669 0.250000
    vertex -0.030414 -0.119669 -0.250000
  endloop
endfacet
facet normal 0.001339 -0.000076 0.000000
  outer loop
    vertex -0.030262 -0.116990 0.250000
    vertex -0.030414 -0.119669 -0.250000
    vertex -0.030262 -0.116990 -0.250000
  endloop
endfacet
facet normal 0.001336 -0.000022 0.000000
  outer loop
    vertex -0.030414 -0.119669 0.250000
    vertex -0.030458 -0.122341 0.250000
    vertex -0.030458 -0.122341 -0.250000
  endloop
endfacet
facet normal 0.001336 -0.000022 0.000000
  outer loop
    vertex -0.030414 -0.119669 0.250000
    vertex -0.030458 -0.122341 -0.250000
    vertex -0.030414 -0.119669 -0.250000
  endloop
endfacet
facet normal 0.001330 0.000035 0.000000
  outer loop
    vertex -0.030458 -0.122341 0.250000
    vertex -0.030388 -0.125002 0.250000
    vertex -0.030388 -0.125002 -0.250000
  endloop
endfacet
facet normal 0.001330 0.000035 0.000000
  outer loop
    vertex -0.030458 -0.122341 0.250000
    vertex -0.030388 -0.125002 -0.250000
    vertex -0.030458 -0.122341 -0.250000
  endloop
endfacet
facet normal 0.001322 0.000085 0.000000
  outer loop
    vertex -0.030388 -0.125002 0.250000
    vertex -0.030218 -0.127647 0.250000
    vertex -0.030218 -0.127647 -0.250000
  endloop
endfacet
facet normal 0.001322 0.000085 0.000000
  outer loop
    vertex -0.030388 -0.125002 0.250000
    vertex -0.030218 -0.127647 -0.250000
    vertex -0.030388 -0.125002 -0.250000
  endloop
endfacet
facet normal 0.001308 0.000173 0.000000
  outer loop
    vertex -0.030218 -0.127647 0.250000
    vertex -0.029872 -0.130263 0.250000
    vertex -0.029872 -0.130263 -0.250000
  endloop
endfacet
facet normal 0.001308 0.000173 0.000000
  outer loop
    vertex -0.030218 -0.127647 0.250000
    vertex -0.029872 -0.130263 -0.250000
    vertex -0.030218 -0.127647 -0.250000
  endloop
endfacet
facet normal 0.001285 0.000274 0.000000
  outer loop
    vertex -0.029872 -0.130263 0.250000
    vertex -0.029323 -0.132833 0.250000
    vertex -0.029323 -0.132833 -0.250000
  endloop
endfacet
facet normal 0.001285 0.000274 0.000000
  outer loop
    vertex -0.029872 -0.130263 0.250000
    vertex -0.029323 -0.132833 -0.250000
    vertex -0.029872 -0.130263 -0.250000
  endloop
endfacet
facet normal 0.001262 0.000346 0.000000
  outer loop
    vertex -0.029323 -0.132833 0.250000
    vertex -0.028631 -0.135358 0.250000
    vertex -0.028631 -0.135358 -0.250000
  endloop
endfacet
facet normal 0.001262 0.000346 0.000000
  outer loop
    vertex -0.029323 -0.132833 0.250000
    vertex -0.028631 -0.135358 -0.250000
    vertex -0.029323 -0.132833 -0.250000
  endloop
endfacet
facet normal 0.001220 0.000458 0.000000
  outer loop
    vertex -0.028631 -0.135358 0.250000
    vertex -0.027715 -0.137797 0.250000
    vertex -0.027715 -0.137797 -0.250000
  endloop
endfacet
facet normal 0.001220 0.000458 0.000000
  outer loop
    vertex -0.028631 -0.135358 0.250000
    vertex -0.027715 -0.137797 -0.250000
    vertex -0.028631 -0.135358 -0.250000
  endloop
endfacet
facet normal 0.001141 0.000617 0.000000
  outer loop
    vertex -0.027715 -0.137797 0.250000
    vertex -0.026481 -0.140079 0.250000
    vertex -0.026481 -0.140079 -0.250000
  endloop
endfacet
facet normal 0.001141 0.000617 0.000000
  outer loop
    vertex -0.027715 -0.137797 0.250000
    vertex -0.026481 -0.140079 -0.250000
    vertex -0.027715 -0.137797 -0.250000
  endloop
endfacet
facet normal 0.001051 0.000753 0.000000
  outer loop
    vertex -0.026481 -0.140079 0.250000
    vertex -0.024976 -0.142181 0.250000
    vertex -0.024976 -0.142181 -0.250000
  endloop
endfacet
facet normal 0.001051 0.000753 0.000000
  outer loop
    vertex -0.026481 -0.140079 0.250000
    vertex -0.024976 -0.142181 -0.250000
    vertex -0.026481 -0.140079 -0.250000
  endloop
endfacet
facet normal 0.000958 0.000859 0.000000
  outer loop
    vertex -0.024976 -0.142181 0.250000
    vertex -0.023258 -0.144097 0.250000
    vertex -0.023258 -0.144097 -0.250000
  endloop
endfacet
facet normal 0.000958 0.000859 0.000000
  outer loop
    vertex -0.024976 -0.142181 0.250000
    vertex -0.023258 -0.144097 -0.250000
    vertex -0.024976 -0.142181 -0.250000
  endloop
endfacet
facet normal 0.000807 0.000997 0.000000
  outer loop
    vertex -0.023258 -0.144097 0.250000
    vertex -0.021264 -0.145710 0.250000
    vertex -0.021264 -0.145710 -0.250000
  endloop
endfacet
facet normal 0.000807 0.000997 0.000000
  outer loop
    vertex -0.023258 -0.144097 0.250000
    vertex -0.021264 -0.145710 -0.250000
    vertex -0.023258 -0.144097 -0.250000
  endloop
endfacet
facet normal 0.000561 0.001143 0.000000
  outer loop
    vertex -0.021264 -0.145710 0.250000
    vertex -0.018979 -0.146832 0.250000
    vertex -0.018979 -0.146832 -0.250000
  endloop
endfacet
facet normal 0.000561 0.001143 0.000000
  outer loop
    vertex -0.021264 -0.145710 0.250000
    vertex -0.018979 -0.146832 -0.250000
    vertex -0.021264 -0.145710 -0.250000
  endloop
endfacet
facet normal 0.000340 0.001225 0.000000
  outer loop
    vertex -0.018979 -0.146832 0.250000
    vertex -0.016528 -0.147511 0.250000
    vertex -0.016528 -0.147511 -0.250000
  endloop
endfacet
facet normal 0.000340 0.001225 0.000000
  outer loop
    vertex -0.018979 -0.146832 0.250000
    vertex -0.016528 -0.147511 -0.250000
    vertex -0.018979 -0.146832 -0.250000
  endloop
endfacet
facet normal 0.000155 0.001256 0.000000
  outer loop
    vertex -0.016528 -0.147511 0.250000
    vertex -0.014015 -0.147822 0.250000
    vertex -0.014015 -0.147822 -0.250000
  endloop
endfacet
facet normal 0.000155 0.001256 0.000000
  outer loop
    vertex -0.016528 -0.147511 0.250000
    vertex -0.014015 -0.147822 -0.250000
    vertex -0.016528 -0.147511 -0.250000
  endloop
endfacet
facet normal -0.000048 0.001263 0.000000
  outer loop
    vertex -0.014015 -0.147822 0.250000
    vertex -0.011489 -0.147726 0.250000
    vertex -0.011489 -0.147726 -0.250000
  endloop
endfacet
facet normal -0.000048 0.001263 0.000000
  outer loop
    vertex -0.014015 -0.147822 0.250000
    vertex -0.011489 -0.147726 -0.250000
    vertex -0.014015 -0.147822 -0.250000
  endloop
endfacet
facet normal -0.000130 0.001221 0.000000
  outer loop
    vertex -0.011489 -0.147726 0.250000
    vertex -0.009047 -0.147465 0.250000
    vertex -0.009047 -0.147465 -0.250000
  endloop
endfacet
facet normal -0.000130 0.001221 0.000000
  outer loop
    vertex -0.011489 -0.147726 0.250000
    vertex -0.009047 -0.147465 -0.250000
    vertex -0.011489 -0.147726 -0.250000
  endloop
endfacet
facet normal 0.000634 -0.001060 0.000000
  outer loop
    vertex -0.009047 -0.147465 0.250000
    vertex -0.011168 -0.148732 0.250000
    vertex -0.011168 -0.148732 -0.250000
  endloop
endfacet
facet normal 0.000634 -0.001060 0.000000
  outer loop
    vertex -0.009047 -0.147465 0.250000
    vertex -0.011168 -0.148732 -0.250000
    vertex -0.009047 -0.147465 -0.250000
  endloop
endfacet
facet normal 0.000550 -0.001066 0.000000
  outer loop
    vertex -0.011168 -0.148732 0.250000
    vertex -0.013301 -0.149832 0.250000
    vertex -0.013301 -0.149832 -0.250000
  endloop
endfacet
facet normal 0.000550 -0.001066 0.000000
  outer loop
    vertex -0.011168 -0.148732 0.250000
    vertex -0.013301 -0.149832 -0.250000
    vertex -0.011168 -0.148732 -0.250000
  endloop
endfacet
facet normal 0.000532 -0.000995 0.000000
  outer loop
    vertex -0.013301 -0.149832 0.250000
    vertex -0.015291 -0.150897 0.250000
    vertex -0.015291 -0.150897 -0.250000
  endloop
endfacet
facet normal 0.000532 -0.000995 0.000000
  outer loop
    vertex -0.013301 -0.149832 0.250000
    vertex -0.015291 -0.150897 -0.250000
    vertex -0.013301 -0.149832 -0.250000
  endloop
endfacet
facet normal 0.000498 -0.000947 0.000000
  outer loop
    vertex -0.015291 -0.150897 0.250000
    vertex -0.017186 -0.151893 0.250000
    vertex -0.017186 -0.151893 -0.250000
  endloop
endfacet
facet normal 0.000498 -0.000947 0.000000
  outer loop
    vertex -0.015291 -0.150897 0.250000
    vertex -0.017186 -0.151893 -0.250000
    vertex -0.015291 -0.150897 -0.250000
  endloop
endfacet
facet normal 0.000466 -0.000902 0.000000
  outer loop
    vertex -0.017186 -0.151893 0.250000
    vertex -0.018989 -0.152825 0.250000
    vertex -0.018989 -0.152825 -0.250000
  endloop
endfacet
facet normal 0.000466 -0.000902 0.000000
  outer loop
    vertex -0.017186 -0.151893 0.250000
    vertex -0.018989 -0.152825 -0.250000
    vertex -0.017186 -0.151893 -0.250000
  endloop
endfacet
facet normal 0.000435 -0.000858 0.000000
  outer loop
    vertex -0.018989 -0.152825 0.250000
    vertex -0.020706 -0.153694 0.250000
    vertex -0.020706 -0.153694 -0.250000
  endloop
endfacet
facet normal 0.000435 -0.000858 0.000000
  outer loop
    vertex -0.018989 -0.152825 0.250000
    vertex -0.020706 -0.153694 -0.250000
    vertex -0.018989 -0.152825 -0.250000
  endloop
endfacet
facet normal 0.000405 -0.000817 0.000000
  outer loop
    vertex -0.020706 -0.153694 0.250000
    vertex -0.022341 -0.154503 0.250000
    vertex -0.022341 -0.154503 -0.250000
  endloop
endfacet
facet normal 0.000405 -0.000817 0.000000
  outer loop
    vertex -0.020706 -0.153694 0.250000
    vertex -0.022341 -0.154503 -0.250000
    vertex -0.020706 -0.153694 -0.250000
  endloop
endfacet
facet normal 0.000375 -0.000779 0.000000
  outer loop
    vertex -0.022341 -0.154503 0.250000
    vertex -0.023900 -0.155254 0.250000
    vertex -0.023900 -0.155254 -0.250000
  endloop
endfacet
facet normal 0.000375 -0.000779 0.000000
  outer loop
    vertex -0.022341 -0.154503 0.250000
    vertex -0.023900 -0.155254 -0.250000
    vertex -0.022341 -0.154503 -0.250000
  endloop
endfacet
facet normal 0.000347 -0.000743 0.000000
  outer loop
    vertex -0.023900 -0.155254 0.250000
    vertex -0.025387 -0.155947 0.250000
    vertex -0.025387 -0.155947 -0.250000
  endloop
endfacet
facet normal 0.000347 -0.000743 0.000000
  outer loop
    vertex -0.023900 -0.155254 0.250000
    vertex -0.025387 -0.155947 -0.250000
    vertex -0.023900 -0.155254 -0.250000
  endloop
endfacet
facet normal 0.000320 -0.000709 0.000000
  outer loop
    vertex -0.025387 -0.155947 0.250000
    vertex -0.026804 -0.156587 0.250000
    vertex -0.026804 -0.156587 -0.250000
  endloop
endfacet
facet normal 0.000320 -0.000709 0.000000
  outer loop
    vertex -0.025387 -0.155947 0.250000
    vertex -0.026804 -0.156587 -0.250000
    vertex -0.025387 -0.155947 -0.250000
  endloop
endfacet
facet normal 0.000298 -0.000674 0.000000
  outer loop
    vertex -0.026804 -0.156587 0.250000
    vertex -0.028153 -0.157184 0.250000
    vertex -0.028153 -0.157184 -0.250000
  endloop
endfacet
facet normal 0.000298 -0.000674 0.000000
  outer loop
    vertex -0.026804 -0.156587 0.250000
    vertex -0.028153 -0.157184 -0.250000
    vertex -0.026804 -0.156587 -0.250000
  endloop
endfacet
facet normal 0.000279 -0.000641 0.000000
  outer loop
    vertex -0.028153 -0.157184 0.250000
    vertex -0.029435 -0.157742 0.250000
    vertex -0.029435 -0.157742 -0.250000
  endloop
endfacet
facet normal 0.000279 -0.000641 0.000000
  outer loop
    vertex -0.028153 -0.157184 0.250000
    vertex -0.029435 -0.157742 -0.250000
    vertex -0.028153 -0.157184 -0.250000
  endloop
endfacet
facet normal 0.000260 -0.000610 0.000000
  outer loop
    vertex -0.029435 -0.157742 0.250000
    vertex -0.030655 -0.158262 0.250000
    vertex -0.030655 -0.158262 -0.250000
  endloop
endfacet
facet normal 0.000260 -0.000610 0.000000
  outer loop
    vertex -0.029435 -0.157742 0.250000
    vertex -0.030655 -0.158262 -0.250000
    vertex -0.029435 -0.157742 -0.250000
  endloop
endfacet
facet normal 0.000240 -0.000581 0.000000
  outer loop
    vertex -0.030655 -0.158262 0.250000
    vertex -0.031816 -0.158743 0.250000
    vertex -0.031816 -0.158743 -0.250000
  endloop
endfacet
facet normal 0.000240 -0.000581 0.000000
  outer loop
    vertex -0.030655 -0.158262 0.250000
    vertex -0.031816 -0.158743 -0.250000
    vertex -0.030655 -0.158262 -0.250000
  endloop
endfacet
facet normal 0.000222 -0.000553 0.000000
  outer loop
    vertex -0.031816 -0.158743 0.250000
    vertex -0.032922 -0.159187 0.250000
    vertex -0.032922 -0.159187 -0.250000
  endloop
endfacet
facet normal 0.000222 -0.000553 0.000000
  outer loop
    vertex -0.031816 -0.158743 0.250000
    vertex -0.032922 -0.159187 -0.250000
    vertex -0.031816 -0.158743 -0.250000
  endloop
endfacet
facet normal 0.000204 -0.000527 0.000000
  outer loop
    vertex -0.032922 -0.159187 0.250000
    vertex -0.033977 -0.159596 0.250000
    vertex -0.033977 -0.159596 -0.250000
  endloop
endfacet
facet normal 0.000204 -0.000527 0.000000
  outer loop
    vertex -0.032922 -0.159187 0.250000
    vertex -0.033977 -0.159596 -0.250000
    vertex -0.032922 -0.159187 -0.250000
  endloop
endfacet
facet normal 0.000188 -0.000502 0.000000
  outer loop
    vertex -0.033977 -0.159596 0.250000
    vertex -0.034980 -0.159972 0.250000
    vertex -0.034980 -0.159972 -0.250000
  endloop
endfacet
facet normal 0.000188 -0.000502 0.000000
  outer loop
    vertex -0.033977 -0.159596 0.250000
    vertex -0.034980 -0.159972 -0.250000
    vertex -0.033977 -0.159596 -0.250000
  endloop
endfacet
facet normal 0.000172 -0.000478 0.000000
  outer loop
    vertex -0.034980 -0.159972 0.250000
    vertex -0.035936 -0.160317 0.250000
    vertex -0.035936 -0.160317 -0.250000
  endloop
endfacet
facet normal 0.000172 -0.000478 0.000000
  outer loop
    vertex -0.034980 -0.159972 0.250000
    vertex -0.035936 -0.160317 -0.250000
    vertex -0.034980 -0.159972 -0.250000
  endloop
endfacet
facet normal 0.000157 -0.000455 0.000000
  outer loop
    vertex -0.035936 -0.160317 0.250000
    vertex -0.036846 -0.160631 0.250000
    vertex -0.036846 -0.160631 -0.250000
  endloop
endfacet
facet normal 0.000157 -0.000455 0.000000
  outer loop
    vertex -0.035936 -0.160317 0.250000
    vertex -0.036846 -0.160631 -0.250000
    vertex -0.035936 -0.160317 -0.250000
  endloop
endfacet
facet normal 0.000143 -0.000434 0.000000
  outer loop
    vertex -0.036846 -0.160631 0.250000
    vertex -0.037714 -0.160917 0.250000
    vertex -0.037714 -0.160917 -0.250000
  endloop
endfacet
facet normal 0.000143 -0.000434 0.000000
  outer loop
    vertex -0.036846 -0.160631 0.250000
    vertex -0.037714 -0.160917 -0.250000
    vertex -0.036846 -0.160631 -0.250000
  endloop
endfacet
facet normal 0.000130 -0.000413 0.000000
  outer loop
    vertex -0.037714 -0.160917 0.250000
    vertex -0.038541 -0.161176 0.250000
    vertex -0.038541 -0.161176 -0.250000
  endloop
endfacet
facet normal 0.000130 -0.000413 0.000000
  outer loop
    vertex -0.037714 -0.160917 0.250000
    vertex -0.038541 -0.161176 -0.250000
    vertex -0.037714 -0.160917 -0.250000
  endloop
endfacet
facet normal 0.000117 -0.000393 0.000000
  outer loop
    vertex -0.038541 -0.161176 0.250000
    vertex -0.039328 -0.161411 0.250000
    vertex -0.039328 -0.161411 -0.250000
  endloop
endfacet
facet normal 0.000117 -0.000393 0.000000
  outer loop
    vertex -0.038541 -0.161176 0.250000
    vertex -0.039328 -0.161411 -0.250000
    vertex -0.038541 -0.161176 -0.250000
  endloop
endfacet
facet normal 0.000106 -0.000375 0.000000
  outer loop
    vertex -0.039328 -0.161411 0.250000
    vertex -0.040078 -0.161622 0.250000
    vertex -0.040078 -0.161622 -0.250000
  endloop
endfacet
facet normal 0.000106 -0.000375 0.000000
  outer loop
    vertex -0.039328 -0.161411 0.250000
    vertex -0.040078 -0.161622 -0.250000
    vertex -0.039328 -0.161411 -0.250000
  endloop
endfacet
facet normal 0.000096 -0.000356 0.000000
  outer loop
    vertex -0.040078 -0.161622 0.250000
    vertex -0.040790 -0.161815 0.250000
    vertex -0.040790 -0.161815 -0.250000
  endloop
endfacet
facet normal 0.000096 -0.000356 0.000000
  outer loop
    vertex -0.040078 -0.161622 0.250000
    vertex -0.040790 -0.161815 -0.250000
    vertex -0.040078 -0.161622 -0.250000
  endloop
endfacet
facet normal 0.000085 -0.000340 0.000000
  outer loop
    vertex -0.040790 -0.161815 0.250000
    vertex -0.041469 -0.161986 0.250000
    vertex -0.041469 -0.161986 -0.250000
  endloop
endfacet
facet normal 0.000085 -0.000340 0.000000
  outer loop
    vertex -0.040790 -0.161815 0.250000
    vertex -0.041469 -0.161986 -0.250000
    vertex -0.040790 -0.161815 -0.250000
  endloop
endfacet
facet normal 0.000079 -0.000323 0.000000
  outer loop
    vertex -0.041469 -0.161986 0.250000
    vertex -0.042114 -0.162144 0.250000
    vertex -0.042114 -0.162144 -0.250000
  endloop
endfacet
facet normal 0.000079 -0.000323 0.000000
  outer loop
    vertex -0.041469 -0.161986 0.250000
    vertex -0.042114 -0.162144 -0.250000
    vertex -0.041469 -0.161986 -0.250000
  endloop
endfacet
facet normal 0.000071 -0.000306 0.000000
  outer loop
    vertex -0.042114 -0.162144 0.250000
    vertex -0.042727 -0.162286 0.250000
    vertex -0.042727 -0.162286 -0.250000
  endloop
endfacet
facet normal 0.000071 -0.000306 0.000000
  outer loop
    vertex -0.042114 -0.162144 0.250000
    vertex -0.042727 -0.162286 -0.250000
    vertex -0.042114 -0.162144 -0.250000
  endloop
endfacet
facet normal 0.000066 -0.000291 0.000000
  outer loop
    vertex -0.042727 -0.162286 0.250000
    vertex -0.043309 -0.162419 0.250000
    vertex -0.043309 -0.162419 -0.250000
  endloop
endfacet
facet normal 0.000066 -0.000291 0.000000
  outer loop
    vertex -0.042727 -0.162286 0.250000
    vertex -0.043309 -0.162419 -0.250000
    vertex -0.042727 -0.162286 -0.250000
  endloop
endfacet
facet normal 0.000062 -0.000276 0.000000
  outer loop
    vertex -0.043309 -0.162419 0.250000
    vertex -0.043861 -0.162544 0.250000
    vertex -0.043861 -0.162544 -0.250000
  endloop
endfacet
facet normal 0.000062 -0.000276 0.000000
  outer loop
    vertex -0.043309 -0.162419 0.250000
    vertex -0.043861 -0.162544 -0.250000
    vertex -0.043309 -0.162419 -0.250000
  endloop
endfacet
facet normal 0.000058 -0.000262 0.000000
  outer loop
    vertex -0.043861 -0.162544 0.250000
    vertex -0.044384 -0.162659 0.250000
    vertex -0.044384 -0.162659 -0.250000
  endloop
endfacet
facet normal 0.000058 -0.000262 0.000000
  outer loop
    vertex -0.043861 -0.162544 0.250000
    vertex -0.044384 -0.162659 -0.250000
    vertex -0.043861 -0.162544 -0.250000
  endloop
endfacet
facet normal 0.000055 -0.000268 0.000000
  outer loop
    vertex -0.044384 -0.162659 0.250000
    vertex -0.044920 -0.162769 0.250000
    vertex -0.044920 -0.162769 -0.250000
  endloop
endfacet
facet normal 0.000055 -0.000268 0.000000
  outer loop
    vertex -0.044384 -0.162659 0.250000
    vertex -0.044920 -0.162769 -0.250000
    vertex -0.044384 -0.162659 -0.250000
  endloop
endfacet
facet normal 0.000053 -0.000272 0.000000
  outer loop
    vertex -0.044920 -0.162769 0.250000
    vertex -0.045465 -0.162876 0.250000
    vertex -0.045465 -0.162876 -0.250000
  endloop
endfacet
facet normal 0.000053 -0.000272 0.000000
  outer loop
    vertex -0.044920 -0.162769 0.250000
    vertex -0.045465 -0.162876 -0.250000
    vertex -0.044920 -0.162769 -0.250000
  endloop
endfacet
facet normal 0.000052 -0.000279 0.000000
  outer loop
    vertex -0.045465 -0.162876 0.250000
    vertex -0.046022 -0.162980 0.250000
    vertex -0.046022 -0.162980 -0.250000
  endloop
endfacet
facet normal 0.000052 -0.000279 0.000000
  outer loop
    vertex -0.045465 -0.162876 0.250000
    vertex -0.046022 -0.162980 -0.250000
    vertex -0.045465 -0.162876 -0.250000
  endloop
endfacet
facet normal 0.000049 -0.000284 0.000000
  outer loop
    vertex -0.046022 -0.162980 0.250000
    vertex -0.046591 -0.163077 0.250000
    vertex -0.046591 -0.163077 -0.250000
  endloop
endfacet
facet normal 0.000049 -0.000284 0.000000
  outer loop
    vertex -0.046022 -0.162980 0.250000
    vertex -0.046591 -0.163077 -0.250000
    vertex -0.046022 -0.162980 -0.250000
  endloop
endfacet
facet normal 0.000046 -0.000290 0.000000
  outer loop
    vertex -0.046591 -0.163077 0.250000
    vertex -0.047170 -0.163170 0.250000
    vertex -0.047170 -0.163170 -0.250000
  endloop
endfacet
facet normal 0.000046 -0.000290 0.000000
  outer loop
    vertex -0.046591 -0.163077 0.250000
    vertex -0.047170 -0.163170 -0.250000
    vertex -0.046591 -0.163077 -0.250000
  endloop
endfacet
facet normal 0.000042 -0.000296 0.000000
  outer loop
    vertex -0.047170 -0.163170 0.250000
    vertex -0.047761 -0.163253 0.250000
    vertex -0.047761 -0.163253 -0.250000
  endloop
endfacet
facet normal 0.000042 -0.000296 0.000000
  outer loop
    vertex -0.047170 -0.163170 0.250000
    vertex -0.047761 -0.163253 -0.250000
    vertex -0.047170 -0.163170 -0.250000
  endloop
endfacet
facet normal 0.000038 -0.000302 0.000000
  outer loop
    vertex -0.047761 -0.163253 0.250000
    vertex -0.048365 -0.163329 0.250000
    vertex -0.048365 -0.163329 -0.250000
  endloop
endfacet
facet normal 0.000038 -0.000302 0.000000
  outer loop
    vertex -0.047761 -0.163253 0.250000
    vertex -0.048365 -0.163329 -0.250000
    vertex -0.047761 -0.163253 -0.250000
  endloop
endfacet
facet normal 0.000033 -0.000308 0.000000
  outer loop
    vertex -0.048365 -0.163329 0.250000
    vertex -0.048981 -0.163394 0.250000
    vertex -0.048981 -0.163394 -0.250000
  endloop
endfacet
facet normal 0.000033 -0.000308 0.000000
  outer loop
    vertex -0.048365 -0.163329 0.250000
    vertex -0.048981 -0.163394 -0.250000
    vertex -0.048365 -0.163329 -0.250000
  endloop
endfacet
facet normal 0.000026 -0.000314 0.000000
  outer loop
    vertex -0.048981 -0.163394 0.250000
    vertex -0.049609 -0.163447 0.250000
    vertex -0.049609 -0.163447 -0.250000
  endloop
endfacet
facet normal 0.000026 -0.000314 0.000000
  outer loop
    vertex -0.048981 -0.163394 0.250000
    vertex -0.049609 -0.163447 -0.250000
    vertex -0.048981 -0.163394 -0.250000
  endloop
endfacet
facet normal 0.000020 -0.000321 0.000000
  outer loop
    vertex -0.049609 -0.163447 0.250000
    vertex -0.050250 -0.163486 0.250000
    vertex -0.050250 -0.163486 -0.250000
  endloop
endfacet
facet normal 0.000020 -0.000321 0.000000
  outer loop
    vertex -0.049609 -0.163447 0.250000
    vertex -0.050250 -0.163486 -0.250000
    vertex -0.049609 -0.163447 -0.250000
  endloop
endfacet
facet normal 0.000011 -0.000327 0.000000
  outer loop
    vertex -0.050250 -0.163486 0.250000
    vertex -0.050903 -0.163509 0.250000
    vertex -0.050903 -0.163509 -0.250000
  endloop
endfacet
facet normal 0.000011 -0.000327 0.000000
  outer loop
    vertex -0.050250 -0.163486 0.250000
    vertex -0.050903 -0.163509 -0.250000
    vertex -0.050250 -0.163486 -0.250000
  endloop
endfacet
facet normal 0.000001 -0.000332 0.000000
  outer loop
    vertex -0.050903 -0.163509 0.250000
    vertex -0.051568 -0.163512 0.250000
    vertex -0.051568 -0.163512 -0.250000
  endloop
endfacet
facet normal 0.000001 -0.000332 0.000000
  outer loop
    vertex -0.050903 -0.163509 0.250000
    vertex -0.051568 -0.163512 -0.250000
    vertex -0.050903 -0.163509 -0.250000
  endloop
endfacet
facet normal -0.000009 -0.000339 0.000000
  outer loop
    vertex -0.051568 -0.163512 0.250000
    vertex -0.052246 -0.163493 0.250000
    vertex -0.052246 -0.163493 -0.250000
  endloop
endfacet
facet normal -0.000009 -0.000339 -0.000000
  outer loop
    vertex -0.051568 -0.163512 0.250000
    vertex -0.052246 -0.163493 -0.250000
    vertex -0.051568 -0.163512 -0.250000
  endloop
endfacet
facet normal -0.000017 -0.000344 0.000000
  outer loop
    vertex -0.052246 -0.163493 0.250000
    vertex -0.052934 -0.163459 0.250000
    vertex -0.052934 -0.163459 -0.250000
  endloop
endfacet
facet normal -0.000017 -0.000344 -0.000000
  outer loop
    vertex -0.052246 -0.163493 0.250000
    vertex -0.052934 -0.163459 -0.250000
    vertex -0.052246 -0.163493 -0.250000
  endloop
endfacet
facet normal -0.000025 -0.000350 0.000000
  outer loop
    vertex -0.052934 -0.163459 0.250000
    vertex -0.053634 -0.163409 0.250000
    vertex -0.053634 -0.163409 -0.250000
  endloop
endfacet
facet normal -0.000025 -0.000350 -0.000000
  outer loop
    vertex -0.052934 -0.163459 0.250000
    vertex -0.053634 -0.163409 -0.250000
    vertex -0.052934 -0.163459 -0.250000
  endloop
endfacet
facet normal -0.000033 -0.000356 0.000000
  outer loop
    vertex -0.053634 -0.163409 0.250000
    vertex -0.054346 -0.163342 0.250000
    vertex -0.054346 -0.163342 -0.250000
  endloop
endfacet
facet normal -0.000033 -0.000356 -0.000000
  outer loop
    vertex -0.053634 -0.163409 0.250000
    vertex -0.054346 -0.163342 -0.250000
    vertex -0.053634 -0.163409 -0.250000
  endloop
endfacet
facet normal -0.000044 -0.000361 0.000000
  outer loop
    vertex -0.054346 -0.163342 0.250000
    vertex -0.055068 -0.163254 0.250000
    vertex -0.055068 -0.163254 -0.250000
  endloop
endfacet
facet normal -0.000044 -0.000361 -0.000000
  outer loop
    vertex -0.054346 -0.163342 0.250000
    vertex -0.055068 -0.163254 -0.250000
    vertex -0.054346 -0.163342 -0.250000
  endloop
endfacet
facet normal -0.000056 -0.000366 0.000000
  outer loop
    vertex -0.055068 -0.163254 0.250000
    vertex -0.055800 -0.163143 0.250000
    vertex -0.055800 -0.163143 -0.250000
  endloop
endfacet
facet normal -0.000056 -0.000366 -0.000000
  outer loop
    vertex -0.055068 -0.163254 0.250000
    vertex -0.055800 -0.163143 -0.250000
    vertex -0.055068 -0.163254 -0.250000
  endloop
endfacet
facet normal -0.000072 -0.000370 0.000000
  outer loop
    vertex -0.055800 -0.163143 0.250000
    vertex -0.056541 -0.162999 0.250000
    vertex -0.056541 -0.162999 -0.250000
  endloop
endfacet
facet normal -0.000072 -0.000370 -0.000000
  outer loop
    vertex -0.055800 -0.163143 0.250000
    vertex -0.056541 -0.162999 -0.250000
    vertex -0.055800 -0.163143 -0.250000
  endloop
endfacet
facet normal -0.000089 -0.000373 0.000000
  outer loop
    vertex -0.056541 -0.162999 0.250000
    vertex -0.057287 -0.162820 0.250000
    vertex -0.057287 -0.162820 -0.250000
  endloop
endfacet
facet normal -0.000089 -0.000373 -0.000000
  outer loop
    vertex -0.056541 -0.162999 0.250000
    vertex -0.057287 -0.162820 -0.250000
    vertex -0.056541 -0.162999 -0.250000
  endloop
endfacet
facet normal -0.000108 -0.000375 0.000000
  outer loop
    vertex -0.057287 -0.162820 0.250000
    vertex -0.058038 -0.162604 0.250000
    vertex -0.058038 -0.162604 -0.250000
  endloop
endfacet
facet normal -0.000108 -0.000375 -0.000000
  outer loop
    vertex -0.057287 -0.162820 0.250000
    vertex -0.058038 -0.162604 -0.250000
    vertex -0.057287 -0.162820 -0.250000
  endloop
endfacet
facet normal -0.000122 -0.000379 0.000000
  outer loop
    vertex -0.058038 -0.162604 0.250000
    vertex -0.058795 -0.162359 0.250000
    vertex -0.058795 -0.162359 -0.250000
  endloop
endfacet
facet normal -0.000122 -0.000379 -0.000000
  outer loop
    vertex -0.058038 -0.162604 0.250000
    vertex -0.058795 -0.162359 -0.250000
    vertex -0.058038 -0.162604 -0.250000
  endloop
endfacet
facet normal -0.000136 -0.000382 0.000000
  outer loop
    vertex -0.058795 -0.162359 0.250000
    vertex -0.059560 -0.162087 0.250000
    vertex -0.059560 -0.162087 -0.250000
  endloop
endfacet
facet normal -0.000136 -0.000382 -0.000000
  outer loop
    vertex -0.058795 -0.162359 0.250000
    vertex -0.059560 -0.162087 -0.250000
    vertex -0.058795 -0.162359 -0.250000
  endloop
endfacet
facet normal -0.000155 -0.000382 0.000000
  outer loop
    vertex -0.059560 -0.162087 0.250000
    vertex -0.060323 -0.161776 0.250000
    vertex -0.060323 -0.161776 -0.250000
  endloop
endfacet
facet normal -0.000155 -0.000382 -0.000000
  outer loop
    vertex -0.059560 -0.162087 0.250000
    vertex -0.060323 -0.161776 -0.250000
    vertex -0.059560 -0.162087 -0.250000
  endloop
endfacet
facet normal -0.000179 -0.000379 0.000000
  outer loop
    vertex -0.060323 -0.161776 0.250000
    vertex -0.061082 -0.161418 0.250000
    vertex -0.061082 -0.161418 -0.250000
  endloop
endfacet
facet normal -0.000179 -0.000379 -0.000000
  outer loop
    vertex -0.060323 -0.161776 0.250000
    vertex -0.061082 -0.161418 -0.250000
    vertex -0.060323 -0.161776 -0.250000
  endloop
endfacet
facet normal -0.000208 -0.000374 0.000000
  outer loop
    vertex -0.061082 -0.161418 0.250000
    vertex -0.061829 -0.161001 0.250000
    vertex -0.061829 -0.161001 -0.250000
  endloop
endfacet
facet normal -0.000208 -0.000374 -0.000000
  outer loop
    vertex -0.061082 -0.161418 0.250000
    vertex -0.061829 -0.161001 -0.250000
    vertex -0.061082 -0.161418 -0.250000
  endloop
endfacet
facet normal -0.000234 -0.000367 0.000000
  outer loop
    vertex -0.061829 -0.161001 0.250000
    vertex -0.062563 -0.160533 0.250000
    vertex -0.062563 -0.160533 -0.250000
  endloop
endfacet
facet normal -0.000234 -0.000367 -0.000000
  outer loop
    vertex -0.061829 -0.161001 0.250000
    vertex -0.062563 -0.160533 -0.250000
    vertex -0.061829 -0.161001 -0.250000
  endloop
endfacet
facet normal -0.000257 -0.000361 0.000000
  outer loop
    vertex -0.062563 -0.160533 0.250000
    vertex -0.063284 -0.160018 0.250000
    vertex -0.063284 -0.160018 -0.250000
  endloop
endfacet
facet normal -0.000257 -0.000361 -0.000000
  outer loop
    vertex -0.062563 -0.160533 0.250000
    vertex -0.063284 -0.160018 -0.250000
    vertex -0.062563 -0.160533 -0.250000
  endloop
endfacet
facet normal -0.000288 -0.000347 0.000000
  outer loop
    vertex -0.063284 -0.160018 0.250000
    vertex -0.063977 -0.159442 0.250000
    vertex -0.063977 -0.159442 -0.250000
  endloop
endfacet
facet normal -0.000288 -0.000347 -0.000000
  outer loop
    vertex -0.063284 -0.160018 0.250000
    vertex -0.063977 -0.159442 -0.250000
    vertex -0.063284 -0.160018 -0.250000
  endloop
endfacet
facet normal -0.000323 -0.000327 0.000000
  outer loop
    vertex -0.063977 -0.159442 0.250000
    vertex -0.064630 -0.158796 0.250000
    vertex -0.064630 -0.158796 -0.250000
  endloop
endfacet
facet normal -0.000323 -0.000327 -0.000000
  outer loop
    vertex -0.063977 -0.159442 0.250000
    vertex -0.064630 -0.158796 -0.250000
    vertex -0.063977 -0.159442 -0.250000
  endloop
endfacet
facet normal -0.000352 -0.000307 0.000000
  outer loop
    vertex -0.064630 -0.158796 0.250000
    vertex -0.065245 -0.158091 0.250000
    vertex -0.065245 -0.158091 -0.250000
  endloop
endfacet
facet normal -0.000352 -0.000307 -0.000000
  outer loop
    vertex -0.064630 -0.158796 0.250000
    vertex -0.065245 -0.158091 -0.250000
    vertex -0.064630 -0.158796 -0.250000
  endloop
endfacet
facet normal -0.000379 -0.000288 0.000000
  outer loop
    vertex -0.065245 -0.158091 0.250000
    vertex -0.065821 -0.157334 0.250000
    vertex -0.065821 -0.157334 -0.250000
  endloop
endfacet
facet normal -0.000379 -0.000288 -0.000000
  outer loop
    vertex -0.065245 -0.158091 0.250000
    vertex -0.065821 -0.157334 -0.250000
    vertex -0.065245 -0.158091 -0.250000
  endloop
endfacet
facet normal -0.000404 -0.000268 0.000000
  outer loop
    vertex -0.065821 -0.157334 0.250000
    vertex -0.066358 -0.156526 0.250000
    vertex -0.066358 -0.156526 -0.250000
  endloop
endfacet
facet normal -0.000404 -0.000268 -0.000000
  outer loop
    vertex -0.065821 -0.157334 0.250000
    vertex -0.066358 -0.156526 -0.250000
    vertex -0.065821 -0.157334 -0.250000
  endloop
endfacet
facet normal -0.000428 -0.000246 0.000000
  outer loop
    vertex -0.066358 -0.156526 0.250000
    vertex -0.066850 -0.155671 0.250000
    vertex -0.066850 -0.155671 -0.250000
  endloop
endfacet
facet normal -0.000428 -0.000246 -0.000000
  outer loop
    vertex -0.066358 -0.156526 0.250000
    vertex -0.066850 -0.155671 -0.250000
    vertex -0.066358 -0.156526 -0.250000
  endloop
endfacet
facet normal -0.000456 -0.000210 0.000000
  outer loop
    vertex -0.066850 -0.155671 0.250000
    vertex -0.067269 -0.154759 0.250000
    vertex -0.067269 -0.154759 -0.250000
  endloop
endfacet
facet normal -0.000456 -0.000210 -0.000000
  outer loop
    vertex -0.066850 -0.155671 0.250000
    vertex -0.067269 -0.154759 -0.250000
    vertex -0.066850 -0.155671 -0.250000
  endloop
endfacet
facet normal -0.000471 -0.000175 0.000000
  outer loop
    vertex -0.067269 -0.154759 0.250000
    vertex -0.067620 -0.153817 0.250000
    vertex -0.067620 -0.153817 -0.250000
  endloop
endfacet
facet normal -0.000471 -0.000175 -0.000000
  outer loop
    vertex -0.067269 -0.154759 0.250000
    vertex -0.067620 -0.153817 -0.250000
    vertex -0.067269 -0.154759 -0.250000
  endloop
endfacet
facet normal -0.000541 -0.000168 0.000000
  outer loop
    vertex -0.067620 -0.153817 0.250000
    vertex -0.067955 -0.152736 0.250000
    vertex -0.067955 -0.152736 -0.250000
  endloop
endfacet
facet normal -0.000541 -0.000168 -0.000000
  outer loop
    vertex -0.067620 -0.153817 0.250000
    vertex -0.067955 -0.152736 -0.250000
    vertex -0.067620 -0.153817 -0.250000
  endloop
endfacet
facet normal -0.000621 -0.000148 0.000000
  outer loop
    vertex -0.067955 -0.152736 0.250000
    vertex -0.068251 -0.151495 0.250000
    vertex -0.068251 -0.151495 -0.250000
  endloop
endfacet
facet normal -0.000621 -0.000148 -0.000000
  outer loop
    vertex -0.067955 -0.152736 0.250000
    vertex -0.068251 -0.151495 -0.250000
    vertex -0.067955 -0.152736 -0.250000
  endloop
endfacet
facet normal -0.000581 -0.000096 0.000000
  outer loop
    vertex -0.068251 -0.151495 0.250000
    vertex -0.068444 -0.150332 0.250000
    vertex -0.068444 -0.150332 -0.250000
  endloop
endfacet
facet normal -0.000581 -0.000096 -0.000000
  outer loop
    vertex -0.068251 -0.151495 0.250000
    vertex -0.068444 -0.150332 -0.250000
    vertex -0.068251 -0.151495 -0.250000
  endloop
endfacet
facet normal -0.000541 -0.000055 0.000000
  outer loop
    vertex -0.068444 -0.150332 0.250000
    vertex -0.068554 -0.149250 0.250000
    vertex -0.068554 -0.149250 -0.250000
  endloop
endfacet
facet normal -0.000541 -0.000055 -0.000000
  outer loop
    vertex -0.068444 -0.150332 0.250000
    vertex -0.068554 -0.149250 -0.250000
    vertex -0.068444 -0.150332 -0.250000
  endloop
endfacet
facet normal -0.000502 -0.000028 0.000000
  outer loop
    vertex -0.068554 -0.149250 0.250000
    vertex -0.068609 -0.148246 0.250000
    vertex -0.068609 -0.148246 -0.250000
  endloop
endfacet
facet normal -0.000502 -0.000028 -0.000000
  outer loop
    vertex -0.068554 -0.149250 0.250000
    vertex -0.068609 -0.148246 -0.250000
    vertex -0.068554 -0.149250 -0.250000
  endloop
endfacet
facet normal -0.000503 -0.000001 0.000000
  outer loop
    vertex -0.068609 -0.148246 0.250000
    vertex -0.068611 -0.147241 0.250000
    vertex -0.068611 -0.147241 -0.250000
  endloop
endfacet
facet normal -0.000503 -0.000001 -0.000000
  outer loop
    vertex -0.068609 -0.148246 0.250000
    vertex -0.068611 -0.147241 -0.250000
    vertex -0.068609 -0.148246 -0.250000
  endloop
endfacet
facet normal -0.000542 0.000023 0.000000
  outer loop
    vertex -0.068611 -0.147241 0.250000
    vertex -0.068565 -0.146157 0.250000
    vertex -0.068565 -0.146157 -0.250000
  endloop
endfacet
facet normal -0.000542 0.000023 0.000000
  outer loop
    vertex -0.068611 -0.147241 0.250000
    vertex -0.068565 -0.146157 -0.250000
    vertex -0.068611 -0.147241 -0.250000
  endloop
endfacet
facet normal -0.000585 0.000047 0.000000
  outer loop
    vertex -0.068565 -0.146157 0.250000
    vertex -0.068472 -0.144988 0.250000
    vertex -0.068472 -0.144988 -0.250000
  endloop
endfacet
facet normal -0.000585 0.000047 0.000000
  outer loop
    vertex -0.068565 -0.146157 0.250000
    vertex -0.068472 -0.144988 -0.250000
    vertex -0.068565 -0.146157 -0.250000
  endloop
endfacet
facet normal -0.000630 0.000074 0.000000
  outer loop
    vertex -0.068472 -0.144988 0.250000
    vertex -0.068323 -0.143729 0.250000
    vertex -0.068323 -0.143729 -0.250000
  endloop
endfacet
facet normal -0.000630 0.000074 0.000000
  outer loop
    vertex -0.068472 -0.144988 0.250000
    vertex -0.068323 -0.143729 -0.250000
    vertex -0.068472 -0.144988 -0.250000
  endloop
endfacet
facet normal -0.000676 0.000108 0.000000
  outer loop
    vertex -0.068323 -0.143729 0.250000
    vertex -0.068107 -0.142376 0.250000
    vertex -0.068107 -0.142376 -0.250000
  endloop
endfacet
facet normal -0.000676 0.000108 0.000000
  outer loop
    vertex -0.068323 -0.143729 0.250000
    vertex -0.068107 -0.142376 -0.250000
    vertex -0.068323 -0.143729 -0.250000
  endloop
endfacet
facet normal -0.000727 0.000140 0.000000
  outer loop
    vertex -0.068107 -0.142376 0.250000
    vertex -0.067826 -0.140922 0.250000
    vertex -0.067826 -0.140922 -0.250000
  endloop
endfacet
facet normal -0.000727 0.000140 0.000000
  outer loop
    vertex -0.068107 -0.142376 0.250000
    vertex -0.067826 -0.140922 -0.250000
    vertex -0.068107 -0.142376 -0.250000
  endloop
endfacet
facet normal -0.000781 0.000175 0.000000
  outer loop
    vertex -0.067826 -0.140922 0.250000
    vertex -0.067475 -0.139361 0.250000
    vertex -0.067475 -0.139361 -0.250000
  endloop
endfacet
facet normal -0.000781 0.000175 0.000000
  outer loop
    vertex -0.067826 -0.140922 0.250000
    vertex -0.067475 -0.139361 -0.250000
    vertex -0.067826 -0.140922 -0.250000
  endloop
endfacet
facet normal -0.000835 0.000222 0.000000
  outer loop
    vertex -0.067475 -0.139361 0.250000
    vertex -0.067032 -0.137690 0.250000
    vertex -0.067032 -0.137690 -0.250000
  endloop
endfacet
facet normal -0.000835 0.000222 0.000000
  outer loop
    vertex -0.067475 -0.139361 0.250000
    vertex -0.067032 -0.137690 -0.250000
    vertex -0.067475 -0.139361 -0.250000
  endloop
endfacet
facet normal -0.000894 0.000272 0.000000
  outer loop
    vertex -0.067032 -0.137690 0.250000
    vertex -0.066488 -0.135902 0.250000
    vertex -0.066488 -0.135902 -0.250000
  endloop
endfacet
facet normal -0.000894 0.000272 0.000000
  outer loop
    vertex -0.067032 -0.137690 0.250000
    vertex -0.066488 -0.135902 -0.250000
    vertex -0.067032 -0.137690 -0.250000
  endloop
endfacet
facet normal -0.000956 0.000325 0.000000
  outer loop
    vertex -0.066488 -0.135902 0.250000
    vertex -0.065838 -0.133990 0.250000
    vertex -0.065838 -0.133990 -0.250000
  endloop
endfacet
facet normal -0.000956 0.000325 0.000000
  outer loop
    vertex -0.066488 -0.135902 0.250000
    vertex -0.065838 -0.133990 -0.250000
    vertex -0.066488 -0.135902 -0.250000
  endloop
endfacet
facet normal -0.001022 0.000381 0.000000
  outer loop
    vertex -0.065838 -0.133990 0.250000
    vertex -0.065075 -0.131946 0.250000
    vertex -0.065075 -0.131946 -0.250000
  endloop
endfacet
facet normal -0.001022 0.000381 0.000000
  outer loop
    vertex -0.065838 -0.133990 0.250000
    vertex -0.065075 -0.131946 -0.250000
    vertex -0.065838 -0.133990 -0.250000
  endloop
endfacet
facet normal -0.001095 0.000438 0.000000
  outer loop
    vertex -0.065075 -0.131946 0.250000
    vertex -0.064199 -0.129756 0.250000
    vertex -0.064199 -0.129756 -0.250000
  endloop
endfacet
facet normal -0.001095 0.000438 0.000000
  outer loop
    vertex -0.065075 -0.131946 0.250000
    vertex -0.064199 -0.129756 -0.250000
    vertex -0.065075 -0.131946 -0.250000
  endloop
endfacet
facet normal -0.001173 0.000498 0.000000
  outer loop
    vertex -0.064199 -0.129756 0.250000
    vertex -0.063203 -0.127410 0.250000
    vertex -0.063203 -0.127410 -0.250000
  endloop
endfacet
facet normal -0.001173 0.000498 0.000000
  outer loop
    vertex -0.064199 -0.129756 0.250000
    vertex -0.063203 -0.127410 -0.250000
    vertex -0.064199 -0.129756 -0.250000
  endloop
endfacet
facet normal -0.001251 0.000577 0.000000
  outer loop
    vertex -0.063203 -0.127410 0.250000
    vertex -0.062050 -0.124908 0.250000
    vertex -0.062050 -0.124908 -0.250000
  endloop
endfacet
facet normal -0.001251 0.000577 0.000000
  outer loop
    vertex -0.063203 -0.127410 0.250000
    vertex -0.062050 -0.124908 -0.250000
    vertex -0.063203 -0.127410 -0.250000
  endloop
endfacet
facet normal -0.001332 0.000663 0.000000
  outer loop
    vertex -0.062050 -0.124908 0.250000
    vertex -0.060724 -0.122244 0.250000
    vertex -0.060724 -0.122244 -0.250000
  endloop
endfacet
facet normal -0.001332 0.000663 0.000000
  outer loop
    vertex -0.062050 -0.124908 0.250000
    vertex -0.060724 -0.122244 -0.250000
    vertex -0.062050 -0.124908 -0.250000
  endloop
endfacet
facet normal -0.001421 0.000753 0.000000
  outer loop
    vertex -0.060724 -0.122244 0.250000
    vertex -0.059218 -0.119401 0.250000
    vertex -0.059218 -0.119401 -0.250000
  endloop
endfacet
facet normal -0.001421 0.000753 0.000000
  outer loop
    vertex -0.060724 -0.122244 0.250000
    vertex -0.059218 -0.119401 -0.250000
    vertex -0.060724 -0.122244 -0.250000
  endloop
endfacet
facet normal -0.001518 0.000846 0.000000
  outer loop
    vertex -0.059218 -0.119401 0.250000
    vertex -0.057525 -0.116365 0.250000
    vertex -0.057525 -0.116365 -0.250000
  endloop
endfacet
facet normal -0.001518 0.000846 0.000000
  outer loop
    vertex -0.059218 -0.119401 0.250000
    vertex -0.057525 -0.116365 -0.250000
    vertex -0.059218 -0.119401 -0.250000
  endloop
endfacet
facet normal -0.001626 0.000941 0.000000
  outer loop
    vertex -0.057525 -0.116365 0.250000
    vertex -0.055642 -0.113113 0.250000
    vertex -0.055642 -0.113113 -0.250000
  endloop
endfacet
facet normal -0.001626 0.000941 0.000000
  outer loop
    vertex -0.057525 -0.116365 0.250000
    vertex -0.055642 -0.113113 -0.250000
    vertex -0.057525 -0.116365 -0.250000
  endloop
endfacet
facet normal -0.001743 0.001042 0.000000
  outer loop
    vertex -0.055642 -0.113113 0.250000
    vertex -0.053559 -0.109628 0.250000
    vertex -0.053559 -0.109628 -0.250000
  endloop
endfacet
facet normal -0.001743 0.001042 0.000000
  outer loop
    vertex -0.055642 -0.113113 0.250000
    vertex -0.053559 -0.109628 -0.250000
    vertex -0.055642 -0.113113 -0.250000
  endloop
endfacet
facet normal -0.001857 0.001168 0.000000
  outer loop
    vertex -0.053559 -0.109628 0.250000
    vertex -0.051224 -0.105914 0.250000
    vertex -0.051224 -0.105914 -0.250000
  endloop
endfacet
facet normal -0.001857 0.001168 0.000000
  outer loop
    vertex -0.053559 -0.109628 0.250000
    vertex -0.051224 -0.105914 -0.250000
    vertex -0.053559 -0.109628 -0.250000
  endloop
endfacet
facet normal -0.001982 0.001301 0.000000
  outer loop
    vertex -0.051224 -0.105914 0.250000
    vertex -0.048622 -0.101949 0.250000
    vertex -0.048622 -0.101949 -0.250000
  endloop
endfacet
facet normal -0.001982 0.001301 0.000000
  outer loop
    vertex -0.051224 -0.105914 0.250000
    vertex -0.048622 -0.101949 -0.250000
    vertex -0.051224 -0.105914 -0.250000
  endloop
endfacet
facet normal -0.002118 0.001441 0.000000
  outer loop
    vertex -0.048622 -0.101949 0.250000
    vertex -0.045739 -0.097712 0.250000
    vertex -0.045739 -0.097712 -0.250000
  endloop
endfacet
facet normal -0.002118 0.001441 0.000000
  outer loop
    vertex -0.048622 -0.101949 0.250000
    vertex -0.045739 -0.097712 -0.250000
    vertex -0.048622 -0.101949 -0.250000
  endloop
endfacet
facet normal -0.002271 0.001585 0.000000
  outer loop
    vertex -0.045739 -0.097712 0.250000
    vertex -0.042570 -0.093171 0.250000
    vertex -0.042570 -0.093171 -0.250000
  endloop
endfacet
facet normal -0.002271 0.001585 0.000000
  outer loop
    vertex -0.045739 -0.097712 0.250000
    vertex -0.042570 -0.093171 -0.250000
    vertex -0.045739 -0.097712 -0.250000
  endloop
endfacet
facet normal -0.002439 0.001734 0.000000
  outer loop
    vertex -0.042570 -0.093171 0.250000
    vertex -0.039102 -0.088292 0.250000
    vertex -0.039102 -0.088292 -0.250000
  endloop
endfacet
facet normal -0.002439 0.001734 0.000000
  outer loop
    vertex -0.042570 -0.093171 0.250000
    vertex -0.039102 -0.088292 -0.250000
    vertex -0.042570 -0.093171 -0.250000
  endloop
endfacet
facet normal -0.002610 0.001909 0.000000
  outer loop
    vertex -0.039102 -0.088292 0.250000
    vertex -0.035284 -0.083072 0.250000
    vertex -0.035284 -0.083072 -0.250000
  endloop
endfacet
facet normal -0.002610 0.001909 0.000000
  outer loop
    vertex -0.039102 -0.088292 0.250000
    vertex -0.035284 -0.083072 -0.250000
    vertex -0.039102 -0.088292 -0.250000
  endloop
endfacet
facet normal -0.002793 0.002101 0.000000
  outer loop
    vertex -0.035284 -0.083072 0.250000
    vertex -0.031083 -0.077485 0.250000
    vertex -0.031083 -0.077485 -0.250000
  endloop
endfacet
facet normal -0.002793 0.002101 0.000000
  outer loop
    vertex -0.035284 -0.083072 0.250000
    vertex -0.031083 -0.077485 -0.250000
    vertex -0.035284 -0.083072 -0.250000
  endloop
endfacet
facet normal -0.002523 0.001938 0.000000
  outer loop
    vertex -0.031083 -0.077485 0.250000
    vertex -0.027207 -0.072440 0.250000
    vertex -0.027207 -0.072440 -0.250000
  endloop
endfacet
facet normal -0.002523 0.001938 0.000000
  outer loop
    vertex -0.031083 -0.077485 0.250000
    vertex -0.027207 -0.072440 -0.250000
    vertex -0.031083 -0.077485 -0.250000
  endloop
endfacet
facet normal -0.002284 0.001780 0.000000
  outer loop
    vertex -0.027207 -0.072440 0.250000
    vertex -0.023647 -0.067873 0.250000
    vertex -0.023647 -0.067873 -0.250000
  endloop
endfacet
facet normal -0.002284 0.001780 0.000000
  outer loop
    vertex -0.027207 -0.072440 0.250000
    vertex -0.023647 -0.067873 -0.250000
    vertex -0.027207 -0.072440 -0.250000
  endloop
endfacet
facet normal -0.002070 0.001631 0.000000
  outer loop
    vertex -0.023647 -0.067873 0.250000
    vertex -0.020384 -0.063732 0.250000
    vertex -0.020384 -0.063732 -0.250000
  endloop
endfacet
facet normal -0.002070 0.001631 0.000000
  outer loop
    vertex -0.023647 -0.067873 0.250000
    vertex -0.020384 -0.063732 -0.250000
    vertex -0.023647 -0.067873 -0.250000
  endloop
endfacet
facet normal -0.001874 0.001498 0.000000
  outer loop
    vertex -0.020384 -0.063732 0.250000
    vertex -0.017388 -0.059983 0.250000
    vertex -0.017388 -0.059983 -0.250000
  endloop
endfacet
facet normal -0.001874 0.001498 0.000000
  outer loop
    vertex -0.020384 -0.063732 0.250000
    vertex -0.017388 -0.059983 -0.250000
    vertex -0.020384 -0.063732 -0.250000
  endloop
endfacet
facet normal -0.001698 0.001373 0.000000
  outer loop
    vertex -0.017388 -0.059983 0.250000
    vertex -0.014642 -0.056587 0.250000
    vertex -0.014642 -0.056587 -0.250000
  endloop
endfacet
facet normal -0.001698 0.001373 0.000000
  outer loop
    vertex -0.017388 -0.059983 0.250000
    vertex -0.014642 -0.056587 -0.250000
    vertex -0.017388 -0.059983 -0.250000
  endloop
endfacet
facet normal -0.001540 0.001257 0.000000
  outer loop
    vertex -0.014642 -0.056587 0.250000
    vertex -0.012129 -0.053506 0.250000
    vertex -0.012129 -0.053506 -0.250000
  endloop
endfacet
facet normal -0.001540 0.001257 0.000000
  outer loop
    vertex -0.014642 -0.056587 0.250000
    vertex -0.012129 -0.053506 -0.250000
    vertex -0.014642 -0.056587 -0.250000
  endloop
endfacet
facet normal -0.001399 0.001148 0.000000
  outer loop
    vertex -0.012129 -0.053506 0.250000
    vertex -0.009833 -0.050709 0.250000
    vertex -0.009833 -0.050709 -0.250000
  endloop
endfacet
facet normal -0.001399 0.001148 0.000000
  outer loop
    vertex -0.012129 -0.053506 0.250000
    vertex -0.009833 -0.050709 -0.250000
    vertex -0.012129 -0.053506 -0.250000
  endloop
endfacet
facet normal -0.001270 0.001048 0.000000
  outer loop
    vertex -0.009833 -0.050709 0.250000
    vertex -0.007736 -0.048170 0.250000
    vertex -0.007736 -0.048170 -0.250000
  endloop
endfacet
facet normal -0.001270 0.001048 0.000000
  outer loop
    vertex -0.009833 -0.050709 0.250000
    vertex -0.007736 -0.048170 -0.250000
    vertex -0.009833 -0.050709 -0.250000
  endloop
endfacet
facet normal -0.001155 0.000957 0.000000
  outer loop
    vertex -0.007736 -0.048170 0.250000
    vertex -0.005823 -0.045860 0.250000
    vertex -0.005823 -0.045860 -0.250000
  endloop
endfacet
facet normal -0.001155 0.000957 0.000000
  outer loop
    vertex -0.007736 -0.048170 0.250000
    vertex -0.005823 -0.045860 -0.250000
    vertex -0.007736 -0.048170 -0.250000
  endloop
endfacet
facet normal -0.001050 0.000872 0.000000
  outer loop
    vertex -0.005823 -0.045860 0.250000
    vertex -0.004079 -0.043761 0.250000
    vertex -0.004079 -0.043761 -0.250000
  endloop
endfacet
facet normal -0.001050 0.000872 0.000000
  outer loop
    vertex -0.005823 -0.045860 0.250000
    vertex -0.004079 -0.043761 -0.250000
    vertex -0.005823 -0.045860 -0.250000
  endloop
endfacet
facet normal -0.000954 0.000796 0.000000
  outer loop
    vertex -0.004079 -0.043761 0.250000
    vertex -0.002487 -0.041854 0.250000
    vertex -0.002487 -0.041854 -0.250000
  endloop
endfacet
facet normal -0.000954 0.000796 0.000000
  outer loop
    vertex -0.004079 -0.043761 0.250000
    vertex -0.002487 -0.041854 -0.250000
    vertex -0.004079 -0.043761 -0.250000
  endloop
endfacet
facet normal -0.000866 0.000727 0.000000
  outer loop
    vertex -0.002487 -0.041854 0.250000
    vertex -0.001034 -0.040121 0.250000
    vertex -0.001034 -0.040121 -0.250000
  endloop
endfacet
facet normal -0.000866 0.000727 0.000000
  outer loop
    vertex -0.002487 -0.041854 0.250000
    vertex -0.001034 -0.040121 -0.250000
    vertex -0.002487 -0.041854 -0.250000
  endloop
endfacet
facet normal -0.000787 0.000663 0.000000
  outer loop
    vertex -0.001034 -0.040121 0.250000
    vertex 0.000292 -0.038548 0.250000
    vertex 0.000292 -0.038548 -0.250000
  endloop
endfacet
facet normal -0.000787 0.000663 0.000000
  outer loop
    vertex -0.001034 -0.040121 0.250000
    vertex 0.000292 -0.038548 -0.250000
    vertex -0.001034 -0.040121 -0.250000
  endloop
endfacet
facet normal -0.000716 0.000604 0.000000
  outer loop
    vertex 0.000292 -0.038548 0.250000
    vertex 0.001501 -0.037115 0.250000
    vertex 0.001501 -0.037115 -0.250000
  endloop
endfacet
facet normal -0.000716 0.000604 0.000000
  outer loop
    vertex 0.000292 -0.038548 0.250000
    vertex 0.001501 -0.037115 -0.250000
    vertex 0.000292 -0.038548 -0.250000
  endloop
endfacet
facet normal -0.000651 0.000551 0.000000
  outer loop
    vertex 0.001501 -0.037115 0.250000
    vertex 0.002602 -0.035813 0.250000
    vertex 0.002602 -0.035813 -0.250000
  endloop
endfacet
facet normal -0.000651 0.000551 0.000000
  outer loop
    vertex 0.001501 -0.037115 0.250000
    vertex 0.002602 -0.035813 -0.250000
    vertex 0.001501 -0.037115 -0.250000
  endloop
endfacet
facet normal -0.000593 0.000502 0.000000
  outer loop
    vertex 0.002602 -0.035813 0.250000
    vertex 0.003605 -0.034627 0.250000
    vertex 0.003605 -0.034627 -0.250000
  endloop
endfacet
facet normal -0.000593 0.000502 0.000000
  outer loop
    vertex 0.002602 -0.035813 0.250000
    vertex 0.003605 -0.034627 -0.250000
    vertex 0.002602 -0.035813 -0.250000
  endloop
endfacet
facet normal -0.000539 0.000456 0.000000
  outer loop
    vertex 0.003605 -0.034627 0.250000
    vertex 0.004517 -0.033549 0.250000
    vertex 0.004517 -0.033549 -0.250000
  endloop
endfacet
facet normal -0.000539 0.000456 0.000000
  outer loop
    vertex 0.003605 -0.034627 0.250000
    vertex 0.004517 -0.033549 -0.250000
    vertex 0.003605 -0.034627 -0.250000
  endloop
endfacet
facet normal -0.000491 0.000415 0.000000
  outer loop
    vertex 0.004517 -0.033549 0.250000
    vertex 0.005347 -0.032567 0.250000
    vertex 0.005347 -0.032567 -0.250000
  endloop
endfacet
facet normal -0.000491 0.000415 0.000000
  outer loop
    vertex 0.004517 -0.033549 0.250000
    vertex 0.005347 -0.032567 -0.250000
    vertex 0.004517 -0.033549 -0.250000
  endloop
endfacet
facet normal -0.000447 0.000378 0.000000
  outer loop
    vertex 0.005347 -0.032567 0.250000
    vertex 0.006103 -0.031672 0.250000
    vertex 0.006103 -0.031672 -0.250000
  endloop
endfacet
facet normal -0.000447 0.000378 0.000000
  outer loop
    vertex 0.005347 -0.032567 0.250000
    vertex 0.006103 -0.031672 -0.250000
    vertex 0.005347 -0.032567 -0.250000
  endloop
endfacet
facet normal -0.000407 0.000343 0.000000
  outer loop
    vertex 0.006103 -0.031672 0.250000
    vertex 0.006790 -0.030858 0.250000
    vertex 0.006790 -0.030858 -0.250000
  endloop
endfacet
facet normal -0.000407 0.000343 0.000000
  outer loop
    vertex 0.006103 -0.031672 0.250000
    vertex 0.006790 -0.030858 -0.250000
    vertex 0.006103 -0.031672 -0.250000
  endloop
endfacet
facet normal -0.000371 0.000312 0.000000
  outer loop
    vertex 0.006790 -0.030858 0.250000
    vertex 0.007415 -0.030116 0.250000
    vertex 0.007415 -0.030116 -0.250000
  endloop
endfacet
facet normal -0.000371 0.000312 0.000000
  outer loop
    vertex 0.006790 -0.030858 0.250000
    vertex 0.007415 -0.030116 -0.250000
    vertex 0.006790 -0.030858 -0.250000
  endloop
endfacet
facet normal -0.000338 0.000285 0.000000
  outer loop
    vertex 0.007415 -0.030116 0.250000
    vertex 0.007984 -0.029441 0.250000
    vertex 0.007984 -0.029441 -0.250000
  endloop
endfacet
facet normal -0.000338 0.000285 0.000000
  outer loop
    vertex 0.007415 -0.030116 0.250000
    vertex 0.007984 -0.029441 -0.250000
    vertex 0.007415 -0.030116 -0.250000
  endloop
endfacet
facet normal -0.000307 0.000259 0.000000
  outer loop
    vertex 0.007984 -0.029441 0.250000
    vertex 0.008502 -0.028826 0.250000
    vertex 0.008502 -0.028826 -0.250000
  endloop
endfacet
facet normal -0.000307 0.000259 0.000000
  outer loop
    vertex 0.007984 -0.029441 0.250000
    vertex 0.008502 -0.028826 -0.250000
    vertex 0.007984 -0.029441 -0.250000
  endloop
endfacet
facet normal -0.000279 0.000236 0.000000
  outer loop
    vertex 0.008502 -0.028826 0.250000
    vertex 0.008973 -0.028267 0.250000
    vertex 0.008973 -0.028267 -0.250000
  endloop
endfacet
facet normal -0.000279 0.000236 0.000000
  outer loop
    vertex 0.008502 -0.028826 0.250000
    vertex 0.008973 -0.028267 -0.250000
    vertex 0.008502 -0.028826 -0.250000
  endloop
endfacet
facet normal -0.000255 0.000215 0.000000
  outer loop
    vertex 0.008973 -0.028267 0.250000
    vertex 0.009402 -0.027758 0.250000
    vertex 0.009402 -0.027758 -0.250000
  endloop
endfacet
facet normal -0.000255 0.000215 0.000000
  outer loop
    vertex 0.008973 -0.028267 0.250000
    vertex 0.009402 -0.027758 -0.250000
    vertex 0.008973 -0.028267 -0.250000
  endloop
endfacet
facet normal -0.000232 0.000195 0.000000
  outer loop
    vertex 0.009402 -0.027758 0.250000
    vertex 0.009792 -0.027294 0.250000
    vertex 0.009792 -0.027294 -0.250000
  endloop
endfacet
facet normal -0.000232 0.000195 0.000000
  outer loop
    vertex 0.009402 -0.027758 0.250000
    vertex 0.009792 -0.027294 -0.250000
    vertex 0.009402 -0.027758 -0.250000
  endloop
endfacet
facet normal -0.000211 0.000178 0.000000
  outer loop
    vertex 0.009792 -0.027294 0.250000
    vertex 0.010148 -0.026872 0.250000
    vertex 0.010148 -0.026872 -0.250000
  endloop
endfacet
facet normal -0.000211 0.000178 0.000000
  outer loop
    vertex 0.009792 -0.027294 0.250000
    vertex 0.010148 -0.026872 -0.250000
    vertex 0.009792 -0.027294 -0.250000
  endloop
endfacet
facet normal -0.000192 0.000162 0.000000
  outer loop
    vertex 0.010148 -0.026872 0.250000
    vertex 0.010471 -0.026488 0.250000
    vertex 0.010471 -0.026488 -0.250000
  endloop
endfacet
facet normal -0.000192 0.000162 0.000000
  outer loop
    vertex 0.010148 -0.026872 0.250000
    vertex 0.010471 -0.026488 -0.250000
    vertex 0.010148 -0.026872 -0.250000
  endloop
endfacet
endsolid new_slat.stl
