solid new_flap.stl
facet normal 0.000058 -0.000761 0.000000
  outer loop
    vertex 0.303650 -0.020596 0.250000
    vertex 0.302129 -0.020713 0.250000
    vertex 0.302129 -0.020713 -0.250000
  endloop
endfacet
facet normal 0.000058 -0.000761 0.000000
  outer loop
    vertex 0.303650 -0.020596 0.250000
    vertex 0.302129 -0.020713 -0.250000
    vertex 0.303650 -0.020596 -0.250000
  endloop
endfacet
facet normal -0.000021 -0.000050 0.000000
  outer loop
    vertex 0.302129 -0.020713 0.250000
    vertex 0.302029 -0.020670 0.250000
    vertex 0.302029 -0.020670 -0.250000
  endloop
endfacet
facet normal -0.000021 -0.000050 -0.000000
  outer loop
    vertex 0.302129 -0.020713 0.250000
    vertex 0.302029 -0.020670 -0.250000
    vertex 0.302129 -0.020713 -0.250000
  endloop
endfacet
facet normal -0.000011 -0.000053 0.000000
  outer loop
    vertex 0.302029 -0.020670 0.250000
    vertex 0.301923 -0.020648 0.250000
    vertex 0.301923 -0.020648 -0.250000
  endloop
endfacet
facet normal -0.000011 -0.000053 -0.000000
  outer loop
    vertex 0.302029 -0.020670 0.250000
    vertex 0.301923 -0.020648 -0.250000
    vertex 0.302029 -0.020670 -0.250000
  endloop
endfacet
facet normal -0.000016 -0.000055 0.000000
  outer loop
    vertex 0.301923 -0.020648 0.250000
    vertex 0.301813 -0.020615 0.250000
    vertex 0.301813 -0.020615 -0.250000
  endloop
endfacet
facet normal -0.000016 -0.000055 -0.000000
  outer loop
    vertex 0.301923 -0.020648 0.250000
    vertex 0.301813 -0.020615 -0.250000
    vertex 0.301923 -0.020648 -0.250000
  endloop
endfacet
facet normal -0.000024 -0.000057 0.000000
  outer loop
    vertex 0.301813 -0.020615 0.250000
    vertex 0.301698 -0.020567 0.250000
    vertex 0.301698 -0.020567 -0.250000
  endloop
endfacet
facet normal -0.000024 -0.000057 -0.000000
  outer loop
    vertex 0.301813 -0.020615 0.250000
    vertex 0.301698 -0.020567 -0.250000
    vertex 0.301813 -0.020615 -0.250000
  endloop
endfacet
facet normal -0.000028 -0.000061 0.000000
  outer loop
    vertex 0.301698 -0.020567 0.250000
    vertex 0.301576 -0.020512 0.250000
    vertex 0.301576 -0.020512 -0.250000
  endloop
endfacet
facet normal -0.000028 -0.000061 -0.000000
  outer loop
    vertex 0.301698 -0.020567 0.250000
    vertex 0.301576 -0.020512 -0.250000
    vertex 0.301698 -0.020567 -0.250000
  endloop
endfacet
facet normal -0.000027 -0.000067 0.000000
  outer loop
    vertex 0.301576 -0.020512 0.250000
    vertex 0.301442 -0.020457 0.250000
    vertex 0.301442 -0.020457 -0.250000
  endloop
endfacet
facet normal -0.000027 -0.000067 -0.000000
  outer loop
    vertex 0.301576 -0.020512 0.250000
    vertex 0.301442 -0.020457 -0.250000
    vertex 0.301576 -0.020512 -0.250000
  endloop
endfacet
facet normal -0.000030 -0.000071 0.000000
  outer loop
    vertex 0.301442 -0.020457 0.250000
    vertex 0.301300 -0.020397 0.250000
    vertex 0.301300 -0.020397 -0.250000
  endloop
endfacet
facet normal -0.000030 -0.000071 -0.000000
  outer loop
    vertex 0.301442 -0.020457 0.250000
    vertex 0.301300 -0.020397 -0.250000
    vertex 0.301442 -0.020457 -0.250000
  endloop
endfacet
facet normal -0.000034 -0.000076 0.000000
  outer loop
    vertex 0.301300 -0.020397 0.250000
    vertex 0.301148 -0.020328 0.250000
    vertex 0.301148 -0.020328 -0.250000
  endloop
endfacet
facet normal -0.000034 -0.000076 -0.000000
  outer loop
    vertex 0.301300 -0.020397 0.250000
    vertex 0.301148 -0.020328 -0.250000
    vertex 0.301300 -0.020397 -0.250000
  endloop
endfacet
facet normal -0.000037 -0.000082 0.000000
  outer loop
    vertex 0.301148 -0.020328 0.250000
    vertex 0.300985 -0.020254 0.250000
    vertex 0.300985 -0.020254 -0.250000
  endloop
endfacet
facet normal -0.000037 -0.000082 -0.000000
  outer loop
    vertex 0.301148 -0.020328 0.250000
    vertex 0.300985 -0.020254 -0.250000
    vertex 0.301148 -0.020328 -0.250000
  endloop
endfacet
facet normal -0.000040 -0.000088 0.000000
  outer loop
    vertex 0.300985 -0.020254 0.250000
    vertex 0.300810 -0.020173 0.250000
    vertex 0.300810 -0.020173 -0.250000
  endloop
endfacet
facet normal -0.000040 -0.000088 -0.000000
  outer loop
    vertex 0.300985 -0.020254 0.250000
    vertex 0.300810 -0.020173 -0.250000
    vertex 0.300985 -0.020254 -0.250000
  endloop
endfacet
facet normal -0.000043 -0.000094 0.000000
  outer loop
    vertex 0.300810 -0.020173 0.250000
    vertex 0.300621 -0.020088 0.250000
    vertex 0.300621 -0.020088 -0.250000
  endloop
endfacet
facet normal -0.000043 -0.000094 -0.000000
  outer loop
    vertex 0.300810 -0.020173 0.250000
    vertex 0.300621 -0.020088 -0.250000
    vertex 0.300810 -0.020173 -0.250000
  endloop
endfacet
facet normal -0.000046 -0.000102 0.000000
  outer loop
    vertex 0.300621 -0.020088 0.250000
    vertex 0.300418 -0.019997 0.250000
    vertex 0.300418 -0.019997 -0.250000
  endloop
endfacet
facet normal -0.000046 -0.000102 -0.000000
  outer loop
    vertex 0.300621 -0.020088 0.250000
    vertex 0.300418 -0.019997 -0.250000
    vertex 0.300621 -0.020088 -0.250000
  endloop
endfacet
facet normal -0.000049 -0.000109 0.000000
  outer loop
    vertex 0.300418 -0.019997 0.250000
    vertex 0.300199 -0.019899 0.250000
    vertex 0.300199 -0.019899 -0.250000
  endloop
endfacet
facet normal -0.000049 -0.000109 -0.000000
  outer loop
    vertex 0.300418 -0.019997 0.250000
    vertex 0.300199 -0.019899 -0.250000
    vertex 0.300418 -0.019997 -0.250000
  endloop
endfacet
facet normal -0.000052 -0.000118 0.000000
  outer loop
    vertex 0.300199 -0.019899 0.250000
    vertex 0.299963 -0.019794 0.250000
    vertex 0.299963 -0.019794 -0.250000
  endloop
endfacet
facet normal -0.000052 -0.000118 -0.000000
  outer loop
    vertex 0.300199 -0.019899 0.250000
    vertex 0.299963 -0.019794 -0.250000
    vertex 0.300199 -0.019899 -0.250000
  endloop
endfacet
facet normal -0.000056 -0.000127 0.000000
  outer loop
    vertex 0.299963 -0.019794 0.250000
    vertex 0.299709 -0.019683 0.250000
    vertex 0.299709 -0.019683 -0.250000
  endloop
endfacet
facet normal -0.000056 -0.000127 -0.000000
  outer loop
    vertex 0.299963 -0.019794 0.250000
    vertex 0.299709 -0.019683 -0.250000
    vertex 0.299963 -0.019794 -0.250000
  endloop
endfacet
facet normal -0.000060 -0.000137 0.000000
  outer loop
    vertex 0.299709 -0.019683 0.250000
    vertex 0.299436 -0.019563 0.250000
    vertex 0.299436 -0.019563 -0.250000
  endloop
endfacet
facet normal -0.000060 -0.000137 -0.000000
  outer loop
    vertex 0.299709 -0.019683 0.250000
    vertex 0.299436 -0.019563 -0.250000
    vertex 0.299709 -0.019683 -0.250000
  endloop
endfacet
facet normal -0.000064 -0.000147 0.000000
  outer loop
    vertex 0.299436 -0.019563 0.250000
    vertex 0.299142 -0.019435 0.250000
    vertex 0.299142 -0.019435 -0.250000
  endloop
endfacet
facet normal -0.000064 -0.000147 -0.000000
  outer loop
    vertex 0.299436 -0.019563 0.250000
    vertex 0.299142 -0.019435 -0.250000
    vertex 0.299436 -0.019563 -0.250000
  endloop
endfacet
facet normal -0.000068 -0.000159 0.000000
  outer loop
    vertex 0.299142 -0.019435 0.250000
    vertex 0.298825 -0.019300 0.250000
    vertex 0.298825 -0.019300 -0.250000
  endloop
endfacet
facet normal -0.000068 -0.000159 -0.000000
  outer loop
    vertex 0.299142 -0.019435 0.250000
    vertex 0.298825 -0.019300 -0.250000
    vertex 0.299142 -0.019435 -0.250000
  endloop
endfacet
facet normal -0.000072 -0.000171 0.000000
  outer loop
    vertex 0.298825 -0.019300 0.250000
    vertex 0.298483 -0.019155 0.250000
    vertex 0.298483 -0.019155 -0.250000
  endloop
endfacet
facet normal -0.000072 -0.000171 -0.000000
  outer loop
    vertex 0.298825 -0.019300 0.250000
    vertex 0.298483 -0.019155 -0.250000
    vertex 0.298825 -0.019300 -0.250000
  endloop
endfacet
facet normal -0.000077 -0.000184 0.000000
  outer loop
    vertex 0.298483 -0.019155 0.250000
    vertex 0.298115 -0.019001 0.250000
    vertex 0.298115 -0.019001 -0.250000
  endloop
endfacet
facet normal -0.000077 -0.000184 -0.000000
  outer loop
    vertex 0.298483 -0.019155 0.250000
    vertex 0.298115 -0.019001 -0.250000
    vertex 0.298483 -0.019155 -0.250000
  endloop
endfacet
facet normal -0.000082 -0.000198 0.000000
  outer loop
    vertex 0.298115 -0.019001 0.250000
    vertex 0.297718 -0.018837 0.250000
    vertex 0.297718 -0.018837 -0.250000
  endloop
endfacet
facet normal -0.000082 -0.000198 -0.000000
  outer loop
    vertex 0.298115 -0.019001 0.250000
    vertex 0.297718 -0.018837 -0.250000
    vertex 0.298115 -0.019001 -0.250000
  endloop
endfacet
facet normal -0.000087 -0.000214 0.000000
  outer loop
    vertex 0.297718 -0.018837 0.250000
    vertex 0.297290 -0.018664 0.250000
    vertex 0.297290 -0.018664 -0.250000
  endloop
endfacet
facet normal -0.000087 -0.000214 -0.000000
  outer loop
    vertex 0.297718 -0.018837 0.250000
    vertex 0.297290 -0.018664 -0.250000
    vertex 0.297718 -0.018837 -0.250000
  endloop
endfacet
facet normal -0.000092 -0.000231 0.000000
  outer loop
    vertex 0.297290 -0.018664 0.250000
    vertex 0.296829 -0.018480 0.250000
    vertex 0.296829 -0.018480 -0.250000
  endloop
endfacet
facet normal -0.000092 -0.000231 -0.000000
  outer loop
    vertex 0.297290 -0.018664 0.250000
    vertex 0.296829 -0.018480 -0.250000
    vertex 0.297290 -0.018664 -0.250000
  endloop
endfacet
facet normal -0.000097 -0.000249 0.000000
  outer loop
    vertex 0.296829 -0.018480 0.250000
    vertex 0.296332 -0.018285 0.250000
    vertex 0.296332 -0.018285 -0.250000
  endloop
endfacet
facet normal -0.000097 -0.000249 -0.000000
  outer loop
    vertex 0.296829 -0.018480 0.250000
    vertex 0.296332 -0.018285 -0.250000
    vertex 0.296829 -0.018480 -0.250000
  endloop
endfacet
facet normal -0.000104 -0.000268 0.000000
  outer loop
    vertex 0.296332 -0.018285 0.250000
    vertex 0.295796 -0.018078 0.250000
    vertex 0.295796 -0.018078 -0.250000
  endloop
endfacet
facet normal -0.000104 -0.000268 -0.000000
  outer loop
    vertex 0.296332 -0.018285 0.250000
    vertex 0.295796 -0.018078 -0.250000
    vertex 0.296332 -0.018285 -0.250000
  endloop
endfacet
facet normal -0.000110 -0.000289 0.000000
  outer loop
    vertex 0.295796 -0.018078 0.250000
    vertex 0.295219 -0.017858 0.250000
    vertex 0.295219 -0.017858 -0.250000
  endloop
endfacet
facet normal -0.000110 -0.000289 -0.000000
  outer loop
    vertex 0.295796 -0.018078 0.250000
    vertex 0.295219 -0.017858 -0.250000
    vertex 0.295796 -0.018078 -0.250000
  endloop
endfacet
facet normal -0.000117 -0.000311 0.000000
  outer loop
    vertex 0.295219 -0.017858 0.250000
    vertex 0.294598 -0.017624 0.250000
    vertex 0.294598 -0.017624 -0.250000
  endloop
endfacet
facet normal -0.000117 -0.000311 -0.000000
  outer loop
    vertex 0.295219 -0.017858 0.250000
    vertex 0.294598 -0.017624 -0.250000
    vertex 0.295219 -0.017858 -0.250000
  endloop
endfacet
facet normal -0.000124 -0.000335 0.000000
  outer loop
    vertex 0.294598 -0.017624 0.250000
    vertex 0.293928 -0.017376 0.250000
    vertex 0.293928 -0.017376 -0.250000
  endloop
endfacet
facet normal -0.000124 -0.000335 -0.000000
  outer loop
    vertex 0.294598 -0.017624 0.250000
    vertex 0.293928 -0.017376 -0.250000
    vertex 0.294598 -0.017624 -0.250000
  endloop
endfacet
facet normal -0.000131 -0.000361 0.000000
  outer loop
    vertex 0.293928 -0.017376 0.250000
    vertex 0.293206 -0.017114 0.250000
    vertex 0.293206 -0.017114 -0.250000
  endloop
endfacet
facet normal -0.000131 -0.000361 -0.000000
  outer loop
    vertex 0.293928 -0.017376 0.250000
    vertex 0.293206 -0.017114 -0.250000
    vertex 0.293928 -0.017376 -0.250000
  endloop
endfacet
facet normal -0.000139 -0.000389 0.000000
  outer loop
    vertex 0.293206 -0.017114 0.250000
    vertex 0.292428 -0.016836 0.250000
    vertex 0.292428 -0.016836 -0.250000
  endloop
endfacet
facet normal -0.000139 -0.000389 -0.000000
  outer loop
    vertex 0.293206 -0.017114 0.250000
    vertex 0.292428 -0.016836 -0.250000
    vertex 0.293206 -0.017114 -0.250000
  endloop
endfacet
facet normal -0.000148 -0.000419 0.000000
  outer loop
    vertex 0.292428 -0.016836 0.250000
    vertex 0.291590 -0.016540 0.250000
    vertex 0.291590 -0.016540 -0.250000
  endloop
endfacet
facet normal -0.000148 -0.000419 -0.000000
  outer loop
    vertex 0.292428 -0.016836 0.250000
    vertex 0.291590 -0.016540 -0.250000
    vertex 0.292428 -0.016836 -0.250000
  endloop
endfacet
facet normal -0.000158 -0.000451 0.000000
  outer loop
    vertex 0.291590 -0.016540 0.250000
    vertex 0.290688 -0.016224 0.250000
    vertex 0.290688 -0.016224 -0.250000
  endloop
endfacet
facet normal -0.000158 -0.000451 -0.000000
  outer loop
    vertex 0.291590 -0.016540 0.250000
    vertex 0.290688 -0.016224 -0.250000
    vertex 0.291590 -0.016540 -0.250000
  endloop
endfacet
facet normal -0.000167 -0.000486 0.000000
  outer loop
    vertex 0.290688 -0.016224 0.250000
    vertex 0.289716 -0.015890 0.250000
    vertex 0.289716 -0.015890 -0.250000
  endloop
endfacet
facet normal -0.000167 -0.000486 -0.000000
  outer loop
    vertex 0.290688 -0.016224 0.250000
    vertex 0.289716 -0.015890 -0.250000
    vertex 0.290688 -0.016224 -0.250000
  endloop
endfacet
facet normal -0.000176 -0.000524 0.000000
  outer loop
    vertex 0.289716 -0.015890 0.250000
    vertex 0.288667 -0.015538 0.250000
    vertex 0.288667 -0.015538 -0.250000
  endloop
endfacet
facet normal -0.000176 -0.000524 -0.000000
  outer loop
    vertex 0.289716 -0.015890 0.250000
    vertex 0.288667 -0.015538 -0.250000
    vertex 0.289716 -0.015890 -0.250000
  endloop
endfacet
facet normal -0.000184 -0.000565 0.000000
  outer loop
    vertex 0.288667 -0.015538 0.250000
    vertex 0.287537 -0.015170 0.250000
    vertex 0.287537 -0.015170 -0.250000
  endloop
endfacet
facet normal -0.000184 -0.000565 -0.000000
  outer loop
    vertex 0.288667 -0.015538 0.250000
    vertex 0.287537 -0.015170 -0.250000
    vertex 0.288667 -0.015538 -0.250000
  endloop
endfacet
facet normal -0.000193 -0.000610 0.000000
  outer loop
    vertex 0.287537 -0.015170 0.250000
    vertex 0.286318 -0.014784 0.250000
    vertex 0.286318 -0.014784 -0.250000
  endloop
endfacet
facet normal -0.000193 -0.000610 -0.000000
  outer loop
    vertex 0.287537 -0.015170 0.250000
    vertex 0.286318 -0.014784 -0.250000
    vertex 0.287537 -0.015170 -0.250000
  endloop
endfacet
facet normal -0.000200 -0.000658 0.000000
  outer loop
    vertex 0.286318 -0.014784 0.250000
    vertex 0.285002 -0.014383 0.250000
    vertex 0.285002 -0.014383 -0.250000
  endloop
endfacet
facet normal -0.000200 -0.000658 -0.000000
  outer loop
    vertex 0.286318 -0.014784 0.250000
    vertex 0.285002 -0.014383 -0.250000
    vertex 0.286318 -0.014784 -0.250000
  endloop
endfacet
facet normal -0.000205 -0.000711 0.000000
  outer loop
    vertex 0.285002 -0.014383 0.250000
    vertex 0.283581 -0.013973 0.250000
    vertex 0.283581 -0.013973 -0.250000
  endloop
endfacet
facet normal -0.000205 -0.000711 -0.000000
  outer loop
    vertex 0.285002 -0.014383 0.250000
    vertex 0.283581 -0.013973 -0.250000
    vertex 0.285002 -0.014383 -0.250000
  endloop
endfacet
facet normal -0.000212 -0.000767 0.000000
  outer loop
    vertex 0.283581 -0.013973 0.250000
    vertex 0.282048 -0.013549 0.250000
    vertex 0.282048 -0.013549 -0.250000
  endloop
endfacet
facet normal -0.000212 -0.000767 -0.000000
  outer loop
    vertex 0.283581 -0.013973 0.250000
    vertex 0.282048 -0.013549 -0.250000
    vertex 0.283581 -0.013973 -0.250000
  endloop
endfacet
facet normal -0.000217 -0.000828 0.000000
  outer loop
    vertex 0.282048 -0.013549 0.250000
    vertex 0.280393 -0.013116 0.250000
    vertex 0.280393 -0.013116 -0.250000
  endloop
endfacet
facet normal -0.000217 -0.000828 -0.000000
  outer loop
    vertex 0.282048 -0.013549 0.250000
    vertex 0.280393 -0.013116 -0.250000
    vertex 0.282048 -0.013549 -0.250000
  endloop
endfacet
facet normal -0.000219 -0.000894 0.000000
  outer loop
    vertex 0.280393 -0.013116 0.250000
    vertex 0.278606 -0.012678 0.250000
    vertex 0.278606 -0.012678 -0.250000
  endloop
endfacet
facet normal -0.000219 -0.000894 -0.000000
  outer loop
    vertex 0.280393 -0.013116 0.250000
    vertex 0.278606 -0.012678 -0.250000
    vertex 0.280393 -0.013116 -0.250000
  endloop
endfacet
facet normal -0.000220 -0.000965 0.000000
  outer loop
    vertex 0.278606 -0.012678 0.250000
    vertex 0.276676 -0.012237 0.250000
    vertex 0.276676 -0.012237 -0.250000
  endloop
endfacet
facet normal -0.000220 -0.000965 -0.000000
  outer loop
    vertex 0.278606 -0.012678 0.250000
    vertex 0.276676 -0.012237 -0.250000
    vertex 0.278606 -0.012678 -0.250000
  endloop
endfacet
facet normal -0.000224 -0.001040 0.000000
  outer loop
    vertex 0.276676 -0.012237 0.250000
    vertex 0.274596 -0.011790 0.250000
    vertex 0.274596 -0.011790 -0.250000
  endloop
endfacet
facet normal -0.000224 -0.001040 -0.000000
  outer loop
    vertex 0.276676 -0.012237 0.250000
    vertex 0.274596 -0.011790 -0.250000
    vertex 0.276676 -0.012237 -0.250000
  endloop
endfacet
facet normal -0.000230 -0.001121 0.000000
  outer loop
    vertex 0.274596 -0.011790 0.250000
    vertex 0.272353 -0.011331 0.250000
    vertex 0.272353 -0.011331 -0.250000
  endloop
endfacet
facet normal -0.000230 -0.001121 -0.000000
  outer loop
    vertex 0.274596 -0.011790 0.250000
    vertex 0.272353 -0.011331 -0.250000
    vertex 0.274596 -0.011790 -0.250000
  endloop
endfacet
facet normal -0.000226 -0.001210 0.000000
  outer loop
    vertex 0.272353 -0.011331 0.250000
    vertex 0.269933 -0.010879 0.250000
    vertex 0.269933 -0.010879 -0.250000
  endloop
endfacet
facet normal -0.000226 -0.001210 -0.000000
  outer loop
    vertex 0.272353 -0.011331 0.250000
    vertex 0.269933 -0.010879 -0.250000
    vertex 0.272353 -0.011331 -0.250000
  endloop
endfacet
facet normal -0.000227 -0.001304 0.000000
  outer loop
    vertex 0.269933 -0.010879 0.250000
    vertex 0.267324 -0.010424 0.250000
    vertex 0.267324 -0.010424 -0.250000
  endloop
endfacet
facet normal -0.000227 -0.001304 -0.000000
  outer loop
    vertex 0.269933 -0.010879 0.250000
    vertex 0.267324 -0.010424 -0.250000
    vertex 0.269933 -0.010879 -0.250000
  endloop
endfacet
facet normal -0.000198 -0.001225 0.000000
  outer loop
    vertex 0.267324 -0.010424 0.250000
    vertex 0.264874 -0.010028 0.250000
    vertex 0.264874 -0.010028 -0.250000
  endloop
endfacet
facet normal -0.000198 -0.001225 -0.000000
  outer loop
    vertex 0.267324 -0.010424 0.250000
    vertex 0.264874 -0.010028 -0.250000
    vertex 0.267324 -0.010424 -0.250000
  endloop
endfacet
facet normal -0.000166 -0.001152 0.000000
  outer loop
    vertex 0.264874 -0.010028 0.250000
    vertex 0.262569 -0.009696 0.250000
    vertex 0.262569 -0.009696 -0.250000
  endloop
endfacet
facet normal -0.000166 -0.001152 -0.000000
  outer loop
    vertex 0.264874 -0.010028 0.250000
    vertex 0.262569 -0.009696 -0.250000
    vertex 0.264874 -0.010028 -0.250000
  endloop
endfacet
facet normal -0.000146 -0.001082 0.000000
  outer loop
    vertex 0.262569 -0.009696 0.250000
    vertex 0.260406 -0.009404 0.250000
    vertex 0.260406 -0.009404 -0.250000
  endloop
endfacet
facet normal -0.000146 -0.001082 -0.000000
  outer loop
    vertex 0.262569 -0.009696 0.250000
    vertex 0.260406 -0.009404 -0.250000
    vertex 0.262569 -0.009696 -0.250000
  endloop
endfacet
facet normal -0.000124 -0.001016 0.000000
  outer loop
    vertex 0.260406 -0.009404 0.250000
    vertex 0.258374 -0.009155 0.250000
    vertex 0.258374 -0.009155 -0.250000
  endloop
endfacet
facet normal -0.000124 -0.001016 -0.000000
  outer loop
    vertex 0.260406 -0.009404 0.250000
    vertex 0.258374 -0.009155 -0.250000
    vertex 0.260406 -0.009404 -0.250000
  endloop
endfacet
facet normal -0.000112 -0.000953 0.000000
  outer loop
    vertex 0.258374 -0.009155 0.250000
    vertex 0.256468 -0.008932 0.250000
    vertex 0.256468 -0.008932 -0.250000
  endloop
endfacet
facet normal -0.000112 -0.000953 -0.000000
  outer loop
    vertex 0.258374 -0.009155 0.250000
    vertex 0.256468 -0.008932 -0.250000
    vertex 0.258374 -0.009155 -0.250000
  endloop
endfacet
facet normal -0.000100 -0.000894 0.000000
  outer loop
    vertex 0.256468 -0.008932 0.250000
    vertex 0.254679 -0.008732 0.250000
    vertex 0.254679 -0.008732 -0.250000
  endloop
endfacet
facet normal -0.000100 -0.000894 -0.000000
  outer loop
    vertex 0.256468 -0.008932 0.250000
    vertex 0.254679 -0.008732 -0.250000
    vertex 0.256468 -0.008932 -0.250000
  endloop
endfacet
facet normal -0.000084 -0.000840 0.000000
  outer loop
    vertex 0.254679 -0.008732 0.250000
    vertex 0.253000 -0.008564 0.250000
    vertex 0.253000 -0.008564 -0.250000
  endloop
endfacet
facet normal -0.000084 -0.000840 -0.000000
  outer loop
    vertex 0.254679 -0.008732 0.250000
    vertex 0.253000 -0.008564 -0.250000
    vertex 0.254679 -0.008732 -0.250000
  endloop
endfacet
facet normal -0.000073 -0.000788 0.000000
  outer loop
    vertex 0.253000 -0.008564 0.250000
    vertex 0.251424 -0.008417 0.250000
    vertex 0.251424 -0.008417 -0.250000
  endloop
endfacet
facet normal -0.000073 -0.000788 -0.000000
  outer loop
    vertex 0.253000 -0.008564 0.250000
    vertex 0.251424 -0.008417 -0.250000
    vertex 0.253000 -0.008564 -0.250000
  endloop
endfacet
facet normal -0.000066 -0.000739 0.000000
  outer loop
    vertex 0.251424 -0.008417 0.250000
    vertex 0.249946 -0.008285 0.250000
    vertex 0.249946 -0.008285 -0.250000
  endloop
endfacet
facet normal -0.000066 -0.000739 -0.000000
  outer loop
    vertex 0.251424 -0.008417 0.250000
    vertex 0.249946 -0.008285 -0.250000
    vertex 0.251424 -0.008417 -0.250000
  endloop
endfacet
facet normal -0.000059 -0.000693 0.000000
  outer loop
    vertex 0.249946 -0.008285 0.250000
    vertex 0.248560 -0.008166 0.250000
    vertex 0.248560 -0.008166 -0.250000
  endloop
endfacet
facet normal -0.000059 -0.000693 -0.000000
  outer loop
    vertex 0.249946 -0.008285 0.250000
    vertex 0.248560 -0.008166 -0.250000
    vertex 0.249946 -0.008285 -0.250000
  endloop
endfacet
facet normal -0.000050 -0.000650 0.000000
  outer loop
    vertex 0.248560 -0.008166 0.250000
    vertex 0.247259 -0.008067 0.250000
    vertex 0.247259 -0.008067 -0.250000
  endloop
endfacet
facet normal -0.000050 -0.000650 -0.000000
  outer loop
    vertex 0.248560 -0.008166 0.250000
    vertex 0.247259 -0.008067 -0.250000
    vertex 0.248560 -0.008166 -0.250000
  endloop
endfacet
facet normal -0.000044 -0.000610 0.000000
  outer loop
    vertex 0.247259 -0.008067 0.250000
    vertex 0.246039 -0.007979 0.250000
    vertex 0.246039 -0.007979 -0.250000
  endloop
endfacet
facet normal -0.000044 -0.000610 -0.000000
  outer loop
    vertex 0.247259 -0.008067 0.250000
    vertex 0.246039 -0.007979 -0.250000
    vertex 0.247259 -0.008067 -0.250000
  endloop
endfacet
facet normal -0.000040 -0.000572 0.000000
  outer loop
    vertex 0.246039 -0.007979 0.250000
    vertex 0.244894 -0.007899 0.250000
    vertex 0.244894 -0.007899 -0.250000
  endloop
endfacet
facet normal -0.000040 -0.000572 -0.000000
  outer loop
    vertex 0.246039 -0.007979 0.250000
    vertex 0.244894 -0.007899 -0.250000
    vertex 0.246039 -0.007979 -0.250000
  endloop
endfacet
facet normal -0.000036 -0.000537 0.000000
  outer loop
    vertex 0.244894 -0.007899 0.250000
    vertex 0.243821 -0.007828 0.250000
    vertex 0.243821 -0.007828 -0.250000
  endloop
endfacet
facet normal -0.000036 -0.000537 -0.000000
  outer loop
    vertex 0.244894 -0.007899 0.250000
    vertex 0.243821 -0.007828 -0.250000
    vertex 0.244894 -0.007899 -0.250000
  endloop
endfacet
facet normal -0.000032 -0.000503 0.000000
  outer loop
    vertex 0.243821 -0.007828 0.250000
    vertex 0.242814 -0.007764 0.250000
    vertex 0.242814 -0.007764 -0.250000
  endloop
endfacet
facet normal -0.000032 -0.000503 -0.000000
  outer loop
    vertex 0.243821 -0.007828 0.250000
    vertex 0.242814 -0.007764 -0.250000
    vertex 0.243821 -0.007828 -0.250000
  endloop
endfacet
facet normal -0.000027 -0.000472 0.000000
  outer loop
    vertex 0.242814 -0.007764 0.250000
    vertex 0.241870 -0.007710 0.250000
    vertex 0.241870 -0.007710 -0.250000
  endloop
endfacet
facet normal -0.000027 -0.000472 -0.000000
  outer loop
    vertex 0.242814 -0.007764 0.250000
    vertex 0.241870 -0.007710 -0.250000
    vertex 0.242814 -0.007764 -0.250000
  endloop
endfacet
facet normal -0.000024 -0.000443 0.000000
  outer loop
    vertex 0.241870 -0.007710 0.250000
    vertex 0.240985 -0.007661 0.250000
    vertex 0.240985 -0.007661 -0.250000
  endloop
endfacet
facet normal -0.000024 -0.000443 -0.000000
  outer loop
    vertex 0.241870 -0.007710 0.250000
    vertex 0.240985 -0.007661 -0.250000
    vertex 0.241870 -0.007710 -0.250000
  endloop
endfacet
facet normal -0.000024 -0.000415 0.000000
  outer loop
    vertex 0.240985 -0.007661 0.250000
    vertex 0.240155 -0.007614 0.250000
    vertex 0.240155 -0.007614 -0.250000
  endloop
endfacet
facet normal -0.000024 -0.000415 -0.000000
  outer loop
    vertex 0.240985 -0.007661 0.250000
    vertex 0.240155 -0.007614 -0.250000
    vertex 0.240985 -0.007661 -0.250000
  endloop
endfacet
facet normal -0.000023 -0.000389 0.000000
  outer loop
    vertex 0.240155 -0.007614 0.250000
    vertex 0.239376 -0.007567 0.250000
    vertex 0.239376 -0.007567 -0.250000
  endloop
endfacet
facet normal -0.000023 -0.000389 -0.000000
  outer loop
    vertex 0.240155 -0.007614 0.250000
    vertex 0.239376 -0.007567 -0.250000
    vertex 0.240155 -0.007614 -0.250000
  endloop
endfacet
facet normal -0.000025 -0.000365 0.000000
  outer loop
    vertex 0.239376 -0.007567 0.250000
    vertex 0.238647 -0.007517 0.250000
    vertex 0.238647 -0.007517 -0.250000
  endloop
endfacet
facet normal -0.000025 -0.000365 -0.000000
  outer loop
    vertex 0.239376 -0.007567 0.250000
    vertex 0.238647 -0.007517 -0.250000
    vertex 0.239376 -0.007567 -0.250000
  endloop
endfacet
facet normal -0.000026 -0.000342 0.000000
  outer loop
    vertex 0.238647 -0.007517 0.250000
    vertex 0.237963 -0.007466 0.250000
    vertex 0.237963 -0.007466 -0.250000
  endloop
endfacet
facet normal -0.000026 -0.000342 -0.000000
  outer loop
    vertex 0.238647 -0.007517 0.250000
    vertex 0.237963 -0.007466 -0.250000
    vertex 0.238647 -0.007517 -0.250000
  endloop
endfacet
facet normal -0.000030 -0.000320 0.000000
  outer loop
    vertex 0.237963 -0.007466 0.250000
    vertex 0.237323 -0.007406 0.250000
    vertex 0.237323 -0.007406 -0.250000
  endloop
endfacet
facet normal -0.000030 -0.000320 -0.000000
  outer loop
    vertex 0.237963 -0.007466 0.250000
    vertex 0.237323 -0.007406 -0.250000
    vertex 0.237963 -0.007466 -0.250000
  endloop
endfacet
facet normal -0.000037 -0.000299 0.000000
  outer loop
    vertex 0.237323 -0.007406 0.250000
    vertex 0.236725 -0.007332 0.250000
    vertex 0.236725 -0.007332 -0.250000
  endloop
endfacet
facet normal -0.000037 -0.000299 -0.000000
  outer loop
    vertex 0.237323 -0.007406 0.250000
    vertex 0.236725 -0.007332 -0.250000
    vertex 0.237323 -0.007406 -0.250000
  endloop
endfacet
facet normal -0.000039 -0.000280 0.000000
  outer loop
    vertex 0.236725 -0.007332 0.250000
    vertex 0.236165 -0.007255 0.250000
    vertex 0.236165 -0.007255 -0.250000
  endloop
endfacet
facet normal -0.000039 -0.000280 -0.000000
  outer loop
    vertex 0.236725 -0.007332 0.250000
    vertex 0.236165 -0.007255 -0.250000
    vertex 0.236725 -0.007332 -0.250000
  endloop
endfacet
facet normal -0.000051 -0.000260 0.000000
  outer loop
    vertex 0.236165 -0.007255 0.250000
    vertex 0.235645 -0.007153 0.250000
    vertex 0.235645 -0.007153 -0.250000
  endloop
endfacet
facet normal -0.000051 -0.000260 -0.000000
  outer loop
    vertex 0.236165 -0.007255 0.250000
    vertex 0.235645 -0.007153 -0.250000
    vertex 0.236165 -0.007255 -0.250000
  endloop
endfacet
facet normal -0.000060 -0.000241 0.000000
  outer loop
    vertex 0.235645 -0.007153 0.250000
    vertex 0.235163 -0.007033 0.250000
    vertex 0.235163 -0.007033 -0.250000
  endloop
endfacet
facet normal -0.000060 -0.000241 -0.000000
  outer loop
    vertex 0.235645 -0.007153 0.250000
    vertex 0.235163 -0.007033 -0.250000
    vertex 0.235645 -0.007153 -0.250000
  endloop
endfacet
facet normal -0.000065 -0.000224 0.000000
  outer loop
    vertex 0.235163 -0.007033 0.250000
    vertex 0.234715 -0.006902 0.250000
    vertex 0.234715 -0.006902 -0.250000
  endloop
endfacet
facet normal -0.000065 -0.000224 -0.000000
  outer loop
    vertex 0.235163 -0.007033 0.250000
    vertex 0.234715 -0.006902 -0.250000
    vertex 0.235163 -0.007033 -0.250000
  endloop
endfacet
facet normal -0.000067 -0.000208 0.000000
  outer loop
    vertex 0.234715 -0.006902 0.250000
    vertex 0.234299 -0.006768 0.250000
    vertex 0.234299 -0.006768 -0.250000
  endloop
endfacet
facet normal -0.000067 -0.000208 -0.000000
  outer loop
    vertex 0.234715 -0.006902 0.250000
    vertex 0.234299 -0.006768 -0.250000
    vertex 0.234715 -0.006902 -0.250000
  endloop
endfacet
facet normal -0.000075 -0.000190 0.000000
  outer loop
    vertex 0.234299 -0.006768 0.250000
    vertex 0.233918 -0.006617 0.250000
    vertex 0.233918 -0.006617 -0.250000
  endloop
endfacet
facet normal -0.000075 -0.000190 -0.000000
  outer loop
    vertex 0.234299 -0.006768 0.250000
    vertex 0.233918 -0.006617 -0.250000
    vertex 0.234299 -0.006768 -0.250000
  endloop
endfacet
facet normal -0.000079 -0.000175 0.000000
  outer loop
    vertex 0.233918 -0.006617 0.250000
    vertex 0.233568 -0.006459 0.250000
    vertex 0.233568 -0.006459 -0.250000
  endloop
endfacet
facet normal -0.000079 -0.000175 -0.000000
  outer loop
    vertex 0.233918 -0.006617 0.250000
    vertex 0.233568 -0.006459 -0.250000
    vertex 0.233918 -0.006617 -0.250000
  endloop
endfacet
facet normal -0.000080 -0.000161 0.000000
  outer loop
    vertex 0.233568 -0.006459 0.250000
    vertex 0.233246 -0.006298 0.250000
    vertex 0.233246 -0.006298 -0.250000
  endloop
endfacet
facet normal -0.000080 -0.000161 -0.000000
  outer loop
    vertex 0.233568 -0.006459 0.250000
    vertex 0.233246 -0.006298 -0.250000
    vertex 0.233568 -0.006459 -0.250000
  endloop
endfacet
facet normal -0.000081 -0.000148 0.000000
  outer loop
    vertex 0.233246 -0.006298 0.250000
    vertex 0.232949 -0.006137 0.250000
    vertex 0.232949 -0.006137 -0.250000
  endloop
endfacet
facet normal -0.000081 -0.000148 -0.000000
  outer loop
    vertex 0.233246 -0.006298 0.250000
    vertex 0.232949 -0.006137 -0.250000
    vertex 0.233246 -0.006298 -0.250000
  endloop
endfacet
facet normal -0.000080 -0.000136 0.000000
  outer loop
    vertex 0.232949 -0.006137 0.250000
    vertex 0.232676 -0.005976 0.250000
    vertex 0.232676 -0.005976 -0.250000
  endloop
endfacet
facet normal -0.000080 -0.000136 -0.000000
  outer loop
    vertex 0.232949 -0.006137 0.250000
    vertex 0.232676 -0.005976 -0.250000
    vertex 0.232949 -0.006137 -0.250000
  endloop
endfacet
facet normal -0.000080 -0.000125 0.000000
  outer loop
    vertex 0.232676 -0.005976 0.250000
    vertex 0.232425 -0.005816 0.250000
    vertex 0.232425 -0.005816 -0.250000
  endloop
endfacet
facet normal -0.000080 -0.000125 -0.000000
  outer loop
    vertex 0.232676 -0.005976 0.250000
    vertex 0.232425 -0.005816 -0.250000
    vertex 0.232676 -0.005976 -0.250000
  endloop
endfacet
facet normal -0.000078 -0.000115 0.000000
  outer loop
    vertex 0.232425 -0.005816 0.250000
    vertex 0.232194 -0.005661 0.250000
    vertex 0.232194 -0.005661 -0.250000
  endloop
endfacet
facet normal -0.000078 -0.000115 -0.000000
  outer loop
    vertex 0.232425 -0.005816 0.250000
    vertex 0.232194 -0.005661 -0.250000
    vertex 0.232425 -0.005816 -0.250000
  endloop
endfacet
facet normal -0.000075 -0.000107 0.000000
  outer loop
    vertex 0.232194 -0.005661 0.250000
    vertex 0.231981 -0.005510 0.250000
    vertex 0.231981 -0.005510 -0.250000
  endloop
endfacet
facet normal -0.000075 -0.000107 -0.000000
  outer loop
    vertex 0.232194 -0.005661 0.250000
    vertex 0.231981 -0.005510 -0.250000
    vertex 0.232194 -0.005661 -0.250000
  endloop
endfacet
facet normal -0.000073 -0.000098 0.000000
  outer loop
    vertex 0.231981 -0.005510 0.250000
    vertex 0.231785 -0.005363 0.250000
    vertex 0.231785 -0.005363 -0.250000
  endloop
endfacet
facet normal -0.000073 -0.000098 -0.000000
  outer loop
    vertex 0.231981 -0.005510 0.250000
    vertex 0.231785 -0.005363 -0.250000
    vertex 0.231981 -0.005510 -0.250000
  endloop
endfacet
facet normal -0.000071 -0.000090 0.000000
  outer loop
    vertex 0.231785 -0.005363 0.250000
    vertex 0.231605 -0.005221 0.250000
    vertex 0.231605 -0.005221 -0.250000
  endloop
endfacet
facet normal -0.000071 -0.000090 -0.000000
  outer loop
    vertex 0.231785 -0.005363 0.250000
    vertex 0.231605 -0.005221 -0.250000
    vertex 0.231785 -0.005363 -0.250000
  endloop
endfacet
facet normal -0.000069 -0.000083 0.000000
  outer loop
    vertex 0.231605 -0.005221 0.250000
    vertex 0.231439 -0.005084 0.250000
    vertex 0.231439 -0.005084 -0.250000
  endloop
endfacet
facet normal -0.000069 -0.000083 -0.000000
  outer loop
    vertex 0.231605 -0.005221 0.250000
    vertex 0.231439 -0.005084 -0.250000
    vertex 0.231605 -0.005221 -0.250000
  endloop
endfacet
facet normal -0.000070 -0.000082 0.000000
  outer loop
    vertex 0.231439 -0.005084 0.250000
    vertex 0.231275 -0.004943 0.250000
    vertex 0.231275 -0.004943 -0.250000
  endloop
endfacet
facet normal -0.000070 -0.000082 -0.000000
  outer loop
    vertex 0.231439 -0.005084 0.250000
    vertex 0.231275 -0.004943 -0.250000
    vertex 0.231439 -0.005084 -0.250000
  endloop
endfacet
facet normal -0.000073 -0.000081 0.000000
  outer loop
    vertex 0.231275 -0.004943 0.250000
    vertex 0.231113 -0.004797 0.250000
    vertex 0.231113 -0.004797 -0.250000
  endloop
endfacet
facet normal -0.000073 -0.000081 -0.000000
  outer loop
    vertex 0.231275 -0.004943 0.250000
    vertex 0.231113 -0.004797 -0.250000
    vertex 0.231275 -0.004943 -0.250000
  endloop
endfacet
facet normal -0.000077 -0.000081 0.000000
  outer loop
    vertex 0.231113 -0.004797 0.250000
    vertex 0.230951 -0.004643 0.250000
    vertex 0.230951 -0.004643 -0.250000
  endloop
endfacet
facet normal -0.000077 -0.000081 -0.000000
  outer loop
    vertex 0.231113 -0.004797 0.250000
    vertex 0.230951 -0.004643 -0.250000
    vertex 0.231113 -0.004797 -0.250000
  endloop
endfacet
facet normal -0.000081 -0.000080 0.000000
  outer loop
    vertex 0.230951 -0.004643 0.250000
    vertex 0.230791 -0.004481 0.250000
    vertex 0.230791 -0.004481 -0.250000
  endloop
endfacet
facet normal -0.000081 -0.000080 -0.000000
  outer loop
    vertex 0.230951 -0.004643 0.250000
    vertex 0.230791 -0.004481 -0.250000
    vertex 0.230951 -0.004643 -0.250000
  endloop
endfacet
facet normal -0.000085 -0.000078 0.000000
  outer loop
    vertex 0.230791 -0.004481 0.250000
    vertex 0.230636 -0.004311 0.250000
    vertex 0.230636 -0.004311 -0.250000
  endloop
endfacet
facet normal -0.000085 -0.000078 -0.000000
  outer loop
    vertex 0.230791 -0.004481 0.250000
    vertex 0.230636 -0.004311 -0.250000
    vertex 0.230791 -0.004481 -0.250000
  endloop
endfacet
facet normal -0.000090 -0.000076 0.000000
  outer loop
    vertex 0.230636 -0.004311 0.250000
    vertex 0.230484 -0.004132 0.250000
    vertex 0.230484 -0.004132 -0.250000
  endloop
endfacet
facet normal -0.000090 -0.000076 -0.000000
  outer loop
    vertex 0.230636 -0.004311 0.250000
    vertex 0.230484 -0.004132 -0.250000
    vertex 0.230636 -0.004311 -0.250000
  endloop
endfacet
facet normal -0.000094 -0.000074 0.000000
  outer loop
    vertex 0.230484 -0.004132 0.250000
    vertex 0.230337 -0.003943 0.250000
    vertex 0.230337 -0.003943 -0.250000
  endloop
endfacet
facet normal -0.000094 -0.000074 -0.000000
  outer loop
    vertex 0.230484 -0.004132 0.250000
    vertex 0.230337 -0.003943 -0.250000
    vertex 0.230484 -0.004132 -0.250000
  endloop
endfacet
facet normal -0.000100 -0.000069 0.000000
  outer loop
    vertex 0.230337 -0.003943 0.250000
    vertex 0.230198 -0.003744 0.250000
    vertex 0.230198 -0.003744 -0.250000
  endloop
endfacet
facet normal -0.000100 -0.000069 -0.000000
  outer loop
    vertex 0.230337 -0.003943 0.250000
    vertex 0.230198 -0.003744 -0.250000
    vertex 0.230337 -0.003943 -0.250000
  endloop
endfacet
facet normal -0.000105 -0.000065 0.000000
  outer loop
    vertex 0.230198 -0.003744 0.250000
    vertex 0.230067 -0.003533 0.250000
    vertex 0.230067 -0.003533 -0.250000
  endloop
endfacet
facet normal -0.000105 -0.000065 -0.000000
  outer loop
    vertex 0.230198 -0.003744 0.250000
    vertex 0.230067 -0.003533 -0.250000
    vertex 0.230198 -0.003744 -0.250000
  endloop
endfacet
facet normal -0.000111 -0.000060 0.000000
  outer loop
    vertex 0.230067 -0.003533 0.250000
    vertex 0.229946 -0.003311 0.250000
    vertex 0.229946 -0.003311 -0.250000
  endloop
endfacet
facet normal -0.000111 -0.000060 -0.000000
  outer loop
    vertex 0.230067 -0.003533 0.250000
    vertex 0.229946 -0.003311 -0.250000
    vertex 0.230067 -0.003533 -0.250000
  endloop
endfacet
facet normal -0.000117 -0.000053 0.000000
  outer loop
    vertex 0.229946 -0.003311 0.250000
    vertex 0.229841 -0.003078 0.250000
    vertex 0.229841 -0.003078 -0.250000
  endloop
endfacet
facet normal -0.000117 -0.000053 -0.000000
  outer loop
    vertex 0.229946 -0.003311 0.250000
    vertex 0.229841 -0.003078 -0.250000
    vertex 0.229946 -0.003311 -0.250000
  endloop
endfacet
facet normal -0.000118 -0.000045 0.000000
  outer loop
    vertex 0.229841 -0.003078 0.250000
    vertex 0.229752 -0.002841 0.250000
    vertex 0.229752 -0.002841 -0.250000
  endloop
endfacet
facet normal -0.000118 -0.000045 -0.000000
  outer loop
    vertex 0.229841 -0.003078 0.250000
    vertex 0.229752 -0.002841 -0.250000
    vertex 0.229841 -0.003078 -0.250000
  endloop
endfacet
facet normal -0.000120 -0.000033 0.000000
  outer loop
    vertex 0.229752 -0.002841 0.250000
    vertex 0.229686 -0.002602 0.250000
    vertex 0.229686 -0.002602 -0.250000
  endloop
endfacet
facet normal -0.000120 -0.000033 -0.000000
  outer loop
    vertex 0.229752 -0.002841 0.250000
    vertex 0.229686 -0.002602 -0.250000
    vertex 0.229752 -0.002841 -0.250000
  endloop
endfacet
facet normal -0.000119 -0.000028 0.000000
  outer loop
    vertex 0.229686 -0.002602 0.250000
    vertex 0.229631 -0.002364 0.250000
    vertex 0.229631 -0.002364 -0.250000
  endloop
endfacet
facet normal -0.000119 -0.000028 -0.000000
  outer loop
    vertex 0.229686 -0.002602 0.250000
    vertex 0.229631 -0.002364 -0.250000
    vertex 0.229686 -0.002602 -0.250000
  endloop
endfacet
facet normal -0.000119 -0.000018 0.000000
  outer loop
    vertex 0.229631 -0.002364 0.250000
    vertex 0.229594 -0.002126 0.250000
    vertex 0.229594 -0.002126 -0.250000
  endloop
endfacet
facet normal -0.000119 -0.000018 -0.000000
  outer loop
    vertex 0.229631 -0.002364 0.250000
    vertex 0.229594 -0.002126 -0.250000
    vertex 0.229631 -0.002364 -0.250000
  endloop
endfacet
facet normal -0.000118 -0.000013 0.000000
  outer loop
    vertex 0.229594 -0.002126 0.250000
    vertex 0.229569 -0.001890 0.250000
    vertex 0.229569 -0.001890 -0.250000
  endloop
endfacet
facet normal -0.000118 -0.000013 -0.000000
  outer loop
    vertex 0.229594 -0.002126 0.250000
    vertex 0.229569 -0.001890 -0.250000
    vertex 0.229594 -0.002126 -0.250000
  endloop
endfacet
facet normal -0.000117 -0.000006 0.000000
  outer loop
    vertex 0.229569 -0.001890 0.250000
    vertex 0.229557 -0.001657 0.250000
    vertex 0.229557 -0.001657 -0.250000
  endloop
endfacet
facet normal -0.000117 -0.000006 -0.000000
  outer loop
    vertex 0.229569 -0.001890 0.250000
    vertex 0.229557 -0.001657 -0.250000
    vertex 0.229569 -0.001890 -0.250000
  endloop
endfacet
facet normal -0.000115 0.000001 0.000000
  outer loop
    vertex 0.229557 -0.001657 0.250000
    vertex 0.229558 -0.001428 0.250000
    vertex 0.229558 -0.001428 -0.250000
  endloop
endfacet
facet normal -0.000115 0.000001 0.000000
  outer loop
    vertex 0.229557 -0.001657 0.250000
    vertex 0.229558 -0.001428 -0.250000
    vertex 0.229557 -0.001657 -0.250000
  endloop
endfacet
facet normal -0.000113 0.000008 0.000000
  outer loop
    vertex 0.229558 -0.001428 0.250000
    vertex 0.229575 -0.001202 0.250000
    vertex 0.229575 -0.001202 -0.250000
  endloop
endfacet
facet normal -0.000113 0.000008 0.000000
  outer loop
    vertex 0.229558 -0.001428 0.250000
    vertex 0.229575 -0.001202 -0.250000
    vertex 0.229558 -0.001428 -0.250000
  endloop
endfacet
facet normal -0.000110 0.000016 0.000000
  outer loop
    vertex 0.229575 -0.001202 0.250000
    vertex 0.229607 -0.000983 0.250000
    vertex 0.229607 -0.000983 -0.250000
  endloop
endfacet
facet normal -0.000110 0.000016 0.000000
  outer loop
    vertex 0.229575 -0.001202 0.250000
    vertex 0.229607 -0.000983 -0.250000
    vertex 0.229575 -0.001202 -0.250000
  endloop
endfacet
facet normal -0.000107 0.000025 0.000000
  outer loop
    vertex 0.229607 -0.000983 0.250000
    vertex 0.229657 -0.000769 0.250000
    vertex 0.229657 -0.000769 -0.250000
  endloop
endfacet
facet normal -0.000107 0.000025 0.000000
  outer loop
    vertex 0.229607 -0.000983 0.250000
    vertex 0.229657 -0.000769 -0.250000
    vertex 0.229607 -0.000983 -0.250000
  endloop
endfacet
facet normal -0.000103 0.000031 0.000000
  outer loop
    vertex 0.229657 -0.000769 0.250000
    vertex 0.229719 -0.000563 0.250000
    vertex 0.229719 -0.000563 -0.250000
  endloop
endfacet
facet normal -0.000103 0.000031 0.000000
  outer loop
    vertex 0.229657 -0.000769 0.250000
    vertex 0.229719 -0.000563 -0.250000
    vertex 0.229657 -0.000769 -0.250000
  endloop
endfacet
facet normal -0.000101 0.000037 0.000000
  outer loop
    vertex 0.229719 -0.000563 0.250000
    vertex 0.229793 -0.000361 0.250000
    vertex 0.229793 -0.000361 -0.250000
  endloop
endfacet
facet normal -0.000101 0.000037 0.000000
  outer loop
    vertex 0.229719 -0.000563 0.250000
    vertex 0.229793 -0.000361 -0.250000
    vertex 0.229719 -0.000563 -0.250000
  endloop
endfacet
facet normal -0.000102 0.000044 0.000000
  outer loop
    vertex 0.229793 -0.000361 0.250000
    vertex 0.229882 -0.000156 0.250000
    vertex 0.229882 -0.000156 -0.250000
  endloop
endfacet
facet normal -0.000102 0.000044 0.000000
  outer loop
    vertex 0.229793 -0.000361 0.250000
    vertex 0.229882 -0.000156 -0.250000
    vertex 0.229793 -0.000361 -0.250000
  endloop
endfacet
facet normal -0.000103 0.000050 0.000000
  outer loop
    vertex 0.229882 -0.000156 0.250000
    vertex 0.229982 0.000050 0.250000
    vertex 0.229982 0.000050 -0.250000
  endloop
endfacet
facet normal -0.000103 0.000050 0.000000
  outer loop
    vertex 0.229882 -0.000156 0.250000
    vertex 0.229982 0.000050 -0.250000
    vertex 0.229882 -0.000156 -0.250000
  endloop
endfacet
facet normal -0.000103 0.000057 0.000000
  outer loop
    vertex 0.229982 0.000050 0.250000
    vertex 0.230097 0.000256 0.250000
    vertex 0.230097 0.000256 -0.250000
  endloop
endfacet
facet normal -0.000103 0.000057 0.000000
  outer loop
    vertex 0.229982 0.000050 0.250000
    vertex 0.230097 0.000256 -0.250000
    vertex 0.229982 0.000050 -0.250000
  endloop
endfacet
facet normal -0.000103 0.000065 0.000000
  outer loop
    vertex 0.230097 0.000256 0.250000
    vertex 0.230227 0.000463 0.250000
    vertex 0.230227 0.000463 -0.250000
  endloop
endfacet
facet normal -0.000103 0.000065 0.000000
  outer loop
    vertex 0.230097 0.000256 0.250000
    vertex 0.230227 0.000463 -0.250000
    vertex 0.230097 0.000256 -0.250000
  endloop
endfacet
facet normal -0.000102 0.000074 0.000000
  outer loop
    vertex 0.230227 0.000463 0.250000
    vertex 0.230374 0.000667 0.250000
    vertex 0.230374 0.000667 -0.250000
  endloop
endfacet
facet normal -0.000102 0.000074 0.000000
  outer loop
    vertex 0.230227 0.000463 0.250000
    vertex 0.230374 0.000667 -0.250000
    vertex 0.230227 0.000463 -0.250000
  endloop
endfacet
facet normal -0.000100 0.000083 0.000000
  outer loop
    vertex 0.230374 0.000667 0.250000
    vertex 0.230539 0.000867 0.250000
    vertex 0.230539 0.000867 -0.250000
  endloop
endfacet
facet normal -0.000100 0.000083 0.000000
  outer loop
    vertex 0.230374 0.000667 0.250000
    vertex 0.230539 0.000867 -0.250000
    vertex 0.230374 0.000667 -0.250000
  endloop
endfacet
facet normal -0.000097 0.000092 0.000000
  outer loop
    vertex 0.230539 0.000867 0.250000
    vertex 0.230723 0.001062 0.250000
    vertex 0.230723 0.001062 -0.250000
  endloop
endfacet
facet normal -0.000097 0.000092 0.000000
  outer loop
    vertex 0.230539 0.000867 0.250000
    vertex 0.230723 0.001062 -0.250000
    vertex 0.230539 0.000867 -0.250000
  endloop
endfacet
facet normal -0.000094 0.000101 0.000000
  outer loop
    vertex 0.230723 0.001062 0.250000
    vertex 0.230925 0.001251 0.250000
    vertex 0.230925 0.001251 -0.250000
  endloop
endfacet
facet normal -0.000094 0.000101 0.000000
  outer loop
    vertex 0.230723 0.001062 0.250000
    vertex 0.230925 0.001251 -0.250000
    vertex 0.230723 0.001062 -0.250000
  endloop
endfacet
facet normal -0.000091 0.000110 0.000000
  outer loop
    vertex 0.230925 0.001251 0.250000
    vertex 0.231145 0.001433 0.250000
    vertex 0.231145 0.001433 -0.250000
  endloop
endfacet
facet normal -0.000091 0.000110 0.000000
  outer loop
    vertex 0.230925 0.001251 0.250000
    vertex 0.231145 0.001433 -0.250000
    vertex 0.230925 0.001251 -0.250000
  endloop
endfacet
facet normal -0.000087 0.000119 0.000000
  outer loop
    vertex 0.231145 0.001433 0.250000
    vertex 0.231383 0.001606 0.250000
    vertex 0.231383 0.001606 -0.250000
  endloop
endfacet
facet normal -0.000087 0.000119 0.000000
  outer loop
    vertex 0.231145 0.001433 0.250000
    vertex 0.231383 0.001606 -0.250000
    vertex 0.231145 0.001433 -0.250000
  endloop
endfacet
facet normal -0.000082 0.000128 0.000000
  outer loop
    vertex 0.231383 0.001606 0.250000
    vertex 0.231639 0.001770 0.250000
    vertex 0.231639 0.001770 -0.250000
  endloop
endfacet
facet normal -0.000082 0.000128 0.000000
  outer loop
    vertex 0.231383 0.001606 0.250000
    vertex 0.231639 0.001770 -0.250000
    vertex 0.231383 0.001606 -0.250000
  endloop
endfacet
facet normal -0.000077 0.000136 0.000000
  outer loop
    vertex 0.231639 0.001770 0.250000
    vertex 0.231911 0.001924 0.250000
    vertex 0.231911 0.001924 -0.250000
  endloop
endfacet
facet normal -0.000077 0.000136 0.000000
  outer loop
    vertex 0.231639 0.001770 0.250000
    vertex 0.231911 0.001924 -0.250000
    vertex 0.231639 0.001770 -0.250000
  endloop
endfacet
facet normal -0.000072 0.000145 0.000000
  outer loop
    vertex 0.231911 0.001924 0.250000
    vertex 0.232201 0.002067 0.250000
    vertex 0.232201 0.002067 -0.250000
  endloop
endfacet
facet normal -0.000072 0.000145 0.000000
  outer loop
    vertex 0.231911 0.001924 0.250000
    vertex 0.232201 0.002067 -0.250000
    vertex 0.231911 0.001924 -0.250000
  endloop
endfacet
facet normal -0.000068 0.000152 0.000000
  outer loop
    vertex 0.232201 0.002067 0.250000
    vertex 0.232506 0.002202 0.250000
    vertex 0.232506 0.002202 -0.250000
  endloop
endfacet
facet normal -0.000068 0.000152 0.000000
  outer loop
    vertex 0.232201 0.002067 0.250000
    vertex 0.232506 0.002202 -0.250000
    vertex 0.232201 0.002067 -0.250000
  endloop
endfacet
facet normal -0.000062 0.000160 0.000000
  outer loop
    vertex 0.232506 0.002202 0.250000
    vertex 0.232827 0.002326 0.250000
    vertex 0.232827 0.002326 -0.250000
  endloop
endfacet
facet normal -0.000062 0.000160 0.000000
  outer loop
    vertex 0.232506 0.002202 0.250000
    vertex 0.232827 0.002326 -0.250000
    vertex 0.232506 0.002202 -0.250000
  endloop
endfacet
facet normal -0.000057 0.000168 0.000000
  outer loop
    vertex 0.232827 0.002326 0.250000
    vertex 0.233163 0.002441 0.250000
    vertex 0.233163 0.002441 -0.250000
  endloop
endfacet
facet normal -0.000057 0.000168 0.000000
  outer loop
    vertex 0.232827 0.002326 0.250000
    vertex 0.233163 0.002441 -0.250000
    vertex 0.232827 0.002326 -0.250000
  endloop
endfacet
facet normal -0.000055 0.000175 0.000000
  outer loop
    vertex 0.233163 0.002441 0.250000
    vertex 0.233512 0.002550 0.250000
    vertex 0.233512 0.002550 -0.250000
  endloop
endfacet
facet normal -0.000055 0.000175 0.000000
  outer loop
    vertex 0.233163 0.002441 0.250000
    vertex 0.233512 0.002550 -0.250000
    vertex 0.233163 0.002441 -0.250000
  endloop
endfacet
facet normal -0.000050 0.000182 0.000000
  outer loop
    vertex 0.233512 0.002550 0.250000
    vertex 0.233877 0.002650 0.250000
    vertex 0.233877 0.002650 -0.250000
  endloop
endfacet
facet normal -0.000050 0.000182 0.000000
  outer loop
    vertex 0.233512 0.002550 0.250000
    vertex 0.233877 0.002650 -0.250000
    vertex 0.233512 0.002550 -0.250000
  endloop
endfacet
facet normal -0.000047 0.000189 0.000000
  outer loop
    vertex 0.233877 0.002650 0.250000
    vertex 0.234255 0.002743 0.250000
    vertex 0.234255 0.002743 -0.250000
  endloop
endfacet
facet normal -0.000047 0.000189 0.000000
  outer loop
    vertex 0.233877 0.002650 0.250000
    vertex 0.234255 0.002743 -0.250000
    vertex 0.233877 0.002650 -0.250000
  endloop
endfacet
facet normal -0.000042 0.000197 0.000000
  outer loop
    vertex 0.234255 0.002743 0.250000
    vertex 0.234648 0.002827 0.250000
    vertex 0.234648 0.002827 -0.250000
  endloop
endfacet
facet normal -0.000042 0.000197 0.000000
  outer loop
    vertex 0.234255 0.002743 0.250000
    vertex 0.234648 0.002827 -0.250000
    vertex 0.234255 0.002743 -0.250000
  endloop
endfacet
facet normal -0.000038 0.000204 0.000000
  outer loop
    vertex 0.234648 0.002827 0.250000
    vertex 0.235056 0.002903 0.250000
    vertex 0.235056 0.002903 -0.250000
  endloop
endfacet
facet normal -0.000038 0.000204 0.000000
  outer loop
    vertex 0.234648 0.002827 0.250000
    vertex 0.235056 0.002903 -0.250000
    vertex 0.234648 0.002827 -0.250000
  endloop
endfacet
facet normal -0.000034 0.000211 0.000000
  outer loop
    vertex 0.235056 0.002903 0.250000
    vertex 0.235479 0.002971 0.250000
    vertex 0.235479 0.002971 -0.250000
  endloop
endfacet
facet normal -0.000034 0.000211 0.000000
  outer loop
    vertex 0.235056 0.002903 0.250000
    vertex 0.235479 0.002971 -0.250000
    vertex 0.235056 0.002903 -0.250000
  endloop
endfacet
facet normal -0.000030 0.000219 0.000000
  outer loop
    vertex 0.235479 0.002971 0.250000
    vertex 0.235916 0.003031 0.250000
    vertex 0.235916 0.003031 -0.250000
  endloop
endfacet
facet normal -0.000030 0.000219 0.000000
  outer loop
    vertex 0.235479 0.002971 0.250000
    vertex 0.235916 0.003031 -0.250000
    vertex 0.235479 0.002971 -0.250000
  endloop
endfacet
facet normal -0.000026 0.000226 0.000000
  outer loop
    vertex 0.235916 0.003031 0.250000
    vertex 0.236369 0.003084 0.250000
    vertex 0.236369 0.003084 -0.250000
  endloop
endfacet
facet normal -0.000026 0.000226 0.000000
  outer loop
    vertex 0.235916 0.003031 0.250000
    vertex 0.236369 0.003084 -0.250000
    vertex 0.235916 0.003031 -0.250000
  endloop
endfacet
facet normal -0.000022 0.000234 0.000000
  outer loop
    vertex 0.236369 0.003084 0.250000
    vertex 0.236837 0.003127 0.250000
    vertex 0.236837 0.003127 -0.250000
  endloop
endfacet
facet normal -0.000022 0.000234 0.000000
  outer loop
    vertex 0.236369 0.003084 0.250000
    vertex 0.236837 0.003127 -0.250000
    vertex 0.236369 0.003084 -0.250000
  endloop
endfacet
facet normal -0.000018 0.000242 0.000000
  outer loop
    vertex 0.236837 0.003127 0.250000
    vertex 0.237321 0.003162 0.250000
    vertex 0.237321 0.003162 -0.250000
  endloop
endfacet
facet normal -0.000018 0.000242 0.000000
  outer loop
    vertex 0.236837 0.003127 0.250000
    vertex 0.237321 0.003162 -0.250000
    vertex 0.236837 0.003127 -0.250000
  endloop
endfacet
facet normal -0.000013 0.000250 0.000000
  outer loop
    vertex 0.237321 0.003162 0.250000
    vertex 0.237821 0.003189 0.250000
    vertex 0.237821 0.003189 -0.250000
  endloop
endfacet
facet normal -0.000013 0.000250 0.000000
  outer loop
    vertex 0.237321 0.003162 0.250000
    vertex 0.237821 0.003189 -0.250000
    vertex 0.237321 0.003162 -0.250000
  endloop
endfacet
facet normal -0.000009 0.000258 0.000000
  outer loop
    vertex 0.237821 0.003189 0.250000
    vertex 0.238337 0.003207 0.250000
    vertex 0.238337 0.003207 -0.250000
  endloop
endfacet
facet normal -0.000009 0.000258 0.000000
  outer loop
    vertex 0.237821 0.003189 0.250000
    vertex 0.238337 0.003207 -0.250000
    vertex 0.237821 0.003189 -0.250000
  endloop
endfacet
facet normal -0.000005 0.000266 0.000000
  outer loop
    vertex 0.238337 0.003207 0.250000
    vertex 0.238869 0.003217 0.250000
    vertex 0.238869 0.003217 -0.250000
  endloop
endfacet
facet normal -0.000005 0.000266 0.000000
  outer loop
    vertex 0.238337 0.003207 0.250000
    vertex 0.238869 0.003217 -0.250000
    vertex 0.238337 0.003207 -0.250000
  endloop
endfacet
facet normal -0.000001 0.000275 0.000000
  outer loop
    vertex 0.238869 0.003217 0.250000
    vertex 0.239419 0.003218 0.250000
    vertex 0.239419 0.003218 -0.250000
  endloop
endfacet
facet normal -0.000001 0.000275 0.000000
  outer loop
    vertex 0.238869 0.003217 0.250000
    vertex 0.239419 0.003218 -0.250000
    vertex 0.238869 0.003217 -0.250000
  endloop
endfacet
facet normal 0.000004 0.000283 0.000000
  outer loop
    vertex 0.239419 0.003218 0.250000
    vertex 0.239986 0.003210 0.250000
    vertex 0.239986 0.003210 -0.250000
  endloop
endfacet
facet normal 0.000004 0.000283 0.000000
  outer loop
    vertex 0.239419 0.003218 0.250000
    vertex 0.239986 0.003210 -0.250000
    vertex 0.239419 0.003218 -0.250000
  endloop
endfacet
facet normal 0.000008 0.000292 0.000000
  outer loop
    vertex 0.239986 0.003210 0.250000
    vertex 0.240571 0.003193 0.250000
    vertex 0.240571 0.003193 -0.250000
  endloop
endfacet
facet normal 0.000008 0.000292 0.000000
  outer loop
    vertex 0.239986 0.003210 0.250000
    vertex 0.240571 0.003193 -0.250000
    vertex 0.239986 0.003210 -0.250000
  endloop
endfacet
facet normal 0.000013 0.000301 0.000000
  outer loop
    vertex 0.240571 0.003193 0.250000
    vertex 0.241174 0.003167 0.250000
    vertex 0.241174 0.003167 -0.250000
  endloop
endfacet
facet normal 0.000013 0.000301 0.000000
  outer loop
    vertex 0.240571 0.003193 0.250000
    vertex 0.241174 0.003167 -0.250000
    vertex 0.240571 0.003193 -0.250000
  endloop
endfacet
facet normal 0.000017 0.000311 0.000000
  outer loop
    vertex 0.241174 0.003167 0.250000
    vertex 0.241795 0.003132 0.250000
    vertex 0.241795 0.003132 -0.250000
  endloop
endfacet
facet normal 0.000017 0.000311 0.000000
  outer loop
    vertex 0.241174 0.003167 0.250000
    vertex 0.241795 0.003132 -0.250000
    vertex 0.241174 0.003167 -0.250000
  endloop
endfacet
facet normal 0.000022 0.000320 0.000000
  outer loop
    vertex 0.241795 0.003132 0.250000
    vertex 0.242436 0.003089 0.250000
    vertex 0.242436 0.003089 -0.250000
  endloop
endfacet
facet normal 0.000022 0.000320 0.000000
  outer loop
    vertex 0.241795 0.003132 0.250000
    vertex 0.242436 0.003089 -0.250000
    vertex 0.241795 0.003132 -0.250000
  endloop
endfacet
facet normal 0.000026 0.000330 0.000000
  outer loop
    vertex 0.242436 0.003089 0.250000
    vertex 0.243097 0.003036 0.250000
    vertex 0.243097 0.003036 -0.250000
  endloop
endfacet
facet normal 0.000026 0.000330 0.000000
  outer loop
    vertex 0.242436 0.003089 0.250000
    vertex 0.243097 0.003036 -0.250000
    vertex 0.242436 0.003089 -0.250000
  endloop
endfacet
facet normal 0.000032 0.000340 0.000000
  outer loop
    vertex 0.243097 0.003036 0.250000
    vertex 0.243778 0.002972 0.250000
    vertex 0.243778 0.002972 -0.250000
  endloop
endfacet
facet normal 0.000032 0.000340 0.000000
  outer loop
    vertex 0.243097 0.003036 0.250000
    vertex 0.243778 0.002972 -0.250000
    vertex 0.243097 0.003036 -0.250000
  endloop
endfacet
facet normal 0.000038 0.000351 0.000000
  outer loop
    vertex 0.243778 0.002972 0.250000
    vertex 0.244480 0.002897 0.250000
    vertex 0.244480 0.002897 -0.250000
  endloop
endfacet
facet normal 0.000038 0.000351 0.000000
  outer loop
    vertex 0.243778 0.002972 0.250000
    vertex 0.244480 0.002897 -0.250000
    vertex 0.243778 0.002972 -0.250000
  endloop
endfacet
facet normal 0.000043 0.000361 0.000000
  outer loop
    vertex 0.244480 0.002897 0.250000
    vertex 0.245202 0.002811 0.250000
    vertex 0.245202 0.002811 -0.250000
  endloop
endfacet
facet normal 0.000043 0.000361 0.000000
  outer loop
    vertex 0.244480 0.002897 0.250000
    vertex 0.245202 0.002811 -0.250000
    vertex 0.244480 0.002897 -0.250000
  endloop
endfacet
facet normal 0.000049 0.000372 0.000000
  outer loop
    vertex 0.245202 0.002811 0.250000
    vertex 0.245947 0.002714 0.250000
    vertex 0.245947 0.002714 -0.250000
  endloop
endfacet
facet normal 0.000049 0.000372 0.000000
  outer loop
    vertex 0.245202 0.002811 0.250000
    vertex 0.245947 0.002714 -0.250000
    vertex 0.245202 0.002811 -0.250000
  endloop
endfacet
facet normal 0.000055 0.000384 0.000000
  outer loop
    vertex 0.245947 0.002714 0.250000
    vertex 0.246714 0.002604 0.250000
    vertex 0.246714 0.002604 -0.250000
  endloop
endfacet
facet normal 0.000055 0.000384 0.000000
  outer loop
    vertex 0.245947 0.002714 0.250000
    vertex 0.246714 0.002604 -0.250000
    vertex 0.245947 0.002714 -0.250000
  endloop
endfacet
facet normal 0.000062 0.000395 0.000000
  outer loop
    vertex 0.246714 0.002604 0.250000
    vertex 0.247504 0.002481 0.250000
    vertex 0.247504 0.002481 -0.250000
  endloop
endfacet
facet normal 0.000062 0.000395 0.000000
  outer loop
    vertex 0.246714 0.002604 0.250000
    vertex 0.247504 0.002481 -0.250000
    vertex 0.246714 0.002604 -0.250000
  endloop
endfacet
facet normal 0.000069 0.000407 0.000000
  outer loop
    vertex 0.247504 0.002481 0.250000
    vertex 0.248317 0.002343 0.250000
    vertex 0.248317 0.002343 -0.250000
  endloop
endfacet
facet normal 0.000069 0.000407 0.000000
  outer loop
    vertex 0.247504 0.002481 0.250000
    vertex 0.248317 0.002343 -0.250000
    vertex 0.247504 0.002481 -0.250000
  endloop
endfacet
facet normal 0.000076 0.000419 0.000000
  outer loop
    vertex 0.248317 0.002343 0.250000
    vertex 0.249155 0.002192 0.250000
    vertex 0.249155 0.002192 -0.250000
  endloop
endfacet
facet normal 0.000076 0.000419 0.000000
  outer loop
    vertex 0.248317 0.002343 0.250000
    vertex 0.249155 0.002192 -0.250000
    vertex 0.248317 0.002343 -0.250000
  endloop
endfacet
facet normal 0.000083 0.000431 0.000000
  outer loop
    vertex 0.249155 0.002192 0.250000
    vertex 0.250017 0.002025 0.250000
    vertex 0.250017 0.002025 -0.250000
  endloop
endfacet
facet normal 0.000083 0.000431 0.000000
  outer loop
    vertex 0.249155 0.002192 0.250000
    vertex 0.250017 0.002025 -0.250000
    vertex 0.249155 0.002192 -0.250000
  endloop
endfacet
facet normal 0.000090 0.000444 0.000000
  outer loop
    vertex 0.250017 0.002025 0.250000
    vertex 0.250905 0.001845 0.250000
    vertex 0.250905 0.001845 -0.250000
  endloop
endfacet
facet normal 0.000090 0.000444 0.000000
  outer loop
    vertex 0.250017 0.002025 0.250000
    vertex 0.250905 0.001845 -0.250000
    vertex 0.250017 0.002025 -0.250000
  endloop
endfacet
facet normal 0.000097 0.000457 0.000000
  outer loop
    vertex 0.250905 0.001845 0.250000
    vertex 0.251819 0.001650 0.250000
    vertex 0.251819 0.001650 -0.250000
  endloop
endfacet
facet normal 0.000097 0.000457 0.000000
  outer loop
    vertex 0.250905 0.001845 0.250000
    vertex 0.251819 0.001650 -0.250000
    vertex 0.250905 0.001845 -0.250000
  endloop
endfacet
facet normal 0.000105 0.000471 0.000000
  outer loop
    vertex 0.251819 0.001650 0.250000
    vertex 0.252760 0.001441 0.250000
    vertex 0.252760 0.001441 -0.250000
  endloop
endfacet
facet normal 0.000105 0.000471 0.000000
  outer loop
    vertex 0.251819 0.001650 0.250000
    vertex 0.252760 0.001441 -0.250000
    vertex 0.251819 0.001650 -0.250000
  endloop
endfacet
facet normal 0.000113 0.000484 0.000000
  outer loop
    vertex 0.252760 0.001441 0.250000
    vertex 0.253729 0.001216 0.250000
    vertex 0.253729 0.001216 -0.250000
  endloop
endfacet
facet normal 0.000113 0.000484 0.000000
  outer loop
    vertex 0.252760 0.001441 0.250000
    vertex 0.253729 0.001216 -0.250000
    vertex 0.252760 0.001441 -0.250000
  endloop
endfacet
facet normal 0.000121 0.000499 0.000000
  outer loop
    vertex 0.253729 0.001216 0.250000
    vertex 0.254726 0.000973 0.250000
    vertex 0.254726 0.000973 -0.250000
  endloop
endfacet
facet normal 0.000121 0.000499 0.000000
  outer loop
    vertex 0.253729 0.001216 0.250000
    vertex 0.254726 0.000973 -0.250000
    vertex 0.253729 0.001216 -0.250000
  endloop
endfacet
facet normal 0.000130 0.000513 0.000000
  outer loop
    vertex 0.254726 0.000973 0.250000
    vertex 0.255753 0.000713 0.250000
    vertex 0.255753 0.000713 -0.250000
  endloop
endfacet
facet normal 0.000130 0.000513 0.000000
  outer loop
    vertex 0.254726 0.000973 0.250000
    vertex 0.255753 0.000713 -0.250000
    vertex 0.254726 0.000973 -0.250000
  endloop
endfacet
facet normal 0.000140 0.000528 0.000000
  outer loop
    vertex 0.255753 0.000713 0.250000
    vertex 0.256809 0.000433 0.250000
    vertex 0.256809 0.000433 -0.250000
  endloop
endfacet
facet normal 0.000140 0.000528 0.000000
  outer loop
    vertex 0.255753 0.000713 0.250000
    vertex 0.256809 0.000433 -0.250000
    vertex 0.255753 0.000713 -0.250000
  endloop
endfacet
facet normal 0.000149 0.000543 0.000000
  outer loop
    vertex 0.256809 0.000433 0.250000
    vertex 0.257896 0.000135 0.250000
    vertex 0.257896 0.000135 -0.250000
  endloop
endfacet
facet normal 0.000149 0.000543 0.000000
  outer loop
    vertex 0.256809 0.000433 0.250000
    vertex 0.257896 0.000135 -0.250000
    vertex 0.256809 0.000433 -0.250000
  endloop
endfacet
facet normal 0.000159 0.000559 0.000000
  outer loop
    vertex 0.257896 0.000135 0.250000
    vertex 0.259015 -0.000184 0.250000
    vertex 0.259015 -0.000184 -0.250000
  endloop
endfacet
facet normal 0.000159 0.000559 0.000000
  outer loop
    vertex 0.257896 0.000135 0.250000
    vertex 0.259015 -0.000184 -0.250000
    vertex 0.257896 0.000135 -0.250000
  endloop
endfacet
facet normal 0.000170 0.000575 0.000000
  outer loop
    vertex 0.259015 -0.000184 0.250000
    vertex 0.260166 -0.000523 0.250000
    vertex 0.260166 -0.000523 -0.250000
  endloop
endfacet
facet normal 0.000170 0.000575 0.000000
  outer loop
    vertex 0.259015 -0.000184 0.250000
    vertex 0.260166 -0.000523 -0.250000
    vertex 0.259015 -0.000184 -0.250000
  endloop
endfacet
facet normal 0.000181 0.000592 0.000000
  outer loop
    vertex 0.260166 -0.000523 0.250000
    vertex 0.261349 -0.000886 0.250000
    vertex 0.261349 -0.000886 -0.250000
  endloop
endfacet
facet normal 0.000181 0.000592 0.000000
  outer loop
    vertex 0.260166 -0.000523 0.250000
    vertex 0.261349 -0.000886 -0.250000
    vertex 0.260166 -0.000523 -0.250000
  endloop
endfacet
facet normal 0.000193 0.000609 0.000000
  outer loop
    vertex 0.261349 -0.000886 0.250000
    vertex 0.262567 -0.001272 0.250000
    vertex 0.262567 -0.001272 -0.250000
  endloop
endfacet
facet normal 0.000193 0.000609 0.000000
  outer loop
    vertex 0.261349 -0.000886 0.250000
    vertex 0.262567 -0.001272 -0.250000
    vertex 0.261349 -0.000886 -0.250000
  endloop
endfacet
facet normal 0.000206 0.000626 0.000000
  outer loop
    vertex 0.262567 -0.001272 0.250000
    vertex 0.263819 -0.001683 0.250000
    vertex 0.263819 -0.001683 -0.250000
  endloop
endfacet
facet normal 0.000206 0.000626 0.000000
  outer loop
    vertex 0.262567 -0.001272 0.250000
    vertex 0.263819 -0.001683 -0.250000
    vertex 0.262567 -0.001272 -0.250000
  endloop
endfacet
facet normal 0.000220 0.000643 0.000000
  outer loop
    vertex 0.263819 -0.001683 0.250000
    vertex 0.265105 -0.002124 0.250000
    vertex 0.265105 -0.002124 -0.250000
  endloop
endfacet
facet normal 0.000220 0.000643 0.000000
  outer loop
    vertex 0.263819 -0.001683 0.250000
    vertex 0.265105 -0.002124 -0.250000
    vertex 0.263819 -0.001683 -0.250000
  endloop
endfacet
facet normal 0.000236 0.000660 0.000000
  outer loop
    vertex 0.265105 -0.002124 0.250000
    vertex 0.266426 -0.002596 0.250000
    vertex 0.266426 -0.002596 -0.250000
  endloop
endfacet
facet normal 0.000236 0.000660 0.000000
  outer loop
    vertex 0.265105 -0.002124 0.250000
    vertex 0.266426 -0.002596 -0.250000
    vertex 0.265105 -0.002124 -0.250000
  endloop
endfacet
facet normal 0.000250 0.000679 0.000000
  outer loop
    vertex 0.266426 -0.002596 0.250000
    vertex 0.267784 -0.003096 0.250000
    vertex 0.267784 -0.003096 -0.250000
  endloop
endfacet
facet normal 0.000250 0.000679 0.000000
  outer loop
    vertex 0.266426 -0.002596 0.250000
    vertex 0.267784 -0.003096 -0.250000
    vertex 0.266426 -0.002596 -0.250000
  endloop
endfacet
facet normal 0.000264 0.000698 0.000000
  outer loop
    vertex 0.267784 -0.003096 0.250000
    vertex 0.269181 -0.003624 0.250000
    vertex 0.269181 -0.003624 -0.250000
  endloop
endfacet
facet normal 0.000264 0.000698 0.000000
  outer loop
    vertex 0.267784 -0.003096 0.250000
    vertex 0.269181 -0.003624 -0.250000
    vertex 0.267784 -0.003096 -0.250000
  endloop
endfacet
facet normal 0.000262 0.000670 0.000000
  outer loop
    vertex 0.269181 -0.003624 0.250000
    vertex 0.270521 -0.004148 0.250000
    vertex 0.270521 -0.004148 -0.250000
  endloop
endfacet
facet normal 0.000262 0.000670 0.000000
  outer loop
    vertex 0.269181 -0.003624 0.250000
    vertex 0.270521 -0.004148 -0.250000
    vertex 0.269181 -0.003624 -0.250000
  endloop
endfacet
facet normal 0.000256 0.000644 0.000000
  outer loop
    vertex 0.270521 -0.004148 0.250000
    vertex 0.271810 -0.004659 0.250000
    vertex 0.271810 -0.004659 -0.250000
  endloop
endfacet
facet normal 0.000256 0.000644 0.000000
  outer loop
    vertex 0.270521 -0.004148 0.250000
    vertex 0.271810 -0.004659 -0.250000
    vertex 0.270521 -0.004148 -0.250000
  endloop
endfacet
facet normal 0.000248 0.000620 0.000000
  outer loop
    vertex 0.271810 -0.004659 0.250000
    vertex 0.273050 -0.005156 0.250000
    vertex 0.273050 -0.005156 -0.250000
  endloop
endfacet
facet normal 0.000248 0.000620 0.000000
  outer loop
    vertex 0.271810 -0.004659 0.250000
    vertex 0.273050 -0.005156 -0.250000
    vertex 0.271810 -0.004659 -0.250000
  endloop
endfacet
facet normal 0.000241 0.000597 0.000000
  outer loop
    vertex 0.273050 -0.005156 0.250000
    vertex 0.274244 -0.005639 0.250000
    vertex 0.274244 -0.005639 -0.250000
  endloop
endfacet
facet normal 0.000241 0.000597 0.000000
  outer loop
    vertex 0.273050 -0.005156 0.250000
    vertex 0.274244 -0.005639 -0.250000
    vertex 0.273050 -0.005156 -0.250000
  endloop
endfacet
facet normal 0.000234 0.000574 0.000000
  outer loop
    vertex 0.274244 -0.005639 0.250000
    vertex 0.275393 -0.006107 0.250000
    vertex 0.275393 -0.006107 -0.250000
  endloop
endfacet
facet normal 0.000234 0.000574 0.000000
  outer loop
    vertex 0.274244 -0.005639 0.250000
    vertex 0.275393 -0.006107 -0.250000
    vertex 0.274244 -0.005639 -0.250000
  endloop
endfacet
facet normal 0.000228 0.000553 0.000000
  outer loop
    vertex 0.275393 -0.006107 0.250000
    vertex 0.276498 -0.006564 0.250000
    vertex 0.276498 -0.006564 -0.250000
  endloop
endfacet
facet normal 0.000228 0.000553 0.000000
  outer loop
    vertex 0.275393 -0.006107 0.250000
    vertex 0.276498 -0.006564 -0.250000
    vertex 0.275393 -0.006107 -0.250000
  endloop
endfacet
facet normal 0.000222 0.000532 0.000000
  outer loop
    vertex 0.276498 -0.006564 0.250000
    vertex 0.277561 -0.007008 0.250000
    vertex 0.277561 -0.007008 -0.250000
  endloop
endfacet
facet normal 0.000222 0.000532 0.000000
  outer loop
    vertex 0.276498 -0.006564 0.250000
    vertex 0.277561 -0.007008 -0.250000
    vertex 0.276498 -0.006564 -0.250000
  endloop
endfacet
facet normal 0.000215 0.000512 0.000000
  outer loop
    vertex 0.277561 -0.007008 0.250000
    vertex 0.278585 -0.007437 0.250000
    vertex 0.278585 -0.007437 -0.250000
  endloop
endfacet
facet normal 0.000215 0.000512 0.000000
  outer loop
    vertex 0.277561 -0.007008 0.250000
    vertex 0.278585 -0.007437 -0.250000
    vertex 0.277561 -0.007008 -0.250000
  endloop
endfacet
facet normal 0.000208 0.000493 0.000000
  outer loop
    vertex 0.278585 -0.007437 0.250000
    vertex 0.279570 -0.007853 0.250000
    vertex 0.279570 -0.007853 -0.250000
  endloop
endfacet
facet normal 0.000208 0.000493 0.000000
  outer loop
    vertex 0.278585 -0.007437 0.250000
    vertex 0.279570 -0.007853 -0.250000
    vertex 0.278585 -0.007437 -0.250000
  endloop
endfacet
facet normal 0.000204 0.000474 0.000000
  outer loop
    vertex 0.279570 -0.007853 0.250000
    vertex 0.280517 -0.008260 0.250000
    vertex 0.280517 -0.008260 -0.250000
  endloop
endfacet
facet normal 0.000204 0.000474 0.000000
  outer loop
    vertex 0.279570 -0.007853 0.250000
    vertex 0.280517 -0.008260 -0.250000
    vertex 0.279570 -0.007853 -0.250000
  endloop
endfacet
facet normal 0.000199 0.000455 0.000000
  outer loop
    vertex 0.280517 -0.008260 0.250000
    vertex 0.281428 -0.008658 0.250000
    vertex 0.281428 -0.008658 -0.250000
  endloop
endfacet
facet normal 0.000199 0.000455 0.000000
  outer loop
    vertex 0.280517 -0.008260 0.250000
    vertex 0.281428 -0.008658 -0.250000
    vertex 0.280517 -0.008260 -0.250000
  endloop
endfacet
facet normal 0.000194 0.000438 0.000000
  outer loop
    vertex 0.281428 -0.008658 0.250000
    vertex 0.282304 -0.009045 0.250000
    vertex 0.282304 -0.009045 -0.250000
  endloop
endfacet
facet normal 0.000194 0.000438 0.000000
  outer loop
    vertex 0.281428 -0.008658 0.250000
    vertex 0.282304 -0.009045 -0.250000
    vertex 0.281428 -0.008658 -0.250000
  endloop
endfacet
facet normal 0.000188 0.000421 0.000000
  outer loop
    vertex 0.282304 -0.009045 0.250000
    vertex 0.283146 -0.009422 0.250000
    vertex 0.283146 -0.009422 -0.250000
  endloop
endfacet
facet normal 0.000188 0.000421 0.000000
  outer loop
    vertex 0.282304 -0.009045 0.250000
    vertex 0.283146 -0.009422 -0.250000
    vertex 0.282304 -0.009045 -0.250000
  endloop
endfacet
facet normal 0.000183 0.000405 0.000000
  outer loop
    vertex 0.283146 -0.009422 0.250000
    vertex 0.283956 -0.009788 0.250000
    vertex 0.283956 -0.009788 -0.250000
  endloop
endfacet
facet normal 0.000183 0.000405 0.000000
  outer loop
    vertex 0.283146 -0.009422 0.250000
    vertex 0.283956 -0.009788 -0.250000
    vertex 0.283146 -0.009422 -0.250000
  endloop
endfacet
facet normal 0.000178 0.000390 0.000000
  outer loop
    vertex 0.283956 -0.009788 0.250000
    vertex 0.284735 -0.010145 0.250000
    vertex 0.284735 -0.010145 -0.250000
  endloop
endfacet
facet normal 0.000178 0.000390 0.000000
  outer loop
    vertex 0.283956 -0.009788 0.250000
    vertex 0.284735 -0.010145 -0.250000
    vertex 0.283956 -0.009788 -0.250000
  endloop
endfacet
facet normal 0.000173 0.000375 0.000000
  outer loop
    vertex 0.284735 -0.010145 0.250000
    vertex 0.285484 -0.010491 0.250000
    vertex 0.285484 -0.010491 -0.250000
  endloop
endfacet
facet normal 0.000173 0.000375 0.000000
  outer loop
    vertex 0.284735 -0.010145 0.250000
    vertex 0.285484 -0.010491 -0.250000
    vertex 0.284735 -0.010145 -0.250000
  endloop
endfacet
facet normal 0.000168 0.000361 0.000000
  outer loop
    vertex 0.285484 -0.010491 0.250000
    vertex 0.286205 -0.010827 0.250000
    vertex 0.286205 -0.010827 -0.250000
  endloop
endfacet
facet normal 0.000168 0.000361 0.000000
  outer loop
    vertex 0.285484 -0.010491 0.250000
    vertex 0.286205 -0.010827 -0.250000
    vertex 0.285484 -0.010491 -0.250000
  endloop
endfacet
facet normal 0.000162 0.000347 0.000000
  outer loop
    vertex 0.286205 -0.010827 0.250000
    vertex 0.286900 -0.011151 0.250000
    vertex 0.286900 -0.011151 -0.250000
  endloop
endfacet
facet normal 0.000162 0.000347 0.000000
  outer loop
    vertex 0.286205 -0.010827 0.250000
    vertex 0.286900 -0.011151 -0.250000
    vertex 0.286205 -0.010827 -0.250000
  endloop
endfacet
facet normal 0.000157 0.000334 0.000000
  outer loop
    vertex 0.286900 -0.011151 0.250000
    vertex 0.287568 -0.011466 0.250000
    vertex 0.287568 -0.011466 -0.250000
  endloop
endfacet
facet normal 0.000157 0.000334 0.000000
  outer loop
    vertex 0.286900 -0.011151 0.250000
    vertex 0.287568 -0.011466 -0.250000
    vertex 0.286900 -0.011151 -0.250000
  endloop
endfacet
facet normal 0.000153 0.000321 0.000000
  outer loop
    vertex 0.287568 -0.011466 0.250000
    vertex 0.288211 -0.011772 0.250000
    vertex 0.288211 -0.011772 -0.250000
  endloop
endfacet
facet normal 0.000153 0.000321 0.000000
  outer loop
    vertex 0.287568 -0.011466 0.250000
    vertex 0.288211 -0.011772 -0.250000
    vertex 0.287568 -0.011466 -0.250000
  endloop
endfacet
facet normal 0.000149 0.000309 0.000000
  outer loop
    vertex 0.288211 -0.011772 0.250000
    vertex 0.288829 -0.012069 0.250000
    vertex 0.288829 -0.012069 -0.250000
  endloop
endfacet
facet normal 0.000149 0.000309 0.000000
  outer loop
    vertex 0.288211 -0.011772 0.250000
    vertex 0.288829 -0.012069 -0.250000
    vertex 0.288211 -0.011772 -0.250000
  endloop
endfacet
facet normal 0.000145 0.000297 0.000000
  outer loop
    vertex 0.288829 -0.012069 0.250000
    vertex 0.289423 -0.012359 0.250000
    vertex 0.289423 -0.012359 -0.250000
  endloop
endfacet
facet normal 0.000145 0.000297 0.000000
  outer loop
    vertex 0.288829 -0.012069 0.250000
    vertex 0.289423 -0.012359 -0.250000
    vertex 0.288829 -0.012069 -0.250000
  endloop
endfacet
facet normal 0.000141 0.000286 0.000000
  outer loop
    vertex 0.289423 -0.012359 0.250000
    vertex 0.289995 -0.012641 0.250000
    vertex 0.289995 -0.012641 -0.250000
  endloop
endfacet
facet normal 0.000141 0.000286 0.000000
  outer loop
    vertex 0.289423 -0.012359 0.250000
    vertex 0.289995 -0.012641 -0.250000
    vertex 0.289423 -0.012359 -0.250000
  endloop
endfacet
facet normal 0.000138 0.000274 0.000000
  outer loop
    vertex 0.289995 -0.012641 0.250000
    vertex 0.290543 -0.012916 0.250000
    vertex 0.290543 -0.012916 -0.250000
  endloop
endfacet
facet normal 0.000138 0.000274 0.000000
  outer loop
    vertex 0.289995 -0.012641 0.250000
    vertex 0.290543 -0.012916 -0.250000
    vertex 0.289995 -0.012641 -0.250000
  endloop
endfacet
facet normal 0.000134 0.000264 0.000000
  outer loop
    vertex 0.290543 -0.012916 0.250000
    vertex 0.291071 -0.013184 0.250000
    vertex 0.291071 -0.013184 -0.250000
  endloop
endfacet
facet normal 0.000134 0.000264 0.000000
  outer loop
    vertex 0.290543 -0.012916 0.250000
    vertex 0.291071 -0.013184 -0.250000
    vertex 0.290543 -0.012916 -0.250000
  endloop
endfacet
facet normal 0.000130 0.000254 0.000000
  outer loop
    vertex 0.291071 -0.013184 0.250000
    vertex 0.291578 -0.013443 0.250000
    vertex 0.291578 -0.013443 -0.250000
  endloop
endfacet
facet normal 0.000130 0.000254 0.000000
  outer loop
    vertex 0.291071 -0.013184 0.250000
    vertex 0.291578 -0.013443 -0.250000
    vertex 0.291071 -0.013184 -0.250000
  endloop
endfacet
facet normal 0.000126 0.000244 0.000000
  outer loop
    vertex 0.291578 -0.013443 0.250000
    vertex 0.292067 -0.013694 0.250000
    vertex 0.292067 -0.013694 -0.250000
  endloop
endfacet
facet normal 0.000126 0.000244 0.000000
  outer loop
    vertex 0.291578 -0.013443 0.250000
    vertex 0.292067 -0.013694 -0.250000
    vertex 0.291578 -0.013443 -0.250000
  endloop
endfacet
facet normal 0.000122 0.000235 0.000000
  outer loop
    vertex 0.292067 -0.013694 0.250000
    vertex 0.292537 -0.013938 0.250000
    vertex 0.292537 -0.013938 -0.250000
  endloop
endfacet
facet normal 0.000122 0.000235 0.000000
  outer loop
    vertex 0.292067 -0.013694 0.250000
    vertex 0.292537 -0.013938 -0.250000
    vertex 0.292067 -0.013694 -0.250000
  endloop
endfacet
facet normal 0.000118 0.000226 0.000000
  outer loop
    vertex 0.292537 -0.013938 0.250000
    vertex 0.292989 -0.014175 0.250000
    vertex 0.292989 -0.014175 -0.250000
  endloop
endfacet
facet normal 0.000118 0.000226 0.000000
  outer loop
    vertex 0.292537 -0.013938 0.250000
    vertex 0.292989 -0.014175 -0.250000
    vertex 0.292537 -0.013938 -0.250000
  endloop
endfacet
facet normal 0.000114 0.000217 0.000000
  outer loop
    vertex 0.292989 -0.014175 0.250000
    vertex 0.293424 -0.014403 0.250000
    vertex 0.293424 -0.014403 -0.250000
  endloop
endfacet
facet normal 0.000114 0.000217 0.000000
  outer loop
    vertex 0.292989 -0.014175 0.250000
    vertex 0.293424 -0.014403 -0.250000
    vertex 0.292989 -0.014175 -0.250000
  endloop
endfacet
facet normal 0.000111 0.000209 0.000000
  outer loop
    vertex 0.293424 -0.014403 0.250000
    vertex 0.293842 -0.014625 0.250000
    vertex 0.293842 -0.014625 -0.250000
  endloop
endfacet
facet normal 0.000111 0.000209 0.000000
  outer loop
    vertex 0.293424 -0.014403 0.250000
    vertex 0.293842 -0.014625 -0.250000
    vertex 0.293424 -0.014403 -0.250000
  endloop
endfacet
facet normal 0.000107 0.000201 0.000000
  outer loop
    vertex 0.293842 -0.014625 0.250000
    vertex 0.294245 -0.014840 0.250000
    vertex 0.294245 -0.014840 -0.250000
  endloop
endfacet
facet normal 0.000107 0.000201 0.000000
  outer loop
    vertex 0.293842 -0.014625 0.250000
    vertex 0.294245 -0.014840 -0.250000
    vertex 0.293842 -0.014625 -0.250000
  endloop
endfacet
facet normal 0.000104 0.000194 0.000000
  outer loop
    vertex 0.294245 -0.014840 0.250000
    vertex 0.294633 -0.015048 0.250000
    vertex 0.294633 -0.015048 -0.250000
  endloop
endfacet
facet normal 0.000104 0.000194 0.000000
  outer loop
    vertex 0.294245 -0.014840 0.250000
    vertex 0.294633 -0.015048 -0.250000
    vertex 0.294245 -0.014840 -0.250000
  endloop
endfacet
facet normal 0.000101 0.000186 0.000000
  outer loop
    vertex 0.294633 -0.015048 0.250000
    vertex 0.295005 -0.015249 0.250000
    vertex 0.295005 -0.015249 -0.250000
  endloop
endfacet
facet normal 0.000101 0.000186 0.000000
  outer loop
    vertex 0.294633 -0.015048 0.250000
    vertex 0.295005 -0.015249 -0.250000
    vertex 0.294633 -0.015048 -0.250000
  endloop
endfacet
facet normal 0.000097 0.000180 0.000000
  outer loop
    vertex 0.295005 -0.015249 0.250000
    vertex 0.295364 -0.015444 0.250000
    vertex 0.295364 -0.015444 -0.250000
  endloop
endfacet
facet normal 0.000097 0.000180 0.000000
  outer loop
    vertex 0.295005 -0.015249 0.250000
    vertex 0.295364 -0.015444 -0.250000
    vertex 0.295005 -0.015249 -0.250000
  endloop
endfacet
facet normal 0.000094 0.000173 0.000000
  outer loop
    vertex 0.295364 -0.015444 0.250000
    vertex 0.295710 -0.015631 0.250000
    vertex 0.295710 -0.015631 -0.250000
  endloop
endfacet
facet normal 0.000094 0.000173 0.000000
  outer loop
    vertex 0.295364 -0.015444 0.250000
    vertex 0.295710 -0.015631 -0.250000
    vertex 0.295364 -0.015444 -0.250000
  endloop
endfacet
facet normal 0.000090 0.000167 0.000000
  outer loop
    vertex 0.295710 -0.015631 0.250000
    vertex 0.296044 -0.015812 0.250000
    vertex 0.296044 -0.015812 -0.250000
  endloop
endfacet
facet normal 0.000090 0.000167 0.000000
  outer loop
    vertex 0.295710 -0.015631 0.250000
    vertex 0.296044 -0.015812 -0.250000
    vertex 0.295710 -0.015631 -0.250000
  endloop
endfacet
facet normal 0.000087 0.000161 0.000000
  outer loop
    vertex 0.296044 -0.015812 0.250000
    vertex 0.296366 -0.015985 0.250000
    vertex 0.296366 -0.015985 -0.250000
  endloop
endfacet
facet normal 0.000087 0.000161 0.000000
  outer loop
    vertex 0.296044 -0.015812 0.250000
    vertex 0.296366 -0.015985 -0.250000
    vertex 0.296044 -0.015812 -0.250000
  endloop
endfacet
facet normal 0.000084 0.000155 0.000000
  outer loop
    vertex 0.296366 -0.015985 0.250000
    vertex 0.296676 -0.016152 0.250000
    vertex 0.296676 -0.016152 -0.250000
  endloop
endfacet
facet normal 0.000084 0.000155 0.000000
  outer loop
    vertex 0.296366 -0.015985 0.250000
    vertex 0.296676 -0.016152 -0.250000
    vertex 0.296366 -0.015985 -0.250000
  endloop
endfacet
facet normal 0.000081 0.000149 0.000000
  outer loop
    vertex 0.296676 -0.016152 0.250000
    vertex 0.296975 -0.016314 0.250000
    vertex 0.296975 -0.016314 -0.250000
  endloop
endfacet
facet normal 0.000081 0.000149 0.000000
  outer loop
    vertex 0.296676 -0.016152 0.250000
    vertex 0.296975 -0.016314 -0.250000
    vertex 0.296676 -0.016152 -0.250000
  endloop
endfacet
facet normal 0.000078 0.000144 0.000000
  outer loop
    vertex 0.296975 -0.016314 0.250000
    vertex 0.297262 -0.016469 0.250000
    vertex 0.297262 -0.016469 -0.250000
  endloop
endfacet
facet normal 0.000078 0.000144 0.000000
  outer loop
    vertex 0.296975 -0.016314 0.250000
    vertex 0.297262 -0.016469 -0.250000
    vertex 0.296975 -0.016314 -0.250000
  endloop
endfacet
facet normal 0.000075 0.000138 0.000000
  outer loop
    vertex 0.297262 -0.016469 0.250000
    vertex 0.297539 -0.016620 0.250000
    vertex 0.297539 -0.016620 -0.250000
  endloop
endfacet
facet normal 0.000075 0.000138 0.000000
  outer loop
    vertex 0.297262 -0.016469 0.250000
    vertex 0.297539 -0.016620 -0.250000
    vertex 0.297262 -0.016469 -0.250000
  endloop
endfacet
facet normal 0.000072 0.000134 0.000000
  outer loop
    vertex 0.297539 -0.016620 0.250000
    vertex 0.297806 -0.016764 0.250000
    vertex 0.297806 -0.016764 -0.250000
  endloop
endfacet
facet normal 0.000072 0.000134 0.000000
  outer loop
    vertex 0.297539 -0.016620 0.250000
    vertex 0.297806 -0.016764 -0.250000
    vertex 0.297539 -0.016620 -0.250000
  endloop
endfacet
facet normal 0.000069 0.000129 0.000000
  outer loop
    vertex 0.297806 -0.016764 0.250000
    vertex 0.298064 -0.016903 0.250000
    vertex 0.298064 -0.016903 -0.250000
  endloop
endfacet
facet normal 0.000069 0.000129 0.000000
  outer loop
    vertex 0.297806 -0.016764 0.250000
    vertex 0.298064 -0.016903 -0.250000
    vertex 0.297806 -0.016764 -0.250000
  endloop
endfacet
facet normal 0.000067 0.000124 0.000000
  outer loop
    vertex 0.298064 -0.016903 0.250000
    vertex 0.298312 -0.017037 0.250000
    vertex 0.298312 -0.017037 -0.250000
  endloop
endfacet
facet normal 0.000067 0.000124 0.000000
  outer loop
    vertex 0.298064 -0.016903 0.250000
    vertex 0.298312 -0.017037 -0.250000
    vertex 0.298064 -0.016903 -0.250000
  endloop
endfacet
facet normal 0.000064 0.000120 0.000000
  outer loop
    vertex 0.298312 -0.017037 0.250000
    vertex 0.298552 -0.017165 0.250000
    vertex 0.298552 -0.017165 -0.250000
  endloop
endfacet
facet normal 0.000064 0.000120 0.000000
  outer loop
    vertex 0.298312 -0.017037 0.250000
    vertex 0.298552 -0.017165 -0.250000
    vertex 0.298312 -0.017037 -0.250000
  endloop
endfacet
facet normal 0.000062 0.000115 0.000000
  outer loop
    vertex 0.298552 -0.017165 0.250000
    vertex 0.298782 -0.017289 0.250000
    vertex 0.298782 -0.017289 -0.250000
  endloop
endfacet
facet normal 0.000062 0.000115 0.000000
  outer loop
    vertex 0.298552 -0.017165 0.250000
    vertex 0.298782 -0.017289 -0.250000
    vertex 0.298552 -0.017165 -0.250000
  endloop
endfacet
facet normal 0.000060 0.000111 0.000000
  outer loop
    vertex 0.298782 -0.017289 0.250000
    vertex 0.299005 -0.017409 0.250000
    vertex 0.299005 -0.017409 -0.250000
  endloop
endfacet
facet normal 0.000060 0.000111 0.000000
  outer loop
    vertex 0.298782 -0.017289 0.250000
    vertex 0.299005 -0.017409 -0.250000
    vertex 0.298782 -0.017289 -0.250000
  endloop
endfacet
facet normal 0.000058 0.000107 0.000000
  outer loop
    vertex 0.299005 -0.017409 0.250000
    vertex 0.299218 -0.017525 0.250000
    vertex 0.299218 -0.017525 -0.250000
  endloop
endfacet
facet normal 0.000058 0.000107 0.000000
  outer loop
    vertex 0.299005 -0.017409 0.250000
    vertex 0.299218 -0.017525 -0.250000
    vertex 0.299005 -0.017409 -0.250000
  endloop
endfacet
facet normal 0.000056 0.000103 0.000000
  outer loop
    vertex 0.299218 -0.017525 0.250000
    vertex 0.299424 -0.017637 0.250000
    vertex 0.299424 -0.017637 -0.250000
  endloop
endfacet
facet normal 0.000056 0.000103 0.000000
  outer loop
    vertex 0.299218 -0.017525 0.250000
    vertex 0.299424 -0.017637 -0.250000
    vertex 0.299218 -0.017525 -0.250000
  endloop
endfacet
facet normal 0.000054 0.000099 0.000000
  outer loop
    vertex 0.299424 -0.017637 0.250000
    vertex 0.299622 -0.017745 0.250000
    vertex 0.299622 -0.017745 -0.250000
  endloop
endfacet
facet normal 0.000054 0.000099 0.000000
  outer loop
    vertex 0.299424 -0.017637 0.250000
    vertex 0.299622 -0.017745 -0.250000
    vertex 0.299424 -0.017637 -0.250000
  endloop
endfacet
facet normal 0.000052 0.000096 0.000000
  outer loop
    vertex 0.299622 -0.017745 0.250000
    vertex 0.299814 -0.017848 0.250000
    vertex 0.299814 -0.017848 -0.250000
  endloop
endfacet
facet normal 0.000052 0.000096 0.000000
  outer loop
    vertex 0.299622 -0.017745 0.250000
    vertex 0.299814 -0.017848 -0.250000
    vertex 0.299622 -0.017745 -0.250000
  endloop
endfacet
facet normal 0.000050 0.000092 0.000000
  outer loop
    vertex 0.299814 -0.017848 0.250000
    vertex 0.299998 -0.017948 0.250000
    vertex 0.299998 -0.017948 -0.250000
  endloop
endfacet
facet normal 0.000050 0.000092 0.000000
  outer loop
    vertex 0.299814 -0.017848 0.250000
    vertex 0.299998 -0.017948 -0.250000
    vertex 0.299814 -0.017848 -0.250000
  endloop
endfacet
facet normal 0.000048 0.000089 0.000000
  outer loop
    vertex 0.299998 -0.017948 0.250000
    vertex 0.300176 -0.018043 0.250000
    vertex 0.300176 -0.018043 -0.250000
  endloop
endfacet
facet normal 0.000048 0.000089 0.000000
  outer loop
    vertex 0.299998 -0.017948 0.250000
    vertex 0.300176 -0.018043 -0.250000
    vertex 0.299998 -0.017948 -0.250000
  endloop
endfacet
facet normal 0.000046 0.000086 0.000000
  outer loop
    vertex 0.300176 -0.018043 0.250000
    vertex 0.300349 -0.018134 0.250000
    vertex 0.300349 -0.018134 -0.250000
  endloop
endfacet
facet normal 0.000046 0.000086 0.000000
  outer loop
    vertex 0.300176 -0.018043 0.250000
    vertex 0.300349 -0.018134 -0.250000
    vertex 0.300176 -0.018043 -0.250000
  endloop
endfacet
facet normal 0.000044 0.000083 0.000000
  outer loop
    vertex 0.300349 -0.018134 0.250000
    vertex 0.300514 -0.018223 0.250000
    vertex 0.300514 -0.018223 -0.250000
  endloop
endfacet
facet normal 0.000044 0.000083 0.000000
  outer loop
    vertex 0.300349 -0.018134 0.250000
    vertex 0.300514 -0.018223 -0.250000
    vertex 0.300349 -0.018134 -0.250000
  endloop
endfacet
facet normal 0.000043 0.000080 0.000000
  outer loop
    vertex 0.300514 -0.018223 0.250000
    vertex 0.300673 -0.018308 0.250000
    vertex 0.300673 -0.018308 -0.250000
  endloop
endfacet
facet normal 0.000043 0.000080 0.000000
  outer loop
    vertex 0.300514 -0.018223 0.250000
    vertex 0.300673 -0.018308 -0.250000
    vertex 0.300514 -0.018223 -0.250000
  endloop
endfacet
facet normal 0.000041 0.000077 0.000000
  outer loop
    vertex 0.300673 -0.018308 0.250000
    vertex 0.300827 -0.018391 0.250000
    vertex 0.300827 -0.018391 -0.250000
  endloop
endfacet
facet normal 0.000041 0.000077 0.000000
  outer loop
    vertex 0.300673 -0.018308 0.250000
    vertex 0.300827 -0.018391 -0.250000
    vertex 0.300673 -0.018308 -0.250000
  endloop
endfacet
facet normal 0.000040 0.000074 0.000000
  outer loop
    vertex 0.300827 -0.018391 0.250000
    vertex 0.300974 -0.018471 0.250000
    vertex 0.300974 -0.018471 -0.250000
  endloop
endfacet
facet normal 0.000040 0.000074 0.000000
  outer loop
    vertex 0.300827 -0.018391 0.250000
    vertex 0.300974 -0.018471 -0.250000
    vertex 0.300827 -0.018391 -0.250000
  endloop
endfacet
facet normal 0.000038 0.000071 0.000000
  outer loop
    vertex 0.300974 -0.018471 0.250000
    vertex 0.301117 -0.018548 0.250000
    vertex 0.301117 -0.018548 -0.250000
  endloop
endfacet
facet normal 0.000038 0.000071 0.000000
  outer loop
    vertex 0.300974 -0.018471 0.250000
    vertex 0.301117 -0.018548 -0.250000
    vertex 0.300974 -0.018471 -0.250000
  endloop
endfacet
facet normal 0.000037 0.000069 0.000000
  outer loop
    vertex 0.301117 -0.018548 0.250000
    vertex 0.301254 -0.018622 0.250000
    vertex 0.301254 -0.018622 -0.250000
  endloop
endfacet
facet normal 0.000037 0.000069 0.000000
  outer loop
    vertex 0.301117 -0.018548 0.250000
    vertex 0.301254 -0.018622 -0.250000
    vertex 0.301117 -0.018548 -0.250000
  endloop
endfacet
facet normal 0.000036 0.000066 0.000000
  outer loop
    vertex 0.301254 -0.018622 0.250000
    vertex 0.301386 -0.018693 0.250000
    vertex 0.301386 -0.018693 -0.250000
  endloop
endfacet
facet normal 0.000036 0.000066 0.000000
  outer loop
    vertex 0.301254 -0.018622 0.250000
    vertex 0.301386 -0.018693 -0.250000
    vertex 0.301254 -0.018622 -0.250000
  endloop
endfacet
facet normal 0.000034 0.000064 0.000000
  outer loop
    vertex 0.301386 -0.018693 0.250000
    vertex 0.301514 -0.018761 0.250000
    vertex 0.301514 -0.018761 -0.250000
  endloop
endfacet
facet normal 0.000034 0.000064 0.000000
  outer loop
    vertex 0.301386 -0.018693 0.250000
    vertex 0.301514 -0.018761 -0.250000
    vertex 0.301386 -0.018693 -0.250000
  endloop
endfacet
facet normal 0.000033 0.000062 0.000000
  outer loop
    vertex 0.301514 -0.018761 0.250000
    vertex 0.301637 -0.018827 0.250000
    vertex 0.301637 -0.018827 -0.250000
  endloop
endfacet
facet normal 0.000033 0.000062 0.000000
  outer loop
    vertex 0.301514 -0.018761 0.250000
    vertex 0.301637 -0.018827 -0.250000
    vertex 0.301514 -0.018761 -0.250000
  endloop
endfacet
facet normal 0.000032 0.000059 0.000000
  outer loop
    vertex 0.301637 -0.018827 0.250000
    vertex 0.301755 -0.018891 0.250000
    vertex 0.301755 -0.018891 -0.250000
  endloop
endfacet
facet normal 0.000032 0.000059 0.000000
  outer loop
    vertex 0.301637 -0.018827 0.250000
    vertex 0.301755 -0.018891 -0.250000
    vertex 0.301637 -0.018827 -0.250000
  endloop
endfacet
facet normal 0.000031 0.000057 0.000000
  outer loop
    vertex 0.301755 -0.018891 0.250000
    vertex 0.301868 -0.018954 0.250000
    vertex 0.301868 -0.018954 -0.250000
  endloop
endfacet
facet normal 0.000031 0.000057 0.000000
  outer loop
    vertex 0.301755 -0.018891 0.250000
    vertex 0.301868 -0.018954 -0.250000
    vertex 0.301755 -0.018891 -0.250000
  endloop
endfacet
facet normal 0.000031 0.000055 0.000000
  outer loop
    vertex 0.301868 -0.018954 0.250000
    vertex 0.301977 -0.019015 0.250000
    vertex 0.301977 -0.019015 -0.250000
  endloop
endfacet
facet normal 0.000031 0.000055 0.000000
  outer loop
    vertex 0.301868 -0.018954 0.250000
    vertex 0.301977 -0.019015 -0.250000
    vertex 0.301868 -0.018954 -0.250000
  endloop
endfacet
facet normal 0.000028 0.000053 0.000000
  outer loop
    vertex 0.301977 -0.019015 0.250000
    vertex 0.302084 -0.019072 0.250000
    vertex 0.302084 -0.019072 -0.250000
  endloop
endfacet
facet normal 0.000028 0.000053 0.000000
  outer loop
    vertex 0.301977 -0.019015 0.250000
    vertex 0.302084 -0.019072 -0.250000
    vertex 0.301977 -0.019015 -0.250000
  endloop
endfacet
facet normal 0.000028 0.000051 0.000000
  outer loop
    vertex 0.302084 -0.019072 0.250000
    vertex 0.302186 -0.019127 0.250000
    vertex 0.302186 -0.019127 -0.250000
  endloop
endfacet
facet normal 0.000028 0.000051 0.000000
  outer loop
    vertex 0.302084 -0.019072 0.250000
    vertex 0.302186 -0.019127 -0.250000
    vertex 0.302084 -0.019072 -0.250000
  endloop
endfacet
facet normal 0.000032 0.000046 0.000000
  outer loop
    vertex 0.302186 -0.019127 0.250000
    vertex 0.302277 -0.019190 0.250000
    vertex 0.302277 -0.019190 -0.250000
  endloop
endfacet
facet normal 0.000032 0.000046 0.000000
  outer loop
    vertex 0.302186 -0.019127 0.250000
    vertex 0.302277 -0.019190 -0.250000
    vertex 0.302186 -0.019127 -0.250000
  endloop
endfacet
facet normal 0.000035 0.000041 0.000000
  outer loop
    vertex 0.302277 -0.019190 0.250000
    vertex 0.302359 -0.019260 0.250000
    vertex 0.302359 -0.019260 -0.250000
  endloop
endfacet
facet normal 0.000035 0.000041 0.000000
  outer loop
    vertex 0.302277 -0.019190 0.250000
    vertex 0.302359 -0.019260 -0.250000
    vertex 0.302277 -0.019190 -0.250000
  endloop
endfacet
facet normal 0.000668 0.000645 0.000000
  outer loop
    vertex 0.302359 -0.019260 0.250000
    vertex 0.303650 -0.020596 0.250000
    vertex 0.303650 -0.020596 -0.250000
  endloop
endfacet
facet normal 0.000668 0.000645 0.000000
  outer loop
    vertex 0.302359 -0.019260 0.250000
    vertex 0.303650 -0.020596 -0.250000
    vertex 0.302359 -0.019260 -0.250000
  endloop
endfacet
endsolid new_flap.stl
