solid slat.stl
facet normal 0.000179 -0.000177 0.000000
  outer loop
    vertex 0.018772 0.005079 0.250000
    vertex 0.018419 0.004721 0.250000
    vertex 0.018419 0.004721 -0.250000
  endloop
endfacet
facet normal 0.000179 -0.000177 0.000000
  outer loop
    vertex 0.018772 0.005079 0.250000
    vertex 0.018419 0.004721 -0.250000
    vertex 0.018772 0.005079 -0.250000
  endloop
endfacet
facet normal 0.000187 -0.000183 0.000000
  outer loop
    vertex 0.018419 0.004721 0.250000
    vertex 0.018054 0.004347 0.250000
    vertex 0.018054 0.004347 -0.250000
  endloop
endfacet
facet normal 0.000187 -0.000183 0.000000
  outer loop
    vertex 0.018419 0.004721 0.250000
    vertex 0.018054 0.004347 -0.250000
    vertex 0.018419 0.004721 -0.250000
  endloop
endfacet
facet normal 0.000196 -0.000189 0.000000
  outer loop
    vertex 0.018054 0.004347 0.250000
    vertex 0.017676 0.003954 0.250000
    vertex 0.017676 0.003954 -0.250000
  endloop
endfacet
facet normal 0.000196 -0.000189 0.000000
  outer loop
    vertex 0.018054 0.004347 0.250000
    vertex 0.017676 0.003954 -0.250000
    vertex 0.018054 0.004347 -0.250000
  endloop
endfacet
facet normal 0.000206 -0.000196 0.000000
  outer loop
    vertex 0.017676 0.003954 0.250000
    vertex 0.017284 0.003542 0.250000
    vertex 0.017284 0.003542 -0.250000
  endloop
endfacet
facet normal 0.000206 -0.000196 0.000000
  outer loop
    vertex 0.017676 0.003954 0.250000
    vertex 0.017284 0.003542 -0.250000
    vertex 0.017676 0.003954 -0.250000
  endloop
endfacet
facet normal 0.000216 -0.000203 0.000000
  outer loop
    vertex 0.017284 0.003542 0.250000
    vertex 0.016878 0.003110 0.250000
    vertex 0.016878 0.003110 -0.250000
  endloop
endfacet
facet normal 0.000216 -0.000203 0.000000
  outer loop
    vertex 0.017284 0.003542 0.250000
    vertex 0.016878 0.003110 -0.250000
    vertex 0.017284 0.003542 -0.250000
  endloop
endfacet
facet normal 0.000226 -0.000210 0.000000
  outer loop
    vertex 0.016878 0.003110 0.250000
    vertex 0.016458 0.002657 0.250000
    vertex 0.016458 0.002657 -0.250000
  endloop
endfacet
facet normal 0.000226 -0.000210 0.000000
  outer loop
    vertex 0.016878 0.003110 0.250000
    vertex 0.016458 0.002657 -0.250000
    vertex 0.016878 0.003110 -0.250000
  endloop
endfacet
facet normal 0.000237 -0.000218 0.000000
  outer loop
    vertex 0.016458 0.002657 0.250000
    vertex 0.016022 0.002183 0.250000
    vertex 0.016022 0.002183 -0.250000
  endloop
endfacet
facet normal 0.000237 -0.000218 0.000000
  outer loop
    vertex 0.016458 0.002657 0.250000
    vertex 0.016022 0.002183 -0.250000
    vertex 0.016458 0.002657 -0.250000
  endloop
endfacet
facet normal 0.000248 -0.000226 0.000000
  outer loop
    vertex 0.016022 0.002183 0.250000
    vertex 0.015570 0.001687 0.250000
    vertex 0.015570 0.001687 -0.250000
  endloop
endfacet
facet normal 0.000248 -0.000226 0.000000
  outer loop
    vertex 0.016022 0.002183 0.250000
    vertex 0.015570 0.001687 -0.250000
    vertex 0.016022 0.002183 -0.250000
  endloop
endfacet
facet normal 0.000259 -0.000235 0.000000
  outer loop
    vertex 0.015570 0.001687 0.250000
    vertex 0.015100 0.001169 0.250000
    vertex 0.015100 0.001169 -0.250000
  endloop
endfacet
facet normal 0.000259 -0.000235 0.000000
  outer loop
    vertex 0.015570 0.001687 0.250000
    vertex 0.015100 0.001169 -0.250000
    vertex 0.015570 0.001687 -0.250000
  endloop
endfacet
facet normal 0.000271 -0.000245 0.000000
  outer loop
    vertex 0.015100 0.001169 0.250000
    vertex 0.014610 0.000628 0.250000
    vertex 0.014610 0.000628 -0.250000
  endloop
endfacet
facet normal 0.000271 -0.000245 0.000000
  outer loop
    vertex 0.015100 0.001169 0.250000
    vertex 0.014610 0.000628 -0.250000
    vertex 0.015100 0.001169 -0.250000
  endloop
endfacet
facet normal 0.000282 -0.000254 0.000000
  outer loop
    vertex 0.014610 0.000628 0.250000
    vertex 0.014102 0.000063 0.250000
    vertex 0.014102 0.000063 -0.250000
  endloop
endfacet
facet normal 0.000282 -0.000254 0.000000
  outer loop
    vertex 0.014610 0.000628 0.250000
    vertex 0.014102 0.000063 -0.250000
    vertex 0.014610 0.000628 -0.250000
  endloop
endfacet
facet normal 0.000294 -0.000266 0.000000
  outer loop
    vertex 0.014102 0.000063 0.250000
    vertex 0.013571 -0.000525 0.250000
    vertex 0.013571 -0.000525 -0.250000
  endloop
endfacet
facet normal 0.000294 -0.000266 0.000000
  outer loop
    vertex 0.014102 0.000063 0.250000
    vertex 0.013571 -0.000525 -0.250000
    vertex 0.014102 0.000063 -0.250000
  endloop
endfacet
facet normal 0.000307 -0.000277 0.000000
  outer loop
    vertex 0.013571 -0.000525 0.250000
    vertex 0.013017 -0.001138 0.250000
    vertex 0.013017 -0.001138 -0.250000
  endloop
endfacet
facet normal 0.000307 -0.000277 0.000000
  outer loop
    vertex 0.013571 -0.000525 0.250000
    vertex 0.013017 -0.001138 -0.250000
    vertex 0.013571 -0.000525 -0.250000
  endloop
endfacet
facet normal 0.000318 -0.000290 0.000000
  outer loop
    vertex 0.013017 -0.001138 0.250000
    vertex 0.012437 -0.001775 0.250000
    vertex 0.012437 -0.001775 -0.250000
  endloop
endfacet
facet normal 0.000318 -0.000290 0.000000
  outer loop
    vertex 0.013017 -0.001138 0.250000
    vertex 0.012437 -0.001775 -0.250000
    vertex 0.013017 -0.001138 -0.250000
  endloop
endfacet
facet normal 0.000330 -0.000304 0.000000
  outer loop
    vertex 0.012437 -0.001775 0.250000
    vertex 0.011829 -0.002435 0.250000
    vertex 0.011829 -0.002435 -0.250000
  endloop
endfacet
facet normal 0.000330 -0.000304 0.000000
  outer loop
    vertex 0.012437 -0.001775 0.250000
    vertex 0.011829 -0.002435 -0.250000
    vertex 0.012437 -0.001775 -0.250000
  endloop
endfacet
facet normal 0.000342 -0.000319 0.000000
  outer loop
    vertex 0.011829 -0.002435 0.250000
    vertex 0.011191 -0.003119 0.250000
    vertex 0.011191 -0.003119 -0.250000
  endloop
endfacet
facet normal 0.000342 -0.000319 0.000000
  outer loop
    vertex 0.011829 -0.002435 0.250000
    vertex 0.011191 -0.003119 -0.250000
    vertex 0.011829 -0.002435 -0.250000
  endloop
endfacet
facet normal 0.000355 -0.000335 0.000000
  outer loop
    vertex 0.011191 -0.003119 0.250000
    vertex 0.010522 -0.003829 0.250000
    vertex 0.010522 -0.003829 -0.250000
  endloop
endfacet
facet normal 0.000355 -0.000335 0.000000
  outer loop
    vertex 0.011191 -0.003119 0.250000
    vertex 0.010522 -0.003829 -0.250000
    vertex 0.011191 -0.003119 -0.250000
  endloop
endfacet
facet normal 0.000368 -0.000350 0.000000
  outer loop
    vertex 0.010522 -0.003829 0.250000
    vertex 0.009822 -0.004565 0.250000
    vertex 0.009822 -0.004565 -0.250000
  endloop
endfacet
facet normal 0.000368 -0.000350 0.000000
  outer loop
    vertex 0.010522 -0.003829 0.250000
    vertex 0.009822 -0.004565 -0.250000
    vertex 0.010522 -0.003829 -0.250000
  endloop
endfacet
facet normal 0.000382 -0.000367 0.000000
  outer loop
    vertex 0.009822 -0.004565 0.250000
    vertex 0.009087 -0.005329 0.250000
    vertex 0.009087 -0.005329 -0.250000
  endloop
endfacet
facet normal 0.000382 -0.000367 0.000000
  outer loop
    vertex 0.009822 -0.004565 0.250000
    vertex 0.009087 -0.005329 -0.250000
    vertex 0.009822 -0.004565 -0.250000
  endloop
endfacet
facet normal 0.000397 -0.000384 0.000000
  outer loop
    vertex 0.009087 -0.005329 0.250000
    vertex 0.008319 -0.006122 0.250000
    vertex 0.008319 -0.006122 -0.250000
  endloop
endfacet
facet normal 0.000397 -0.000384 0.000000
  outer loop
    vertex 0.009087 -0.005329 0.250000
    vertex 0.008319 -0.006122 -0.250000
    vertex 0.009087 -0.005329 -0.250000
  endloop
endfacet
facet normal 0.000411 -0.000402 0.000000
  outer loop
    vertex 0.008319 -0.006122 0.250000
    vertex 0.007514 -0.006945 0.250000
    vertex 0.007514 -0.006945 -0.250000
  endloop
endfacet
facet normal 0.000411 -0.000402 0.000000
  outer loop
    vertex 0.008319 -0.006122 0.250000
    vertex 0.007514 -0.006945 -0.250000
    vertex 0.008319 -0.006122 -0.250000
  endloop
endfacet
facet normal 0.000427 -0.000421 0.000000
  outer loop
    vertex 0.007514 -0.006945 0.250000
    vertex 0.006672 -0.007799 0.250000
    vertex 0.006672 -0.007799 -0.250000
  endloop
endfacet
facet normal 0.000427 -0.000421 0.000000
  outer loop
    vertex 0.007514 -0.006945 0.250000
    vertex 0.006672 -0.007799 -0.250000
    vertex 0.007514 -0.006945 -0.250000
  endloop
endfacet
facet normal 0.000443 -0.000441 0.000000
  outer loop
    vertex 0.006672 -0.007799 0.250000
    vertex 0.005790 -0.008686 0.250000
    vertex 0.005790 -0.008686 -0.250000
  endloop
endfacet
facet normal 0.000443 -0.000441 0.000000
  outer loop
    vertex 0.006672 -0.007799 0.250000
    vertex 0.005790 -0.008686 -0.250000
    vertex 0.006672 -0.007799 -0.250000
  endloop
endfacet
facet normal 0.000461 -0.000461 0.000000
  outer loop
    vertex 0.005790 -0.008686 0.250000
    vertex 0.004867 -0.009607 0.250000
    vertex 0.004867 -0.009607 -0.250000
  endloop
endfacet
facet normal 0.000461 -0.000461 0.000000
  outer loop
    vertex 0.005790 -0.008686 0.250000
    vertex 0.004867 -0.009607 -0.250000
    vertex 0.005790 -0.008686 -0.250000
  endloop
endfacet
facet normal 0.000479 -0.000482 0.000000
  outer loop
    vertex 0.004867 -0.009607 0.250000
    vertex 0.003903 -0.010564 0.250000
    vertex 0.003903 -0.010564 -0.250000
  endloop
endfacet
facet normal 0.000479 -0.000482 0.000000
  outer loop
    vertex 0.004867 -0.009607 0.250000
    vertex 0.003903 -0.010564 -0.250000
    vertex 0.004867 -0.009607 -0.250000
  endloop
endfacet
facet normal 0.000497 -0.000504 0.000000
  outer loop
    vertex 0.003903 -0.010564 0.250000
    vertex 0.002894 -0.011559 0.250000
    vertex 0.002894 -0.011559 -0.250000
  endloop
endfacet
facet normal 0.000497 -0.000504 0.000000
  outer loop
    vertex 0.003903 -0.010564 0.250000
    vertex 0.002894 -0.011559 -0.250000
    vertex 0.003903 -0.010564 -0.250000
  endloop
endfacet
facet normal 0.000518 -0.000526 0.000000
  outer loop
    vertex 0.002894 -0.011559 0.250000
    vertex 0.001841 -0.012594 0.250000
    vertex 0.001841 -0.012594 -0.250000
  endloop
endfacet
facet normal 0.000518 -0.000526 0.000000
  outer loop
    vertex 0.002894 -0.011559 0.250000
    vertex 0.001841 -0.012594 -0.250000
    vertex 0.002894 -0.011559 -0.250000
  endloop
endfacet
facet normal 0.000539 -0.000549 0.000000
  outer loop
    vertex 0.001841 -0.012594 0.250000
    vertex 0.000743 -0.013672 0.250000
    vertex 0.000743 -0.013672 -0.250000
  endloop
endfacet
facet normal 0.000539 -0.000549 0.000000
  outer loop
    vertex 0.001841 -0.012594 0.250000
    vertex 0.000743 -0.013672 -0.250000
    vertex 0.001841 -0.012594 -0.250000
  endloop
endfacet
facet normal 0.000561 -0.000573 0.000000
  outer loop
    vertex 0.000743 -0.013672 0.250000
    vertex -0.000403 -0.014794 0.250000
    vertex -0.000403 -0.014794 -0.250000
  endloop
endfacet
facet normal 0.000561 -0.000573 0.000000
  outer loop
    vertex 0.000743 -0.013672 0.250000
    vertex -0.000403 -0.014794 -0.250000
    vertex 0.000743 -0.013672 -0.250000
  endloop
endfacet
facet normal 0.000585 -0.000597 0.000000
  outer loop
    vertex -0.000403 -0.014794 0.250000
    vertex -0.001597 -0.015965 0.250000
    vertex -0.001597 -0.015965 -0.250000
  endloop
endfacet
facet normal 0.000585 -0.000597 0.000000
  outer loop
    vertex -0.000403 -0.014794 0.250000
    vertex -0.001597 -0.015965 -0.250000
    vertex -0.000403 -0.014794 -0.250000
  endloop
endfacet
facet normal 0.000610 -0.000622 0.000000
  outer loop
    vertex -0.001597 -0.015965 0.250000
    vertex -0.002841 -0.017186 0.250000
    vertex -0.002841 -0.017186 -0.250000
  endloop
endfacet
facet normal 0.000610 -0.000622 0.000000
  outer loop
    vertex -0.001597 -0.015965 0.250000
    vertex -0.002841 -0.017186 -0.250000
    vertex -0.001597 -0.015965 -0.250000
  endloop
endfacet
facet normal 0.000638 -0.000647 0.000000
  outer loop
    vertex -0.002841 -0.017186 0.250000
    vertex -0.004135 -0.018462 0.250000
    vertex -0.004135 -0.018462 -0.250000
  endloop
endfacet
facet normal 0.000638 -0.000647 0.000000
  outer loop
    vertex -0.002841 -0.017186 0.250000
    vertex -0.004135 -0.018462 -0.250000
    vertex -0.002841 -0.017186 -0.250000
  endloop
endfacet
facet normal 0.000667 -0.000671 0.000000
  outer loop
    vertex -0.004135 -0.018462 0.250000
    vertex -0.005477 -0.019797 0.250000
    vertex -0.005477 -0.019797 -0.250000
  endloop
endfacet
facet normal 0.000667 -0.000671 0.000000
  outer loop
    vertex -0.004135 -0.018462 0.250000
    vertex -0.005477 -0.019797 -0.250000
    vertex -0.004135 -0.018462 -0.250000
  endloop
endfacet
facet normal 0.000699 -0.000697 0.000000
  outer loop
    vertex -0.005477 -0.019797 0.250000
    vertex -0.006871 -0.021195 0.250000
    vertex -0.006871 -0.021195 -0.250000
  endloop
endfacet
facet normal 0.000699 -0.000697 0.000000
  outer loop
    vertex -0.005477 -0.019797 0.250000
    vertex -0.006871 -0.021195 -0.250000
    vertex -0.005477 -0.019797 -0.250000
  endloop
endfacet
facet normal 0.000734 -0.000722 0.000000
  outer loop
    vertex -0.006871 -0.021195 0.250000
    vertex -0.008314 -0.022662 0.250000
    vertex -0.008314 -0.022662 -0.250000
  endloop
endfacet
facet normal 0.000734 -0.000722 0.000000
  outer loop
    vertex -0.006871 -0.021195 0.250000
    vertex -0.008314 -0.022662 -0.250000
    vertex -0.006871 -0.021195 -0.250000
  endloop
endfacet
facet normal 0.000770 -0.000746 0.000000
  outer loop
    vertex -0.008314 -0.022662 0.250000
    vertex -0.009806 -0.024203 0.250000
    vertex -0.009806 -0.024203 -0.250000
  endloop
endfacet
facet normal 0.000770 -0.000746 0.000000
  outer loop
    vertex -0.008314 -0.022662 0.250000
    vertex -0.009806 -0.024203 -0.250000
    vertex -0.008314 -0.022662 -0.250000
  endloop
endfacet
facet normal 0.000811 -0.000769 0.000000
  outer loop
    vertex -0.009806 -0.024203 0.250000
    vertex -0.011344 -0.025825 0.250000
    vertex -0.011344 -0.025825 -0.250000
  endloop
endfacet
facet normal 0.000811 -0.000769 0.000000
  outer loop
    vertex -0.009806 -0.024203 0.250000
    vertex -0.011344 -0.025825 -0.250000
    vertex -0.009806 -0.024203 -0.250000
  endloop
endfacet
facet normal 0.000855 -0.000791 0.000000
  outer loop
    vertex -0.011344 -0.025825 0.250000
    vertex -0.012926 -0.027535 0.250000
    vertex -0.012926 -0.027535 -0.250000
  endloop
endfacet
facet normal 0.000855 -0.000791 0.000000
  outer loop
    vertex -0.011344 -0.025825 0.250000
    vertex -0.012926 -0.027535 -0.250000
    vertex -0.011344 -0.025825 -0.250000
  endloop
endfacet
facet normal 0.000904 -0.000812 0.000000
  outer loop
    vertex -0.012926 -0.027535 0.250000
    vertex -0.014549 -0.029343 0.250000
    vertex -0.014549 -0.029343 -0.250000
  endloop
endfacet
facet normal 0.000904 -0.000812 0.000000
  outer loop
    vertex -0.012926 -0.027535 0.250000
    vertex -0.014549 -0.029343 -0.250000
    vertex -0.012926 -0.027535 -0.250000
  endloop
endfacet
facet normal 0.000957 -0.000828 0.000000
  outer loop
    vertex -0.014549 -0.029343 0.250000
    vertex -0.016205 -0.031258 0.250000
    vertex -0.016205 -0.031258 -0.250000
  endloop
endfacet
facet normal 0.000957 -0.000828 0.000000
  outer loop
    vertex -0.014549 -0.029343 0.250000
    vertex -0.016205 -0.031258 -0.250000
    vertex -0.014549 -0.029343 -0.250000
  endloop
endfacet
facet normal 0.001016 -0.000843 0.000000
  outer loop
    vertex -0.016205 -0.031258 0.250000
    vertex -0.017891 -0.033289 0.250000
    vertex -0.017891 -0.033289 -0.250000
  endloop
endfacet
facet normal 0.001016 -0.000843 0.000000
  outer loop
    vertex -0.016205 -0.031258 0.250000
    vertex -0.017891 -0.033289 -0.250000
    vertex -0.016205 -0.031258 -0.250000
  endloop
endfacet
facet normal 0.001080 -0.000851 0.000000
  outer loop
    vertex -0.017891 -0.033289 0.250000
    vertex -0.019592 -0.035450 0.250000
    vertex -0.019592 -0.035450 -0.250000
  endloop
endfacet
facet normal 0.001080 -0.000851 0.000000
  outer loop
    vertex -0.017891 -0.033289 0.250000
    vertex -0.019592 -0.035450 -0.250000
    vertex -0.017891 -0.033289 -0.250000
  endloop
endfacet
facet normal 0.001148 -0.000858 0.000000
  outer loop
    vertex -0.019592 -0.035450 0.250000
    vertex -0.021309 -0.037747 0.250000
    vertex -0.021309 -0.037747 -0.250000
  endloop
endfacet
facet normal 0.001148 -0.000858 0.000000
  outer loop
    vertex -0.019592 -0.035450 0.250000
    vertex -0.021309 -0.037747 -0.250000
    vertex -0.019592 -0.035450 -0.250000
  endloop
endfacet
facet normal 0.001156 -0.000837 0.000000
  outer loop
    vertex -0.021309 -0.037747 0.250000
    vertex -0.022983 -0.040060 0.250000
    vertex -0.022983 -0.040060 -0.250000
  endloop
endfacet
facet normal 0.001156 -0.000837 0.000000
  outer loop
    vertex -0.021309 -0.037747 0.250000
    vertex -0.022983 -0.040060 -0.250000
    vertex -0.021309 -0.037747 -0.250000
  endloop
endfacet
facet normal 0.001163 -0.000818 0.000000
  outer loop
    vertex -0.022983 -0.040060 0.250000
    vertex -0.024619 -0.042386 0.250000
    vertex -0.024619 -0.042386 -0.250000
  endloop
endfacet
facet normal 0.001163 -0.000818 0.000000
  outer loop
    vertex -0.022983 -0.040060 0.250000
    vertex -0.024619 -0.042386 -0.250000
    vertex -0.022983 -0.040060 -0.250000
  endloop
endfacet
facet normal 0.001170 -0.000797 0.000000
  outer loop
    vertex -0.024619 -0.042386 0.250000
    vertex -0.026214 -0.044726 0.250000
    vertex -0.026214 -0.044726 -0.250000
  endloop
endfacet
facet normal 0.001170 -0.000797 0.000000
  outer loop
    vertex -0.024619 -0.042386 0.250000
    vertex -0.026214 -0.044726 -0.250000
    vertex -0.024619 -0.042386 -0.250000
  endloop
endfacet
facet normal 0.001179 -0.000774 0.000000
  outer loop
    vertex -0.026214 -0.044726 0.250000
    vertex -0.027763 -0.047083 0.250000
    vertex -0.027763 -0.047083 -0.250000
  endloop
endfacet
facet normal 0.001179 -0.000774 0.000000
  outer loop
    vertex -0.026214 -0.044726 0.250000
    vertex -0.027763 -0.047083 -0.250000
    vertex -0.026214 -0.044726 -0.250000
  endloop
endfacet
facet normal 0.001186 -0.000750 0.000000
  outer loop
    vertex -0.027763 -0.047083 0.250000
    vertex -0.029264 -0.049456 0.250000
    vertex -0.029264 -0.049456 -0.250000
  endloop
endfacet
facet normal 0.001186 -0.000750 0.000000
  outer loop
    vertex -0.027763 -0.047083 0.250000
    vertex -0.029264 -0.049456 -0.250000
    vertex -0.027763 -0.047083 -0.250000
  endloop
endfacet
facet normal 0.001196 -0.000725 0.000000
  outer loop
    vertex -0.029264 -0.049456 0.250000
    vertex -0.030714 -0.051848 0.250000
    vertex -0.030714 -0.051848 -0.250000
  endloop
endfacet
facet normal 0.001196 -0.000725 0.000000
  outer loop
    vertex -0.029264 -0.049456 0.250000
    vertex -0.030714 -0.051848 -0.250000
    vertex -0.029264 -0.049456 -0.250000
  endloop
endfacet
facet normal 0.001205 -0.000697 0.000000
  outer loop
    vertex -0.030714 -0.051848 0.250000
    vertex -0.032108 -0.054259 0.250000
    vertex -0.032108 -0.054259 -0.250000
  endloop
endfacet
facet normal 0.001205 -0.000697 0.000000
  outer loop
    vertex -0.030714 -0.051848 0.250000
    vertex -0.032108 -0.054259 -0.250000
    vertex -0.030714 -0.051848 -0.250000
  endloop
endfacet
facet normal 0.001216 -0.000668 0.000000
  outer loop
    vertex -0.032108 -0.054259 0.250000
    vertex -0.033444 -0.056690 0.250000
    vertex -0.033444 -0.056690 -0.250000
  endloop
endfacet
facet normal 0.001216 -0.000668 0.000000
  outer loop
    vertex -0.032108 -0.054259 0.250000
    vertex -0.033444 -0.056690 -0.250000
    vertex -0.032108 -0.054259 -0.250000
  endloop
endfacet
facet normal 0.001226 -0.000636 0.000000
  outer loop
    vertex -0.033444 -0.056690 0.250000
    vertex -0.034716 -0.059142 0.250000
    vertex -0.034716 -0.059142 -0.250000
  endloop
endfacet
facet normal 0.001226 -0.000636 0.000000
  outer loop
    vertex -0.033444 -0.056690 0.250000
    vertex -0.034716 -0.059142 -0.250000
    vertex -0.033444 -0.056690 -0.250000
  endloop
endfacet
facet normal 0.001236 -0.000603 0.000000
  outer loop
    vertex -0.034716 -0.059142 0.250000
    vertex -0.035921 -0.061614 0.250000
    vertex -0.035921 -0.061614 -0.250000
  endloop
endfacet
facet normal 0.001236 -0.000603 0.000000
  outer loop
    vertex -0.034716 -0.059142 0.250000
    vertex -0.035921 -0.061614 -0.250000
    vertex -0.034716 -0.059142 -0.250000
  endloop
endfacet
facet normal 0.001247 -0.000566 0.000000
  outer loop
    vertex -0.035921 -0.061614 0.250000
    vertex -0.037054 -0.064108 0.250000
    vertex -0.037054 -0.064108 -0.250000
  endloop
endfacet
facet normal 0.001247 -0.000566 0.000000
  outer loop
    vertex -0.035921 -0.061614 0.250000
    vertex -0.037054 -0.064108 -0.250000
    vertex -0.035921 -0.061614 -0.250000
  endloop
endfacet
facet normal 0.001258 -0.000528 0.000000
  outer loop
    vertex -0.037054 -0.064108 0.250000
    vertex -0.038109 -0.066624 0.250000
    vertex -0.038109 -0.066624 -0.250000
  endloop
endfacet
facet normal 0.001258 -0.000528 0.000000
  outer loop
    vertex -0.037054 -0.064108 0.250000
    vertex -0.038109 -0.066624 -0.250000
    vertex -0.037054 -0.064108 -0.250000
  endloop
endfacet
facet normal 0.001268 -0.000486 0.000000
  outer loop
    vertex -0.038109 -0.066624 0.250000
    vertex -0.039082 -0.069160 0.250000
    vertex -0.039082 -0.069160 -0.250000
  endloop
endfacet
facet normal 0.001268 -0.000486 0.000000
  outer loop
    vertex -0.038109 -0.066624 0.250000
    vertex -0.039082 -0.069160 -0.250000
    vertex -0.038109 -0.066624 -0.250000
  endloop
endfacet
facet normal 0.001278 -0.000443 0.000000
  outer loop
    vertex -0.039082 -0.069160 0.250000
    vertex -0.039967 -0.071716 0.250000
    vertex -0.039967 -0.071716 -0.250000
  endloop
endfacet
facet normal 0.001278 -0.000443 0.000000
  outer loop
    vertex -0.039082 -0.069160 0.250000
    vertex -0.039967 -0.071716 -0.250000
    vertex -0.039082 -0.069160 -0.250000
  endloop
endfacet
facet normal 0.001286 -0.000402 0.000000
  outer loop
    vertex -0.039967 -0.071716 0.250000
    vertex -0.040772 -0.074288 0.250000
    vertex -0.040772 -0.074288 -0.250000
  endloop
endfacet
facet normal 0.001286 -0.000402 0.000000
  outer loop
    vertex -0.039967 -0.071716 0.250000
    vertex -0.040772 -0.074288 -0.250000
    vertex -0.039967 -0.071716 -0.250000
  endloop
endfacet
facet normal 0.001290 -0.000367 0.000000
  outer loop
    vertex -0.040772 -0.074288 0.250000
    vertex -0.041506 -0.076868 0.250000
    vertex -0.041506 -0.076868 -0.250000
  endloop
endfacet
facet normal 0.001290 -0.000367 0.000000
  outer loop
    vertex -0.040772 -0.074288 0.250000
    vertex -0.041506 -0.076868 -0.250000
    vertex -0.040772 -0.074288 -0.250000
  endloop
endfacet
facet normal 0.001299 -0.000314 0.000000
  outer loop
    vertex -0.041506 -0.076868 0.250000
    vertex -0.042134 -0.079465 0.250000
    vertex -0.042134 -0.079465 -0.250000
  endloop
endfacet
facet normal 0.001299 -0.000314 0.000000
  outer loop
    vertex -0.041506 -0.076868 0.250000
    vertex -0.042134 -0.079465 -0.250000
    vertex -0.041506 -0.076868 -0.250000
  endloop
endfacet
facet normal 0.001305 -0.000257 0.000000
  outer loop
    vertex -0.042134 -0.079465 0.250000
    vertex -0.042648 -0.082076 0.250000
    vertex -0.042648 -0.082076 -0.250000
  endloop
endfacet
facet normal 0.001305 -0.000257 0.000000
  outer loop
    vertex -0.042134 -0.079465 0.250000
    vertex -0.042648 -0.082076 -0.250000
    vertex -0.042134 -0.079465 -0.250000
  endloop
endfacet
facet normal 0.001309 -0.000207 0.000000
  outer loop
    vertex -0.042648 -0.082076 0.250000
    vertex -0.043062 -0.084693 0.250000
    vertex -0.043062 -0.084693 -0.250000
  endloop
endfacet
facet normal 0.001309 -0.000207 0.000000
  outer loop
    vertex -0.042648 -0.082076 0.250000
    vertex -0.043062 -0.084693 -0.250000
    vertex -0.042648 -0.082076 -0.250000
  endloop
endfacet
facet normal 0.001314 -0.000117 0.000000
  outer loop
    vertex -0.043062 -0.084693 0.250000
    vertex -0.043297 -0.087321 0.250000
    vertex -0.043297 -0.087321 -0.250000
  endloop
endfacet
facet normal 0.001314 -0.000117 0.000000
  outer loop
    vertex -0.043062 -0.084693 0.250000
    vertex -0.043297 -0.087321 -0.250000
    vertex -0.043062 -0.084693 -0.250000
  endloop
endfacet
facet normal 0.001314 -0.000014 0.000000
  outer loop
    vertex -0.043297 -0.087321 0.250000
    vertex -0.043324 -0.089948 0.250000
    vertex -0.043324 -0.089948 -0.250000
  endloop
endfacet
facet normal 0.001314 -0.000014 0.000000
  outer loop
    vertex -0.043297 -0.087321 0.250000
    vertex -0.043324 -0.089948 -0.250000
    vertex -0.043297 -0.087321 -0.250000
  endloop
endfacet
facet normal 0.001307 0.000062 0.000000
  outer loop
    vertex -0.043324 -0.089948 0.250000
    vertex -0.043201 -0.092562 0.250000
    vertex -0.043201 -0.092562 -0.250000
  endloop
endfacet
facet normal 0.001307 0.000062 0.000000
  outer loop
    vertex -0.043324 -0.089948 0.250000
    vertex -0.043201 -0.092562 -0.250000
    vertex -0.043324 -0.089948 -0.250000
  endloop
endfacet
facet normal 0.001290 0.000179 0.000000
  outer loop
    vertex -0.043201 -0.092562 0.250000
    vertex -0.042842 -0.095142 0.250000
    vertex -0.042842 -0.095142 -0.250000
  endloop
endfacet
facet normal 0.001290 0.000179 0.000000
  outer loop
    vertex -0.043201 -0.092562 0.250000
    vertex -0.042842 -0.095142 -0.250000
    vertex -0.043201 -0.092562 -0.250000
  endloop
endfacet
facet normal 0.001248 0.000353 0.000000
  outer loop
    vertex -0.042842 -0.095142 0.250000
    vertex -0.042137 -0.097638 0.250000
    vertex -0.042137 -0.097638 -0.250000
  endloop
endfacet
facet normal 0.001248 0.000353 0.000000
  outer loop
    vertex -0.042842 -0.095142 0.250000
    vertex -0.042137 -0.097638 -0.250000
    vertex -0.042842 -0.095142 -0.250000
  endloop
endfacet
facet normal 0.001190 0.000504 0.000000
  outer loop
    vertex -0.042137 -0.097638 0.250000
    vertex -0.041129 -0.100018 0.250000
    vertex -0.041129 -0.100018 -0.250000
  endloop
endfacet
facet normal 0.001190 0.000504 0.000000
  outer loop
    vertex -0.042137 -0.097638 0.250000
    vertex -0.041129 -0.100018 -0.250000
    vertex -0.042137 -0.097638 -0.250000
  endloop
endfacet
facet normal 0.001123 0.000628 0.000000
  outer loop
    vertex -0.041129 -0.100018 0.250000
    vertex -0.039873 -0.102263 0.250000
    vertex -0.039873 -0.102263 -0.250000
  endloop
endfacet
facet normal 0.001123 0.000628 0.000000
  outer loop
    vertex -0.041129 -0.100018 0.250000
    vertex -0.039873 -0.102263 -0.250000
    vertex -0.041129 -0.100018 -0.250000
  endloop
endfacet
facet normal 0.001005 0.000796 0.000000
  outer loop
    vertex -0.039873 -0.102263 0.250000
    vertex -0.038281 -0.104273 0.250000
    vertex -0.038281 -0.104273 -0.250000
  endloop
endfacet
facet normal 0.001005 0.000796 0.000000
  outer loop
    vertex -0.039873 -0.102263 0.250000
    vertex -0.038281 -0.104273 -0.250000
    vertex -0.039873 -0.102263 -0.250000
  endloop
endfacet
facet normal 0.000797 0.000992 0.000000
  outer loop
    vertex -0.038281 -0.104273 0.250000
    vertex -0.036297 -0.105868 0.250000
    vertex -0.036297 -0.105868 -0.250000
  endloop
endfacet
facet normal 0.000797 0.000992 0.000000
  outer loop
    vertex -0.038281 -0.104273 0.250000
    vertex -0.036297 -0.105868 -0.250000
    vertex -0.038281 -0.104273 -0.250000
  endloop
endfacet
facet normal 0.000599 0.001121 0.000000
  outer loop
    vertex -0.036297 -0.105868 0.250000
    vertex -0.034055 -0.107067 0.250000
    vertex -0.034055 -0.107067 -0.250000
  endloop
endfacet
facet normal 0.000599 0.001121 0.000000
  outer loop
    vertex -0.036297 -0.105868 0.250000
    vertex -0.034055 -0.107067 -0.250000
    vertex -0.036297 -0.105868 -0.250000
  endloop
endfacet
facet normal 0.000427 0.001191 0.000000
  outer loop
    vertex -0.034055 -0.107067 0.250000
    vertex -0.031672 -0.107920 0.250000
    vertex -0.031672 -0.107920 -0.250000
  endloop
endfacet
facet normal 0.000427 0.001191 0.000000
  outer loop
    vertex -0.034055 -0.107067 0.250000
    vertex -0.031672 -0.107920 -0.250000
    vertex -0.034055 -0.107067 -0.250000
  endloop
endfacet
facet normal 0.000230 0.001243 0.000000
  outer loop
    vertex -0.031672 -0.107920 0.250000
    vertex -0.029187 -0.108379 0.250000
    vertex -0.029187 -0.108379 -0.250000
  endloop
endfacet
facet normal 0.000230 0.001243 0.000000
  outer loop
    vertex -0.031672 -0.107920 0.250000
    vertex -0.029187 -0.108379 -0.250000
    vertex -0.031672 -0.107920 -0.250000
  endloop
endfacet
facet normal 0.000140 0.001219 0.000000
  outer loop
    vertex -0.029187 -0.108379 0.250000
    vertex -0.026748 -0.108659 0.250000
    vertex -0.026748 -0.108659 -0.250000
  endloop
endfacet
facet normal 0.000140 0.001219 0.000000
  outer loop
    vertex -0.029187 -0.108379 0.250000
    vertex -0.026748 -0.108659 -0.250000
    vertex -0.029187 -0.108379 -0.250000
  endloop
endfacet
facet normal 0.000386 -0.001173 0.000000
  outer loop
    vertex -0.026748 -0.108659 0.250000
    vertex -0.029094 -0.109431 0.250000
    vertex -0.029094 -0.109431 -0.250000
  endloop
endfacet
facet normal 0.000386 -0.001173 0.000000
  outer loop
    vertex -0.026748 -0.108659 0.250000
    vertex -0.029094 -0.109431 -0.250000
    vertex -0.026748 -0.108659 -0.250000
  endloop
endfacet
facet normal 0.000303 -0.001161 0.000000
  outer loop
    vertex -0.029094 -0.109431 0.250000
    vertex -0.031415 -0.110037 0.250000
    vertex -0.031415 -0.110037 -0.250000
  endloop
endfacet
facet normal 0.000303 -0.001161 0.000000
  outer loop
    vertex -0.029094 -0.109431 0.250000
    vertex -0.031415 -0.110037 -0.250000
    vertex -0.029094 -0.109431 -0.250000
  endloop
endfacet
facet normal 0.000301 -0.001087 0.000000
  outer loop
    vertex -0.031415 -0.110037 0.250000
    vertex -0.033590 -0.110640 0.250000
    vertex -0.033590 -0.110640 -0.250000
  endloop
endfacet
facet normal 0.000301 -0.001087 0.000000
  outer loop
    vertex -0.031415 -0.110037 0.250000
    vertex -0.033590 -0.110640 -0.250000
    vertex -0.031415 -0.110037 -0.250000
  endloop
endfacet
facet normal 0.000279 -0.001033 0.000000
  outer loop
    vertex -0.033590 -0.110640 0.250000
    vertex -0.035656 -0.111197 0.250000
    vertex -0.035656 -0.111197 -0.250000
  endloop
endfacet
facet normal 0.000279 -0.001033 0.000000
  outer loop
    vertex -0.033590 -0.110640 0.250000
    vertex -0.035656 -0.111197 -0.250000
    vertex -0.033590 -0.110640 -0.250000
  endloop
endfacet
facet normal 0.000257 -0.000981 0.000000
  outer loop
    vertex -0.035656 -0.111197 0.250000
    vertex -0.037619 -0.111711 0.250000
    vertex -0.037619 -0.111711 -0.250000
  endloop
endfacet
facet normal 0.000257 -0.000981 0.000000
  outer loop
    vertex -0.035656 -0.111197 0.250000
    vertex -0.037619 -0.111711 -0.250000
    vertex -0.035656 -0.111197 -0.250000
  endloop
endfacet
facet normal 0.000236 -0.000933 0.000000
  outer loop
    vertex -0.037619 -0.111711 0.250000
    vertex -0.039484 -0.112183 0.250000
    vertex -0.039484 -0.112183 -0.250000
  endloop
endfacet
facet normal 0.000236 -0.000933 0.000000
  outer loop
    vertex -0.037619 -0.111711 0.250000
    vertex -0.039484 -0.112183 -0.250000
    vertex -0.037619 -0.111711 -0.250000
  endloop
endfacet
facet normal 0.000216 -0.000886 0.000000
  outer loop
    vertex -0.039484 -0.112183 0.250000
    vertex -0.041256 -0.112615 0.250000
    vertex -0.041256 -0.112615 -0.250000
  endloop
endfacet
facet normal 0.000216 -0.000886 0.000000
  outer loop
    vertex -0.039484 -0.112183 0.250000
    vertex -0.041256 -0.112615 -0.250000
    vertex -0.039484 -0.112183 -0.250000
  endloop
endfacet
facet normal 0.000196 -0.000843 0.000000
  outer loop
    vertex -0.041256 -0.112615 0.250000
    vertex -0.042941 -0.113006 0.250000
    vertex -0.042941 -0.113006 -0.250000
  endloop
endfacet
facet normal 0.000196 -0.000843 0.000000
  outer loop
    vertex -0.041256 -0.112615 0.250000
    vertex -0.042941 -0.113006 -0.250000
    vertex -0.041256 -0.112615 -0.250000
  endloop
endfacet
facet normal 0.000175 -0.000801 0.000000
  outer loop
    vertex -0.042941 -0.113006 0.250000
    vertex -0.044543 -0.113357 0.250000
    vertex -0.044543 -0.113357 -0.250000
  endloop
endfacet
facet normal 0.000175 -0.000801 0.000000
  outer loop
    vertex -0.042941 -0.113006 0.250000
    vertex -0.044543 -0.113357 -0.250000
    vertex -0.042941 -0.113006 -0.250000
  endloop
endfacet
facet normal 0.000157 -0.000761 0.000000
  outer loop
    vertex -0.044543 -0.113357 0.250000
    vertex -0.046066 -0.113671 0.250000
    vertex -0.046066 -0.113671 -0.250000
  endloop
endfacet
facet normal 0.000157 -0.000761 0.000000
  outer loop
    vertex -0.044543 -0.113357 0.250000
    vertex -0.046066 -0.113671 -0.250000
    vertex -0.044543 -0.113357 -0.250000
  endloop
endfacet
facet normal 0.000144 -0.000723 0.000000
  outer loop
    vertex -0.046066 -0.113671 0.250000
    vertex -0.047512 -0.113958 0.250000
    vertex -0.047512 -0.113958 -0.250000
  endloop
endfacet
facet normal 0.000144 -0.000723 0.000000
  outer loop
    vertex -0.046066 -0.113671 0.250000
    vertex -0.047512 -0.113958 -0.250000
    vertex -0.046066 -0.113671 -0.250000
  endloop
endfacet
facet normal 0.000131 -0.000687 0.000000
  outer loop
    vertex -0.047512 -0.113958 0.250000
    vertex -0.048885 -0.114221 0.250000
    vertex -0.048885 -0.114221 -0.250000
  endloop
endfacet
facet normal 0.000131 -0.000687 0.000000
  outer loop
    vertex -0.047512 -0.113958 0.250000
    vertex -0.048885 -0.114221 -0.250000
    vertex -0.047512 -0.113958 -0.250000
  endloop
endfacet
facet normal 0.000121 -0.000652 0.000000
  outer loop
    vertex -0.048885 -0.114221 0.250000
    vertex -0.050189 -0.114462 0.250000
    vertex -0.050189 -0.114462 -0.250000
  endloop
endfacet
facet normal 0.000121 -0.000652 0.000000
  outer loop
    vertex -0.048885 -0.114221 0.250000
    vertex -0.050189 -0.114462 -0.250000
    vertex -0.048885 -0.114221 -0.250000
  endloop
endfacet
facet normal 0.000107 -0.000619 0.000000
  outer loop
    vertex -0.050189 -0.114462 0.250000
    vertex -0.051427 -0.114677 0.250000
    vertex -0.051427 -0.114677 -0.250000
  endloop
endfacet
facet normal 0.000107 -0.000619 0.000000
  outer loop
    vertex -0.050189 -0.114462 0.250000
    vertex -0.051427 -0.114677 -0.250000
    vertex -0.050189 -0.114462 -0.250000
  endloop
endfacet
facet normal 0.000096 -0.000588 0.000000
  outer loop
    vertex -0.051427 -0.114677 0.250000
    vertex -0.052603 -0.114868 0.250000
    vertex -0.052603 -0.114868 -0.250000
  endloop
endfacet
facet normal 0.000096 -0.000588 0.000000
  outer loop
    vertex -0.051427 -0.114677 0.250000
    vertex -0.052603 -0.114868 -0.250000
    vertex -0.051427 -0.114677 -0.250000
  endloop
endfacet
facet normal 0.000084 -0.000559 0.000000
  outer loop
    vertex -0.052603 -0.114868 0.250000
    vertex -0.053721 -0.115036 0.250000
    vertex -0.053721 -0.115036 -0.250000
  endloop
endfacet
facet normal 0.000084 -0.000559 0.000000
  outer loop
    vertex -0.052603 -0.114868 0.250000
    vertex -0.053721 -0.115036 -0.250000
    vertex -0.052603 -0.114868 -0.250000
  endloop
endfacet
facet normal 0.000073 -0.000530 0.000000
  outer loop
    vertex -0.053721 -0.115036 0.250000
    vertex -0.054782 -0.115183 0.250000
    vertex -0.054782 -0.115183 -0.250000
  endloop
endfacet
facet normal 0.000073 -0.000530 0.000000
  outer loop
    vertex -0.053721 -0.115036 0.250000
    vertex -0.054782 -0.115183 -0.250000
    vertex -0.053721 -0.115036 -0.250000
  endloop
endfacet
facet normal 0.000063 -0.000504 0.000000
  outer loop
    vertex -0.054782 -0.115183 0.250000
    vertex -0.055790 -0.115310 0.250000
    vertex -0.055790 -0.115310 -0.250000
  endloop
endfacet
facet normal 0.000063 -0.000504 0.000000
  outer loop
    vertex -0.054782 -0.115183 0.250000
    vertex -0.055790 -0.115310 -0.250000
    vertex -0.054782 -0.115183 -0.250000
  endloop
endfacet
facet normal 0.000054 -0.000479 0.000000
  outer loop
    vertex -0.055790 -0.115310 0.250000
    vertex -0.056747 -0.115417 0.250000
    vertex -0.056747 -0.115417 -0.250000
  endloop
endfacet
facet normal 0.000054 -0.000479 0.000000
  outer loop
    vertex -0.055790 -0.115310 0.250000
    vertex -0.056747 -0.115417 -0.250000
    vertex -0.055790 -0.115310 -0.250000
  endloop
endfacet
facet normal 0.000044 -0.000455 0.000000
  outer loop
    vertex -0.056747 -0.115417 0.250000
    vertex -0.057656 -0.115506 0.250000
    vertex -0.057656 -0.115506 -0.250000
  endloop
endfacet
facet normal 0.000044 -0.000455 0.000000
  outer loop
    vertex -0.056747 -0.115417 0.250000
    vertex -0.057656 -0.115506 -0.250000
    vertex -0.056747 -0.115417 -0.250000
  endloop
endfacet
facet normal 0.000036 -0.000431 0.000000
  outer loop
    vertex -0.057656 -0.115506 0.250000
    vertex -0.058519 -0.115578 0.250000
    vertex -0.058519 -0.115578 -0.250000
  endloop
endfacet
facet normal 0.000036 -0.000431 0.000000
  outer loop
    vertex -0.057656 -0.115506 0.250000
    vertex -0.058519 -0.115578 -0.250000
    vertex -0.057656 -0.115506 -0.250000
  endloop
endfacet
facet normal 0.000028 -0.000410 0.000000
  outer loop
    vertex -0.058519 -0.115578 0.250000
    vertex -0.059338 -0.115635 0.250000
    vertex -0.059338 -0.115635 -0.250000
  endloop
endfacet
facet normal 0.000028 -0.000410 0.000000
  outer loop
    vertex -0.058519 -0.115578 0.250000
    vertex -0.059338 -0.115635 -0.250000
    vertex -0.058519 -0.115578 -0.250000
  endloop
endfacet
facet normal 0.000021 -0.000389 0.000000
  outer loop
    vertex -0.059338 -0.115635 0.250000
    vertex -0.060116 -0.115677 0.250000
    vertex -0.060116 -0.115677 -0.250000
  endloop
endfacet
facet normal 0.000021 -0.000389 0.000000
  outer loop
    vertex -0.059338 -0.115635 0.250000
    vertex -0.060116 -0.115677 -0.250000
    vertex -0.059338 -0.115635 -0.250000
  endloop
endfacet
facet normal 0.000016 -0.000369 0.000000
  outer loop
    vertex -0.060116 -0.115677 0.250000
    vertex -0.060853 -0.115709 0.250000
    vertex -0.060853 -0.115709 -0.250000
  endloop
endfacet
facet normal 0.000016 -0.000369 0.000000
  outer loop
    vertex -0.060116 -0.115677 0.250000
    vertex -0.060853 -0.115709 -0.250000
    vertex -0.060116 -0.115677 -0.250000
  endloop
endfacet
facet normal 0.000009 -0.000350 0.000000
  outer loop
    vertex -0.060853 -0.115709 0.250000
    vertex -0.061553 -0.115727 0.250000
    vertex -0.061553 -0.115727 -0.250000
  endloop
endfacet
facet normal 0.000009 -0.000350 0.000000
  outer loop
    vertex -0.060853 -0.115709 0.250000
    vertex -0.061553 -0.115727 -0.250000
    vertex -0.060853 -0.115709 -0.250000
  endloop
endfacet
facet normal 0.000007 -0.000332 0.000000
  outer loop
    vertex -0.061553 -0.115727 0.250000
    vertex -0.062217 -0.115740 0.250000
    vertex -0.062217 -0.115740 -0.250000
  endloop
endfacet
facet normal 0.000007 -0.000332 0.000000
  outer loop
    vertex -0.061553 -0.115727 0.250000
    vertex -0.062217 -0.115740 -0.250000
    vertex -0.061553 -0.115727 -0.250000
  endloop
endfacet
facet normal 0.000002 -0.000314 0.000000
  outer loop
    vertex -0.062217 -0.115740 0.250000
    vertex -0.062846 -0.115745 0.250000
    vertex -0.062846 -0.115745 -0.250000
  endloop
endfacet
facet normal 0.000002 -0.000314 0.000000
  outer loop
    vertex -0.062217 -0.115740 0.250000
    vertex -0.062846 -0.115745 -0.250000
    vertex -0.062217 -0.115740 -0.250000
  endloop
endfacet
facet normal 0.000001 -0.000298 0.000000
  outer loop
    vertex -0.062846 -0.115745 0.250000
    vertex -0.063442 -0.115747 0.250000
    vertex -0.063442 -0.115747 -0.250000
  endloop
endfacet
facet normal 0.000001 -0.000298 0.000000
  outer loop
    vertex -0.062846 -0.115745 0.250000
    vertex -0.063442 -0.115747 -0.250000
    vertex -0.062846 -0.115745 -0.250000
  endloop
endfacet
facet normal 0.000001 -0.000283 0.000000
  outer loop
    vertex -0.063442 -0.115747 0.250000
    vertex -0.064008 -0.115748 0.250000
    vertex -0.064008 -0.115748 -0.250000
  endloop
endfacet
facet normal 0.000001 -0.000283 0.000000
  outer loop
    vertex -0.063442 -0.115747 0.250000
    vertex -0.064008 -0.115748 -0.250000
    vertex -0.063442 -0.115747 -0.250000
  endloop
endfacet
facet normal -0.000001 -0.000268 0.000000
  outer loop
    vertex -0.064008 -0.115748 0.250000
    vertex -0.064544 -0.115746 0.250000
    vertex -0.064544 -0.115746 -0.250000
  endloop
endfacet
facet normal -0.000001 -0.000268 -0.000000
  outer loop
    vertex -0.064008 -0.115748 0.250000
    vertex -0.064544 -0.115746 -0.250000
    vertex -0.064008 -0.115748 -0.250000
  endloop
endfacet
facet normal -0.000005 -0.000273 0.000000
  outer loop
    vertex -0.064544 -0.115746 0.250000
    vertex -0.065091 -0.115736 0.250000
    vertex -0.065091 -0.115736 -0.250000
  endloop
endfacet
facet normal -0.000005 -0.000273 -0.000000
  outer loop
    vertex -0.064544 -0.115746 0.250000
    vertex -0.065091 -0.115736 -0.250000
    vertex -0.064544 -0.115746 -0.250000
  endloop
endfacet
facet normal -0.000007 -0.000278 0.000000
  outer loop
    vertex -0.065091 -0.115736 0.250000
    vertex -0.065646 -0.115721 0.250000
    vertex -0.065646 -0.115721 -0.250000
  endloop
endfacet
facet normal -0.000007 -0.000278 -0.000000
  outer loop
    vertex -0.065091 -0.115736 0.250000
    vertex -0.065646 -0.115721 -0.250000
    vertex -0.065091 -0.115736 -0.250000
  endloop
endfacet
facet normal -0.000011 -0.000283 0.000000
  outer loop
    vertex -0.065646 -0.115721 0.250000
    vertex -0.066212 -0.115700 0.250000
    vertex -0.066212 -0.115700 -0.250000
  endloop
endfacet
facet normal -0.000011 -0.000283 -0.000000
  outer loop
    vertex -0.065646 -0.115721 0.250000
    vertex -0.066212 -0.115700 -0.250000
    vertex -0.065646 -0.115721 -0.250000
  endloop
endfacet
facet normal -0.000014 -0.000288 0.000000
  outer loop
    vertex -0.066212 -0.115700 0.250000
    vertex -0.066788 -0.115671 0.250000
    vertex -0.066788 -0.115671 -0.250000
  endloop
endfacet
facet normal -0.000014 -0.000288 -0.000000
  outer loop
    vertex -0.066212 -0.115700 0.250000
    vertex -0.066788 -0.115671 -0.250000
    vertex -0.066212 -0.115700 -0.250000
  endloop
endfacet
facet normal -0.000018 -0.000292 0.000000
  outer loop
    vertex -0.066788 -0.115671 0.250000
    vertex -0.067373 -0.115634 0.250000
    vertex -0.067373 -0.115634 -0.250000
  endloop
endfacet
facet normal -0.000018 -0.000292 -0.000000
  outer loop
    vertex -0.066788 -0.115671 0.250000
    vertex -0.067373 -0.115634 -0.250000
    vertex -0.066788 -0.115671 -0.250000
  endloop
endfacet
facet normal -0.000024 -0.000298 0.000000
  outer loop
    vertex -0.067373 -0.115634 0.250000
    vertex -0.067968 -0.115586 0.250000
    vertex -0.067968 -0.115586 -0.250000
  endloop
endfacet
facet normal -0.000024 -0.000298 -0.000000
  outer loop
    vertex -0.067373 -0.115634 0.250000
    vertex -0.067968 -0.115586 -0.250000
    vertex -0.067373 -0.115634 -0.250000
  endloop
endfacet
facet normal -0.000029 -0.000303 0.000000
  outer loop
    vertex -0.067968 -0.115586 0.250000
    vertex -0.068574 -0.115528 0.250000
    vertex -0.068574 -0.115528 -0.250000
  endloop
endfacet
facet normal -0.000029 -0.000303 -0.000000
  outer loop
    vertex -0.067968 -0.115586 0.250000
    vertex -0.068574 -0.115528 -0.250000
    vertex -0.067968 -0.115586 -0.250000
  endloop
endfacet
facet normal -0.000036 -0.000308 0.000000
  outer loop
    vertex -0.068574 -0.115528 0.250000
    vertex -0.069189 -0.115457 0.250000
    vertex -0.069189 -0.115457 -0.250000
  endloop
endfacet
facet normal -0.000036 -0.000308 -0.000000
  outer loop
    vertex -0.068574 -0.115528 0.250000
    vertex -0.069189 -0.115457 -0.250000
    vertex -0.068574 -0.115528 -0.250000
  endloop
endfacet
facet normal -0.000043 -0.000312 0.000000
  outer loop
    vertex -0.069189 -0.115457 0.250000
    vertex -0.069813 -0.115371 0.250000
    vertex -0.069813 -0.115371 -0.250000
  endloop
endfacet
facet normal -0.000043 -0.000312 -0.000000
  outer loop
    vertex -0.069189 -0.115457 0.250000
    vertex -0.069813 -0.115371 -0.250000
    vertex -0.069189 -0.115457 -0.250000
  endloop
endfacet
facet normal -0.000051 -0.000317 0.000000
  outer loop
    vertex -0.069813 -0.115371 0.250000
    vertex -0.070447 -0.115269 0.250000
    vertex -0.070447 -0.115269 -0.250000
  endloop
endfacet
facet normal -0.000051 -0.000317 -0.000000
  outer loop
    vertex -0.069813 -0.115371 0.250000
    vertex -0.070447 -0.115269 -0.250000
    vertex -0.069813 -0.115371 -0.250000
  endloop
endfacet
facet normal -0.000060 -0.000321 0.000000
  outer loop
    vertex -0.070447 -0.115269 0.250000
    vertex -0.071089 -0.115148 0.250000
    vertex -0.071089 -0.115148 -0.250000
  endloop
endfacet
facet normal -0.000060 -0.000321 -0.000000
  outer loop
    vertex -0.070447 -0.115269 0.250000
    vertex -0.071089 -0.115148 -0.250000
    vertex -0.070447 -0.115269 -0.250000
  endloop
endfacet
facet normal -0.000071 -0.000324 0.000000
  outer loop
    vertex -0.071089 -0.115148 0.250000
    vertex -0.071738 -0.115005 0.250000
    vertex -0.071738 -0.115005 -0.250000
  endloop
endfacet
facet normal -0.000071 -0.000324 -0.000000
  outer loop
    vertex -0.071089 -0.115148 0.250000
    vertex -0.071738 -0.115005 -0.250000
    vertex -0.071089 -0.115148 -0.250000
  endloop
endfacet
facet normal -0.000083 -0.000328 0.000000
  outer loop
    vertex -0.071738 -0.115005 0.250000
    vertex -0.072395 -0.114839 0.250000
    vertex -0.072395 -0.114839 -0.250000
  endloop
endfacet
facet normal -0.000083 -0.000328 -0.000000
  outer loop
    vertex -0.071738 -0.115005 0.250000
    vertex -0.072395 -0.114839 -0.250000
    vertex -0.071738 -0.115005 -0.250000
  endloop
endfacet
facet normal -0.000092 -0.000332 0.000000
  outer loop
    vertex -0.072395 -0.114839 0.250000
    vertex -0.073059 -0.114655 0.250000
    vertex -0.073059 -0.114655 -0.250000
  endloop
endfacet
facet normal -0.000092 -0.000332 -0.000000
  outer loop
    vertex -0.072395 -0.114839 0.250000
    vertex -0.073059 -0.114655 -0.250000
    vertex -0.072395 -0.114839 -0.250000
  endloop
endfacet
facet normal -0.000101 -0.000336 0.000000
  outer loop
    vertex -0.073059 -0.114655 0.250000
    vertex -0.073731 -0.114453 0.250000
    vertex -0.073731 -0.114453 -0.250000
  endloop
endfacet
facet normal -0.000101 -0.000336 -0.000000
  outer loop
    vertex -0.073059 -0.114655 0.250000
    vertex -0.073731 -0.114453 -0.250000
    vertex -0.073059 -0.114655 -0.250000
  endloop
endfacet
facet normal -0.000110 -0.000340 0.000000
  outer loop
    vertex -0.073731 -0.114453 0.250000
    vertex -0.074411 -0.114232 0.250000
    vertex -0.074411 -0.114232 -0.250000
  endloop
endfacet
facet normal -0.000110 -0.000340 -0.000000
  outer loop
    vertex -0.073731 -0.114453 0.250000
    vertex -0.074411 -0.114232 -0.250000
    vertex -0.073731 -0.114453 -0.250000
  endloop
endfacet
facet normal -0.000122 -0.000343 0.000000
  outer loop
    vertex -0.074411 -0.114232 0.250000
    vertex -0.075096 -0.113988 0.250000
    vertex -0.075096 -0.113988 -0.250000
  endloop
endfacet
facet normal -0.000122 -0.000343 -0.000000
  outer loop
    vertex -0.074411 -0.114232 0.250000
    vertex -0.075096 -0.113988 -0.250000
    vertex -0.074411 -0.114232 -0.250000
  endloop
endfacet
facet normal -0.000134 -0.000345 0.000000
  outer loop
    vertex -0.075096 -0.113988 0.250000
    vertex -0.075786 -0.113719 0.250000
    vertex -0.075786 -0.113719 -0.250000
  endloop
endfacet
facet normal -0.000134 -0.000345 -0.000000
  outer loop
    vertex -0.075096 -0.113988 0.250000
    vertex -0.075786 -0.113719 -0.250000
    vertex -0.075096 -0.113988 -0.250000
  endloop
endfacet
facet normal -0.000152 -0.000345 0.000000
  outer loop
    vertex -0.075786 -0.113719 0.250000
    vertex -0.076477 -0.113416 0.250000
    vertex -0.076477 -0.113416 -0.250000
  endloop
endfacet
facet normal -0.000152 -0.000345 -0.000000
  outer loop
    vertex -0.075786 -0.113719 0.250000
    vertex -0.076477 -0.113416 -0.250000
    vertex -0.075786 -0.113719 -0.250000
  endloop
endfacet
facet normal -0.000169 -0.000344 0.000000
  outer loop
    vertex -0.076477 -0.113416 0.250000
    vertex -0.077166 -0.113079 0.250000
    vertex -0.077166 -0.113079 -0.250000
  endloop
endfacet
facet normal -0.000169 -0.000344 -0.000000
  outer loop
    vertex -0.076477 -0.113416 0.250000
    vertex -0.077166 -0.113079 -0.250000
    vertex -0.076477 -0.113416 -0.250000
  endloop
endfacet
facet normal -0.000188 -0.000342 0.000000
  outer loop
    vertex -0.077166 -0.113079 0.250000
    vertex -0.077851 -0.112703 0.250000
    vertex -0.077851 -0.112703 -0.250000
  endloop
endfacet
facet normal -0.000188 -0.000342 -0.000000
  outer loop
    vertex -0.077166 -0.113079 0.250000
    vertex -0.077851 -0.112703 -0.250000
    vertex -0.077166 -0.113079 -0.250000
  endloop
endfacet
facet normal -0.000202 -0.000342 0.000000
  outer loop
    vertex -0.077851 -0.112703 0.250000
    vertex -0.078536 -0.112299 0.250000
    vertex -0.078536 -0.112299 -0.250000
  endloop
endfacet
facet normal -0.000202 -0.000342 -0.000000
  outer loop
    vertex -0.077851 -0.112703 0.250000
    vertex -0.078536 -0.112299 -0.250000
    vertex -0.077851 -0.112703 -0.250000
  endloop
endfacet
facet normal -0.000217 -0.000343 0.000000
  outer loop
    vertex -0.078536 -0.112299 0.250000
    vertex -0.079222 -0.111866 0.250000
    vertex -0.079222 -0.111866 -0.250000
  endloop
endfacet
facet normal -0.000217 -0.000343 -0.000000
  outer loop
    vertex -0.078536 -0.112299 0.250000
    vertex -0.079222 -0.111866 -0.250000
    vertex -0.078536 -0.112299 -0.250000
  endloop
endfacet
facet normal -0.000235 -0.000338 0.000000
  outer loop
    vertex -0.079222 -0.111866 0.250000
    vertex -0.079899 -0.111396 0.250000
    vertex -0.079899 -0.111396 -0.250000
  endloop
endfacet
facet normal -0.000235 -0.000338 -0.000000
  outer loop
    vertex -0.079222 -0.111866 0.250000
    vertex -0.079899 -0.111396 -0.250000
    vertex -0.079222 -0.111866 -0.250000
  endloop
endfacet
facet normal -0.000258 -0.000331 0.000000
  outer loop
    vertex -0.079899 -0.111396 0.250000
    vertex -0.080560 -0.110880 0.250000
    vertex -0.080560 -0.110880 -0.250000
  endloop
endfacet
facet normal -0.000258 -0.000331 -0.000000
  outer loop
    vertex -0.079899 -0.111396 0.250000
    vertex -0.080560 -0.110880 -0.250000
    vertex -0.079899 -0.111396 -0.250000
  endloop
endfacet
facet normal -0.000285 -0.000319 0.000000
  outer loop
    vertex -0.080560 -0.110880 0.250000
    vertex -0.081198 -0.110310 0.250000
    vertex -0.081198 -0.110310 -0.250000
  endloop
endfacet
facet normal -0.000285 -0.000319 -0.000000
  outer loop
    vertex -0.080560 -0.110880 0.250000
    vertex -0.081198 -0.110310 -0.250000
    vertex -0.080560 -0.110880 -0.250000
  endloop
endfacet
facet normal -0.000309 -0.000307 0.000000
  outer loop
    vertex -0.081198 -0.110310 0.250000
    vertex -0.081811 -0.109693 0.250000
    vertex -0.081811 -0.109693 -0.250000
  endloop
endfacet
facet normal -0.000309 -0.000307 -0.000000
  outer loop
    vertex -0.081198 -0.110310 0.250000
    vertex -0.081811 -0.109693 -0.250000
    vertex -0.081198 -0.110310 -0.250000
  endloop
endfacet
facet normal -0.000330 -0.000295 0.000000
  outer loop
    vertex -0.081811 -0.109693 0.250000
    vertex -0.082402 -0.109033 0.250000
    vertex -0.082402 -0.109033 -0.250000
  endloop
endfacet
facet normal -0.000330 -0.000295 -0.000000
  outer loop
    vertex -0.081811 -0.109693 0.250000
    vertex -0.082402 -0.109033 -0.250000
    vertex -0.081811 -0.109693 -0.250000
  endloop
endfacet
facet normal -0.000357 -0.000275 0.000000
  outer loop
    vertex -0.082402 -0.109033 0.250000
    vertex -0.082952 -0.108319 0.250000
    vertex -0.082952 -0.108319 -0.250000
  endloop
endfacet
facet normal -0.000357 -0.000275 -0.000000
  outer loop
    vertex -0.082402 -0.109033 0.250000
    vertex -0.082952 -0.108319 -0.250000
    vertex -0.082402 -0.109033 -0.250000
  endloop
endfacet
facet normal -0.000386 -0.000248 0.000000
  outer loop
    vertex -0.082952 -0.108319 0.250000
    vertex -0.083448 -0.107546 0.250000
    vertex -0.083448 -0.107546 -0.250000
  endloop
endfacet
facet normal -0.000386 -0.000248 -0.000000
  outer loop
    vertex -0.082952 -0.108319 0.250000
    vertex -0.083448 -0.107546 -0.250000
    vertex -0.082952 -0.108319 -0.250000
  endloop
endfacet
facet normal -0.000411 -0.000223 0.000000
  outer loop
    vertex -0.083448 -0.107546 0.250000
    vertex -0.083893 -0.106724 0.250000
    vertex -0.083893 -0.106724 -0.250000
  endloop
endfacet
facet normal -0.000411 -0.000223 -0.000000
  outer loop
    vertex -0.083448 -0.107546 0.250000
    vertex -0.083893 -0.106724 -0.250000
    vertex -0.083448 -0.107546 -0.250000
  endloop
endfacet
facet normal -0.000433 -0.000198 0.000000
  outer loop
    vertex -0.083893 -0.106724 0.250000
    vertex -0.084289 -0.105859 0.250000
    vertex -0.084289 -0.105859 -0.250000
  endloop
endfacet
facet normal -0.000433 -0.000198 -0.000000
  outer loop
    vertex -0.083893 -0.106724 0.250000
    vertex -0.084289 -0.105859 -0.250000
    vertex -0.083893 -0.106724 -0.250000
  endloop
endfacet
facet normal -0.000452 -0.000174 0.000000
  outer loop
    vertex -0.084289 -0.105859 0.250000
    vertex -0.084636 -0.104954 0.250000
    vertex -0.084636 -0.104954 -0.250000
  endloop
endfacet
facet normal -0.000452 -0.000174 -0.000000
  outer loop
    vertex -0.084289 -0.105859 0.250000
    vertex -0.084636 -0.104954 -0.250000
    vertex -0.084289 -0.105859 -0.250000
  endloop
endfacet
facet normal -0.000471 -0.000146 0.000000
  outer loop
    vertex -0.084636 -0.104954 0.250000
    vertex -0.084929 -0.104012 0.250000
    vertex -0.084929 -0.104012 -0.250000
  endloop
endfacet
facet normal -0.000471 -0.000146 -0.000000
  outer loop
    vertex -0.084636 -0.104954 0.250000
    vertex -0.084929 -0.104012 -0.250000
    vertex -0.084636 -0.104954 -0.250000
  endloop
endfacet
facet normal -0.000491 -0.000105 0.000000
  outer loop
    vertex -0.084929 -0.104012 0.250000
    vertex -0.085138 -0.103030 0.250000
    vertex -0.085138 -0.103030 -0.250000
  endloop
endfacet
facet normal -0.000491 -0.000105 -0.000000
  outer loop
    vertex -0.084929 -0.104012 0.250000
    vertex -0.085138 -0.103030 -0.250000
    vertex -0.084929 -0.104012 -0.250000
  endloop
endfacet
facet normal -0.000498 -0.000068 0.000000
  outer loop
    vertex -0.085138 -0.103030 0.250000
    vertex -0.085274 -0.102035 0.250000
    vertex -0.085274 -0.102035 -0.250000
  endloop
endfacet
facet normal -0.000498 -0.000068 -0.000000
  outer loop
    vertex -0.085138 -0.103030 0.250000
    vertex -0.085274 -0.102035 -0.250000
    vertex -0.085138 -0.103030 -0.250000
  endloop
endfacet
facet normal -0.000564 -0.000045 0.000000
  outer loop
    vertex -0.085274 -0.102035 0.250000
    vertex -0.085365 -0.100907 0.250000
    vertex -0.085365 -0.100907 -0.250000
  endloop
endfacet
facet normal -0.000564 -0.000045 -0.000000
  outer loop
    vertex -0.085274 -0.102035 0.250000
    vertex -0.085365 -0.100907 -0.250000
    vertex -0.085274 -0.102035 -0.250000
  endloop
endfacet
facet normal -0.000638 -0.000009 0.000000
  outer loop
    vertex -0.085365 -0.100907 0.250000
    vertex -0.085382 -0.099631 0.250000
    vertex -0.085382 -0.099631 -0.250000
  endloop
endfacet
facet normal -0.000638 -0.000009 -0.000000
  outer loop
    vertex -0.085365 -0.100907 0.250000
    vertex -0.085382 -0.099631 -0.250000
    vertex -0.085365 -0.100907 -0.250000
  endloop
endfacet
facet normal -0.000588 0.000034 0.000000
  outer loop
    vertex -0.085382 -0.099631 0.250000
    vertex -0.085315 -0.098455 0.250000
    vertex -0.085315 -0.098455 -0.250000
  endloop
endfacet
facet normal -0.000588 0.000034 0.000000
  outer loop
    vertex -0.085382 -0.099631 0.250000
    vertex -0.085315 -0.098455 -0.250000
    vertex -0.085382 -0.099631 -0.250000
  endloop
endfacet
facet normal -0.000540 0.000064 0.000000
  outer loop
    vertex -0.085315 -0.098455 0.250000
    vertex -0.085186 -0.097375 0.250000
    vertex -0.085186 -0.097375 -0.250000
  endloop
endfacet
facet normal -0.000540 0.000064 0.000000
  outer loop
    vertex -0.085315 -0.098455 0.250000
    vertex -0.085186 -0.097375 -0.250000
    vertex -0.085315 -0.098455 -0.250000
  endloop
endfacet
facet normal -0.000496 0.000083 0.000000
  outer loop
    vertex -0.085186 -0.097375 0.250000
    vertex -0.085020 -0.096384 0.250000
    vertex -0.085020 -0.096384 -0.250000
  endloop
endfacet
facet normal -0.000496 0.000083 0.000000
  outer loop
    vertex -0.085186 -0.097375 0.250000
    vertex -0.085020 -0.096384 -0.250000
    vertex -0.085186 -0.097375 -0.250000
  endloop
endfacet
facet normal -0.000490 0.000109 0.000000
  outer loop
    vertex -0.085020 -0.096384 0.250000
    vertex -0.084802 -0.095403 0.250000
    vertex -0.084802 -0.095403 -0.250000
  endloop
endfacet
facet normal -0.000490 0.000109 0.000000
  outer loop
    vertex -0.085020 -0.096384 0.250000
    vertex -0.084802 -0.095403 -0.250000
    vertex -0.085020 -0.096384 -0.250000
  endloop
endfacet
facet normal -0.000524 0.000141 0.000000
  outer loop
    vertex -0.084802 -0.095403 0.250000
    vertex -0.084520 -0.094356 0.250000
    vertex -0.084520 -0.094356 -0.250000
  endloop
endfacet
facet normal -0.000524 0.000141 0.000000
  outer loop
    vertex -0.084802 -0.095403 0.250000
    vertex -0.084520 -0.094356 -0.250000
    vertex -0.084802 -0.095403 -0.250000
  endloop
endfacet
facet normal -0.000560 0.000173 0.000000
  outer loop
    vertex -0.084520 -0.094356 0.250000
    vertex -0.084173 -0.093236 0.250000
    vertex -0.084173 -0.093236 -0.250000
  endloop
endfacet
facet normal -0.000560 0.000173 0.000000
  outer loop
    vertex -0.084520 -0.094356 0.250000
    vertex -0.084173 -0.093236 -0.250000
    vertex -0.084520 -0.094356 -0.250000
  endloop
endfacet
facet normal -0.000598 0.000211 0.000000
  outer loop
    vertex -0.084173 -0.093236 0.250000
    vertex -0.083752 -0.092040 0.250000
    vertex -0.083752 -0.092040 -0.250000
  endloop
endfacet
facet normal -0.000598 0.000211 0.000000
  outer loop
    vertex -0.084173 -0.093236 0.250000
    vertex -0.083752 -0.092040 -0.250000
    vertex -0.084173 -0.093236 -0.250000
  endloop
endfacet
facet normal -0.000636 0.000253 0.000000
  outer loop
    vertex -0.083752 -0.092040 0.250000
    vertex -0.083245 -0.090768 0.250000
    vertex -0.083245 -0.090768 -0.250000
  endloop
endfacet
facet normal -0.000636 0.000253 0.000000
  outer loop
    vertex -0.083752 -0.092040 0.250000
    vertex -0.083245 -0.090768 -0.250000
    vertex -0.083752 -0.092040 -0.250000
  endloop
endfacet
facet normal -0.000679 0.000296 0.000000
  outer loop
    vertex -0.083245 -0.090768 0.250000
    vertex -0.082653 -0.089411 0.250000
    vertex -0.082653 -0.089411 -0.250000
  endloop
endfacet
facet normal -0.000679 0.000296 0.000000
  outer loop
    vertex -0.083245 -0.090768 0.250000
    vertex -0.082653 -0.089411 -0.250000
    vertex -0.083245 -0.090768 -0.250000
  endloop
endfacet
facet normal -0.000723 0.000342 0.000000
  outer loop
    vertex -0.082653 -0.089411 0.250000
    vertex -0.081969 -0.087965 0.250000
    vertex -0.081969 -0.087965 -0.250000
  endloop
endfacet
facet normal -0.000723 0.000342 0.000000
  outer loop
    vertex -0.082653 -0.089411 0.250000
    vertex -0.081969 -0.087965 -0.250000
    vertex -0.082653 -0.089411 -0.250000
  endloop
endfacet
facet normal -0.000766 0.000399 0.000000
  outer loop
    vertex -0.081969 -0.087965 0.250000
    vertex -0.081171 -0.086432 0.250000
    vertex -0.081171 -0.086432 -0.250000
  endloop
endfacet
facet normal -0.000766 0.000399 0.000000
  outer loop
    vertex -0.081969 -0.087965 0.250000
    vertex -0.081171 -0.086432 -0.250000
    vertex -0.081969 -0.087965 -0.250000
  endloop
endfacet
facet normal -0.000813 0.000461 0.000000
  outer loop
    vertex -0.081171 -0.086432 0.250000
    vertex -0.080249 -0.084807 0.250000
    vertex -0.080249 -0.084807 -0.250000
  endloop
endfacet
facet normal -0.000813 0.000461 0.000000
  outer loop
    vertex -0.081171 -0.086432 0.250000
    vertex -0.080249 -0.084807 -0.250000
    vertex -0.081171 -0.086432 -0.250000
  endloop
endfacet
facet normal -0.000861 0.000526 0.000000
  outer loop
    vertex -0.080249 -0.084807 0.250000
    vertex -0.079196 -0.083084 0.250000
    vertex -0.079196 -0.083084 -0.250000
  endloop
endfacet
facet normal -0.000861 0.000526 0.000000
  outer loop
    vertex -0.080249 -0.084807 0.250000
    vertex -0.079196 -0.083084 -0.250000
    vertex -0.080249 -0.084807 -0.250000
  endloop
endfacet
facet normal -0.000914 0.000595 0.000000
  outer loop
    vertex -0.079196 -0.083084 0.250000
    vertex -0.078005 -0.081257 0.250000
    vertex -0.078005 -0.081257 -0.250000
  endloop
endfacet
facet normal -0.000914 0.000595 0.000000
  outer loop
    vertex -0.079196 -0.083084 0.250000
    vertex -0.078005 -0.081257 -0.250000
    vertex -0.079196 -0.083084 -0.250000
  endloop
endfacet
facet normal -0.000972 0.000667 0.000000
  outer loop
    vertex -0.078005 -0.081257 0.250000
    vertex -0.076671 -0.079313 0.250000
    vertex -0.076671 -0.079313 -0.250000
  endloop
endfacet
facet normal -0.000972 0.000667 0.000000
  outer loop
    vertex -0.078005 -0.081257 0.250000
    vertex -0.076671 -0.079313 -0.250000
    vertex -0.078005 -0.081257 -0.250000
  endloop
endfacet
facet normal -0.001036 0.000742 0.000000
  outer loop
    vertex -0.076671 -0.079313 0.250000
    vertex -0.075186 -0.077242 0.250000
    vertex -0.075186 -0.077242 -0.250000
  endloop
endfacet
facet normal -0.001036 0.000742 0.000000
  outer loop
    vertex -0.076671 -0.079313 0.250000
    vertex -0.075186 -0.077242 -0.250000
    vertex -0.076671 -0.079313 -0.250000
  endloop
endfacet
facet normal -0.001094 0.000836 0.000000
  outer loop
    vertex -0.075186 -0.077242 0.250000
    vertex -0.073513 -0.075054 0.250000
    vertex -0.073513 -0.075054 -0.250000
  endloop
endfacet
facet normal -0.001094 0.000836 0.000000
  outer loop
    vertex -0.075186 -0.077242 0.250000
    vertex -0.073513 -0.075054 -0.250000
    vertex -0.075186 -0.077242 -0.250000
  endloop
endfacet
facet normal -0.001154 0.000938 0.000000
  outer loop
    vertex -0.073513 -0.075054 0.250000
    vertex -0.071637 -0.072745 0.250000
    vertex -0.071637 -0.072745 -0.250000
  endloop
endfacet
facet normal -0.001154 0.000938 0.000000
  outer loop
    vertex -0.073513 -0.075054 0.250000
    vertex -0.071637 -0.072745 -0.250000
    vertex -0.073513 -0.075054 -0.250000
  endloop
endfacet
facet normal -0.001222 0.001046 0.000000
  outer loop
    vertex -0.071637 -0.072745 0.250000
    vertex -0.069545 -0.070302 0.250000
    vertex -0.069545 -0.070302 -0.250000
  endloop
endfacet
facet normal -0.001222 0.001046 0.000000
  outer loop
    vertex -0.071637 -0.072745 0.250000
    vertex -0.069545 -0.070302 -0.250000
    vertex -0.071637 -0.072745 -0.250000
  endloop
endfacet
facet normal -0.001295 0.001158 0.000000
  outer loop
    vertex -0.069545 -0.070302 0.250000
    vertex -0.067229 -0.067711 0.250000
    vertex -0.067229 -0.067711 -0.250000
  endloop
endfacet
facet normal -0.001295 0.001158 0.000000
  outer loop
    vertex -0.069545 -0.070302 0.250000
    vertex -0.067229 -0.067711 -0.250000
    vertex -0.069545 -0.070302 -0.250000
  endloop
endfacet
facet normal -0.001380 0.001274 0.000000
  outer loop
    vertex -0.067229 -0.067711 0.250000
    vertex -0.064681 -0.064951 0.250000
    vertex -0.064681 -0.064951 -0.250000
  endloop
endfacet
facet normal -0.001380 0.001274 0.000000
  outer loop
    vertex -0.067229 -0.067711 0.250000
    vertex -0.064681 -0.064951 -0.250000
    vertex -0.067229 -0.067711 -0.250000
  endloop
endfacet
facet normal -0.001472 0.001397 0.000000
  outer loop
    vertex -0.064681 -0.064951 0.250000
    vertex -0.061886 -0.062007 0.250000
    vertex -0.061886 -0.062007 -0.250000
  endloop
endfacet
facet normal -0.001472 0.001397 0.000000
  outer loop
    vertex -0.064681 -0.064951 0.250000
    vertex -0.061886 -0.062007 -0.250000
    vertex -0.064681 -0.064951 -0.250000
  endloop
endfacet
facet normal -0.001556 0.001546 0.000000
  outer loop
    vertex -0.061886 -0.062007 0.250000
    vertex -0.058795 -0.058895 0.250000
    vertex -0.058795 -0.058895 -0.250000
  endloop
endfacet
facet normal -0.001556 0.001546 0.000000
  outer loop
    vertex -0.061886 -0.062007 0.250000
    vertex -0.058795 -0.058895 -0.250000
    vertex -0.061886 -0.062007 -0.250000
  endloop
endfacet
facet normal -0.001649 0.001703 0.000000
  outer loop
    vertex -0.058795 -0.058895 0.250000
    vertex -0.055389 -0.055597 0.250000
    vertex -0.055389 -0.055597 -0.250000
  endloop
endfacet
facet normal -0.001649 0.001703 0.000000
  outer loop
    vertex -0.058795 -0.058895 0.250000
    vertex -0.055389 -0.055597 -0.250000
    vertex -0.058795 -0.058895 -0.250000
  endloop
endfacet
facet normal -0.001751 0.001869 0.000000
  outer loop
    vertex -0.055389 -0.055597 0.250000
    vertex -0.051650 -0.052095 0.250000
    vertex -0.051650 -0.052095 -0.250000
  endloop
endfacet
facet normal -0.001751 0.001869 0.000000
  outer loop
    vertex -0.055389 -0.055597 0.250000
    vertex -0.051650 -0.052095 -0.250000
    vertex -0.055389 -0.055597 -0.250000
  endloop
endfacet
facet normal -0.001868 0.002043 0.000000
  outer loop
    vertex -0.051650 -0.052095 0.250000
    vertex -0.047564 -0.048359 0.250000
    vertex -0.047564 -0.048359 -0.250000
  endloop
endfacet
facet normal -0.001868 0.002043 0.000000
  outer loop
    vertex -0.051650 -0.052095 0.250000
    vertex -0.047564 -0.048359 -0.250000
    vertex -0.051650 -0.052095 -0.250000
  endloop
endfacet
facet normal -0.002000 0.002225 0.000000
  outer loop
    vertex -0.047564 -0.048359 0.250000
    vertex -0.043114 -0.044359 0.250000
    vertex -0.043114 -0.044359 -0.250000
  endloop
endfacet
facet normal -0.002000 0.002225 0.000000
  outer loop
    vertex -0.047564 -0.048359 0.250000
    vertex -0.043114 -0.044359 -0.250000
    vertex -0.047564 -0.048359 -0.250000
  endloop
endfacet
facet normal -0.002128 0.002433 0.000000
  outer loop
    vertex -0.043114 -0.044359 0.250000
    vertex -0.038247 -0.040102 0.250000
    vertex -0.038247 -0.040102 -0.250000
  endloop
endfacet
facet normal -0.002128 0.002433 0.000000
  outer loop
    vertex -0.043114 -0.044359 0.250000
    vertex -0.038247 -0.040102 -0.250000
    vertex -0.043114 -0.044359 -0.250000
  endloop
endfacet
facet normal -0.002265 0.002660 0.000000
  outer loop
    vertex -0.038247 -0.040102 0.250000
    vertex -0.032926 -0.035572 0.250000
    vertex -0.032926 -0.035572 -0.250000
  endloop
endfacet
facet normal -0.002265 0.002660 0.000000
  outer loop
    vertex -0.038247 -0.040102 0.250000
    vertex -0.032926 -0.035572 -0.250000
    vertex -0.038247 -0.040102 -0.250000
  endloop
endfacet
facet normal -0.002037 0.002443 0.000000
  outer loop
    vertex -0.032926 -0.035572 0.250000
    vertex -0.028041 -0.031499 0.250000
    vertex -0.028041 -0.031499 -0.250000
  endloop
endfacet
facet normal -0.002037 0.002443 0.000000
  outer loop
    vertex -0.032926 -0.035572 0.250000
    vertex -0.028041 -0.031499 -0.250000
    vertex -0.032926 -0.035572 -0.250000
  endloop
endfacet
facet normal -0.001838 0.002236 0.000000
  outer loop
    vertex -0.028041 -0.031499 0.250000
    vertex -0.023568 -0.027823 0.250000
    vertex -0.023568 -0.027823 -0.250000
  endloop
endfacet
facet normal -0.001838 0.002236 0.000000
  outer loop
    vertex -0.028041 -0.031499 0.250000
    vertex -0.023568 -0.027823 -0.250000
    vertex -0.028041 -0.031499 -0.250000
  endloop
endfacet
facet normal -0.001662 0.002045 0.000000
  outer loop
    vertex -0.023568 -0.027823 0.250000
    vertex -0.019479 -0.024498 0.250000
    vertex -0.019479 -0.024498 -0.250000
  endloop
endfacet
facet normal -0.001662 0.002045 0.000000
  outer loop
    vertex -0.023568 -0.027823 0.250000
    vertex -0.019479 -0.024498 -0.250000
    vertex -0.023568 -0.027823 -0.250000
  endloop
endfacet
facet normal -0.001501 0.001871 0.000000
  outer loop
    vertex -0.019479 -0.024498 0.250000
    vertex -0.015736 -0.021497 0.250000
    vertex -0.015736 -0.021497 -0.250000
  endloop
endfacet
facet normal -0.001501 0.001871 0.000000
  outer loop
    vertex -0.019479 -0.024498 0.250000
    vertex -0.015736 -0.021497 -0.250000
    vertex -0.019479 -0.024498 -0.250000
  endloop
endfacet
facet normal -0.001356 0.001711 0.000000
  outer loop
    vertex -0.015736 -0.021497 0.250000
    vertex -0.012314 -0.018785 0.250000
    vertex -0.012314 -0.018785 -0.250000
  endloop
endfacet
facet normal -0.001356 0.001711 0.000000
  outer loop
    vertex -0.015736 -0.021497 0.250000
    vertex -0.012314 -0.018785 -0.250000
    vertex -0.015736 -0.021497 -0.250000
  endloop
endfacet
facet normal -0.001227 0.001563 0.000000
  outer loop
    vertex -0.012314 -0.018785 0.250000
    vertex -0.009188 -0.016330 0.250000
    vertex -0.009188 -0.016330 -0.250000
  endloop
endfacet
facet normal -0.001227 0.001563 0.000000
  outer loop
    vertex -0.012314 -0.018785 0.250000
    vertex -0.009188 -0.016330 -0.250000
    vertex -0.012314 -0.018785 -0.250000
  endloop
endfacet
facet normal -0.001113 0.001426 0.000000
  outer loop
    vertex -0.009188 -0.016330 0.250000
    vertex -0.006336 -0.014104 0.250000
    vertex -0.006336 -0.014104 -0.250000
  endloop
endfacet
facet normal -0.001113 0.001426 0.000000
  outer loop
    vertex -0.009188 -0.016330 0.250000
    vertex -0.006336 -0.014104 -0.250000
    vertex -0.009188 -0.016330 -0.250000
  endloop
endfacet
facet normal -0.001009 0.001300 0.000000
  outer loop
    vertex -0.006336 -0.014104 0.250000
    vertex -0.003735 -0.012086 0.250000
    vertex -0.003735 -0.012086 -0.250000
  endloop
endfacet
facet normal -0.001009 0.001300 0.000000
  outer loop
    vertex -0.006336 -0.014104 0.250000
    vertex -0.003735 -0.012086 -0.250000
    vertex -0.006336 -0.014104 -0.250000
  endloop
endfacet
facet normal -0.000917 0.001186 0.000000
  outer loop
    vertex -0.003735 -0.012086 0.250000
    vertex -0.001363 -0.010252 0.250000
    vertex -0.001363 -0.010252 -0.250000
  endloop
endfacet
facet normal -0.000917 0.001186 0.000000
  outer loop
    vertex -0.003735 -0.012086 0.250000
    vertex -0.001363 -0.010252 -0.250000
    vertex -0.003735 -0.012086 -0.250000
  endloop
endfacet
facet normal -0.000833 0.001080 0.000000
  outer loop
    vertex -0.001363 -0.010252 0.250000
    vertex 0.000798 -0.008586 0.250000
    vertex 0.000798 -0.008586 -0.250000
  endloop
endfacet
facet normal -0.000833 0.001080 0.000000
  outer loop
    vertex -0.001363 -0.010252 0.250000
    vertex 0.000798 -0.008586 -0.250000
    vertex -0.001363 -0.010252 -0.250000
  endloop
endfacet
facet normal -0.000756 0.000985 0.000000
  outer loop
    vertex 0.000798 -0.008586 0.250000
    vertex 0.002768 -0.007074 0.250000
    vertex 0.002768 -0.007074 -0.250000
  endloop
endfacet
facet normal -0.000756 0.000985 0.000000
  outer loop
    vertex 0.000798 -0.008586 0.250000
    vertex 0.002768 -0.007074 -0.250000
    vertex 0.000798 -0.008586 -0.250000
  endloop
endfacet
facet normal -0.000686 0.000899 0.000000
  outer loop
    vertex 0.002768 -0.007074 0.250000
    vertex 0.004565 -0.005702 0.250000
    vertex 0.004565 -0.005702 -0.250000
  endloop
endfacet
facet normal -0.000686 0.000899 0.000000
  outer loop
    vertex 0.002768 -0.007074 0.250000
    vertex 0.004565 -0.005702 -0.250000
    vertex 0.002768 -0.007074 -0.250000
  endloop
endfacet
facet normal -0.000622 0.000819 0.000000
  outer loop
    vertex 0.004565 -0.005702 0.250000
    vertex 0.006203 -0.004457 0.250000
    vertex 0.006203 -0.004457 -0.250000
  endloop
endfacet
facet normal -0.000622 0.000819 0.000000
  outer loop
    vertex 0.004565 -0.005702 0.250000
    vertex 0.006203 -0.004457 -0.250000
    vertex 0.004565 -0.005702 -0.250000
  endloop
endfacet
facet normal -0.000567 0.000746 0.000000
  outer loop
    vertex 0.006203 -0.004457 0.250000
    vertex 0.007695 -0.003324 0.250000
    vertex 0.007695 -0.003324 -0.250000
  endloop
endfacet
facet normal -0.000567 0.000746 0.000000
  outer loop
    vertex 0.006203 -0.004457 0.250000
    vertex 0.007695 -0.003324 -0.250000
    vertex 0.006203 -0.004457 -0.250000
  endloop
endfacet
facet normal -0.000514 0.000679 0.000000
  outer loop
    vertex 0.007695 -0.003324 0.250000
    vertex 0.009054 -0.002295 0.250000
    vertex 0.009054 -0.002295 -0.250000
  endloop
endfacet
facet normal -0.000514 0.000679 0.000000
  outer loop
    vertex 0.007695 -0.003324 0.250000
    vertex 0.009054 -0.002295 -0.250000
    vertex 0.007695 -0.003324 -0.250000
  endloop
endfacet
facet normal -0.000469 0.000619 0.000000
  outer loop
    vertex 0.009054 -0.002295 0.250000
    vertex 0.010292 -0.001358 0.250000
    vertex 0.010292 -0.001358 -0.250000
  endloop
endfacet
facet normal -0.000469 0.000619 0.000000
  outer loop
    vertex 0.009054 -0.002295 0.250000
    vertex 0.010292 -0.001358 -0.250000
    vertex 0.009054 -0.002295 -0.250000
  endloop
endfacet
facet normal -0.000426 0.000563 0.000000
  outer loop
    vertex 0.010292 -0.001358 0.250000
    vertex 0.011418 -0.000506 0.250000
    vertex 0.011418 -0.000506 -0.250000
  endloop
endfacet
facet normal -0.000426 0.000563 0.000000
  outer loop
    vertex 0.010292 -0.001358 0.250000
    vertex 0.011418 -0.000506 -0.250000
    vertex 0.010292 -0.001358 -0.250000
  endloop
endfacet
facet normal -0.000388 0.000513 0.000000
  outer loop
    vertex 0.011418 -0.000506 0.250000
    vertex 0.012443 0.000271 0.250000
    vertex 0.012443 0.000271 -0.250000
  endloop
endfacet
facet normal -0.000388 0.000513 0.000000
  outer loop
    vertex 0.011418 -0.000506 0.250000
    vertex 0.012443 0.000271 -0.250000
    vertex 0.011418 -0.000506 -0.250000
  endloop
endfacet
facet normal -0.000354 0.000466 0.000000
  outer loop
    vertex 0.012443 0.000271 0.250000
    vertex 0.013376 0.000978 0.250000
    vertex 0.013376 0.000978 -0.250000
  endloop
endfacet
facet normal -0.000354 0.000466 0.000000
  outer loop
    vertex 0.012443 0.000271 0.250000
    vertex 0.013376 0.000978 -0.250000
    vertex 0.012443 0.000271 -0.250000
  endloop
endfacet
facet normal -0.000322 0.000424 0.000000
  outer loop
    vertex 0.013376 0.000978 0.250000
    vertex 0.014224 0.001622 0.250000
    vertex 0.014224 0.001622 -0.250000
  endloop
endfacet
facet normal -0.000322 0.000424 0.000000
  outer loop
    vertex 0.013376 0.000978 0.250000
    vertex 0.014224 0.001622 -0.250000
    vertex 0.013376 0.000978 -0.250000
  endloop
endfacet
facet normal -0.000294 0.000386 0.000000
  outer loop
    vertex 0.014224 0.001622 0.250000
    vertex 0.014996 0.002209 0.250000
    vertex 0.014996 0.002209 -0.250000
  endloop
endfacet
facet normal -0.000294 0.000386 0.000000
  outer loop
    vertex 0.014224 0.001622 0.250000
    vertex 0.014996 0.002209 -0.250000
    vertex 0.014224 0.001622 -0.250000
  endloop
endfacet
facet normal -0.000267 0.000351 0.000000
  outer loop
    vertex 0.014996 0.002209 0.250000
    vertex 0.015699 0.002743 0.250000
    vertex 0.015699 0.002743 -0.250000
  endloop
endfacet
facet normal -0.000267 0.000351 0.000000
  outer loop
    vertex 0.014996 0.002209 0.250000
    vertex 0.015699 0.002743 -0.250000
    vertex 0.014996 0.002209 -0.250000
  endloop
endfacet
facet normal -0.000243 0.000320 0.000000
  outer loop
    vertex 0.015699 0.002743 0.250000
    vertex 0.016339 0.003229 0.250000
    vertex 0.016339 0.003229 -0.250000
  endloop
endfacet
facet normal -0.000243 0.000320 0.000000
  outer loop
    vertex 0.015699 0.002743 0.250000
    vertex 0.016339 0.003229 -0.250000
    vertex 0.015699 0.002743 -0.250000
  endloop
endfacet
facet normal -0.000221 0.000291 0.000000
  outer loop
    vertex 0.016339 0.003229 0.250000
    vertex 0.016921 0.003671 0.250000
    vertex 0.016921 0.003671 -0.250000
  endloop
endfacet
facet normal -0.000221 0.000291 0.000000
  outer loop
    vertex 0.016339 0.003229 0.250000
    vertex 0.016921 0.003671 -0.250000
    vertex 0.016339 0.003229 -0.250000
  endloop
endfacet
facet normal -0.000201 0.000265 0.000000
  outer loop
    vertex 0.016921 0.003671 0.250000
    vertex 0.017451 0.004074 0.250000
    vertex 0.017451 0.004074 -0.250000
  endloop
endfacet
facet normal -0.000201 0.000265 0.000000
  outer loop
    vertex 0.016921 0.003671 0.250000
    vertex 0.017451 0.004074 -0.250000
    vertex 0.016921 0.003671 -0.250000
  endloop
endfacet
facet normal -0.000184 0.000241 0.000000
  outer loop
    vertex 0.017451 0.004074 0.250000
    vertex 0.017933 0.004441 0.250000
    vertex 0.017933 0.004441 -0.250000
  endloop
endfacet
facet normal -0.000184 0.000241 0.000000
  outer loop
    vertex 0.017451 0.004074 0.250000
    vertex 0.017933 0.004441 -0.250000
    vertex 0.017451 0.004074 -0.250000
  endloop
endfacet
facet normal -0.000167 0.000219 0.000000
  outer loop
    vertex 0.017933 0.004441 0.250000
    vertex 0.018372 0.004775 0.250000
    vertex 0.018372 0.004775 -0.250000
  endloop
endfacet
facet normal -0.000167 0.000219 0.000000
  outer loop
    vertex 0.017933 0.004441 0.250000
    vertex 0.018372 0.004775 -0.250000
    vertex 0.017933 0.004441 -0.250000
  endloop
endfacet
facet normal -0.000152 0.000200 0.000000
  outer loop
    vertex 0.018372 0.004775 0.250000
    vertex 0.018772 0.005079 0.250000
    vertex 0.018772 0.005079 -0.250000
  endloop
endfacet
facet normal -0.000152 0.000200 0.000000
  outer loop
    vertex 0.018372 0.004775 0.250000
    vertex 0.018772 0.005079 -0.250000
    vertex 0.018372 0.004775 -0.250000
  endloop
endfacet
endsolid slat.stl
